<?xml version="1.0" encoding="UTF-8" standalone="no"?><!DOCTYPE svg PUBLIC "-//W3C//DTD SVG 1.1//EN" "http://www.w3.org/Graphics/SVG/1.1/DTD/svg11.dtd"><svg width="100%" height="100%" viewBox="0 0 191 111" version="1.1" xmlns="http://www.w3.org/2000/svg" xmlns:xlink="http://www.w3.org/1999/xlink" xml:space="preserve" xmlns:serif="http://www.serif.com/" style="fill-rule:evenodd;clip-rule:evenodd;stroke-linecap:round;stroke-linejoin:round;stroke-miterlimit:1.5;"><rect id="Bat" x="0.344" y="0.891" width="190" height="110" style="fill:none;"/><g><path id="Tail-Thing" serif:id="Tail Thing" d="M77.699,78.597c-1.403,10.096 2.262,19.442 9.696,28.229c1.562,-3.047 3.573,-4.922 5.646,-6.259c2.325,-1.5 4.155,-4.538 4.541,-7.364c0.733,-5.363 1.84,-8.858 3.56,-12.888l-23.443,-1.718Z" style="fill:none;stroke:#000;stroke-width:2px;"/><path d="M77.699,78.597c-1.403,10.096 2.262,19.442 9.696,28.229c1.562,-3.047 3.573,-4.922 5.646,-6.259c2.325,-1.5 4.155,-4.538 4.541,-7.364c0.733,-5.363 1.84,-8.858 3.56,-12.888l-23.443,-1.718Z" style="fill:#82705c;"/><clipPath id="_clip1"><path d="M77.699,78.597c-1.403,10.096 2.262,19.442 9.696,28.229c1.562,-3.047 3.573,-4.922 5.646,-6.259c2.325,-1.5 4.155,-4.538 4.541,-7.364c0.733,-5.363 1.84,-8.858 3.56,-12.888l-23.443,-1.718Z"/></clipPath><g clip-path="url(#_clip1)"><path d="M77.106,81.401c4.037,-0.98 9.027,5.281 11.138,13.972c2.11,8.691 0.545,16.543 -3.492,17.523c-4.037,0.98 -9.028,-5.28 -11.138,-13.971c-2.11,-8.692 -0.545,-16.544 3.492,-17.524Z" style="fill:#97856a;"/></g><path id="Wings" d="M4.731,16.879c7.699,4.352 13.736,10.902 16.876,21.287c11.915,4.116 22.324,11.774 28.766,28.766c10.532,-1.503 19.341,1.004 23.972,13.233l27.04,5.945c6.751,-12.088 14.682,-20.677 26.465,-17.835c9.383,-12.51 21.128,-22.152 39.314,-23.972c4.375,-10.351 10.229,-18.455 18.794,-22.438c-3.488,-5.204 -9.039,-9.27 -18.602,-11.123c-5.211,1.267 -10.497,1.631 -15.917,0.384c-8.35,1.958 -18.964,6.056 -32.027,12.465c-7.714,6.332 -11.068,19.234 -15.917,35.287c-7.831,3.463 -13.999,12.205 -26.759,0.011c-0.766,-13.215 -0.392,-30.557 -6.035,-35.298c-6.542,-5.497 -17.109,-10.995 -31.834,-16.492c-5.213,0.551 -10.569,-0.043 -16.109,-2.11c-8.463,-0.437 -14.54,3.404 -18.027,11.89Z" style="fill:none;stroke:#000;stroke-width:2px;"/><path d="M4.731,16.879c7.699,4.352 13.736,10.902 16.876,21.287c11.915,4.116 22.324,11.774 28.766,28.766c10.532,-1.503 19.341,1.004 23.972,13.233l27.04,5.945c6.751,-12.088 14.682,-20.677 26.465,-17.835c9.383,-12.51 21.128,-22.152 39.314,-23.972c4.375,-10.351 10.229,-18.455 18.794,-22.438c-3.488,-5.204 -9.039,-9.27 -18.602,-11.123c-5.211,1.267 -10.497,1.631 -15.917,0.384c-8.35,1.958 -18.964,6.056 -32.027,12.465c-7.714,6.332 -11.068,19.234 -15.917,35.287c-7.831,3.463 -13.999,12.205 -26.759,0.011c-0.766,-13.215 -0.392,-30.557 -6.035,-35.298c-6.542,-5.497 -17.109,-10.995 -31.834,-16.492c-5.213,0.551 -10.569,-0.043 -16.109,-2.11c-8.463,-0.437 -14.54,3.404 -18.027,11.89Z" style="fill:#82705c;"/><clipPath id="_clip2"><path d="M4.731,16.879c7.699,4.352 13.736,10.902 16.876,21.287c11.915,4.116 22.324,11.774 28.766,28.766c10.532,-1.503 19.341,1.004 23.972,13.233l27.04,5.945c6.751,-12.088 14.682,-20.677 26.465,-17.835c9.383,-12.51 21.128,-22.152 39.314,-23.972c4.375,-10.351 10.229,-18.455 18.794,-22.438c-3.488,-5.204 -9.039,-9.27 -18.602,-11.123c-5.211,1.267 -10.497,1.631 -15.917,0.384c-8.35,1.958 -18.964,6.056 -32.027,12.465c-7.714,6.332 -11.068,19.234 -15.917,35.287c-7.831,3.463 -13.999,12.205 -26.759,0.011c-0.766,-13.215 -0.392,-30.557 -6.035,-35.298c-6.542,-5.497 -17.109,-10.995 -31.834,-16.492c-5.213,0.551 -10.569,-0.043 -16.109,-2.11c-8.463,-0.437 -14.54,3.404 -18.027,11.89Z"/></clipPath><g clip-path="url(#_clip2)"><ellipse cx="10.212" cy="31.706" rx="17.356" ry="20.999" style="fill:#97856a;"/><ellipse cx="31.403" cy="57.499" rx="24.164" ry="23.588" style="fill:#97856a;"/><ellipse cx="57.293" cy="78.978" rx="24.164" ry="23.588" style="fill:#97856a;"/><ellipse cx="120.962" cy="82.814" rx="24.164" ry="23.588" style="fill:#97856a;"/><ellipse cx="155.193" cy="61.91" rx="32.889" ry="24.547" style="fill:#97856a;"/><ellipse cx="192.014" cy="38.322" rx="32.889" ry="24.547" style="fill:#97856a;"/><ellipse cx="90.949" cy="41.774" rx="28.478" ry="32.602" style="fill:#72614e;"/><path d="M40.016,4.241c3.58,-6.352 13.945,-7.305 23.13,-2.128c9.186,5.177 13.737,14.538 10.157,20.889c-3.58,6.352 -13.944,7.305 -23.13,2.128c-9.185,-5.177 -13.737,-14.538 -10.157,-20.889Z" style="fill:#72614e;"/><path d="M107.894,31.622c-4.222,-7.003 1.909,-18.452 13.683,-25.55c11.775,-7.098 24.761,-7.175 28.983,-0.172c4.222,7.003 -1.909,18.452 -13.683,25.55c-11.774,7.098 -24.761,7.175 -28.983,0.172Z" style="fill:#72614e;"/></g><g id="Feet"><path d="M75.818,75.366l-2.435,3.456c-2.329,2.108 -3.242,3.713 -2.042,4.87l1.335,1.1c1.102,0.79 2.209,0.057 2.278,-1.728c0.037,-0.943 0.229,-1.885 0.707,-2.828l1.178,-2.199l-1.021,-2.671Z" style="fill:none;stroke:#513614;stroke-width:1px;"/><path d="M75.818,75.366l-2.435,3.456c-2.329,2.108 -3.242,3.713 -2.042,4.87l1.335,1.1c1.102,0.79 2.209,0.057 2.278,-1.728c0.037,-0.943 0.229,-1.885 0.707,-2.828l1.178,-2.199l-1.021,-2.671Z" style="fill:#82623a;"/><path d="M100.848,80.319l1.59,3.918c1.792,2.58 2.319,4.35 0.888,5.206l-1.549,0.769c-1.252,0.52 -2.165,-0.444 -1.828,-2.199c0.177,-0.927 0.203,-1.888 -0.049,-2.914l-0.651,-2.409l1.599,-2.371Z" style="fill:none;stroke:#513614;stroke-width:1px;"/><path d="M100.848,80.319l1.59,3.918c1.792,2.58 2.319,4.35 0.888,5.206l-1.549,0.769c-1.252,0.52 -2.165,-0.444 -1.828,-2.199c0.177,-0.927 0.203,-1.888 -0.049,-2.914l-0.651,-2.409l1.599,-2.371Z" style="fill:#82623a;"/></g><g><path d="M118.371,27.236c9.334,13.62 15.214,26.731 10.291,38.254" style="fill:none;stroke:#442317;stroke-width:1px;"/><path d="M165.895,42.161c-5.333,-9.857 -19.358,-15.83 -44.381,-16.889" style="fill:none;stroke:#442317;stroke-width:1px;"/><path d="M27.735,6.919c14.012,4.597 27.697,10.066 41.082,16.339" style="fill:none;stroke:#442317;stroke-width:1px;"/><path d="M22.236,36.297c4.424,-10.744 21.914,-13.425 46.031,-12.018" style="fill:none;stroke:#442317;stroke-width:1px;"/><path d="M69.257,25.761c-16.726,14.13 -21.712,26.319 -19.166,37.265" style="fill:none;stroke:#442317;stroke-width:1px;"/><path d="M120.492,23.937c13.423,-4.384 27.293,-8.21 41.554,-11.547" style="fill:none;stroke:#442317;stroke-width:1px;"/><path d="M77.055,58.144c1.063,-15.771 -1.073,-29.953 -6.574,-33.389" style="fill:none;stroke:#000;stroke-width:2px;"/><path d="M117.69,25.305c-6.726,8.538 -10.321,19.163 -12.647,30.635" style="fill:none;stroke:#000;stroke-width:2px;"/></g><path id="Body" d="M92.465,54.37c8.869,1.078 15.176,9.301 14.075,18.351c-1.1,9.05 -9.194,15.522 -18.063,14.443c-8.868,-1.078 -15.175,-9.301 -14.075,-18.351c1.101,-9.05 9.195,-15.522 18.063,-14.443Z" style="fill:#b1a590;"/><clipPath id="_clip3"><path d="M92.465,54.37c8.869,1.078 15.176,9.301 14.075,18.351c-1.1,9.05 -9.194,15.522 -18.063,14.443c-8.868,-1.078 -15.175,-9.301 -14.075,-18.351c1.101,-9.05 9.195,-15.522 18.063,-14.443Z"/></clipPath><g clip-path="url(#_clip3)"><path id="Darker" d="M93.557,54.503c8.266,1.005 14.179,8.387 13.195,16.474c-0.983,8.088 -8.493,13.838 -16.759,12.832c-8.266,-1.005 -14.178,-8.387 -13.195,-16.474c0.984,-8.088 8.493,-13.837 16.759,-12.832Z" style="fill:#5e4c31;"/></g><g id="Ears"><path d="M91.246,62.837c0.106,-3.464 -0.283,-7.004 -1.571,-10.683c-1.008,-2.592 -2.247,-5.184 -4.006,-7.777c-2.004,-3.61 -3.334,-2.693 -4.399,0c-0.909,2.985 -1.541,5.97 -1.806,8.955c-0.059,4.872 0.549,9.59 1.885,14.139c5.153,7.509 8.305,5.243 9.897,-4.634Z" style="fill:url(#_Linear4);"/><path d="M96.823,62.051l1.133,-5.547c0.511,-1.582 1.631,-3.563 2.69,-4.998c1.355,-1.835 2.652,-3.788 4.425,-5.793c2.144,-2.424 3.45,-2.14 3.771,1.335c0.09,3.473 -0.283,6.747 -0.943,9.898c-0.796,2.995 -1.789,5.859 -2.906,8.64c-5.165,7.952 -7.823,6.528 -8.17,-3.535Z" style="fill:url(#_Linear5);"/></g><g id="Snout"><ellipse cx="92.125" cy="74.561" rx="3.978" ry="4.826" style="fill:#3c291c;"/><ellipse cx="92.125" cy="76.496" rx="2.991" ry="2.891" style="fill:#82705c;"/><ellipse cx="92.125" cy="76.496" rx="2.388" ry="2.036" style="fill:#4f221c;"/></g><g id="Eyes"><ellipse cx="87.507" cy="66.833" rx="0.603" ry="1.382"/><ellipse cx="97.662" cy="67.788" rx="0.603" ry="1.382"/></g></g><defs><linearGradient id="_Linear4" x1="0" y1="0" x2="1" y2="0" gradientUnits="userSpaceOnUse" gradientTransform="matrix(1.27761e-15,-20.865,20.865,1.27761e-15,85.1966,68.1894)"><stop offset="0" style="stop-color:#5e4c31;stop-opacity:1"/><stop offset="0.63" style="stop-color:#3f2f20;stop-opacity:1"/><stop offset="1" style="stop-color:#30251c;stop-opacity:1"/></linearGradient><linearGradient id="_Linear5" x1="0" y1="0" x2="1" y2="0" gradientUnits="userSpaceOnUse" gradientTransform="matrix(1.27761e-15,-20.865,20.865,1.27761e-15,85.1966,68.1894)"><stop offset="0" style="stop-color:#5e4c31;stop-opacity:1"/><stop offset="0.63" style="stop-color:#3f2f20;stop-opacity:1"/><stop offset="1" style="stop-color:#30251c;stop-opacity:1"/></linearGradient></defs></svg>