<?xml version="1.0" encoding="UTF-8" standalone="no"?><!DOCTYPE svg PUBLIC "-//W3C//DTD SVG 1.1//EN" "http://www.w3.org/Graphics/SVG/1.1/DTD/svg11.dtd"><svg width="100%" height="100%" viewBox="0 0 400 400" version="1.1" xmlns="http://www.w3.org/2000/svg" xmlns:xlink="http://www.w3.org/1999/xlink" xml:space="preserve" xmlns:serif="http://www.serif.com/" style="fill-rule:evenodd;clip-rule:evenodd;stroke-linejoin:round;stroke-miterlimit:2;"><rect id="BFire2" x="0" y="0" width="400" height="400" style="fill:none;"/><g id="Fire2"><path d="M216.695,307.662c5.072,5.346 10.228,10.622 13.762,17.249c-1.04,-0.931 -1.944,-1.174 -2.733,-0.848c4.437,7.278 7.031,15.69 8.2,24.979c-2.521,-3.624 -5.742,-6.023 -10.274,-6.127c2.358,13.552 -1.436,24.722 -6.881,35.253c-1.91,-12.401 -4.699,-22.866 -12.914,-21.397c-11.098,7.475 -11.08,19.066 -8.577,31.578c-7.915,-7.44 -13.987,-16 -16.119,-26.959c-2.874,1.202 -4.384,3.919 -4.996,7.635c-6.022,-11.431 -4.901,-22.441 -2.356,-33.368c-4.111,-0.745 -7.075,1.624 -9.426,5.656c2.121,-12.992 6.675,-24.525 15.081,-33.746l37.233,0.095Z" style="fill:#ff7300;"/></g><path d="M215.305,307.774c4.453,4.278 8.91,8.54 12.726,14.728c-1.493,-0.628 -2.671,-0.628 -3.535,0c4.791,6.039 7.345,13.01 8.365,20.62c-4.215,-3.456 -7.645,-3.968 -10.604,-2.71c2.9,9.456 0.918,19.645 -2.474,30.045c-1.179,-10.07 -5.262,-16.479 -13.668,-17.438c-10.449,4.569 -13.394,14.282 -12.843,26.393c-5.194,-5.685 -8.984,-12.774 -10.722,-21.915c-3.181,-0.026 -5.185,2.107 -6.481,5.537c-2.283,-10.487 -1.879,-20.5 1.179,-30.045c-3.064,-1.522 -6.127,-1.07 -9.191,1.178c2.685,-10.299 7.449,-19.039 13.904,-26.511l33.344,0.118Z" style="fill:#ff8e00;"/><path d="M214.009,307.892c4.043,3.76 7.706,7.628 9.544,12.018c-1.806,-0.825 -3.142,-0.864 -4.006,-0.118c4.671,4.893 7.78,10.386 8.366,16.849c-3.947,-1.575 -7.207,-1.605 -9.898,-0.353c2.458,7.148 2.65,14.296 1.65,21.444c-3.476,-4.399 -7.639,-7.816 -13.314,-9.072c-9.407,3.653 -14.355,11.231 -15.907,21.797c-3.184,-5.248 -5.495,-11.246 -6.48,-18.38c-2.474,-0.026 -4.36,1.518 -5.891,4.006c-0.084,-8.364 0.266,-16.886 3.652,-26.511c-3.024,-1.609 -6.048,-1.297 -9.072,0.236c2.184,-6.968 5.591,-14.241 11.546,-22.152l29.81,0.236Z" style="fill:#ffbd00;"/></svg>