<?xml version="1.0" encoding="UTF-8" standalone="no"?><!DOCTYPE svg PUBLIC "-//W3C//DTD SVG 1.1//EN" "http://www.w3.org/Graphics/SVG/1.1/DTD/svg11.dtd"><svg width="100%" height="100%" viewBox="0 0 400 400" version="1.1" xmlns="http://www.w3.org/2000/svg" xmlns:xlink="http://www.w3.org/1999/xlink" xml:space="preserve" xmlns:serif="http://www.serif.com/" style="fill-rule:evenodd;clip-rule:evenodd;stroke-linejoin:round;stroke-miterlimit:2;"><rect id="BFire3" x="0" y="0" width="400" height="400" style="fill:none;"/><g id="Fire3"><path d="M216.978,307.662c6.706,5.51 11.832,12.116 15.27,19.889c-2.136,-1.713 -4.273,-2.247 -6.409,-1.697c5.827,8.595 7.623,17.923 7.917,27.524c-2.453,-3.814 -5.715,-6.618 -10.18,-7.918c0.911,12.607 -2.79,24.062 -7.918,35.159c-2.453,-12.769 -6.971,-21.323 -15.458,-21.774c-7.021,6.714 -7.613,16.213 -7.07,26.205c-7.349,-8.941 -12.195,-18.364 -13.008,-28.561c-3.215,0.827 -5.331,3.382 -6.787,6.975c-3.409,-13.239 -2.528,-23.617 0.849,-32.332c-2.729,-0.594 -5.598,0.627 -8.578,3.3c3.158,-10.976 7.776,-20.005 13.951,-26.959l37.421,0.189Z" style="fill:#ff7300;"/></g><path d="M214.429,307.818c5.497,4.48 10.056,9.69 13.291,15.93c-2.011,-1.383 -4.022,-1.728 -6.033,-0.848c5.055,7.129 7.483,14.958 8.766,23.093c-3.299,-3.099 -6.598,-4.692 -9.897,-4.524c0.765,9.434 -1.016,18.718 -4.524,27.901c-2.912,-7.755 -8.053,-13.518 -18.004,-14.987c-5.041,4.725 -7.685,11.047 -8.955,18.286c-3.863,-6.61 -6.412,-14.096 -7.258,-22.717c-3.071,1.117 -5.224,3 -6.787,5.373c-1.233,-9.358 -0.338,-18.605 3.205,-27.712c-2.68,-1.454 -5.206,-1.217 -7.635,0.094c2.611,-7.732 6.5,-14.419 11.877,-19.889l31.954,0Z" style="fill:#ff8e00;"/><path d="M211.255,307.589c4.821,3.716 8.532,7.689 10.086,12.159c-2.274,-1.186 -3.916,-1.107 -5.185,-0.282c4.459,6.188 8.018,12.569 8.955,19.512c-2.482,-2.106 -5.373,-2.985 -8.86,-2.074c1.484,7.763 0.934,14.891 -1.603,21.397c-5.616,-5.892 -11.57,-9.756 -18.192,-9.615c-4.261,3.405 -6.894,7.845 -8.389,13.008c-2.265,-5.27 -3.643,-11.162 -3.394,-18.192c-2.604,0.73 -4.748,2.381 -6.598,4.619c-0.071,-7.828 1.202,-15.768 4.148,-23.848c-1.238,-1.341 -3.413,-1.612 -6.41,-0.943c1.779,-5.867 4.756,-11.256 9.049,-16.118l26.393,0.377Z" style="fill:#ffbd00;"/></svg>