<?xml version="1.0" encoding="UTF-8" standalone="no"?><!DOCTYPE svg PUBLIC "-//W3C//DTD SVG 1.1//EN" "http://www.w3.org/Graphics/SVG/1.1/DTD/svg11.dtd"><svg width="100%" height="100%" viewBox="0 0 400 400" version="1.1" xmlns="http://www.w3.org/2000/svg" xmlns:xlink="http://www.w3.org/1999/xlink" xml:space="preserve" xmlns:serif="http://www.serif.com/" style="fill-rule:evenodd;clip-rule:evenodd;stroke-linejoin:round;stroke-miterlimit:2;"><rect id="BFire4" x="0" y="0" width="400" height="400" style="fill:none;"/><g id="Fire4"><path d="M216.978,307.662c7.103,6.797 12.755,14.599 16.59,23.659c-2.327,-2.086 -4.774,-2.847 -7.352,-2.168c4.831,9.243 6.323,19.067 5.373,29.315c-2.38,-5.403 -5.947,-9.144 -10.84,-11.028c1.084,12.603 -1.933,24.598 -7.636,36.196c-4.988,-12.569 -11.099,-20.644 -18.852,-22.152c-4.893,4.509 -6.355,11.107 -5.467,19.135c-6.798,-10.059 -10.42,-19.853 -10.18,-29.409c-3.844,1.309 -6.181,4.125 -8.012,7.447c-1.137,-11.769 -0.434,-22.763 3.205,-32.52c-2.553,-0.095 -4.831,0.911 -6.881,2.827c3.596,-8.226 7.809,-15.527 12.913,-21.491l37.139,0.189Z" style="fill:#ff7300;"/></g><path d="M213.831,307.707c5.901,4.618 10.319,10.424 13.078,17.556c-1.914,-1.434 -4.015,-1.748 -6.244,-1.296c2.477,3.914 4.542,8.166 6.062,12.864c1.22,3.772 2.089,7.831 2.539,12.233c-3.178,-3.186 -7.309,-5.259 -12.372,-6.245c1.265,14.733 -0.204,25.092 -3.652,32.284c-4.236,-7.981 -9.903,-14.721 -18.852,-18.616c-4.601,3.508 -7.143,7.841 -8.602,12.607c-3.034,-6.966 -4.82,-14.557 -4.713,-23.094c-3.751,-0.275 -6.421,1.61 -8.601,4.477c0.591,-10.061 2.276,-19.356 6.009,-27.217c-1.632,-1.16 -3.63,-1.04 -5.891,0c2.298,-5.881 5.557,-11.282 10.368,-15.907l30.871,0.354Z" style="fill:#ff8e00;"/><path d="M211.356,307.942c3.905,3.361 7.21,7.322 9.544,12.254c-2.161,-1.343 -4.162,-1.721 -6.009,-1.178c4.144,6.723 7.089,13.896 8.719,21.562c-3.379,-2.306 -6.911,-3.232 -10.604,-2.71c1.687,12.245 0.984,20.628 -1.414,26.275c-4.83,-6.423 -10.165,-12.088 -18.145,-13.785c-3.433,1.213 -5.523,4.44 -7.07,8.483c-1.23,-4.956 -1.995,-10.202 -0.707,-16.731c-2.581,-1.414 -5.352,-0.746 -8.247,1.296c0.763,-7.176 1.754,-14.416 6.951,-22.858c-1.977,-1.386 -4.62,-1.443 -7.541,-0.943c2.018,-4.895 4.934,-8.891 8.837,-11.9l25.686,0.235Z" style="fill:#ffbd00;"/></svg>