<?xml version="1.0" encoding="UTF-8" standalone="no"?><!DOCTYPE svg PUBLIC "-//W3C//DTD SVG 1.1//EN" "http://www.w3.org/Graphics/SVG/1.1/DTD/svg11.dtd"><svg width="100%" height="100%" viewBox="0 0 400 400" version="1.1" xmlns="http://www.w3.org/2000/svg" xmlns:xlink="http://www.w3.org/1999/xlink" xml:space="preserve" xmlns:serif="http://www.serif.com/" style="fill-rule:evenodd;clip-rule:evenodd;stroke-linejoin:round;stroke-miterlimit:2;"><rect id="BFire1" x="0" y="0" width="400" height="400" style="fill:none;"/><g id="Fire1"><path d="M216.392,307.714c10.286,8.995 18.25,21.158 19.686,38.513c-2.752,-3.844 -6.054,-4.936 -9.561,-5.007c4.557,13.731 1.235,24.836 -5.523,34.796c1.643,-3.227 -2.288,-21.558 -10.33,-21.453c-14.208,5.433 -10.947,28.659 -8.448,36.549c-8.302,-5.549 -16.69,-10.928 -19.515,-27.431c-2.937,2.029 -2.983,5.504 -2.946,9.021c-6.361,-4.073 -10.377,-14.922 -5.433,-34.233c-4.097,0.683 -7.559,3.655 -10.4,8.862c0.589,-14.606 5.258,-29.15 15.649,-39.986l36.821,0.369Z" style="fill:#ff7300;"/><path d="M211.914,307.478c9.244,9.236 15.803,16.167 20.629,32.739c-3.253,-2.341 -7.085,-1.842 -9.325,-1.824c3.547,11.66 4.287,19.051 -0.456,31.025c1.643,-3.227 -4.763,-18.377 -12.805,-18.272c-14.207,5.433 -14.718,24.888 -12.219,32.779c-8.302,-5.55 -11.269,-8.454 -14.094,-24.957c-2.937,2.029 -5.694,4.444 -5.656,7.961c-4.087,-10.723 -3.148,-17.857 -0.013,-31.877c-2.789,-0.247 -7.454,0.225 -10.753,4.974c3.084,-15.23 8.023,-22.242 15.884,-32.445l28.808,-0.103Z" style="fill:#ff8e00;"/><path d="M186.086,308.259c-7.432,7.255 -10.593,15.425 -12.519,23.86c3.665,-2.638 7.429,-4.19 11.488,-2.504c-5.484,8.255 -4.989,17.79 -4.861,27.247c1.615,-3.796 3.688,-6.219 6.481,-6.48c-1.332,8.354 1.571,15.801 5.744,22.976c0.5,-13.381 4.604,-24.128 15.317,-30.046c6.546,1.298 11.277,7.435 15.465,15.023c0.812,-7.806 -0.665,-15.612 -5.744,-23.418c2.778,-1.897 5.813,-1.49 8.984,0.147c-4.061,-14.412 -11.864,-21.34 -19.883,-27.836l-20.472,1.031Z" style="fill:#ffbd00;"/></g></svg>