<?xml version="1.0" encoding="UTF-8" standalone="no"?><!DOCTYPE svg PUBLIC "-//W3C//DTD SVG 1.1//EN" "http://www.w3.org/Graphics/SVG/1.1/DTD/svg11.dtd"><svg width="100%" height="100%" viewBox="0 0 400 400" version="1.1" xmlns="http://www.w3.org/2000/svg" xmlns:xlink="http://www.w3.org/1999/xlink" xml:space="preserve" xmlns:serif="http://www.serif.com/" style="fill-rule:evenodd;clip-rule:evenodd;stroke-linejoin:round;stroke-miterlimit:2;"><rect id="BFire5" x="0" y="0" width="400" height="400" style="fill:none;"/><g id="Fire5"><path d="M217.261,307.85c7.037,7.818 13.422,16.559 17.438,28.655c-2.796,-2.38 -5.593,-3.118 -8.389,-2.733c4.247,10.494 4.3,20.988 2.262,31.483c-2.182,-7.189 -5.767,-12.544 -11.217,-15.459c-2.809,13.251 -5.455,25.364 -8.012,36.856c-4.887,-8.249 -11.263,-16.039 -19.418,-23.282c-3.578,3.307 -5.063,8.224 -5.373,14.044c-8.743,-11.164 -10.454,-21.324 -6.881,-30.729c-3.559,0.409 -6.62,3.142 -9.426,7.07c-0.832,-13.159 1.304,-23.916 5.75,-32.803c-1.429,-0.023 -3.157,0.998 -5.09,2.734c3.02,-6.442 6.846,-11.593 11.123,-16.024l37.233,0.188Z" style="fill:#ff7300;"/></g><path d="M213.713,307.942c5.388,6.269 10.48,13.131 14.61,21.916c-2.055,-1.349 -4.228,-2.108 -6.598,-1.885c2.909,8.405 4.75,16.81 4.831,25.214c-3.098,-3.718 -6.721,-6.649 -11.076,-8.483c-2.302,11.617 -4.964,22.513 -7.894,32.873c-5.387,-6.973 -11.105,-13.727 -18.381,-19.441c-3.642,1.849 -5.513,5.217 -6.952,8.955c-2.51,-8.818 -2.398,-16.829 -0.824,-24.39c-3.754,-1.093 -6.851,0.659 -9.662,3.653c0.209,-10.413 2.422,-19.948 7.659,-28.161l-3.535,-0.118l7.894,-10.368l29.928,0.235Z" style="fill:#ff8e00;"/><path d="M210.767,308.178c4.644,4.679 8.79,9.773 11.547,16.024l-5.891,-1.531c4.263,7.899 6.106,15.194 6.598,22.151c-2.786,-2.361 -5.933,-4.002 -9.662,-4.478c-1.666,10.313 -4.42,19.538 -7.658,28.279c-4.816,-5.986 -9.874,-11.728 -15.318,-17.085c-2.777,0.888 -4.567,2.567 -5.773,4.713c-0.782,-6.216 -0.239,-12.243 1.178,-18.145c-2.554,-0.572 -5.772,-0.214 -9.897,1.414c1.453,-8.484 4.084,-16.575 9.308,-23.801c-1.1,-0.866 -2.199,-0.746 -3.299,-0.354c0.909,-2.551 2.586,-4.95 5.066,-7.187l23.801,0Z" style="fill:#ffbd00;"/></svg>