<?xml version="1.0" encoding="UTF-8" standalone="no"?><!DOCTYPE svg PUBLIC "-//W3C//DTD SVG 1.1//EN" "http://www.w3.org/Graphics/SVG/1.1/DTD/svg11.dtd"><svg width="100%" height="100%" viewBox="0 0 400 400" version="1.1" xmlns="http://www.w3.org/2000/svg" xmlns:xlink="http://www.w3.org/1999/xlink" xml:space="preserve" xmlns:serif="http://www.serif.com/" style="fill-rule:evenodd;clip-rule:evenodd;stroke-linejoin:round;stroke-miterlimit:2;"><rect id="BFire6" x="0" y="0" width="400" height="400" style="fill:none;"/><g id="Fire6"><path d="M217.261,307.85c9.555,10.462 15.707,22.058 18.475,34.782c-2.857,-3.267 -6.286,-4.056 -9.897,-4.053c2.517,10.776 1.391,21.337 -0.377,31.86c-1.858,-7.475 -5.715,-13.576 -11.594,-18.286c-8.348,11.844 -9.228,24.475 -8.013,37.327c-9.36,-6.64 -16.152,-14.915 -19.983,-25.074c-2.422,2.772 -3.768,6.466 -4.43,10.746c-8.383,-10.247 -9.558,-21.582 -4.619,-33.839c-4.64,0.046 -7.897,3.472 -10.274,9.049c-0.635,-12.909 2.675,-23.76 7.823,-33.651c-1.508,0.832 -3.016,2.09 -4.524,3.676c2.77,-5.113 6.215,-9.215 9.991,-12.82l37.422,0.283Z" style="fill:#ff7300;"/></g><path d="M214.199,308.141c5.961,7.913 12.553,15.015 15.612,26.658c-2.275,-1.341 -4.893,-1.997 -7.953,-1.767c1.856,9.265 2.807,17.884 1.914,25.185c-3.216,-5.291 -7.633,-9.142 -12.813,-12.077c-4.778,9.852 -7.839,21.421 -9.868,34.022c-5.081,-4.86 -10.04,-11.683 -14.728,-22.829c-2.799,1.179 -4.812,3.732 -6.039,7.659c-1.718,-6.115 -2.214,-14.202 1.178,-28.573c-4.345,-1.105 -8.419,0.761 -12.371,3.977c3.146,-12.508 7.703,-23.429 13.991,-32.402l31.077,0.147Z" style="fill:#ff8e00;"/><path d="M210.517,308.436c6.247,6.231 10.69,13.063 13.403,20.472c-2.21,-1.326 -4.615,-1.669 -7.217,-1.031c3.067,6.122 3.953,12.681 3.093,19.588c-3.547,-4.596 -7.45,-7.235 -11.783,-7.511c-5.327,9.98 -7.932,20.262 -9.721,30.635c-4.276,-5.206 -7.506,-11.634 -9.426,-19.589c-1.62,0.112 -3.24,1.459 -4.86,3.535c-0.448,-7.61 -0.045,-15.219 2.651,-22.829c-4.234,-1.018 -8.235,-0.405 -12.077,1.326c2.638,-9.089 6.296,-17.668 12.077,-25.185l23.86,0.589Z" style="fill:#ffbd00;"/></svg>