<?xml version="1.0" encoding="UTF-8" standalone="no"?><!DOCTYPE svg PUBLIC "-//W3C//DTD SVG 1.1//EN" "http://www.w3.org/Graphics/SVG/1.1/DTD/svg11.dtd"><svg width="100%" height="100%" viewBox="0 0 400 400" version="1.1" xmlns="http://www.w3.org/2000/svg" xmlns:xlink="http://www.w3.org/1999/xlink" xml:space="preserve" xmlns:serif="http://www.serif.com/" style="fill-rule:evenodd;clip-rule:evenodd;stroke-linecap:round;stroke-linejoin:round;stroke-miterlimit:1.5;"><rect id="Booster" x="0" y="0" width="400" height="400" style="fill:none;"/><path d="M249.981,310l-99.962,0l24.99,-30l49.982,0l24.99,30Z" style="fill:none;stroke:#000;stroke-width:4px;"/><path d="M249.981,310l-99.962,0l24.99,-30l49.982,0l24.99,30Z" style="fill:url(#_Linear1);"/><path d="M120.231,203.28c0,45.533 35.847,82.5 80,82.5c44.153,0 80,-36.967 80,-82.5c-13.333,22.766 -44.59,41.25 -80,41.25c-35.41,0 -66.667,-18.484 -80,-41.25Z" style="fill:none;stroke:#000;stroke-width:4px;"/><path d="M120.231,203.28c0,45.533 35.847,82.5 80,82.5c44.153,0 80,-36.967 80,-82.5c-13.333,22.766 -44.59,41.25 -80,41.25c-35.41,0 -66.667,-18.484 -80,-41.25Z" style="fill:url(#_Linear2);"/><path d="M273.569,239c12.16,3.258 24.914,-4.85 28.463,-18.097c3.549,-13.246 -3.441,-26.645 -15.601,-29.903c-4.648,5.185 -9.444,13.213 -11.939,22.524c-2.495,9.312 -2.355,18.662 -0.923,25.476Z" style="fill:none;stroke:#000;stroke-width:4px;"/><path d="M273.569,239c12.16,3.258 24.914,-4.85 28.463,-18.097c3.549,-13.246 -3.441,-26.645 -15.601,-29.903c-4.648,5.185 -9.444,13.213 -11.939,22.524c-2.495,9.312 -2.355,18.662 -0.923,25.476Z" style="fill:url(#_Linear3);"/><path d="M113.569,191c-12.16,3.258 -19.15,16.657 -15.601,29.903c3.549,13.247 16.303,21.355 28.463,18.097c1.432,-6.814 1.572,-16.164 -0.923,-25.476c-2.495,-9.311 -7.291,-17.339 -11.939,-22.524Z" style="fill:none;stroke:#000;stroke-width:4px;"/><path d="M113.569,191c-12.16,3.258 -19.15,16.657 -15.601,29.903c3.549,13.247 16.303,21.355 28.463,18.097c1.432,-6.814 1.572,-16.164 -0.923,-25.476c-2.495,-9.311 -7.291,-17.339 -11.939,-22.524Z" style="fill:url(#_Linear4);"/><defs><linearGradient id="_Linear1" x1="0" y1="0" x2="1" y2="0" gradientUnits="userSpaceOnUse" gradientTransform="matrix(1.76142e-15,28.7661,-28.7661,1.76142e-15,198.221,281.395)"><stop offset="0" style="stop-color:#3b3b3b;stop-opacity:1"/><stop offset="0.87" style="stop-color:#333;stop-opacity:1"/><stop offset="1" style="stop-color:#7c7c7c;stop-opacity:1"/></linearGradient><linearGradient id="_Linear2" x1="0" y1="0" x2="1" y2="0" gradientUnits="userSpaceOnUse" gradientTransform="matrix(5.12924e-15,-83.7669,83.7669,5.12924e-15,199.832,285.538)"><stop offset="0" style="stop-color:#3b3b3b;stop-opacity:1"/><stop offset="1" style="stop-color:#7c7c7c;stop-opacity:1"/></linearGradient><linearGradient id="_Linear3" x1="0" y1="0" x2="1" y2="0" gradientUnits="userSpaceOnUse" gradientTransform="matrix(-21.1718,-21.1718,21.1718,-21.1718,298.557,228.696)"><stop offset="0" style="stop-color:#3b3b3b;stop-opacity:1"/><stop offset="1" style="stop-color:#7c7c7c;stop-opacity:1"/></linearGradient><linearGradient id="_Linear4" x1="0" y1="0" x2="1" y2="0" gradientUnits="userSpaceOnUse" gradientTransform="matrix(22.0924,-22.0924,22.0924,22.0924,100.876,228.696)"><stop offset="0" style="stop-color:#3b3b3b;stop-opacity:1"/><stop offset="1" style="stop-color:#7c7c7c;stop-opacity:1"/></linearGradient></defs></svg>