<?xml version="1.0" encoding="UTF-8" standalone="no"?><!DOCTYPE svg PUBLIC "-//W3C//DTD SVG 1.1//EN" "http://www.w3.org/Graphics/SVG/1.1/DTD/svg11.dtd"><svg width="100%" height="100%" viewBox="0 0 130 130" version="1.1" xmlns="http://www.w3.org/2000/svg" xmlns:xlink="http://www.w3.org/1999/xlink" xml:space="preserve" xmlns:serif="http://www.serif.com/" style="fill-rule:evenodd;clip-rule:evenodd;stroke-linecap:round;stroke-linejoin:round;stroke-miterlimit:1.5;"><rect id="CandyCorn" x="0" y="0" width="130" height="130" style="fill:none;"/><path d="M14.654,95.847c-4.985,15.66 -1.435,24.957 15,24.957l70,0.043c16.593,0 21.515,-9.74 15,-25l-30,-70c-9.535,-22.259 -30.462,-22.257 -40,0l-30,70Z" style="fill:none;stroke:url(#_Linear1);stroke-width:10px;"/><path d="M14.654,95.847c-4.985,15.66 -1.435,24.957 15,24.957l70,0.043c16.593,0 21.515,-9.74 15,-25l-30,-70c-9.535,-22.259 -30.462,-22.257 -40,0l-30,70Z" style="fill:url(#_Linear2);"/><defs><linearGradient id="_Linear1" x1="0" y1="0" x2="1" y2="0" gradientUnits="userSpaceOnUse" gradientTransform="matrix(104.864,0,0,111.693,12.5682,65)"><stop offset="0" style="stop-color:#fff;stop-opacity:1"/><stop offset="0.2" style="stop-color:#fff;stop-opacity:1"/><stop offset="0.4" style="stop-color:#ff9010;stop-opacity:1"/><stop offset="0.6" style="stop-color:#ff9010;stop-opacity:1"/><stop offset="0.8" style="stop-color:#fdff10;stop-opacity:1"/><stop offset="1" style="stop-color:#fdff10;stop-opacity:1"/></linearGradient><linearGradient id="_Linear2" x1="0" y1="0" x2="1" y2="0" gradientUnits="userSpaceOnUse" gradientTransform="matrix(6.77797e-15,110.693,-110.693,6.77797e-15,63.9666,9.72722)"><stop offset="0" style="stop-color:#fff;stop-opacity:1"/><stop offset="0.2" style="stop-color:#fff;stop-opacity:1"/><stop offset="0.4" style="stop-color:#ff9010;stop-opacity:1"/><stop offset="0.6" style="stop-color:#ff9010;stop-opacity:1"/><stop offset="0.8" style="stop-color:#fdff10;stop-opacity:1"/><stop offset="1" style="stop-color:#fdff10;stop-opacity:1"/></linearGradient></defs></svg>