<?xml version="1.0" encoding="UTF-8" standalone="no"?><!DOCTYPE svg PUBLIC "-//W3C//DTD SVG 1.1//EN" "http://www.w3.org/Graphics/SVG/1.1/DTD/svg11.dtd"><svg width="100%" height="100%" viewBox="0 0 600 472" version="1.1" xmlns="http://www.w3.org/2000/svg" xmlns:xlink="http://www.w3.org/1999/xlink" xml:space="preserve" xmlns:serif="http://www.serif.com/" style="fill-rule:evenodd;clip-rule:evenodd;stroke-linecap:round;stroke-linejoin:round;stroke-miterlimit:1.5;"><rect id="CatapultArm" x="0" y="0" width="600" height="472" style="fill:none;"/><g id="Mechanism"><g><path d="M160.894,285.104c-45.793,40.881 -95.449,73.265 -150.894,92.913c10.002,44.754 44.302,59.452 82.099,54.173c34.953,-6.017 60.865,-19.617 76.67,-41.694c18.079,-35.431 16.666,-70.579 -7.875,-105.392Z" style="fill:#538598;"/><path d="M29.852,376.41c0,0 13.391,39.088 45.602,47.774" style="fill:none;stroke:#4a7687;stroke-width:2px;"/><path d="M42.157,365.914c0,0 25.697,63.699 69.852,57.547" style="fill:none;stroke:#4a7687;stroke-width:2px;"/><path d="M64.958,355.419c5.31,23.596 91.083,126.33 65.509,-44.155" style="fill:none;stroke:#4a7687;stroke-width:2px;"/><path d="M88.484,344.561c0,0 2.533,18.82 7.962,23.887" style="fill:none;stroke:#4a7687;stroke-width:2px;"/><path d="M102.961,331.531c0,0 37.64,116.54 19.905,-13.391" style="fill:none;stroke:#4a7687;stroke-width:2px;"/><path d="M149.287,394.868c0,0 32.935,-29.316 5.429,-102.424" style="fill:none;stroke:#4a7687;stroke-width:2px;"/></g><g><path d="M171.464,349.313l45.776,-34.066l-25.017,-39.92l-42.582,37.259c0.874,16.919 8.857,28.644 21.823,36.727Z" style="fill:url(#_Linear1);"/><path d="M192.37,274.909c5.954,-4.083 16.852,1.444 24.32,12.335c7.469,10.89 8.699,23.047 2.745,27.13c-5.954,4.084 -16.852,-1.443 -24.32,-12.334c-7.469,-10.891 -8.699,-23.048 -2.745,-27.131Z" style="fill:#456f7f;"/><path d="M197.097,277.195l326.637,-265.563c12.578,-4.32 18.828,0.812 23.046,5.236c4.81,5.044 9.045,13.532 2.742,24.171l-337.564,267.63c-13.811,-5.235 -19.469,-15.309 -14.861,-31.474Z" style="fill:#518194;"/><path d="M169.236,304.381c2.505,-0.981 5.185,-0.132 5.98,1.897c0.795,2.029 -0.593,4.474 -3.098,5.456c-2.505,0.982 -5.185,0.132 -5.98,-1.897c-0.795,-2.029 0.593,-4.474 3.098,-5.456Z" style="fill:#273f48;"/><path d="M169.021,303.834c2.506,-0.982 5.071,-0.424 5.725,1.244c0.654,1.669 -0.849,3.821 -3.354,4.803c-2.505,0.982 -5.07,0.425 -5.725,-1.244c-0.654,-1.669 0.849,-3.821 3.354,-4.803Z" style="fill:#426a79;"/><ellipse cx="183.443" cy="327.728" rx="4.456" ry="3.697" style="fill:#273f48;"/><ellipse cx="184.105" cy="328.467" rx="4.077" ry="3.394" style="fill:#426a79;"/><path d="M213.328,295.318c0,0 314.875,-231.632 264.205,-209.464c-50.67,22.168 63.789,-55.646 63.789,-55.646" style="fill:none;stroke:#4a7687;stroke-width:2px;"/><path d="M498.344,41.97c0,0 -80.529,61.528 -100.887,93.649c-20.358,32.12 -162.866,134.817 -189.558,140.698" style="fill:none;stroke:#4a7687;stroke-width:2px;"/></g></g><defs><linearGradient id="_Linear1" x1="0" y1="0" x2="1" y2="0" gradientUnits="userSpaceOnUse" gradientTransform="matrix(-2.6684,-3.70612,3.70612,-2.6684,185.252,315.156)"><stop offset="0" style="stop-color:#2d4852;stop-opacity:1"/><stop offset="1" style="stop-color:#355562;stop-opacity:1"/></linearGradient></defs></svg>