<?xml version="1.0" encoding="UTF-8" standalone="no"?><!DOCTYPE svg PUBLIC "-//W3C//DTD SVG 1.1//EN" "http://www.w3.org/Graphics/SVG/1.1/DTD/svg11.dtd"><svg width="100%" height="100%" viewBox="0 0 100 100" version="1.1" xmlns="http://www.w3.org/2000/svg" xmlns:xlink="http://www.w3.org/1999/xlink" xml:space="preserve" xmlns:serif="http://www.serif.com/" style="fill-rule:evenodd;clip-rule:evenodd;stroke-linecap:round;stroke-linejoin:round;stroke-miterlimit:1.5;"><rect id="Collectables" x="0" y="0" width="100" height="100" style="fill:none;"/><clipPath id="_clip1"><rect x="0" y="0" width="100" height="100"/></clipPath><g clip-path="url(#_clip1)"><rect id="GasCan" x="39.448" y="2.61" width="59.006" height="94.41" style="fill:none;"/><g><path d="M41.43,24.803l0.246,59.227c-0.025,2.264 1.129,3.925 3.571,4.925l13.915,4.803c3.211,0.57 6.592,0.333 10.097,-0.493l24.38,-9.974c1.782,-0.911 2.841,-2.843 2.832,-6.28l-0.369,-55.533c-0.001,-1.706 -0.389,-3.357 -1.355,-4.926l-5.54,-7.881c-1.847,-2.817 -6.009,-3.6 -12.068,-2.831c-1.437,0.182 -1.795,0.576 -2.278,1.354l-7.819,1.477l-2.505,-0.126c-3.335,-0.334 -5.539,-0.281 -7.469,0.496l-14.037,11.698c-0.897,0.859 -1.484,2.148 -1.601,4.064Z" style="fill:none;stroke:#620200;stroke-width:2.36px;"/><path d="M41.43,24.803l0.246,59.227c-0.025,2.264 1.129,3.925 3.571,4.925l13.915,4.803c3.211,0.57 6.592,0.333 10.097,-0.493l24.38,-9.974c1.782,-0.911 2.841,-2.843 2.832,-6.28l-0.369,-55.533c-0.001,-1.706 -0.389,-3.357 -1.355,-4.926l-5.54,-7.881c-1.847,-2.817 -6.009,-3.6 -12.068,-2.831c-1.437,0.182 -1.795,0.576 -2.278,1.354l-7.819,1.477l-2.505,-0.126c-3.335,-0.334 -5.539,-0.281 -7.469,0.496l-14.037,11.698c-0.897,0.859 -1.484,2.148 -1.601,4.064Z" style="fill:#ca2b28;"/><g><clipPath id="_clip2"><path d="M41.43,24.803l0.246,59.227c-0.025,2.264 1.129,3.925 3.571,4.925l13.915,4.803c3.211,0.57 6.592,0.333 10.097,-0.493l24.38,-9.974c1.782,-0.911 2.841,-2.843 2.832,-6.28l-0.369,-55.533c-0.001,-1.706 -0.389,-3.357 -1.355,-4.926l-5.54,-7.881c-1.847,-2.817 -6.009,-3.6 -12.068,-2.831c-1.437,0.182 -1.795,0.576 -2.278,1.354l-7.819,1.477l-2.505,-0.126c-3.335,-0.334 -5.539,-0.281 -7.469,0.496l-14.037,11.698c-0.897,0.859 -1.484,2.148 -1.601,4.064Z"/></clipPath><g clip-path="url(#_clip2)"><g><path d="M69.147,34.581l0.086,0.011l0.084,0.017l0.083,0.024l0.081,0.03l0.079,0.035l0.076,0.041l0.073,0.046l0.069,0.052l0.065,0.056l0.061,0.061l0.056,0.066l0.051,0.069l0.046,0.073l0.081,0.138l0.08,0.136l0.081,0.136l0.162,0.272l0.082,0.135l0.166,0.271l0.167,0.271l0.169,0.27l0.169,0.271l0.171,0.271l0.173,0.27l0.173,0.271l0.347,0.543l0.348,0.545l0.175,0.274l0.174,0.276l0.174,0.276l0.173,0.277l0.172,0.279l0.171,0.279l0.086,0.142l0.085,0.141l0.084,0.142l0.085,0.142l0.167,0.285l0.083,0.144l0.083,0.144l0.082,0.145l0.082,0.145l0.081,0.146l0.081,0.146l0.079,0.147l0.08,0.148l0.079,0.148l0.078,0.148l0.078,0.15l0.077,0.151l0.076,0.15l0.075,0.152l0.075,0.152l0.074,0.153l0.073,0.154l0.072,0.154l0.051,0.11l0.05,0.111l0.098,0.218l0.098,0.219l0.097,0.22l0.096,0.218l0.096,0.217l0.097,0.215l0.097,0.213l0.049,0.105l0.049,0.105l0.049,0.103l0.049,0.103l0.05,0.102l0.05,0.102l0.051,0.099l0.052,0.1l0.051,0.098l0.052,0.096l0.052,0.095l0.053,0.095l0.054,0.092l0.054,0.092l0.055,0.09l0.055,0.088l0.056,0.087l0.056,0.085l0.059,0.085l0.027,0.039l0.029,0.041l0.029,0.04l0.059,0.079l0.03,0.039l0.029,0.038l0.03,0.038l0.031,0.038l0.03,0.037l0.03,0.036l0.031,0.037l0.031,0.035l0.031,0.035l0.031,0.035l0.031,0.034l0.032,0.034l0.032,0.033l0.032,0.032l0.064,0.064l0.033,0.031l0.066,0.061l0.033,0.03l0.034,0.029l0.033,0.029l0.034,0.028l0.035,0.028l0.034,0.028l0.034,0.026l0.035,0.027l0.035,0.026l0.036,0.025l0.036,0.025l0.072,0.048l0.037,0.024l0.036,0.023l0.038,0.022l0.038,0.022l0.037,0.022l0.039,0.021l0.039,0.021l0.039,0.02l0.039,0.019l0.041,0.02l0.04,0.019l0.041,0.018l0.041,0.018l0.042,0.017l0.043,0.017l0.043,0.016l0.043,0.016l0.044,0.016l0.044,0.014l0.046,0.015l0.045,0.014l0.032,0.009l0.032,0.009l0.032,0.008l0.032,0.009l0.032,0.007l0.033,0.007l0.033,0.007l0.033,0.006l0.032,0.006l0.066,0.011l0.034,0.005l0.068,0.008l0.034,0.003l0.034,0.003l0.034,0.003l0.035,0.003l0.071,0.003l0.07,0.003l0.037,0l0.035,0l0.036,0l0.037,-0.001l0.037,-0.001l0.037,-0.001l0.037,-0.002l0.037,-0.003l0.038,-0.002l0.037,-0.003l0.039,-0.003l0.035,-0.004l0.08,-0.008l0.078,-0.01l0.078,-0.011l0.08,-0.013l0.08,-0.015l0.081,-0.015l0.081,-0.017l0.083,-0.018l0.083,-0.02l0.083,-0.02l0.084,-0.022l0.085,-0.024l0.085,-0.024l0.086,-0.025l0.085,-0.027l0.087,-0.028l0.087,-0.029l0.087,-0.029l0.087,-0.031l0.088,-0.032l0.088,-0.032l0.089,-0.033l0.088,-0.034l0.089,-0.035l0.089,-0.035l0.089,-0.036l0.089,-0.036l0.089,-0.037l0.089,-0.037l0.18,-0.077l0.179,-0.078l0.179,-0.078l0.358,-0.159l0.178,-0.079l0.178,-0.079l0.179,-0.077l0.172,-0.074l0.081,-0.032l0.082,-0.024l0.085,-0.019l0.085,-0.013l0.086,-0.007l0.086,0l0.086,0.005l0.085,0.013l0.084,0.018l0.083,0.025l0.081,0.031l0.078,0.036l0.075,0.042l0.072,0.047l0.069,0.053l0.064,0.057l0.06,0.061l0.056,0.067l0.05,0.07l0.045,0.073l0.04,0.077l0.033,0.079l0.029,0.081l0.022,0.084l0.016,0.084l0.01,0.086l0.003,0.086l-0.003,0.086l-0.009,0.086l-0.016,0.085l-0.021,0.083l-0.028,0.082l-0.033,0.08l-0.039,0.076l-0.045,0.074l-0.05,0.07l-0.054,0.067l-0.06,0.062l-0.064,0.058l-0.068,0.053l-0.072,0.048l-0.075,0.042l-0.078,0.037l-0.167,0.071l-0.167,0.073l-0.172,0.076l-0.176,0.078l-0.362,0.161l-0.187,0.082l-0.191,0.082l-0.193,0.082l-0.099,0.042l-0.099,0.041l-0.1,0.041l-0.1,0.04l-0.102,0.041l-0.102,0.04l-0.103,0.039l-0.103,0.039l-0.104,0.038l-0.105,0.038l-0.106,0.037l-0.106,0.036l-0.108,0.035l-0.108,0.035l-0.108,0.034l-0.109,0.032l-0.11,0.031l-0.111,0.031l-0.111,0.03l-0.113,0.027l-0.112,0.027l-0.114,0.025l-0.114,0.024l-0.116,0.022l-0.115,0.02l-0.116,0.019l-0.117,0.017l-0.118,0.015l-0.116,0.012l-0.063,0.006l-0.059,0.006l-0.059,0.004l-0.06,0.004l-0.061,0.003l-0.06,0.003l-0.061,0.003l-0.06,0.002l-0.061,0.001l-0.061,0l-0.061,0l-0.06,-0.001l-0.062,-0.001l-0.062,-0.002l-0.061,-0.003l-0.061,-0.004l-0.062,-0.004l-0.062,-0.005l-0.062,-0.006l-0.062,-0.006l-0.062,-0.008l-0.063,-0.007l-0.062,-0.009l-0.062,-0.01l-0.062,-0.01l-0.063,-0.012l-0.062,-0.011l-0.063,-0.013l-0.062,-0.014l-0.063,-0.015l-0.062,-0.015l-0.063,-0.017l-0.061,-0.017l-0.063,-0.018l-0.077,-0.024l-0.076,-0.024l-0.075,-0.025l-0.075,-0.026l-0.075,-0.028l-0.073,-0.028l-0.072,-0.028l-0.073,-0.031l-0.071,-0.03l-0.071,-0.032l-0.07,-0.033l-0.069,-0.033l-0.068,-0.034l-0.069,-0.035l-0.066,-0.036l-0.067,-0.036l-0.066,-0.037l-0.064,-0.038l-0.065,-0.039l-0.063,-0.04l-0.063,-0.04l-0.061,-0.04l-0.062,-0.042l-0.061,-0.042l-0.059,-0.043l-0.059,-0.043l-0.059,-0.044l-0.058,-0.045l-0.057,-0.045l-0.056,-0.046l-0.055,-0.046l-0.055,-0.047l-0.054,-0.047l-0.053,-0.048l-0.053,-0.048l-0.052,-0.049l-0.052,-0.049l-0.051,-0.05l-0.049,-0.05l-0.05,-0.05l-0.049,-0.052l-0.047,-0.051l-0.048,-0.051l-0.047,-0.052l-0.046,-0.053l-0.046,-0.052l-0.044,-0.053l-0.045,-0.053l-0.044,-0.054l-0.043,-0.053l-0.043,-0.054l-0.042,-0.055l-0.042,-0.055l-0.041,-0.055l-0.041,-0.054l-0.04,-0.056l-0.039,-0.055l-0.04,-0.058l-0.076,-0.11l-0.074,-0.113l-0.073,-0.113l-0.072,-0.114l-0.069,-0.114l-0.068,-0.115l-0.066,-0.115l-0.065,-0.115l-0.064,-0.115l-0.063,-0.116l-0.06,-0.116l-0.06,-0.116l-0.059,-0.116l-0.058,-0.115l-0.056,-0.116l-0.056,-0.116l-0.054,-0.115l-0.054,-0.115l-0.053,-0.114l-0.053,-0.115l-0.051,-0.114l-0.101,-0.225l-0.099,-0.223l-0.097,-0.22l-0.096,-0.216l-0.094,-0.212l-0.094,-0.209l-0.046,-0.101l-0.046,-0.099l-0.066,-0.142l-0.067,-0.14l-0.067,-0.14l-0.069,-0.14l-0.069,-0.139l-0.07,-0.139l-0.071,-0.139l-0.072,-0.138l-0.072,-0.138l-0.073,-0.137l-0.075,-0.138l-0.074,-0.137l-0.076,-0.137l-0.076,-0.136l-0.076,-0.136l-0.078,-0.137l-0.078,-0.136l-0.078,-0.136l-0.08,-0.135l-0.079,-0.135l-0.081,-0.136l-0.081,-0.135l-0.08,-0.135l-0.082,-0.134l-0.166,-0.271l-0.166,-0.27l-0.169,-0.27l-0.169,-0.269l-0.171,-0.27l-0.171,-0.27l-0.347,-0.542l-0.348,-0.544l-0.175,-0.274l-0.174,-0.275l-0.175,-0.275l-0.174,-0.277l-0.173,-0.278l-0.173,-0.281l-0.172,-0.28l-0.086,-0.142l-0.085,-0.142l-0.085,-0.143l-0.084,-0.142l-0.085,-0.144l-0.083,-0.142l-0.04,-0.075l-0.036,-0.08l-0.028,-0.08l-0.023,-0.084l-0.018,-0.084l-0.011,-0.085l-0.004,-0.087l0.001,-0.086l0.009,-0.086l0.014,-0.085l0.02,-0.084l0.027,-0.082l0.032,-0.079l0.038,-0.078l0.044,-0.074l0.049,-0.071l0.054,-0.067l0.059,-0.063l0.063,-0.059l0.067,-0.053l0.072,-0.049l0.074,-0.043l0.077,-0.039l0.081,-0.032l0.082,-0.026l0.084,-0.02l0.085,-0.014l0.085,-0.007l0.087,-0.002l0.085,0.005Z" style="fill:#91292a;"/><path d="M92.222,29.499l0.053,0.001l0.055,0.002l0.056,0.004l0.054,0.005l0.053,0.005l0.054,0.006l0.054,0.008l0.052,0.008l0.054,0.009l0.052,0.01l0.052,0.012l0.052,0.011l0.051,0.013l0.052,0.014l0.051,0.015l0.05,0.015l0.05,0.016l0.049,0.017l0.049,0.018l0.049,0.019l0.048,0.018l0.047,0.021l0.048,0.021l0.047,0.021l0.046,0.022l0.046,0.023l0.045,0.023l0.045,0.025l0.044,0.024l0.044,0.025l0.044,0.027l0.043,0.026l0.042,0.027l0.042,0.028l0.041,0.029l0.082,0.057l0.04,0.03l0.04,0.031l0.038,0.031l0.039,0.03l0.038,0.033l0.038,0.033l0.037,0.032l0.036,0.032l0.039,0.037l0.068,0.066l0.068,0.07l0.068,0.072l0.065,0.073l0.063,0.075l0.061,0.075l0.06,0.079l0.058,0.078l0.056,0.08l0.054,0.081l0.052,0.082l0.05,0.084l0.049,0.085l0.047,0.086l0.045,0.086l0.043,0.088l0.041,0.089l0.04,0.089l0.038,0.091l0.036,0.092l0.033,0.092l0.032,0.093l0.03,0.094l0.029,0.095l0.023,0.084l0.01,0.039l0.008,0.038l0.007,0.039l0.006,0.039l0.005,0.039l0.004,0.039l0.001,0.04l0.002,0.039l-0.001,0.039l-0.002,0.04l-0.003,0.039l-0.005,0.039l-0.006,0.039l-0.007,0.039l-0.008,0.039l-0.01,0.038l-0.011,0.038l-0.012,0.037l-0.014,0.038l-0.015,0.036l-0.016,0.036l-0.017,0.036l-0.018,0.034l-0.019,0.035l-0.021,0.033l-0.022,0.033l-0.023,0.033l-0.024,0.031l-0.024,0.031l-0.026,0.029l-0.027,0.029l-0.028,0.028l-0.029,0.027l-0.03,0.026l-0.03,0.025l-0.032,0.024l-0.031,0.023l-0.033,0.022l-0.034,0.02l-0.034,0.02l-0.035,0.018l-0.036,0.017l-0.036,0.017l-0.036,0.015l-0.037,0.013l-0.037,0.013l-0.038,0.011l-0.039,0.009l-0.038,0.009l-0.039,0.007l-0.039,0.006l-0.039,0.005l-0.039,0.003l-0.04,0.002l-0.039,0.001l-0.039,-0.001l-0.04,-0.002l-0.039,-0.003l-0.039,-0.004l-0.039,-0.006l-0.039,-0.007l-0.039,-0.009l-0.038,-0.01l-0.038,-0.011l-0.037,-0.012l-0.038,-0.013l-0.036,-0.015l-0.036,-0.016l-0.036,-0.017l-0.034,-0.018l-0.035,-0.02l-0.033,-0.02l-0.033,-0.022l-0.032,-0.023l-0.032,-0.024l-0.03,-0.025l-0.03,-0.026l-0.029,-0.027l-0.028,-0.027l-0.027,-0.029l-0.026,-0.03l-0.025,-0.031l-0.024,-0.031l-0.023,-0.032l-0.022,-0.033l-0.02,-0.033l-0.02,-0.035l-0.018,-0.034l-0.017,-0.036l-0.017,-0.036l-0.015,-0.036l-0.013,-0.038l-0.013,-0.037l-0.011,-0.038l-0.016,-0.06l-0.014,-0.047l-0.015,-0.047l-0.017,-0.047l-0.017,-0.047l-0.018,-0.045l-0.018,-0.046l-0.02,-0.044l-0.02,-0.044l-0.021,-0.043l-0.022,-0.042l-0.022,-0.041l-0.023,-0.04l-0.025,-0.04l-0.024,-0.038l-0.025,-0.037l-0.025,-0.037l-0.026,-0.035l-0.025,-0.034l-0.027,-0.033l-0.027,-0.031l-0.027,-0.03l-0.027,-0.029l-0.027,-0.028l-0.03,-0.029l-0.01,-0.009l-0.014,-0.013l-0.015,-0.013l-0.012,-0.011l-0.014,-0.011l-0.014,-0.012l-0.013,-0.01l-0.014,-0.01l-0.013,-0.01l-0.013,-0.01l-0.013,-0.009l-0.014,-0.009l-0.013,-0.009l-0.013,-0.008l-0.013,-0.008l-0.012,-0.008l-0.014,-0.007l-0.013,-0.007l-0.012,-0.007l-0.012,-0.007l-0.012,-0.006l-0.013,-0.006l-0.012,-0.005l-0.012,-0.005l-0.012,-0.006l-0.012,-0.004l-0.012,-0.005l-0.012,-0.004l-0.011,-0.004l-0.011,-0.004l-0.012,-0.003l-0.012,-0.003l-0.01,-0.003l-0.011,-0.003l-0.011,-0.003l-0.012,-0.002l-0.011,-0.002l-0.01,-0.002l-0.012,-0.002l-0.01,-0.002l-0.011,-0.001l-0.012,-0.001l-0.011,-0.001l-0.01,0l-0.011,-0.001l-0.012,0l-0.011,0l-0.012,0l-0.011,0l-0.012,0.001l-0.011,0l-0.012,0.001l-0.012,0.002l-0.012,0.001l-0.013,0.002l-0.013,0.002l-0.013,0.002l-0.013,0.003l-0.013,0.003l-0.014,0.003l-0.013,0.003l-0.015,0.004l-0.016,0.005l-0.014,0.004l-0.014,0.005l-0.016,0.006l-0.016,0.006l-0.017,0.006l-0.016,0.007l-0.017,0.007l-0.017,0.008l-0.018,0.008l-0.019,0.009l-0.018,0.01l-0.019,0.01l-0.018,0.01l-0.021,0.011l-0.028,0.017l-0.034,0.02l-0.036,0.018l-0.035,0.017l-0.036,0.016l-0.037,0.015l-0.037,0.014l-0.037,0.012l-0.038,0.011l-0.038,0.01l-0.038,0.008l-0.039,0.008l-0.039,0.006l-0.04,0.004l-0.039,0.003l-0.039,0.002l-0.04,0.001l-0.039,-0.001l-0.039,-0.002l-0.04,-0.003l-0.039,-0.005l-0.039,-0.006l-0.039,-0.007l-0.038,-0.009l-0.038,-0.009l-0.038,-0.012l-0.038,-0.012l-0.037,-0.014l-0.036,-0.014l-0.036,-0.016l-0.036,-0.017l-0.035,-0.019l-0.034,-0.02l-0.034,-0.02l-0.032,-0.022l-0.033,-0.023l-0.031,-0.024l-0.031,-0.025l-0.029,-0.026l-0.029,-0.027l-0.028,-0.027l-0.027,-0.029l-0.026,-0.03l-0.025,-0.031l-0.023,-0.031l-0.023,-0.032l-0.022,-0.033l-0.021,-0.034l-0.019,-0.034l-0.019,-0.035l-0.017,-0.035l-0.016,-0.036l-0.014,-0.037l-0.014,-0.037l-0.012,-0.038l-0.012,-0.038l-0.009,-0.038l-0.009,-0.038l-0.007,-0.039l-0.006,-0.039l-0.004,-0.039l-0.003,-0.04l-0.002,-0.039l-0.001,-0.039l0.001,-0.04l0.002,-0.039l0.003,-0.039l0.005,-0.04l0.006,-0.039l0.007,-0.039l0.009,-0.038l0.009,-0.038l0.011,-0.038l0.013,-0.037l0.013,-0.037l0.015,-0.037l0.016,-0.036l0.017,-0.035l0.018,-0.035l0.02,-0.034l0.021,-0.034l0.022,-0.033l0.022,-0.032l0.025,-0.031l0.024,-0.031l0.026,-0.029l0.027,-0.029l0.028,-0.028l0.029,-0.027l0.03,-0.026l0.03,-0.025l0.031,-0.024l0.033,-0.023l0.033,-0.021l0.034,-0.021l0.042,-0.025l0.051,-0.029l0.052,-0.029l0.052,-0.028l0.053,-0.027l0.052,-0.026l0.053,-0.024l0.054,-0.025l0.053,-0.023l0.053,-0.021l0.054,-0.021l0.054,-0.021l0.055,-0.019l0.054,-0.018l0.055,-0.017l0.055,-0.016l0.054,-0.015l0.056,-0.014l0.055,-0.013l0.055,-0.012l0.056,-0.011l0.055,-0.01l0.056,-0.009l0.055,-0.007l0.055,-0.007l0.056,-0.006l0.056,-0.004l0.055,-0.004l0.055,-0.003l0.055,-0.001l0.056,-0.001l0.055,0.001Z" style="fill:#91292a;"/><path d="M75.9,53.817l0.071,0.007l0.071,0.01l0.069,0.014l0.069,0.019l0.068,0.023l0.066,0.027l0.064,0.031l0.062,0.034l0.06,0.039l0.058,0.042l0.055,0.044l0.052,0.049l0.049,0.052l0.046,0.054l0.043,0.057l0.039,0.06l0.035,0.062l0.032,0.064l0.028,0.066l0.023,0.067l0.02,0.068l0.015,0.07l0.011,0.07l0.007,0.071l0.003,0.071l-0.002,0.072l-0.005,0.102l-0.006,0.099l-0.004,0.099l-0.004,0.099l-0.003,0.099l-0.003,0.099l-0.003,0.099l-0.002,0.1l-0.002,0.099l-0.001,0.099l-0.001,0.1l0,0.099l0,0.1l0,0.098l0.003,0.201l0.004,0.2l0.005,0.2l0.007,0.2l0.009,0.2l0.01,0.201l0.012,0.2l0.013,0.201l0.015,0.206l0.006,0.097l0.007,0.1l0.005,0.099l0.005,0.1l0.008,0.193l0.007,0.19l0.007,0.185l0.008,0.182l0.004,0.088l0.005,0.087l0.004,0.085l0.006,0.085l0.006,0.082l0.007,0.082l0.008,0.08l0.009,0.078l0.009,0.077l0.01,0.075l0.011,0.073l0.012,0.071l0.014,0.073l0.006,0.031l0.008,0.034l0.007,0.033l0.008,0.033l0.008,0.032l0.008,0.032l0.009,0.031l0.008,0.031l0.01,0.031l0.009,0.029l0.01,0.03l0.009,0.029l0.021,0.058l0.014,0.035l0.014,0.036l0.014,0.035l0.014,0.033l0.015,0.033l0.015,0.033l0.015,0.032l0.015,0.032l0.015,0.03l0.016,0.029l0.015,0.029l0.016,0.028l0.016,0.029l0.015,0.027l0.017,0.026l0.016,0.026l0.016,0.026l0.033,0.049l0.033,0.046l0.017,0.023l0.017,0.022l0.017,0.021l0.017,0.021l0.017,0.021l0.017,0.02l0.018,0.02l0.017,0.019l0.018,0.019l0.018,0.018l0.017,0.018l0.037,0.036l0.018,0.016l0.038,0.033l0.018,0.016l0.019,0.015l0.02,0.016l0.019,0.015l0.019,0.014l0.02,0.015l0.021,0.014l0.019,0.014l0.021,0.013l0.02,0.013l0.022,0.014l0.021,0.013l0.021,0.012l0.021,0.012l0.022,0.012l0.022,0.012l0.046,0.023l0.023,0.011l0.023,0.01l0.023,0.012l0.025,0.01l0.024,0.01l0.023,0.01l0.026,0.01l0.025,0.009l0.026,0.01l0.025,0.009l0.026,0.008l0.027,0.009l0.027,0.008l0.027,0.008l0.028,0.008l0.028,0.008l0.027,0.007l0.029,0.008l0.029,0.006l0.029,0.007l0.027,0.006l0.063,0.013l0.062,0.011l0.063,0.01l0.064,0.009l0.065,0.008l0.067,0.007l0.069,0.006l0.069,0.005l0.07,0.004l0.072,0.003l0.073,0.002l0.074,0l0.075,0l0.076,-0.001l0.077,-0.002l0.079,-0.004l0.079,-0.005l0.08,-0.005l0.081,-0.006l0.082,-0.008l0.083,-0.008l0.083,-0.01l0.084,-0.01l0.085,-0.012l0.086,-0.011l0.086,-0.014l0.086,-0.014l0.088,-0.014l0.088,-0.016l0.089,-0.017l0.088,-0.017l0.091,-0.018l0.089,-0.018l0.09,-0.02l0.091,-0.02l0.091,-0.021l0.092,-0.021l0.091,-0.023l0.092,-0.022l0.092,-0.024l0.092,-0.024l0.092,-0.024l0.094,-0.025l0.091,-0.025l0.187,-0.053l0.186,-0.054l0.185,-0.055l0.186,-0.056l0.185,-0.058l0.185,-0.058l0.184,-0.059l0.183,-0.059l0.181,-0.059l0.36,-0.119l0.353,-0.117l0.174,-0.057l0.172,-0.056l0.17,-0.056l0.169,-0.053l0.165,-0.052l0.164,-0.05l0.162,-0.048l0.157,-0.045l0.08,-0.022l0.079,-0.021l0.077,-0.021l0.073,-0.019l0.07,-0.015l0.07,-0.012l0.071,-0.007l0.071,-0.003l0.072,0.002l0.071,0.006l0.07,0.01l0.07,0.014l0.069,0.018l0.067,0.023l0.066,0.026l0.065,0.031l0.062,0.035l0.061,0.038l0.058,0.041l0.055,0.045l0.052,0.049l0.05,0.051l0.046,0.054l0.042,0.058l0.04,0.059l0.035,0.061l0.032,0.065l0.028,0.065l0.024,0.067l0.02,0.069l0.015,0.069l0.012,0.071l0.007,0.071l0.003,0.071l-0.002,0.071l-0.005,0.071l-0.01,0.07l-0.015,0.071l-0.018,0.068l-0.022,0.068l-0.027,0.066l-0.031,0.064l-0.034,0.063l-0.038,0.06l-0.042,0.058l-0.045,0.055l-0.048,0.052l-0.052,0.05l-0.054,0.046l-0.057,0.043l-0.06,0.04l-0.062,0.035l-0.063,0.032l-0.066,0.028l-0.067,0.024l-0.069,0.019l-0.065,0.017l-0.062,0.017l-0.064,0.017l-0.065,0.018l-0.137,0.039l-0.142,0.042l-0.147,0.046l-0.153,0.047l-0.157,0.05l-0.161,0.052l-0.167,0.055l-0.17,0.056l-0.352,0.116l-0.363,0.12l-0.188,0.061l-0.189,0.062l-0.193,0.061l-0.195,0.062l-0.196,0.061l-0.199,0.06l-0.202,0.06l-0.203,0.059l-0.202,0.057l-0.105,0.029l-0.103,0.027l-0.103,0.027l-0.104,0.028l-0.104,0.026l-0.105,0.026l-0.105,0.025l-0.105,0.025l-0.105,0.024l-0.105,0.023l-0.106,0.023l-0.106,0.022l-0.106,0.022l-0.107,0.02l-0.106,0.02l-0.106,0.019l-0.107,0.018l-0.107,0.018l-0.107,0.015l-0.107,0.016l-0.107,0.014l-0.108,0.014l-0.108,0.011l-0.107,0.012l-0.108,0.009l-0.107,0.009l-0.108,0.007l-0.108,0.006l-0.108,0.005l-0.108,0.003l-0.108,0.002l-0.108,0.001l-0.108,-0.001l-0.108,-0.003l-0.108,-0.004l-0.108,-0.006l-0.108,-0.008l-0.107,-0.009l-0.107,-0.011l-0.108,-0.014l-0.108,-0.015l-0.108,-0.017l-0.106,-0.02l-0.104,-0.021l-0.057,-0.012l-0.053,-0.012l-0.053,-0.013l-0.053,-0.013l-0.055,-0.014l-0.052,-0.015l-0.053,-0.015l-0.053,-0.016l-0.053,-0.016l-0.052,-0.018l-0.052,-0.017l-0.054,-0.019l-0.051,-0.018l-0.052,-0.02l-0.052,-0.021l-0.053,-0.021l-0.052,-0.022l-0.05,-0.022l-0.052,-0.023l-0.05,-0.024l-0.052,-0.024l-0.05,-0.026l-0.051,-0.026l-0.05,-0.026l-0.049,-0.027l-0.05,-0.029l-0.051,-0.029l-0.048,-0.03l-0.048,-0.03l-0.049,-0.032l-0.048,-0.031l-0.048,-0.033l-0.047,-0.034l-0.047,-0.033l-0.047,-0.036l-0.047,-0.036l-0.044,-0.036l-0.046,-0.037l-0.045,-0.038l-0.045,-0.039l-0.044,-0.039l-0.044,-0.04l-0.043,-0.041l-0.042,-0.041l-0.042,-0.043l-0.042,-0.043l-0.041,-0.044l-0.04,-0.044l-0.041,-0.046l-0.039,-0.045l-0.039,-0.046l-0.038,-0.048l-0.039,-0.048l-0.036,-0.049l-0.037,-0.048l-0.036,-0.05l-0.035,-0.051l-0.036,-0.052l-0.033,-0.051l-0.034,-0.052l-0.033,-0.054l-0.032,-0.053l-0.032,-0.055l-0.031,-0.054l-0.031,-0.056l-0.03,-0.056l-0.029,-0.057l-0.029,-0.057l-0.028,-0.058l-0.028,-0.059l-0.026,-0.059l-0.026,-0.059l-0.027,-0.061l-0.024,-0.061l-0.025,-0.06l-0.024,-0.064l-0.021,-0.057l-0.021,-0.058l-0.02,-0.059l-0.018,-0.058l-0.018,-0.058l-0.018,-0.059l-0.017,-0.058l-0.015,-0.058l-0.015,-0.057l-0.014,-0.058l-0.014,-0.057l-0.013,-0.058l-0.012,-0.056l-0.012,-0.061l-0.021,-0.109l-0.019,-0.112l-0.017,-0.111l-0.015,-0.111l-0.013,-0.108l-0.012,-0.109l-0.01,-0.107l-0.009,-0.105l-0.008,-0.105l-0.007,-0.103l-0.006,-0.103l-0.005,-0.101l-0.005,-0.1l-0.008,-0.194l-0.007,-0.19l-0.007,-0.183l-0.008,-0.18l-0.004,-0.085l-0.004,-0.084l-0.006,-0.083l-0.006,-0.085l-0.015,-0.212l-0.014,-0.217l-0.013,-0.218l-0.011,-0.218l-0.009,-0.217l-0.008,-0.219l-0.006,-0.219l-0.004,-0.219l-0.003,-0.217l0,-0.111l0,-0.11l0,-0.11l0.001,-0.11l0.002,-0.11l0.001,-0.11l0.003,-0.109l0.003,-0.111l0.003,-0.11l0.004,-0.11l0.004,-0.11l0.005,-0.111l0.005,-0.11l0.006,-0.107l0.006,-0.071l0.011,-0.071l0.014,-0.07l0.019,-0.069l0.023,-0.067l0.026,-0.066l0.032,-0.064l0.034,-0.063l0.038,-0.059l0.042,-0.058l0.046,-0.055l0.048,-0.053l0.052,-0.049l0.054,-0.046l0.058,-0.042l0.059,-0.04l0.062,-0.035l0.064,-0.031l0.065,-0.028l0.068,-0.024l0.069,-0.019l0.069,-0.015l0.07,-0.012l0.071,-0.007l0.072,-0.002l0.071,0.001Z" style="fill:#91292a;"/><path d="M89.607,59.717l0.069,0.005l0.07,0.009l0.068,0.013l0.068,0.017l0.067,0.02l0.065,0.026l0.064,0.029l0.062,0.032l0.06,0.036l0.057,0.04l0.056,0.043l0.052,0.046l0.05,0.049l0.047,0.052l0.043,0.055l0.04,0.057l0.037,0.06l0.033,0.061l0.161,0.322l0.162,0.321l0.324,0.645l0.327,0.648l0.162,0.326l0.164,0.326l0.163,0.327l0.162,0.328l0.162,0.33l0.161,0.329l0.16,0.332l0.16,0.332l0.157,0.333l0.079,0.168l0.078,0.167l0.078,0.168l0.077,0.168l0.154,0.338l0.076,0.168l0.075,0.17l0.075,0.169l0.075,0.17l0.148,0.341l0.072,0.17l0.073,0.172l0.143,0.343l0.07,0.173l0.07,0.172l0.069,0.173l0.068,0.174l0.067,0.173l0.067,0.174l0.066,0.175l0.066,0.175l0.064,0.175l0.063,0.176l0.063,0.175l0.062,0.177l0.06,0.177l0.06,0.177l0.059,0.178l0.058,0.178l0.057,0.178l0.055,0.176l0.019,0.067l0.015,0.068l0.011,0.069l0.006,0.07l0.003,0.07l-0.002,0.07l-0.006,0.07l-0.009,0.069l-0.014,0.069l-0.018,0.067l-0.022,0.067l-0.026,0.064l-0.029,0.064l-0.034,0.062l-0.037,0.059l-0.04,0.057l-0.044,0.055l-0.046,0.052l-0.051,0.049l-0.052,0.046l-0.056,0.042l-0.057,0.04l-0.06,0.036l-0.062,0.032l-0.064,0.029l-0.065,0.025l-0.067,0.02l-0.068,0.018l-0.069,0.012l-0.069,0.009l-0.07,0.004l-0.07,0.001l-0.07,-0.003l-0.069,-0.008l-0.069,-0.012l-0.068,-0.016l-0.067,-0.02l-0.066,-0.024l-0.064,-0.028l-0.062,-0.031l-0.061,-0.036l-0.059,-0.038l-0.055,-0.042l-0.054,-0.045l-0.05,-0.049l-0.048,-0.051l-0.044,-0.054l-0.041,-0.056l-0.038,-0.059l-0.034,-0.062l-0.031,-0.062l-0.026,-0.065l-0.023,-0.066l-0.054,-0.17l-0.052,-0.165l-0.054,-0.165l-0.055,-0.165l-0.056,-0.165l-0.056,-0.165l-0.058,-0.165l-0.059,-0.164l-0.059,-0.165l-0.06,-0.165l-0.062,-0.164l-0.062,-0.164l-0.062,-0.164l-0.064,-0.163l-0.065,-0.164l-0.065,-0.164l-0.066,-0.163l-0.067,-0.164l-0.067,-0.163l-0.068,-0.163l-0.069,-0.163l-0.07,-0.163l-0.07,-0.164l-0.071,-0.162l-0.071,-0.163l-0.072,-0.163l-0.073,-0.162l-0.073,-0.163l-0.074,-0.162l-0.074,-0.163l-0.075,-0.161l-0.075,-0.163l-0.076,-0.162l-0.075,-0.162l-0.154,-0.324l-0.155,-0.324l-0.157,-0.324l-0.158,-0.323l-0.159,-0.323l-0.159,-0.324l-0.162,-0.322l-0.161,-0.324l-0.162,-0.322l-0.325,-0.647l-0.325,-0.646l-0.162,-0.323l-0.162,-0.322l-0.03,-0.064l-0.025,-0.065l-0.022,-0.067l-0.017,-0.067l-0.014,-0.069l-0.01,-0.069l-0.005,-0.069l-0.002,-0.071l0.003,-0.069l0.007,-0.07l0.01,-0.069l0.016,-0.068l0.019,-0.068l0.023,-0.066l0.027,-0.064l0.031,-0.063l0.034,-0.061l0.038,-0.059l0.041,-0.056l0.045,-0.054l0.047,-0.051l0.051,-0.049l0.053,-0.044l0.056,-0.042l0.059,-0.039l0.061,-0.035l0.062,-0.031l0.064,-0.028l0.066,-0.024l0.067,-0.02l0.068,-0.015l0.069,-0.012l0.07,-0.007l0.07,-0.004l0.07,0.001Z" style="fill:#91292a;"/><path d="M76.819,66.645l0.078,0.008l0.078,0.014l0.077,0.019l0.075,0.023l0.074,0.029l0.071,0.034l0.068,0.038l0.067,0.043l0.063,0.047l0.06,0.051l0.056,0.055l0.053,0.059l0.048,0.062l0.045,0.066l0.04,0.067l0.035,0.071l0.03,0.073l0.026,0.075l0.02,0.076l0.016,0.077l0.01,0.079l0.004,0.078l0,0.079l-0.006,0.079l-0.011,0.078l-0.016,0.077l-0.021,0.076l-0.027,0.074l-0.08,0.207l-0.079,0.205l-0.078,0.205l-0.078,0.205l-0.076,0.206l-0.076,0.206l-0.075,0.207l-0.075,0.207l-0.073,0.208l-0.074,0.207l-0.072,0.208l-0.072,0.208l-0.071,0.209l-0.071,0.21l-0.07,0.208l-0.07,0.211l-0.069,0.209l-0.069,0.211l-0.068,0.21l-0.068,0.21l-0.135,0.423l-0.134,0.424l-0.132,0.424l-0.132,0.426l-0.131,0.426l-0.131,0.427l-0.261,0.856l-0.262,0.858l-0.132,0.43l-0.133,0.429l-0.135,0.431l-0.135,0.43l-0.137,0.43l-0.07,0.217l-0.07,0.215l-0.07,0.215l-0.071,0.215l-0.072,0.216l-0.072,0.216l-0.072,0.215l-0.073,0.216l-0.075,0.214l-0.074,0.216l-0.076,0.215l-0.076,0.215l-0.077,0.215l-0.077,0.213l-0.029,0.073l-0.034,0.071l-0.039,0.069l-0.044,0.065l-0.047,0.063l-0.052,0.06l-0.056,0.056l-0.059,0.052l-0.062,0.048l-0.066,0.044l-0.069,0.039l-0.071,0.035l-0.072,0.029l-0.075,0.026l-0.077,0.019l-0.077,0.015l-0.079,0.009l-0.078,0.004l-0.079,-0.001l-0.079,-0.006l-0.077,-0.012l-0.078,-0.016l-0.075,-0.022l-0.075,-0.027l-0.072,-0.032l-0.07,-0.037l-0.067,-0.04l-0.064,-0.046l-0.062,-0.05l-0.058,-0.054l-0.053,-0.057l-0.05,-0.061l-0.046,-0.064l-0.042,-0.067l-0.037,-0.069l-0.032,-0.072l-0.028,-0.074l-0.022,-0.076l-0.017,-0.077l-0.012,-0.078l-0.007,-0.079l-0.002,-0.078l0.004,-0.079l0.009,-0.079l0.014,-0.077l0.019,-0.077l0.025,-0.075l0.076,-0.209l0.074,-0.207l0.074,-0.207l0.072,-0.208l0.073,-0.208l0.071,-0.209l0.072,-0.209l0.07,-0.209l0.071,-0.21l0.069,-0.21l0.069,-0.21l0.069,-0.21l0.068,-0.211l0.068,-0.21l0.135,-0.424l0.133,-0.423l0.133,-0.425l0.131,-0.425l0.131,-0.427l0.262,-0.855l0.261,-0.856l0.132,-0.43l0.132,-0.429l0.133,-0.431l0.134,-0.43l0.137,-0.431l0.136,-0.43l0.07,-0.215l0.07,-0.215l0.07,-0.216l0.071,-0.215l0.072,-0.216l0.072,-0.215l0.073,-0.215l0.074,-0.215l0.073,-0.215l0.075,-0.216l0.076,-0.215l0.077,-0.214l0.077,-0.216l0.078,-0.214l0.079,-0.215l0.08,-0.215l0.08,-0.214l0.082,-0.214l0.083,-0.214l0.083,-0.212l0.031,-0.072l0.036,-0.071l0.04,-0.067l0.045,-0.065l0.05,-0.061l0.053,-0.059l0.057,-0.055l0.06,-0.05l0.064,-0.046l0.067,-0.042l0.069,-0.038l0.072,-0.032l0.074,-0.029l0.075,-0.023l0.077,-0.017l0.078,-0.013l0.078,-0.008l0.079,-0.002l0.079,0.003Z" style="fill:#91292a;"/></g><path d="M71.586,14.498c0,0 4.643,0.23 7.035,0.732c1.513,0.318 3.514,1.188 5.055,1.03c1.211,-0.125 1.823,-1.476 1.771,-2.567c-0.082,-1.683 -1.005,-3.669 -2.061,-4.958c-0.193,-0.237 -0.886,-1.174 -1.214,-1.152c-1.536,0.103 -2.121,1.771 -2.883,2.769c-0.626,0.82 -1.536,1.308 -2.509,1.601c-1.458,0.439 -3.193,-0.063 -4.492,0.903c-0.571,0.423 -1.824,1.388 -0.702,1.642Z" style="fill:#91292a;"/><path d="M60.316,96.938l-1.411,-67.211c-0.057,-2.928 -1.4,-4.13 -3.207,-4.36l-18.47,-2.437l1.539,67.724l21.549,6.284Z" style="fill:#91292a;"/><path d="M53.146,22.646c1.812,0.438 3.705,0.693 5.758,0.589c2.559,-0.161 4.808,-0.639 6.22,-1.976c1.27,-1.311 2.207,-2.672 2.27,-4.161c0.019,-0.823 -0.141,-1.546 -0.756,-2.017c-1.043,-0.848 -1.763,-0.809 -2.312,-0.294c-4.419,4.13 -7.994,6.42 -11.18,7.859Z" style="fill:#d95b4c;"/><g><path d="M70.43,81.597l0.028,0.001l0.029,0.002l0.029,0.003l0.056,0.007l0.028,0.004l0.028,0.005l0.028,0.006l0.056,0.014l0.027,0.008l0.027,0.009l0.027,0.009l0.027,0.01l0.027,0.01l0.026,0.011l0.026,0.012l0.026,0.012l0.025,0.013l0.025,0.014l0.025,0.014l0.024,0.015l0.024,0.015l0.024,0.016l0.023,0.017l0.023,0.017l0.044,0.035l0.022,0.019l0.021,0.02l0.021,0.019l0.02,0.02l0.019,0.021l0.019,0.021l0.019,0.022l0.018,0.022l0.017,0.022l0.017,0.023l0.017,0.024l0.016,0.023l0.015,0.025l0.015,0.024l0.014,0.025l0.014,0.025l0.024,0.051l0.012,0.026l0.011,0.026l0.021,0.053l0.008,0.027l0.009,0.028l0.008,0.027l0.007,0.028l0.006,0.028l0.006,0.028l0.005,0.028l0.004,0.028l0.004,0.028l0.003,0.028l0.003,0.029l0.001,0.028l0.002,0.057l-0.001,0.029l-0.001,0.028l-0.002,0.029l-0.002,0.028l-0.002,0.015l0.004,-0.003l0.025,-0.013l0.026,-0.013l0.026,-0.011l0.026,-0.012l0.027,-0.01l0.026,-0.01l0.028,-0.01l0.027,-0.009l0.027,-0.007l0.028,-0.008l0.027,-0.006l0.028,-0.007l0.028,-0.005l0.028,-0.005l0.028,-0.004l0.029,-0.003l0.028,-0.003l0.028,-0.002l0.029,-0.001l0.029,0l0.028,0l0.029,0l0.028,0.002l0.057,0.005l0.028,0.003l0.028,0.005l0.028,0.005l0.029,0.005l0.027,0.006l0.028,0.008l0.027,0.007l0.028,0.008l0.027,0.009l0.027,0.01l0.026,0.01l0.027,0.01l0.052,0.024l0.025,0.013l0.025,0.014l0.025,0.013l0.025,0.015l0.024,0.015l0.024,0.016l0.023,0.016l0.023,0.017l0.045,0.035l0.021,0.018l0.043,0.039l0.04,0.04l0.019,0.022l0.019,0.021l0.019,0.022l0.017,0.022l0.017,0.023l0.017,0.023l0.016,0.023l0.016,0.024l0.015,0.025l0.014,0.024l0.014,0.025l0.013,0.025l0.012,0.026l0.013,0.026l0.011,0.026l0.011,0.027l0.01,0.026l0.009,0.027l0.009,0.027l0.015,0.056l0.007,0.027l0.006,0.028l0.005,0.028l0.005,0.028l0.004,0.028l0.003,0.029l0.005,0.056l0.001,0.029l0.001,0.029l0,0.028l-0.001,0.028l-0.002,0.029l-0.002,0.029l-0.003,0.028l-0.003,0.028l-0.005,0.029l-0.004,0.027l-0.006,0.029l-0.006,0.027l-0.007,0.028l-0.008,0.027l-0.008,0.028l-0.009,0.026l-0.009,0.028l-0.01,0.026l-0.012,0.027l-0.011,0.026l-0.012,0.026l-0.013,0.025l-0.013,0.025l-0.014,0.025l-0.015,0.024l-0.015,0.025l-0.015,0.024l-0.017,0.023l-0.017,0.023l-0.017,0.023l-0.018,0.022l-0.019,0.021l-0.018,0.022l-0.02,0.02l-0.02,0.021l-0.02,0.02l-0.021,0.019l-0.021,0.019l-0.022,0.018l-0.023,0.018l-0.029,0.023l-0.039,0.029l-0.04,0.029l-0.04,0.026l-0.041,0.027l-0.041,0.026l-0.041,0.024l-0.043,0.024l-0.043,0.023l-0.042,0.021l-0.044,0.022l-0.045,0.02l-0.043,0.018l-0.045,0.018l-0.046,0.017l-0.045,0.015l-0.047,0.015l-0.045,0.013l-0.045,0.013l-0.048,0.012l-0.046,0.01l-0.045,0.008l-0.047,0.009l-0.047,0.007l-0.046,0.006l-0.048,0.004l-0.045,0.005l-0.046,0.002l-0.047,0.002l-0.052,0.001l-0.085,-0.002l-0.091,-0.005l-0.088,-0.01l-0.088,-0.013l-0.086,-0.016l-0.085,-0.02l-0.083,-0.023l-0.081,-0.025l-0.08,-0.029l-0.077,-0.031l-0.076,-0.034l-0.074,-0.036l-0.072,-0.038l-0.07,-0.041l-0.068,-0.043l-0.066,-0.044l-0.064,-0.047l-0.063,-0.049l-0.061,-0.05l-0.058,-0.052l-0.057,-0.053l-0.055,-0.055l-0.054,-0.057l-0.051,-0.058l-0.049,-0.061l-0.048,-0.061l-0.046,-0.063l-0.045,-0.065l-0.041,-0.065l-0.04,-0.067l-0.038,-0.069l-0.036,-0.07l-0.035,-0.071l-0.031,-0.073l-0.03,-0.075l-0.028,-0.075l-0.024,-0.078l-0.023,-0.078l-0.02,-0.08l-0.018,-0.08l-0.014,-0.082l-0.012,-0.084l-0.009,-0.084l-0.006,-0.085l-0.003,-0.088l0.001,-0.087l0.004,-0.087l0.007,-0.088l0.008,-0.067l0.004,-0.028l0.004,-0.028l0.006,-0.028l0.006,-0.028l0.006,-0.028l0.007,-0.027l0.008,-0.028l0.009,-0.027l0.009,-0.027l0.01,-0.026l0.01,-0.027l0.011,-0.026l0.012,-0.026l0.013,-0.026l0.013,-0.026l0.013,-0.025l0.014,-0.024l0.015,-0.025l0.015,-0.024l0.016,-0.023l0.017,-0.023l0.017,-0.023l0.018,-0.023l0.018,-0.022l0.018,-0.021l0.02,-0.022l0.019,-0.02l0.021,-0.02l0.021,-0.02l0.021,-0.019l0.021,-0.019l0.022,-0.017l0.023,-0.018l0.022,-0.017l0.024,-0.017l0.024,-0.016l0.024,-0.015l0.024,-0.015l0.025,-0.013l0.025,-0.014l0.025,-0.013l0.026,-0.012l0.026,-0.012l0.026,-0.011l0.027,-0.01l0.027,-0.01l0.027,-0.009l0.027,-0.008l0.027,-0.008l0.028,-0.007l0.028,-0.007l0.028,-0.006l0.028,-0.005l0.028,-0.004l0.029,-0.004l0.028,-0.003l0.028,-0.002l0.029,-0.002l0.028,-0.001l0.029,0l0.028,0Z" style="fill:#d95b4c;"/><path d="M77.507,66.069l0.022,0.001l0.044,0.002l0.044,0.004l0.022,0.003l0.044,0.006l0.021,0.004l0.022,0.004l0.022,0.004l0.021,0.005l0.022,0.006l0.042,0.011l0.021,0.007l0.021,0.007l0.021,0.007l0.02,0.008l0.021,0.008l0.02,0.009l0.021,0.009l0.02,0.008l0.019,0.01l0.02,0.01l0.02,0.011l0.019,0.01l0.019,0.011l0.019,0.012l0.018,0.011l0.019,0.013l0.018,0.012l0.018,0.013l0.018,0.013l0.018,0.014l0.017,0.013l0.016,0.014l0.017,0.015l0.017,0.015l0.016,0.015l0.016,0.015l0.03,0.032l0.015,0.016l0.03,0.033l0.013,0.017l0.014,0.018l0.013,0.017l0.014,0.018l0.037,0.054l0.011,0.019l0.012,0.019l0.011,0.019l0.021,0.039l0.009,0.02l0.01,0.02l0.009,0.02l0.009,0.02l0.008,0.02l0.009,0.021l0.007,0.021l0.007,0.021l0.007,0.02l0.007,0.022l0.006,0.021l0.01,0.042l0.006,0.022l0.004,0.022l0.004,0.021l0.007,0.044l0.003,0.022l0.002,0.022l0.002,0.022l0.002,0.022l0.001,0.022l0.001,0.044l0,0.022l0,0.022l-0.001,0.022l-0.002,0.023l-0.001,0.021l-0.002,0.022l-0.003,0.022l-0.002,0.022l-0.004,0.022l-0.004,0.022l-0.004,0.021l-0.004,0.022l-0.006,0.021l-0.005,0.022l-0.005,0.021l-0.007,0.021l-0.006,0.021l-0.007,0.021l-0.007,0.021l-0.008,0.021l-0.008,0.021l-0.009,0.02l-0.009,0.02l-0.009,0.02l-0.009,0.02l-0.01,0.019l-0.011,0.02l-0.011,0.019l-0.011,0.019l-0.011,0.019l-0.012,0.019l-0.012,0.018l-0.013,0.018l-0.013,0.018l-0.013,0.018l-0.013,0.018l-0.01,0.013l-0.001,0.001l-0.003,0.003l-0.003,0.005l-0.003,0.006l-0.005,0.008l-0.006,0.01l-0.006,0.011l-0.006,0.013l-0.009,0.016l-0.007,0.016l-0.008,0.017l-0.009,0.02l-0.007,0.019l-0.02,0.049l-0.021,0.051l-0.021,0.057l-0.022,0.06l-0.023,0.066l-0.05,0.14l-0.029,0.078l-0.027,0.071l-0.008,0.02l-0.009,0.021l-0.009,0.02l-0.009,0.02l-0.01,0.019l-0.01,0.02l-0.01,0.02l-0.011,0.019l-0.011,0.019l-0.011,0.019l-0.012,0.018l-0.012,0.019l-0.012,0.018l-0.013,0.018l-0.013,0.018l-0.014,0.018l-0.014,0.017l-0.014,0.017l-0.014,0.016l-0.015,0.017l-0.015,0.016l-0.015,0.016l-0.016,0.015l-0.016,0.016l-0.016,0.014l-0.017,0.015l-0.017,0.015l-0.017,0.013l-0.017,0.015l-0.018,0.013l-0.017,0.013l-0.018,0.012l-0.018,0.013l-0.019,0.012l-0.018,0.011l-0.019,0.012l-0.02,0.011l-0.019,0.011l-0.02,0.01l-0.019,0.01l-0.02,0.01l-0.02,0.008l-0.02,0.009l-0.021,0.009l-0.021,0.008l-0.02,0.008l-0.021,0.007l-0.021,0.007l-0.021,0.006l-0.021,0.006l-0.022,0.005l-0.021,0.006l-0.021,0.004l-0.022,0.005l-0.022,0.004l-0.022,0.004l-0.022,0.003l-0.022,0.003l-0.021,0.002l-0.022,0.002l-0.022,0.002l-0.023,0.001l-0.021,0.001l-0.023,0l-0.022,0l-0.021,0l-0.023,-0.001l-0.022,-0.001l-0.022,-0.002l-0.022,-0.003l-0.022,-0.002l-0.022,-0.003l-0.021,-0.003l-0.022,-0.004l-0.022,-0.004l-0.021,-0.005l-0.022,-0.004l-0.021,-0.006l-0.022,-0.006l-0.021,-0.006l-0.021,-0.006l-0.021,-0.007l-0.021,-0.008l-0.02,-0.008l-0.021,-0.007l-0.02,-0.009l-0.021,-0.009l-0.02,-0.009l-0.019,-0.01l-0.02,-0.01l-0.02,-0.01l-0.018,-0.011l-0.02,-0.011l-0.019,-0.011l-0.018,-0.012l-0.019,-0.012l-0.018,-0.012l-0.018,-0.013l-0.018,-0.013l-0.017,-0.014l-0.018,-0.014l-0.016,-0.014l-0.017,-0.014l-0.017,-0.015l-0.016,-0.016l-0.016,-0.015l-0.015,-0.015l-0.015,-0.016l-0.015,-0.017l-0.015,-0.016l-0.014,-0.017l-0.014,-0.017l-0.014,-0.017l-0.013,-0.018l-0.014,-0.017l-0.012,-0.018l-0.013,-0.018l-0.011,-0.019l-0.012,-0.019l-0.012,-0.019l-0.011,-0.019l-0.01,-0.019l-0.011,-0.02l-0.009,-0.019l-0.01,-0.02l-0.009,-0.02l-0.009,-0.02l-0.008,-0.021l-0.008,-0.021l-0.008,-0.02l-0.007,-0.021l-0.007,-0.021l-0.006,-0.022l-0.007,-0.02l-0.005,-0.022l-0.005,-0.021l-0.005,-0.022l-0.005,-0.021l-0.004,-0.022l-0.003,-0.022l-0.003,-0.022l-0.003,-0.022l-0.003,-0.022l-0.002,-0.021l-0.001,-0.023l-0.001,-0.022l-0.002,-0.021l0,-0.023l0,-0.022l0,-0.022l0.002,-0.022l0.001,-0.022l0.002,-0.022l0.002,-0.022l0.002,-0.022l0.003,-0.022l0.004,-0.022l0.003,-0.021l0.004,-0.022l0.005,-0.021l0.005,-0.022l0.005,-0.022l0.006,-0.021l0.006,-0.021l0.006,-0.021l0.008,-0.021l0.007,-0.021l0.008,-0.02l0.021,-0.056l0.02,-0.053l0.045,-0.127l0.025,-0.07l0.028,-0.077l0.03,-0.081l0.033,-0.086l0.036,-0.086l0.02,-0.048l0.021,-0.047l0.023,-0.049l0.023,-0.049l0.024,-0.049l0.026,-0.051l0.028,-0.051l0.029,-0.052l0.032,-0.053l0.034,-0.053l0.035,-0.054l0.037,-0.054l0.041,-0.055l0.032,-0.04l0.014,-0.018l0.014,-0.017l0.015,-0.017l0.014,-0.016l0.015,-0.016l0.015,-0.016l0.016,-0.016l0.016,-0.015l0.016,-0.015l0.017,-0.014l0.017,-0.015l0.017,-0.014l0.017,-0.014l0.018,-0.013l0.017,-0.013l0.018,-0.013l0.018,-0.012l0.019,-0.012l0.019,-0.012l0.018,-0.012l0.02,-0.01l0.019,-0.011l0.02,-0.01l0.019,-0.01l0.02,-0.009l0.02,-0.01l0.021,-0.009l0.02,-0.008l0.021,-0.008l0.02,-0.008l0.021,-0.007l0.021,-0.007l0.021,-0.006l0.021,-0.006l0.022,-0.006l0.021,-0.005l0.022,-0.005l0.021,-0.004l0.022,-0.005l0.022,-0.003l0.022,-0.004l0.022,-0.002l0.022,-0.003l0.021,-0.002l0.022,-0.001l0.023,-0.002l0.022,0l0.021,-0.001l0.023,0Z" style="fill:#d95b4c;"/><path d="M93.879,71.764l0.028,0.001l0.029,0.002l0.029,0.002l0.028,0.003l0.057,0.008l0.028,0.006l0.028,0.006l0.029,0.006l0.027,0.007l0.028,0.008l0.027,0.009l0.055,0.019l0.026,0.01l0.027,0.011l0.026,0.012l0.026,0.013l0.026,0.013l0.025,0.014l0.025,0.014l0.024,0.015l0.024,0.015l0.024,0.017l0.024,0.016l0.023,0.017l0.022,0.018l0.022,0.018l0.022,0.019l0.021,0.019l0.021,0.021l0.02,0.02l0.02,0.021l0.02,0.021l0.018,0.022l0.018,0.022l0.018,0.023l0.017,0.023l0.016,0.023l0.016,0.025l0.016,0.024l0.014,0.025l0.015,0.024l0.013,0.026l0.025,0.052l0.012,0.026l0.011,0.026l0.01,0.027l0.019,0.055l0.008,0.027l0.008,0.027l0.007,0.029l0.006,0.028l0.006,0.028l0.004,0.028l0.019,0.112l0.017,0.107l0.019,0.104l0.019,0.101l0.019,0.1l0.02,0.097l0.02,0.094l0.023,0.095l0.01,0.044l0.011,0.044l0.012,0.046l0.012,0.043l0.012,0.044l0.013,0.044l0.013,0.043l0.014,0.043l0.014,0.041l0.014,0.041l0.014,0.043l0.016,0.042l0.015,0.041l0.016,0.041l0.016,0.041l0.02,0.047l0.011,0.027l0.01,0.027l0.01,0.027l0.008,0.027l0.008,0.028l0.008,0.028l0.006,0.028l0.006,0.028l0.006,0.028l0.004,0.028l0.005,0.029l0.003,0.029l0.002,0.028l0.002,0.029l0.001,0.028l0.001,0.029l0,0.029l-0.001,0.028l-0.001,0.029l-0.003,0.029l-0.003,0.029l-0.004,0.028l-0.004,0.029l-0.005,0.028l-0.006,0.028l-0.006,0.028l-0.007,0.028l-0.008,0.028l-0.009,0.027l-0.009,0.027l-0.01,0.027l-0.01,0.027l-0.011,0.027l-0.012,0.026l-0.013,0.026l-0.013,0.025l-0.013,0.025l-0.014,0.026l-0.015,0.024l-0.015,0.024l-0.016,0.024l-0.017,0.024l-0.018,0.023l-0.017,0.022l-0.019,0.022l-0.018,0.022l-0.019,0.021l-0.02,0.022l-0.02,0.02l-0.022,0.02l-0.021,0.019l-0.022,0.018l-0.022,0.019l-0.023,0.017l-0.023,0.018l-0.023,0.016l-0.024,0.016l-0.024,0.015l-0.025,0.015l-0.025,0.014l-0.025,0.014l-0.026,0.013l-0.026,0.012l-0.026,0.012l-0.026,0.011l-0.028,0.01l-0.026,0.01l-0.028,0.009l-0.027,0.009l-0.028,0.008l-0.027,0.007l-0.029,0.006l-0.027,0.006l-0.029,0.005l-0.029,0.004l-0.028,0.004l-0.028,0.002l-0.029,0.003l-0.029,0.002l-0.029,0l-0.028,0l-0.029,0l-0.029,-0.002l-0.029,-0.001l-0.028,-0.003l-0.029,-0.003l-0.028,-0.004l-0.028,-0.005l-0.029,-0.005l-0.028,-0.007l-0.028,-0.006l-0.028,-0.008l-0.027,-0.008l-0.027,-0.009l-0.028,-0.01l-0.026,-0.01l-0.027,-0.01l-0.026,-0.011l-0.026,-0.013l-0.026,-0.012l-0.026,-0.014l-0.025,-0.013l-0.025,-0.015l-0.024,-0.015l-0.024,-0.016l-0.024,-0.016l-0.023,-0.017l-0.023,-0.018l-0.022,-0.018l-0.023,-0.018l-0.021,-0.02l-0.021,-0.019l-0.02,-0.02l-0.02,-0.021l-0.02,-0.02l-0.019,-0.022l-0.018,-0.022l-0.019,-0.023l-0.017,-0.023l-0.017,-0.023l-0.016,-0.024l-0.016,-0.023l-0.015,-0.025l-0.014,-0.025l-0.014,-0.025l-0.013,-0.026l-0.013,-0.025l-0.012,-0.027l-0.011,-0.026l-0.025,-0.06l-0.027,-0.066l-0.027,-0.068l-0.025,-0.067l-0.024,-0.066l-0.023,-0.066l-0.022,-0.066l-0.022,-0.067l-0.021,-0.065l-0.019,-0.065l-0.02,-0.065l-0.018,-0.066l-0.018,-0.065l-0.016,-0.063l-0.017,-0.065l-0.016,-0.066l-0.029,-0.124l-0.028,-0.127l-0.025,-0.125l-0.024,-0.123l-0.023,-0.123l-0.021,-0.122l-0.02,-0.12l-0.019,-0.118l-0.004,-0.029l-0.004,-0.028l-0.003,-0.028l-0.002,-0.029l-0.001,-0.029l-0.001,-0.028l0,-0.029l0,-0.029l0.002,-0.028l0.002,-0.029l0.003,-0.029l0.003,-0.029l0.004,-0.028l0.005,-0.028l0.005,-0.029l0.006,-0.027l0.007,-0.029l0.008,-0.027l0.008,-0.028l0.009,-0.027l0.01,-0.027l0.01,-0.027l0.011,-0.027l0.011,-0.026l0.012,-0.026l0.013,-0.026l0.013,-0.025l0.015,-0.025l0.014,-0.025l0.015,-0.025l0.016,-0.023l0.016,-0.024l0.017,-0.024l0.018,-0.022l0.018,-0.022l0.018,-0.022l0.02,-0.022l0.019,-0.021l0.02,-0.02l0.021,-0.02l0.021,-0.02l0.021,-0.019l0.023,-0.018l0.022,-0.018l0.023,-0.017l0.023,-0.017l0.024,-0.016l0.024,-0.016l0.025,-0.015l0.025,-0.014l0.025,-0.014l0.025,-0.013l0.026,-0.013l0.026,-0.012l0.027,-0.011l0.026,-0.011l0.028,-0.01l0.027,-0.01l0.027,-0.008l0.028,-0.008l0.027,-0.008l0.028,-0.006l0.028,-0.006l0.029,-0.005l0.028,-0.005l0.028,-0.004l0.029,-0.003l0.029,-0.003l0.028,-0.001l0.029,-0.002l0.029,0l0.029,0Z" style="fill:#d95b4c;"/><path d="M76.932,52.121l0.026,0.001l0.026,0.001l0.026,0.002l0.026,0.002l0.025,0.003l0.026,0.003l0.026,0.004l0.026,0.005l0.025,0.005l0.025,0.006l0.05,0.013l0.05,0.015l0.048,0.018l0.025,0.009l0.024,0.01l0.023,0.011l0.024,0.011l0.023,0.011l0.023,0.012l0.022,0.013l0.023,0.013l0.022,0.013l0.022,0.015l0.021,0.014l0.022,0.015l0.02,0.015l0.021,0.016l0.02,0.017l0.019,0.016l0.02,0.018l0.038,0.036l0.018,0.018l0.018,0.019l0.034,0.039l0.016,0.02l0.016,0.02l0.031,0.042l0.015,0.021l0.014,0.022l0.014,0.022l0.013,0.022l0.013,0.023l0.012,0.022l0.012,0.023l0.011,0.024l0.021,0.047l0.019,0.049l0.008,0.024l0.009,0.025l0.007,0.025l0.007,0.025l0.006,0.025l0.006,0.025l0.011,0.051l0.004,0.026l0.003,0.025l0.003,0.026l0.003,0.026l0.002,0.025l0.001,0.026l0.001,0.052l0,0.026l-0.001,0.026l-0.002,0.026l-0.001,0.026l-0.003,0.025l-0.003,0.026l-0.004,0.026l-0.004,0.026l-0.005,0.025l-0.005,0.025l-0.006,0.026l-0.007,0.025l-0.007,0.024l-0.008,0.025l-0.008,0.025l-0.009,0.025l-0.009,0.024l-0.01,0.024l-0.01,0.024l-0.011,0.023l-0.011,0.023l-0.012,0.023l-0.012,0.023l-0.013,0.023l-0.013,0.022l-0.014,0.022l-0.015,0.022l-0.014,0.021l-0.016,0.021l-0.015,0.02l-0.017,0.021l-0.016,0.02l-0.017,0.019l-0.017,0.019l-0.018,0.019l-0.018,0.019l-0.019,0.018l-0.019,0.017l-0.019,0.017l-0.021,0.017l-0.02,0.016l-0.02,0.016l-0.021,0.015l-0.021,0.016l-0.027,0.018l-0.011,0.008l-0.013,0.01l-0.013,0.012l-0.014,0.012l-0.015,0.014l-0.015,0.015l-0.015,0.016l-0.015,0.016l-0.016,0.019l-0.016,0.02l-0.015,0.02l-0.016,0.022l-0.016,0.023l-0.015,0.023l-0.015,0.024l-0.015,0.025l-0.014,0.026l-0.014,0.025l-0.014,0.027l-0.013,0.027l-0.012,0.026l-0.012,0.028l-0.011,0.027l-0.01,0.027l-0.01,0.027l-0.009,0.028l-0.008,0.027l-0.008,0.026l-0.006,0.025l-0.006,0.024l-0.008,0.038l-0.006,0.025l-0.006,0.025l-0.007,0.025l-0.007,0.025l-0.007,0.025l-0.009,0.024l-0.009,0.024l-0.01,0.025l-0.009,0.024l-0.011,0.023l-0.011,0.024l-0.011,0.023l-0.012,0.023l-0.013,0.023l-0.013,0.022l-0.013,0.022l-0.015,0.022l-0.014,0.021l-0.015,0.022l-0.015,0.021l-0.016,0.02l-0.016,0.021l-0.017,0.019l-0.017,0.02l-0.018,0.018l-0.018,0.019l-0.018,0.019l-0.019,0.017l-0.019,0.017l-0.02,0.018l-0.02,0.016l-0.02,0.017l-0.021,0.015l-0.021,0.015l-0.021,0.015l-0.022,0.014l-0.022,0.014l-0.022,0.013l-0.023,0.013l-0.023,0.013l-0.023,0.011l-0.023,0.012l-0.023,0.01l-0.025,0.01l-0.023,0.01l-0.024,0.009l-0.025,0.009l-0.024,0.008l-0.026,0.008l-0.024,0.007l-0.025,0.007l-0.026,0.005l-0.025,0.006l-0.025,0.004l-0.026,0.005l-0.026,0.004l-0.026,0.003l-0.025,0.002l-0.026,0.002l-0.026,0.002l-0.026,0.001l-0.026,0l-0.026,0l-0.026,-0.001l-0.026,-0.002l-0.025,-0.002l-0.026,-0.002l-0.026,-0.003l-0.025,-0.004l-0.026,-0.005l-0.026,-0.004l-0.025,-0.006l-0.026,-0.005l-0.024,-0.007l-0.025,-0.007l-0.025,-0.007l-0.025,-0.008l-0.024,-0.009l-0.025,-0.009l-0.023,-0.01l-0.024,-0.01l-0.024,-0.011l-0.023,-0.012l-0.023,-0.011l-0.023,-0.012l-0.023,-0.013l-0.022,-0.014l-0.022,-0.013l-0.022,-0.014l-0.021,-0.015l-0.021,-0.016l-0.021,-0.015l-0.02,-0.016l-0.02,-0.016l-0.019,-0.017l-0.02,-0.018l-0.019,-0.018l-0.018,-0.018l-0.018,-0.018l-0.018,-0.02l-0.017,-0.019l-0.017,-0.02l-0.016,-0.02l-0.016,-0.021l-0.015,-0.02l-0.015,-0.021l-0.015,-0.022l-0.014,-0.022l-0.014,-0.022l-0.013,-0.022l-0.012,-0.023l-0.012,-0.023l-0.012,-0.023l-0.011,-0.023l-0.01,-0.024l-0.01,-0.024l-0.01,-0.024l-0.009,-0.025l-0.008,-0.024l-0.008,-0.025l-0.007,-0.025l-0.007,-0.025l-0.006,-0.025l-0.006,-0.025l-0.005,-0.026l-0.005,-0.025l-0.003,-0.026l-0.004,-0.026l-0.003,-0.026l-0.002,-0.025l-0.002,-0.026l-0.001,-0.026l-0.001,-0.026l0,-0.026l0.001,-0.026l0.001,-0.026l0.002,-0.026l0.002,-0.025l0.003,-0.026l0.003,-0.026l0.004,-0.025l0.005,-0.026l0.005,-0.025l0.013,-0.065l0.019,-0.077l0.02,-0.078l0.022,-0.076l0.023,-0.076l0.025,-0.074l0.026,-0.076l0.029,-0.075l0.03,-0.073l0.032,-0.074l0.033,-0.074l0.035,-0.072l0.036,-0.071l0.039,-0.073l0.04,-0.071l0.042,-0.07l0.044,-0.069l0.045,-0.07l0.047,-0.067l0.049,-0.068l0.052,-0.067l0.052,-0.065l0.055,-0.065l0.058,-0.065l0.06,-0.062l0.06,-0.062l0.063,-0.059l0.067,-0.06l0.069,-0.057l0.07,-0.055l0.074,-0.055l0.06,-0.041l0.021,-0.015l0.022,-0.014l0.022,-0.014l0.023,-0.012l0.022,-0.013l0.023,-0.012l0.023,-0.011l0.024,-0.011l0.023,-0.011l0.025,-0.01l0.024,-0.009l0.024,-0.009l0.025,-0.008l0.024,-0.008l0.025,-0.007l0.025,-0.007l0.025,-0.006l0.026,-0.006l0.025,-0.005l0.026,-0.004l0.025,-0.005l0.026,-0.002l0.026,-0.003l0.026,-0.003l0.026,-0.002l0.025,0l0.026,-0.001l0.026,0Z" style="fill:#d95b4c;"/><path d="M94.097,32.43l0.08,0.01l0.079,0.014l0.078,0.02l0.077,0.025l0.074,0.03l0.073,0.035l0.07,0.04l0.067,0.045l0.063,0.05l0.061,0.053l0.056,0.058l0.053,0.061l0.048,0.064l0.043,0.068l0.039,0.071l0.034,0.073l0.029,0.075l0.023,0.077l0.019,0.079l0.013,0.08l0.007,0.08l0.002,0.08l-0.004,0.081l-0.008,0.08l-0.012,0.074l-0.012,0.08l-0.013,0.078l-0.014,0.078l-0.014,0.078l-0.014,0.077l-0.016,0.077l-0.016,0.077l-0.016,0.076l-0.017,0.076l-0.018,0.076l-0.018,0.075l-0.018,0.074l-0.019,0.075l-0.019,0.073l-0.021,0.076l-0.04,0.144l-0.042,0.144l-0.044,0.144l-0.045,0.141l-0.045,0.141l-0.047,0.139l-0.047,0.138l-0.049,0.137l-0.049,0.135l-0.049,0.135l-0.05,0.134l-0.05,0.133l-0.1,0.261l-0.101,0.259l-0.099,0.255l-0.098,0.254l-0.048,0.125l-0.047,0.125l-0.046,0.124l-0.045,0.122l-0.05,0.138l-0.048,0.138l-0.047,0.14l-0.047,0.142l-0.047,0.144l-0.046,0.146l-0.095,0.297l-0.095,0.302l-0.05,0.155l-0.051,0.155l-0.053,0.156l-0.054,0.158l-0.056,0.158l-0.029,0.081l-0.029,0.078l-0.175,0.471l-0.087,0.232l-0.085,0.233l-0.085,0.232l-0.083,0.231l-0.083,0.232l-0.08,0.23l-0.079,0.23l-0.078,0.231l-0.038,0.114l-0.037,0.115l-0.037,0.114l-0.036,0.115l-0.036,0.114l-0.036,0.114l-0.035,0.115l-0.033,0.114l-0.034,0.114l-0.033,0.114l-0.032,0.114l-0.032,0.114l-0.03,0.114l-0.03,0.114l-0.029,0.114l-0.029,0.113l-0.028,0.114l-0.027,0.114l-0.026,0.113l-0.025,0.114l-0.025,0.114l-0.023,0.113l-0.023,0.114l-0.022,0.113l-0.021,0.113l-0.02,0.114l-0.019,0.114l-0.018,0.113l-0.017,0.113l-0.017,0.114l-0.014,0.113l-0.015,0.114l-0.013,0.114l-0.012,0.113l-0.011,0.114l-0.01,0.114l-0.008,0.113l-0.008,0.114l-0.007,0.114l-0.005,0.114l-0.004,0.114l-0.004,0.114l-0.001,0.114l-0.001,0.121l-0.003,0.081l-0.009,0.08l-0.014,0.079l-0.019,0.078l-0.025,0.077l-0.03,0.075l-0.035,0.073l-0.04,0.07l-0.044,0.066l-0.049,0.065l-0.054,0.06l-0.057,0.057l-0.061,0.052l-0.064,0.049l-0.068,0.044l-0.071,0.039l-0.073,0.034l-0.075,0.029l-0.076,0.024l-0.079,0.019l-0.079,0.013l-0.081,0.008l-0.08,0.002l-0.081,-0.003l-0.08,-0.009l-0.079,-0.014l-0.078,-0.019l-0.077,-0.025l-0.075,-0.03l-0.072,-0.035l-0.07,-0.04l-0.068,-0.045l-0.063,-0.049l-0.061,-0.053l-0.057,-0.057l-0.052,-0.061l-0.049,-0.065l-0.043,-0.067l-0.039,-0.071l-0.035,-0.073l-0.029,-0.075l-0.024,-0.076l-0.019,-0.079l-0.013,-0.08l-0.008,-0.08l-0.002,-0.08l0,-0.133l0.003,-0.14l0.003,-0.139l0.006,-0.138l0.006,-0.138l0.008,-0.138l0.009,-0.137l0.011,-0.136l0.012,-0.137l0.013,-0.135l0.014,-0.136l0.016,-0.135l0.016,-0.135l0.019,-0.134l0.018,-0.133l0.02,-0.134l0.022,-0.132l0.022,-0.133l0.023,-0.132l0.025,-0.132l0.025,-0.131l0.026,-0.131l0.027,-0.129l0.028,-0.131l0.029,-0.13l0.03,-0.128l0.031,-0.13l0.031,-0.128l0.032,-0.128l0.033,-0.127l0.034,-0.128l0.034,-0.126l0.035,-0.127l0.035,-0.126l0.037,-0.126l0.036,-0.125l0.037,-0.125l0.039,-0.126l0.038,-0.124l0.039,-0.124l0.039,-0.124l0.04,-0.123l0.04,-0.124l0.041,-0.123l0.082,-0.244l0.084,-0.244l0.085,-0.242l0.086,-0.241l0.087,-0.241l0.086,-0.239l0.088,-0.238l0.088,-0.237l0.175,-0.47l0.026,-0.07l0.024,-0.066l0.048,-0.138l0.048,-0.139l0.047,-0.14l0.048,-0.143l0.046,-0.144l0.094,-0.296l0.095,-0.3l0.049,-0.153l0.05,-0.155l0.052,-0.155l0.053,-0.157l0.055,-0.159l0.056,-0.157l0.05,-0.137l0.05,-0.135l0.051,-0.132l0.051,-0.133l0.1,-0.26l0.1,-0.258l0.099,-0.253l0.096,-0.252l0.046,-0.123l0.046,-0.123l0.045,-0.122l0.044,-0.123l0.043,-0.121l0.042,-0.121l0.04,-0.12l0.039,-0.12l0.038,-0.118l0.036,-0.119l0.034,-0.118l0.034,-0.121l0.015,-0.056l0.016,-0.059l0.015,-0.059l0.014,-0.059l0.014,-0.058l0.013,-0.059l0.014,-0.059l0.012,-0.058l0.013,-0.059l0.012,-0.058l0.01,-0.058l0.011,-0.059l0.01,-0.058l0.01,-0.059l0.009,-0.058l0.01,-0.064l0.014,-0.079l0.02,-0.078l0.025,-0.076l0.03,-0.075l0.035,-0.073l0.04,-0.07l0.045,-0.067l0.05,-0.064l0.053,-0.06l0.058,-0.056l0.061,-0.052l0.064,-0.049l0.068,-0.043l0.071,-0.039l0.073,-0.034l0.075,-0.028l0.077,-0.025l0.079,-0.018l0.08,-0.013l0.08,-0.007l0.08,-0.002l0.081,0.003Z" style="fill:#d95b4c;"/><path d="M80.156,6.71l0.04,0.001l0.02,0.001l0.02,0.002l0.02,0.002l0.021,0.002l0.04,0.006l0.04,0.007l0.02,0.004l0.019,0.004l0.02,0.005l0.039,0.01l0.039,0.012l0.019,0.007l0.02,0.006l0.037,0.014l0.019,0.009l0.019,0.007l0.018,0.008l0.036,0.018l0.019,0.01l0.017,0.009l0.036,0.02l0.034,0.021l0.017,0.012l0.017,0.011l0.033,0.023l0.016,0.013l0.016,0.012l0.016,0.013l0.015,0.013l0.015,0.013l0.016,0.014l0.014,0.013l0.015,0.014l0.014,0.015l0.014,0.014l0.014,0.015l0.027,0.031l0.026,0.03l0.012,0.016l0.013,0.017l0.012,0.016l0.011,0.016l0.023,0.035l0.021,0.034l0.011,0.018l0.009,0.017l0.01,0.018l0.01,0.018l0.017,0.036l0.009,0.018l0.007,0.019l0.008,0.019l0.008,0.019l0.007,0.019l0.007,0.019l0.006,0.019l0.006,0.019l0.006,0.02l0.005,0.019l0.005,0.02l0.005,0.02l0.005,0.019l0.004,0.02l0.007,0.04l0.006,0.041l0.002,0.02l0.004,0.04l0.001,0.02l0.001,0.02l0.001,0.041l-0.001,0.02l0,0.02l-0.001,0.02l0,0.02l-0.002,0.021l-0.002,0.02l-0.002,0.02l-0.003,0.02l-0.002,0.02l-0.003,0.02l-0.004,0.02l-0.004,0.02l-0.004,0.02l-0.004,0.02l-0.006,0.019l-0.004,0.02l-0.006,0.019l-0.006,0.02l-0.006,0.019l-0.007,0.019l-0.007,0.019l-0.007,0.02l-0.007,0.018l-0.008,0.019l-0.001,0.002l0,0.002l0.001,0.03l0.001,0.036l0.003,0.041l0.008,0.105l0.004,0.06l0.003,0.058l0.002,0.02l0.001,0.04l0,0.041l-0.001,0.02l-0.001,0.02l-0.001,0.02l-0.002,0.02l-0.002,0.021l-0.002,0.02l-0.003,0.02l-0.003,0.02l-0.004,0.02l-0.003,0.02l-0.004,0.02l-0.005,0.019l-0.005,0.02l-0.004,0.02l-0.006,0.019l-0.006,0.02l-0.006,0.019l-0.006,0.019l-0.007,0.02l-0.007,0.019l-0.007,0.018l-0.008,0.019l-0.008,0.019l-0.008,0.018l-0.009,0.018l-0.009,0.019l-0.01,0.017l-0.009,0.019l-0.01,0.017l-0.01,0.017l-0.011,0.018l-0.01,0.017l-0.012,0.017l-0.011,0.017l-0.012,0.016l-0.012,0.017l-0.012,0.016l-0.013,0.016l-0.012,0.016l-0.013,0.015l-0.014,0.015l-0.013,0.015l-0.014,0.015l-0.014,0.015l-0.015,0.014l-0.014,0.014l-0.015,0.013l-0.015,0.014l-0.015,0.014l-0.016,0.013l-0.016,0.013l-0.016,0.012l-0.015,0.012l-0.017,0.012l-0.016,0.012l-0.017,0.011l-0.017,0.011l-0.017,0.011l-0.018,0.011l-0.017,0.01l-0.018,0.01l-0.017,0.009l-0.019,0.01l-0.018,0.008l-0.018,0.009l-0.019,0.009l-0.019,0.007l-0.018,0.008l-0.019,0.008l-0.019,0.007l-0.019,0.006l-0.02,0.007l-0.018,0.005l-0.02,0.006l-0.019,0.006l-0.02,0.005l-0.02,0.005l-0.019,0.004l-0.02,0.004l-0.02,0.004l-0.021,0.003l-0.02,0.003l-0.02,0.003l-0.02,0.002l-0.02,0.002l-0.02,0.002l-0.02,0.001l-0.021,0.001l-0.02,0.001l-0.02,0l-0.02,0l-0.02,-0.001l-0.02,0l-0.021,-0.002l-0.02,-0.001l-0.02,-0.002l-0.02,-0.002l-0.02,-0.003l-0.02,-0.003l-0.02,-0.003l-0.021,-0.003l-0.02,-0.004l-0.019,-0.005l-0.02,-0.004l-0.02,-0.005l-0.019,-0.005l-0.02,-0.006l-0.019,-0.006l-0.019,-0.006l-0.019,-0.006l-0.019,-0.008l-0.019,-0.007l-0.019,-0.007l-0.019,-0.008l-0.018,-0.008l-0.018,-0.009l-0.019,-0.009l-0.018,-0.009l-0.018,-0.009l-0.017,-0.01l-0.018,-0.01l-0.018,-0.01l-0.017,-0.012l-0.017,-0.01l-0.017,-0.011l-0.017,-0.012l-0.016,-0.012l-0.016,-0.012l-0.016,-0.012l-0.016,-0.013l-0.015,-0.013l-0.016,-0.013l-0.015,-0.014l-0.015,-0.013l-0.015,-0.014l-0.014,-0.015l-0.014,-0.014l-0.015,-0.014l-0.013,-0.015l-0.013,-0.016l-0.014,-0.015l-0.013,-0.016l-0.012,-0.015l-0.013,-0.017l-0.011,-0.016l-0.012,-0.016l-0.012,-0.017l-0.011,-0.017l-0.011,-0.017l-0.011,-0.017l-0.01,-0.018l-0.01,-0.017l-0.01,-0.018l-0.01,-0.018l-0.008,-0.018l-0.009,-0.018l-0.008,-0.019l-0.009,-0.018l-0.008,-0.019l-0.007,-0.019l-0.008,-0.019l-0.006,-0.019l-0.007,-0.018l-0.006,-0.02l-0.006,-0.019l-0.005,-0.02l-0.006,-0.019l-0.005,-0.02l-0.004,-0.02l-0.004,-0.02l-0.004,-0.019l-0.004,-0.02l-0.003,-0.02l-0.003,-0.021l-0.002,-0.02l-0.003,-0.02l-0.001,-0.02l-0.002,-0.02l-0.003,-0.048l-0.004,-0.049l-0.008,-0.117l-0.005,-0.072l-0.003,-0.078l-0.003,-0.086l0,-0.087l0.002,-0.053l0.002,-0.052l0.004,-0.052l0.004,-0.054l0.006,-0.056l0.008,-0.058l0.009,-0.061l0.013,-0.062l0.013,-0.063l0.017,-0.066l0.02,-0.066l0.023,-0.07l0.027,-0.07l0.03,-0.071l0.035,-0.071l0.025,-0.047l0.01,-0.017l0.01,-0.018l0.01,-0.018l0.01,-0.017l0.012,-0.017l0.011,-0.016l0.011,-0.018l0.012,-0.015l0.012,-0.017l0.012,-0.016l0.013,-0.016l0.013,-0.016l0.013,-0.015l0.014,-0.015l0.013,-0.015l0.014,-0.015l0.014,-0.014l0.015,-0.014l0.014,-0.014l0.015,-0.014l0.015,-0.014l0.016,-0.013l0.015,-0.013l0.016,-0.013l0.016,-0.012l0.017,-0.012l0.016,-0.012l0.017,-0.011l0.016,-0.012l0.017,-0.011l0.018,-0.01l0.017,-0.01l0.018,-0.01l0.017,-0.01l0.018,-0.01l0.018,-0.009l0.019,-0.009l0.018,-0.008l0.018,-0.009l0.019,-0.007l0.019,-0.008l0.019,-0.007l0.019,-0.007l0.019,-0.007l0.019,-0.006l0.02,-0.006l0.019,-0.005l0.02,-0.006l0.019,-0.005l0.02,-0.004l0.02,-0.005l0.02,-0.003l0.02,-0.004l0.02,-0.004l0.02,-0.002l0.02,-0.003l0.02,-0.002l0.02,-0.002l0.02,-0.001l0.021,-0.001l0.02,-0.001l0.02,-0.001l0.02,0l0.021,0.001Z" style="fill:#d95b4c;"/><path d="M47.267,17.472l0.036,0.001l0.036,0.003l0.036,0.004l0.036,0.006l0.036,0.006l0.036,0.007l0.035,0.009l0.035,0.009l0.035,0.011l0.034,0.012l0.034,0.012l0.034,0.014l0.033,0.015l0.033,0.016l0.032,0.016l0.032,0.018l0.031,0.019l0.031,0.019l0.029,0.021l0.03,0.022l0.028,0.022l0.028,0.023l0.027,0.024l0.027,0.026l0.025,0.025l0.025,0.027l0.024,0.027l0.023,0.028l0.023,0.029l0.021,0.03l0.02,0.03l0.019,0.03l0.019,0.032l0.018,0.032l0.017,0.031l0.015,0.033l0.015,0.033l0.013,0.035l0.013,0.033l0.011,0.035l0.01,0.035l0.01,0.035l0.008,0.035l0.007,0.036l0.006,0.036l0.005,0.036l0.004,0.036l0.002,0.036l0.002,0.037l0.001,0.036l-0.001,0.036l-0.002,0.037l-0.003,0.036l-0.004,0.036l-0.005,0.036l-0.006,0.036l-0.008,0.035l-0.008,0.036l-0.009,0.035l-0.011,0.034l-0.012,0.035l-0.013,0.034l-0.013,0.034l-0.015,0.033l-0.016,0.032l-0.017,0.033l-0.017,0.032l-0.019,0.03l-0.02,0.031l-0.02,0.03l-0.022,0.029l-0.018,0.024l-0.009,0.013l-0.01,0.014l-0.01,0.015l-0.01,0.015l-0.01,0.017l-0.01,0.017l-0.01,0.017l-0.009,0.017l-0.01,0.019l-0.01,0.019l-0.009,0.018l-0.008,0.02l-0.009,0.019l-0.009,0.021l-0.008,0.021l-0.007,0.02l-0.007,0.02l-0.008,0.022l-0.006,0.022l-0.006,0.019l-0.006,0.022l-0.005,0.02l-0.005,0.021l-0.005,0.021l-0.004,0.021l-0.003,0.021l-0.004,0.02l-0.002,0.019l-0.003,0.02l-0.001,0.019l-0.002,0.02l-0.001,0.019l-0.001,0.016l-0.001,0.018l0.001,0.017l0,0.017l0.001,0.016l0.001,0.015l0.002,0.014l0.001,0.014l0.002,0.013l0.002,0.013l0.002,0.011l0.003,0.011l0.002,0.011l0.003,0.009l0.002,0.009l0.003,0.008l0.006,0.015l0.002,0.006l0.003,0.005l0.002,0.006l0.006,0.009l0.002,0.004l0.002,0.003l0.003,0.004l0.003,0.003l0.005,0.006l0.001,0.001l0.004,0.003l0.004,0.002l0.006,0.003l0.007,0.003l0.02,0.009l0.019,0.008l0.023,0.008l0.027,0.009l0.031,0.01l0.033,0.01l0.038,0.01l0.046,0.013l0.035,0.01l0.035,0.011l0.034,0.012l0.034,0.013l0.033,0.015l0.033,0.015l0.033,0.016l0.031,0.017l0.032,0.018l0.031,0.02l0.03,0.02l0.03,0.021l0.029,0.022l0.028,0.023l0.028,0.023l0.027,0.025l0.026,0.025l0.025,0.027l0.024,0.026l0.024,0.028l0.023,0.028l0.022,0.029l0.02,0.03l0.02,0.03l0.019,0.032l0.019,0.031l0.017,0.032l0.016,0.032l0.015,0.033l0.014,0.034l0.013,0.034l0.012,0.034l0.011,0.035l0.01,0.035l0.009,0.035l0.008,0.036l0.006,0.035l0.005,0.036l0.005,0.036l0.003,0.037l0.002,0.036l0.002,0.036l0,0.036l-0.002,0.037l-0.002,0.036l-0.003,0.036l-0.005,0.036l-0.005,0.036l-0.008,0.036l-0.007,0.035l-0.009,0.036l-0.01,0.034l-0.011,0.035l-0.012,0.035l-0.014,0.033l-0.014,0.034l-0.015,0.033l-0.016,0.032l-0.017,0.032l-0.019,0.032l-0.019,0.031l-0.02,0.03l-0.021,0.029l-0.022,0.03l-0.023,0.028l-0.024,0.027l-0.024,0.027l-0.025,0.026l-0.027,0.026l-0.026,0.024l-0.028,0.024l-0.028,0.022l-0.029,0.022l-0.03,0.021l-0.031,0.02l-0.031,0.019l-0.031,0.018l-0.032,0.017l-0.032,0.016l-0.033,0.016l-0.034,0.014l-0.034,0.013l-0.035,0.012l-0.034,0.011l-0.035,0.01l-0.036,0.009l-0.035,0.007l-0.035,0.007l-0.036,0.005l-0.036,0.005l-0.037,0.003l-0.036,0.002l-0.037,0.001l-0.036,0l-0.036,-0.001l-0.036,-0.002l-0.037,-0.004l-0.036,-0.004l-0.036,-0.006l-0.035,-0.007l-0.035,-0.008l-0.036,-0.008l-0.059,-0.016l-0.068,-0.019l-0.07,-0.021l-0.073,-0.023l-0.076,-0.026l-0.078,-0.029l-0.081,-0.032l-0.078,-0.034l-0.047,-0.022l-0.043,-0.02l-0.041,-0.021l-0.045,-0.024l-0.043,-0.024l-0.045,-0.025l-0.046,-0.028l-0.043,-0.028l-0.043,-0.028l-0.045,-0.032l-0.044,-0.033l-0.045,-0.034l-0.043,-0.035l-0.043,-0.037l-0.044,-0.04l-0.043,-0.041l-0.056,-0.056l-0.056,-0.06l-0.053,-0.06l-0.051,-0.063l-0.049,-0.064l-0.045,-0.063l-0.044,-0.066l-0.042,-0.068l-0.039,-0.066l-0.037,-0.068l-0.034,-0.069l-0.032,-0.069l-0.03,-0.07l-0.028,-0.069l-0.025,-0.07l-0.024,-0.07l-0.021,-0.07l-0.019,-0.07l-0.017,-0.07l-0.015,-0.07l-0.014,-0.071l-0.011,-0.068l-0.01,-0.071l-0.008,-0.069l-0.007,-0.068l-0.004,-0.07l-0.003,-0.067l-0.002,-0.069l-0.001,-0.067l0.001,-0.067l0.003,-0.068l0.004,-0.066l0.005,-0.066l0.007,-0.066l0.008,-0.065l0.009,-0.065l0.01,-0.065l0.012,-0.064l0.012,-0.063l0.014,-0.063l0.014,-0.063l0.016,-0.062l0.017,-0.062l0.019,-0.063l0.019,-0.061l0.019,-0.058l0.021,-0.061l0.023,-0.06l0.023,-0.058l0.024,-0.059l0.025,-0.058l0.026,-0.057l0.027,-0.058l0.029,-0.056l0.029,-0.055l0.03,-0.057l0.032,-0.055l0.031,-0.054l0.034,-0.053l0.034,-0.053l0.035,-0.053l0.037,-0.052l0.037,-0.052l0.031,-0.04l0.023,-0.029l0.023,-0.027l0.024,-0.028l0.025,-0.026l0.026,-0.026l0.026,-0.024l0.027,-0.024l0.029,-0.023l0.028,-0.023l0.029,-0.021l0.03,-0.02l0.031,-0.02l0.031,-0.019l0.032,-0.017l0.033,-0.017l0.033,-0.015l0.033,-0.015l0.033,-0.013l0.035,-0.013l0.034,-0.012l0.035,-0.01l0.035,-0.009l0.036,-0.008l0.035,-0.007l0.036,-0.006l0.036,-0.005l0.036,-0.004l0.037,-0.003l0.036,-0.001l0.036,-0.001l0.037,0.001Z" style="fill:#d95b4c;"/></g></g></g><path d="M49.171,18.613c0.737,1.543 2.026,2.079 3.982,1.399l4.626,-2.609c0.642,-0.604 0.829,-1.522 0.538,-2.771l-1.183,-3.147c-1.134,-2.07 -2.067,-2.613 -4.251,-2.502c-2.058,0.104 -3.623,1.021 -4.706,2.582c-0.553,0.796 -0.552,1.958 0,3.417l0.994,3.631Z" style="fill:none;stroke:#000;stroke-width:1.18px;"/><path d="M49.171,18.613c0.737,1.543 2.026,2.079 3.982,1.399l4.626,-2.609c0.642,-0.604 0.829,-1.522 0.538,-2.771l-1.183,-3.147c-1.134,-2.07 -2.067,-2.613 -4.251,-2.502c-2.058,0.104 -3.623,1.021 -4.706,2.582c-0.553,0.796 -0.552,1.958 0,3.417l0.994,3.631Z" style="fill:#2b1713;"/><path d="M53.923,10.717c0.365,0.732 -0.364,1.84 -1.63,2.473c-1.265,0.632 -2.589,0.55 -2.955,-0.183c-0.366,-0.732 0.364,-1.84 1.629,-2.473c1.265,-0.632 2.589,-0.55 2.956,0.183Z" style="fill:none;stroke:#000;stroke-width:1.18px;"/><path d="M53.923,10.717c0.365,0.732 -0.364,1.84 -1.63,2.473c-1.265,0.632 -2.589,0.55 -2.955,-0.183c-0.366,-0.732 0.364,-1.84 1.629,-2.473c1.265,-0.632 2.589,-0.55 2.956,0.183Z" style="fill:#f7d523;"/></g><path id="Lollipop" d="M37.939,-11.387l-53.282,30.763l30.762,53.282l53.283,-30.763l-30.763,-53.282Z" style="fill:none;"/><g><path d="M24.018,22.181c-0.265,-0.459 -0.853,-0.617 -1.313,-0.352l-1.665,0.962c-0.46,0.265 -0.617,0.853 -0.352,1.313l18.265,31.636c0.266,0.46 0.854,0.618 1.314,0.352l1.665,-0.961c0.459,-0.265 0.617,-0.854 0.352,-1.313l-18.266,-31.637Z" style="fill:none;stroke:#000;stroke-width:1.15px;"/><path d="M24.018,22.181c-0.265,-0.459 -0.853,-0.617 -1.313,-0.352l-1.665,0.962c-0.46,0.265 -0.617,0.853 -0.352,1.313l18.265,31.636c0.266,0.46 0.854,0.618 1.314,0.352l1.665,-0.961c0.459,-0.265 0.617,-0.854 0.352,-1.313l-18.266,-31.637Z" style="fill:#9e7341;"/><g><path d="M12.259,5.659c9.19,-5.306 20.959,-2.152 26.264,7.038c5.306,9.19 2.153,20.958 -7.037,26.264c-9.19,5.306 -20.959,2.152 -26.264,-7.038c-5.306,-9.189 -2.153,-20.958 7.037,-26.264Z" style="fill:none;stroke:#fff;stroke-width:1.54px;"/><path d="M12.259,5.659c9.19,-5.306 20.959,-2.152 26.264,7.038c5.306,9.19 2.153,20.958 -7.037,26.264c-9.19,5.306 -20.959,2.152 -26.264,-7.038c-5.306,-9.189 -2.153,-20.958 7.037,-26.264Z" style="fill:#fe2626;"/><path d="M7.015,18.329c2.197,-8.2 10.639,-13.073 18.838,-10.876c8.2,2.197 13.074,10.638 10.877,18.838c-2.197,8.2 -10.639,13.074 -18.838,10.876c-8.2,-2.197 -13.074,-10.638 -10.877,-18.838Z" style="fill:none;stroke:#fff;stroke-width:1.54px;"/><path d="M7.015,18.329c2.197,-8.2 10.639,-13.073 18.838,-10.876c8.2,2.197 13.074,10.638 10.877,18.838c-2.197,8.2 -10.639,13.074 -18.838,10.876c-8.2,-2.197 -13.074,-10.638 -10.877,-18.838Z" style="fill:#ff8016;"/><path d="M11.882,28.078c-3.183,-5.514 -1.291,-12.575 4.223,-15.758c5.513,-3.184 12.575,-1.292 15.758,4.222c3.183,5.514 1.291,12.575 -4.222,15.759c-5.514,3.183 -12.576,1.291 -15.759,-4.223Z" style="fill:none;stroke:#fff;stroke-width:1.54px;"/><path d="M11.882,28.078c-3.183,-5.514 -1.291,-12.575 4.223,-15.758c5.513,-3.184 12.575,-1.292 15.758,4.222c3.183,5.514 1.291,12.575 -4.222,15.759c-5.514,3.183 -12.576,1.291 -15.759,-4.223Z" style="fill:#ffee3b;"/><path d="M19.882,29.739c-4.1,-1.099 -6.537,-5.32 -5.438,-9.419c1.099,-4.1 5.319,-6.537 9.419,-5.439c4.1,1.099 6.537,5.32 5.438,9.42c-1.098,4.099 -5.319,6.536 -9.419,5.438Z" style="fill:none;stroke:#fff;stroke-width:1.54px;"/><path d="M19.882,29.739c-4.1,-1.099 -6.537,-5.32 -5.438,-9.419c1.099,-4.1 5.319,-6.537 9.419,-5.439c4.1,1.099 6.537,5.32 5.438,9.42c-1.098,4.099 -5.319,6.536 -9.419,5.438Z" style="fill:#5dd200;"/><path d="M19.95,18.98c1.838,-1.061 4.192,-0.431 5.253,1.407c1.061,1.838 0.43,4.192 -1.408,5.253c-1.838,1.061 -4.191,0.431 -5.253,-1.407c-1.061,-1.838 -0.43,-4.192 1.408,-5.253Z" style="fill:none;stroke:#fff;stroke-width:1.54px;"/><path d="M19.95,18.98c1.838,-1.061 4.192,-0.431 5.253,1.407c1.061,1.838 0.43,4.192 -1.408,5.253c-1.838,1.061 -4.191,0.431 -5.253,-1.407c-1.061,-1.838 -0.43,-4.192 1.408,-5.253Z" style="fill:#39cef9;"/></g></g><rect id="CandyCorn" x="2.5" y="41.691" width="55.809" height="55.809" style="fill:none;"/><path d="M8.791,82.838c-2.14,6.723 -0.616,10.714 6.44,10.714l30.051,0.019c7.123,0 9.236,-4.182 6.439,-10.733l-12.879,-30.051c-4.093,-9.556 -13.077,-9.555 -17.172,0l-12.879,30.051Z" style="fill:none;stroke:url(#_Linear3);stroke-width:4.29px;"/><path d="M8.791,82.838c-2.14,6.723 -0.616,10.714 6.44,10.714l30.051,0.019c7.123,0 9.236,-4.182 6.439,-10.733l-12.879,-30.051c-4.093,-9.556 -13.077,-9.555 -17.172,0l-12.879,30.051Z" style="fill:url(#_Linear4);"/><path id="Bat" d="M92.197,51.624l-65.223,-17.477l-10.765,40.177l65.223,17.476l10.765,-40.176Z" style="fill:none;"/><g><path id="Tail-Thing" serif:id="Tail Thing" d="M45.924,69.644c-1.47,3.558 -1.127,7.309 0.565,11.202c0.835,-0.969 1.709,-1.469 2.551,-1.767c0.945,-0.334 1.871,-1.275 2.28,-2.272c0.776,-1.891 1.498,-3.066 2.483,-4.38l-7.879,-2.783Z" style="fill:none;stroke:#000;stroke-width:0.73px;"/><path d="M45.924,69.644c-1.47,3.558 -1.127,7.309 0.565,11.202c0.835,-0.969 1.709,-1.469 2.551,-1.767c0.945,-0.334 1.871,-1.275 2.28,-2.272c0.776,-1.891 1.498,-3.066 2.483,-4.38l-7.879,-2.783Z" style="fill:#82705c;"/><clipPath id="_clip5"><path d="M45.924,69.644c-1.47,3.558 -1.127,7.309 0.565,11.202c0.835,-0.969 1.709,-1.469 2.551,-1.767c0.945,-0.334 1.871,-1.275 2.28,-2.272c0.776,-1.891 1.498,-3.066 2.483,-4.38l-7.879,-2.783Z"/></clipPath><g clip-path="url(#_clip5)"><path d="M45.446,70.613c1.481,0.014 2.582,2.759 2.456,6.128c-0.126,3.368 -1.432,6.092 -2.914,6.079c-1.482,-0.014 -2.582,-2.759 -2.456,-6.127c0.126,-3.369 1.432,-6.093 2.914,-6.08Z" style="fill:#97856a;"/></g><path id="Wings" d="M26.915,40.39c2.217,2.298 3.649,5.245 3.71,9.327c3.688,2.599 6.511,6.354 7.06,13.153c3.762,0.419 6.541,2.145 6.934,7.038l8.7,4.658c3.501,-3.794 7.064,-6.201 10.831,-4.079c4.445,-3.706 9.421,-6.148 15.842,-5.14c2.514,-3.378 5.317,-5.799 8.647,-6.466c-0.688,-2.222 -2.196,-4.218 -5.297,-5.774c-1.913,-0.017 -3.763,-0.37 -5.502,-1.324c-3.058,-0.053 -7.102,0.468 -12.214,1.607c-3.268,1.603 -5.682,6.007 -8.917,11.424c-3.027,0.545 -6,3.17 -9.187,-2.457c1.03,-4.897 2.856,-11.197 1.383,-13.447c-1.708,-2.61 -4.798,-5.59 -9.314,-8.952c-1.844,-0.278 -3.624,-0.988 -5.324,-2.253c-2.862,-0.938 -5.324,-0.094 -7.352,2.685Z" style="fill:none;stroke:#000;stroke-width:0.73px;"/><path d="M26.915,40.39c2.217,2.298 3.649,5.245 3.71,9.327c3.688,2.599 6.511,6.354 7.06,13.153c3.762,0.419 6.541,2.145 6.934,7.038l8.7,4.658c3.501,-3.794 7.064,-6.201 10.831,-4.079c4.445,-3.706 9.421,-6.148 15.842,-5.14c2.514,-3.378 5.317,-5.799 8.647,-6.466c-0.688,-2.222 -2.196,-4.218 -5.297,-5.774c-1.913,-0.017 -3.763,-0.37 -5.502,-1.324c-3.058,-0.053 -7.102,0.468 -12.214,1.607c-3.268,1.603 -5.682,6.007 -8.917,11.424c-3.027,0.545 -6,3.17 -9.187,-2.457c1.03,-4.897 2.856,-11.197 1.383,-13.447c-1.708,-2.61 -4.798,-5.59 -9.314,-8.952c-1.844,-0.278 -3.624,-0.988 -5.324,-2.253c-2.862,-0.938 -5.324,-0.094 -7.352,2.685Z" style="fill:#82705c;"/><g><clipPath id="_clip6"><path d="M26.915,40.39c2.217,2.298 3.649,5.245 3.71,9.327c3.688,2.599 6.511,6.354 7.06,13.153c3.762,0.419 6.541,2.145 6.934,7.038l8.7,4.658c3.501,-3.794 7.064,-6.201 10.831,-4.079c4.445,-3.706 9.421,-6.148 15.842,-5.14c2.514,-3.378 5.317,-5.799 8.647,-6.466c-0.688,-2.222 -2.196,-4.218 -5.297,-5.774c-1.913,-0.017 -3.763,-0.37 -5.502,-1.324c-3.058,-0.053 -7.102,0.468 -12.214,1.607c-3.268,1.603 -5.682,6.007 -8.917,11.424c-3.027,0.545 -6,3.17 -9.187,-2.457c1.03,-4.897 2.856,-11.197 1.383,-13.447c-1.708,-2.61 -4.798,-5.59 -9.314,-8.952c-1.844,-0.278 -3.624,-0.988 -5.324,-2.253c-2.862,-0.938 -5.324,-0.094 -7.352,2.685Z"/></clipPath><g clip-path="url(#_clip6)"><path d="M29.401,38.64c3.288,0.881 5.037,5.033 3.903,9.266c-1.135,4.233 -4.725,6.954 -8.013,6.073c-3.289,-0.881 -5.038,-5.033 -3.903,-9.266c1.134,-4.233 4.724,-6.954 8.013,-6.073Z" style="fill:#97856a;"/><path d="M34.404,49.064c4.578,1.227 7.261,6.083 5.987,10.838c-1.274,4.755 -6.025,7.619 -10.604,6.393c-4.578,-1.227 -7.26,-6.083 -5.986,-10.838c1.274,-4.755 6.025,-7.62 10.603,-6.393Z" style="fill:#97856a;"/><path d="M41.19,59.291c4.578,1.226 7.26,6.083 5.986,10.837c-1.274,4.755 -6.025,7.62 -10.603,6.393c-4.578,-1.227 -7.261,-6.083 -5.987,-10.838c1.274,-4.755 6.026,-7.619 10.604,-6.392Z" style="fill:#97856a;"/><path d="M62.671,66.548c4.578,1.227 7.26,6.083 5.986,10.838c-1.274,4.755 -6.025,7.619 -10.603,6.393c-4.578,-1.227 -7.261,-6.083 -5.987,-10.838c1.274,-4.755 6.026,-7.62 10.604,-6.393Z" style="fill:#97856a;"/><path d="M76.561,61.711c6.232,1.67 10.214,7.043 8.888,11.991c-1.326,4.948 -7.461,7.61 -13.692,5.941c-6.232,-1.67 -10.214,-7.043 -8.888,-11.991c1.326,-4.948 7.461,-7.61 13.692,-5.941Z" style="fill:#97856a;"/><path d="M91.51,56.483c6.231,1.67 10.214,7.042 8.888,11.991c-1.326,4.948 -7.462,7.61 -13.693,5.94c-6.231,-1.67 -10.214,-7.042 -8.888,-11.991c1.326,-4.948 7.462,-7.61 13.693,-5.94Z" style="fill:#97856a;"/><path d="M57.266,45.506c5.396,1.445 8.347,7.955 6.586,14.527c-1.761,6.572 -7.571,10.733 -12.967,9.288c-5.395,-1.446 -8.346,-7.955 -6.585,-14.527c1.761,-6.572 7.571,-10.734 12.966,-9.288Z" style="fill:#72614e;"/><path d="M40.265,39.02c1.85,-1.991 5.502,-1.386 8.148,1.35c2.647,2.736 3.293,6.573 1.442,8.564c-1.85,1.99 -5.501,1.385 -8.148,-1.351c-2.646,-2.735 -3.293,-6.573 -1.442,-8.563Z" style="fill:#72614e;"/><path d="M60.886,55.264c-0.764,-2.946 2.461,-6.564 7.198,-8.073c4.737,-1.51 9.202,-0.344 9.966,2.603c0.764,2.946 -2.461,6.563 -7.198,8.073c-4.736,1.509 -9.202,0.343 -9.966,-2.603Z" style="fill:#72614e;"/></g></g><g id="Feet"><path d="M45.594,68.291l-1.174,1.038c-1.006,0.556 -1.476,1.058 -1.178,1.591l0.351,0.524c0.301,0.39 0.753,0.224 0.951,-0.421c0.105,-0.341 0.263,-0.668 0.52,-0.968l0.619,-0.695l-0.089,-1.069Z" style="fill:none;stroke:#513614;stroke-width:0.37px;"/><path d="M45.594,68.291l-1.174,1.038c-1.006,0.556 -1.476,1.058 -1.178,1.591l0.351,0.524c0.301,0.39 0.753,0.224 0.951,-0.421c0.105,-0.341 0.263,-0.668 0.52,-0.968l0.619,-0.695l-0.089,-1.069Z" style="fill:#82623a;"/><path d="M53.702,72.402l0.162,1.577c0.363,1.107 0.37,1.802 -0.205,1.983l-0.607,0.139c-0.48,0.074 -0.699,-0.362 -0.412,-0.972c0.152,-0.322 0.255,-0.671 0.269,-1.068l0.012,-0.94l0.781,-0.719Z" style="fill:none;stroke:#513614;stroke-width:0.37px;"/><path d="M53.702,72.402l0.162,1.577c0.363,1.107 0.37,1.802 -0.205,1.983l-0.607,0.139c-0.48,0.074 -0.699,-0.362 -0.412,-0.972c0.152,-0.322 0.255,-0.671 0.269,-1.068l0.012,-0.94l0.781,-0.719Z" style="fill:#82623a;"/></g><g><path d="M64.912,54.626c1.871,5.833 2.607,11.162 -0.211,14.918" style="fill:none;stroke:#442317;stroke-width:0.37px;"/><path d="M79.766,64.448c-0.866,-4.091 -5.096,-7.562 -13.583,-10.251" style="fill:none;stroke:#442317;stroke-width:0.37px;"/><path d="M35.787,38.868c4.36,2.968 8.523,6.224 12.503,9.747" style="fill:none;stroke:#442317;stroke-width:0.37px;"/><path d="M31.024,49.092c2.57,-3.517 8.836,-2.887 16.978,-0.155" style="fill:none;stroke:#442317;stroke-width:0.37px;"/><path d="M48.197,49.569c-7.125,3.623 -10.03,7.616 -10.227,11.848" style="fill:none;stroke:#442317;stroke-width:0.37px;"/><path d="M65.963,53.616c5.037,-0.367 10.173,-0.488 15.395,-0.395" style="fill:none;stroke:#442317;stroke-width:0.37px;"/><path d="M47.704,62.114c1.909,-5.662 2.563,-11.039 1.011,-12.8" style="fill:none;stroke:#000;stroke-width:0.73px;"/><path d="M64.867,53.858c-3.144,2.499 -5.418,6.049 -7.339,10.026" style="fill:none;stroke:#000;stroke-width:0.73px;"/></g><path id="Body" d="M53.364,62.153c2.939,1.21 4.299,4.793 3.035,7.997c-1.263,3.205 -4.675,4.824 -7.614,3.614c-2.939,-1.209 -4.299,-4.793 -3.036,-7.997c1.264,-3.204 4.676,-4.824 7.615,-3.614Z" style="fill:#b1a590;"/><clipPath id="_clip7"><path id="Darker" d="M53.364,62.153c2.939,1.21 4.299,4.793 3.035,7.997c-1.263,3.205 -4.675,4.824 -7.614,3.614c-2.939,-1.209 -4.299,-4.793 -3.036,-7.997c1.264,-3.204 4.676,-4.824 7.615,-3.614Z"/></clipPath><g clip-path="url(#_clip7)"><path d="M53.725,62.302c2.74,1.128 4.047,4.368 2.918,7.231c-1.129,2.864 -4.27,4.273 -7.009,3.145c-2.739,-1.127 -4.046,-4.367 -2.917,-7.231c1.129,-2.863 4.269,-4.272 7.008,-3.145Z" style="fill:#5e4c31;"/></g><g id="Ears"><path d="M52.116,65.134c0.376,-1.256 0.589,-2.585 0.507,-4.047c-0.093,-1.039 -0.264,-2.1 -0.614,-3.209c-0.335,-1.503 -0.881,-1.29 -1.511,-0.404c-0.604,1.006 -1.113,2.038 -1.496,3.104c-0.497,1.774 -0.75,3.553 -0.737,5.338c1.035,3.216 2.338,2.679 3.851,-0.782Z" style="fill:url(#_Linear8);"/><path d="M54.108,65.359l0.932,-1.921c0.33,-0.531 0.908,-1.152 1.412,-1.578c0.645,-0.546 1.281,-1.14 2.086,-1.709c0.973,-0.688 1.394,-0.464 1.164,0.834c-0.309,1.277 -0.757,2.439 -1.292,3.529c-0.567,1.02 -1.188,1.975 -1.843,2.888c-2.552,2.429 -3.325,1.665 -2.459,-2.043Z" style="fill:url(#_Linear9);"/></g><g id="Snout"><path d="M51.743,67.734c0.754,0.202 1.154,1.156 0.893,2.128c-0.26,0.973 -1.084,1.599 -1.837,1.397c-0.754,-0.202 -1.154,-1.156 -0.894,-2.128c0.261,-0.973 1.084,-1.599 1.838,-1.397Z" style="fill:#3c291c;"/><path d="M51.364,69.147c0.567,0.152 0.9,0.749 0.744,1.331c-0.156,0.583 -0.743,0.933 -1.309,0.781c-0.567,-0.152 -0.9,-0.748 -0.744,-1.331c0.156,-0.583 0.743,-0.933 1.309,-0.781Z" style="fill:#82705c;"/><path d="M51.281,69.46c0.452,0.121 0.73,0.552 0.62,0.963c-0.11,0.41 -0.566,0.645 -1.019,0.524c-0.452,-0.121 -0.73,-0.553 -0.62,-0.963c0.11,-0.411 0.566,-0.646 1.019,-0.524Z" style="fill:#4f221c;"/></g><g id="Eyes"><path d="M50.577,65.744c0.114,0.031 0.146,0.282 0.072,0.561c-0.075,0.278 -0.228,0.48 -0.342,0.449c-0.115,-0.031 -0.147,-0.282 -0.072,-0.56c0.074,-0.279 0.228,-0.48 0.342,-0.45Z"/><path d="M53.97,67.027c0.114,0.031 0.146,0.282 0.071,0.56c-0.074,0.279 -0.228,0.48 -0.342,0.45c-0.114,-0.031 -0.146,-0.282 -0.072,-0.56c0.075,-0.279 0.228,-0.48 0.343,-0.45Z"/></g></g></g><defs><linearGradient id="_Linear3" x1="0" y1="0" x2="1" y2="0" gradientUnits="userSpaceOnUse" gradientTransform="matrix(45.0185,0,0,45.0185,7.89557,69.5953)"><stop offset="0" style="stop-color:#fff;stop-opacity:1"/><stop offset="0.2" style="stop-color:#fff;stop-opacity:1"/><stop offset="0.4" style="stop-color:#ff9010;stop-opacity:1"/><stop offset="0.6" style="stop-color:#ff9010;stop-opacity:1"/><stop offset="0.8" style="stop-color:#fdff10;stop-opacity:1"/><stop offset="1" style="stop-color:#fdff10;stop-opacity:1"/></linearGradient><linearGradient id="_Linear4" x1="0" y1="0" x2="1" y2="0" gradientUnits="userSpaceOnUse" gradientTransform="matrix(2.90982e-15,47.5209,-47.5209,2.90982e-15,29.9611,45.8665)"><stop offset="0" style="stop-color:#fff;stop-opacity:1"/><stop offset="0.2" style="stop-color:#fff;stop-opacity:1"/><stop offset="0.4" style="stop-color:#ff9010;stop-opacity:1"/><stop offset="0.6" style="stop-color:#ff9010;stop-opacity:1"/><stop offset="0.8" style="stop-color:#fdff10;stop-opacity:1"/><stop offset="1" style="stop-color:#fdff10;stop-opacity:1"/></linearGradient><linearGradient id="_Linear8" x1="0" y1="0" x2="1" y2="0" gradientUnits="userSpaceOnUse" gradientTransform="matrix(2.04198,-7.62076,7.16257,1.91921,49.516,66.532)"><stop offset="0" style="stop-color:#5e4c31;stop-opacity:1"/><stop offset="0.63" style="stop-color:#3f2f20;stop-opacity:1"/><stop offset="1" style="stop-color:#30251c;stop-opacity:1"/></linearGradient><linearGradient id="_Linear9" x1="0" y1="0" x2="1" y2="0" gradientUnits="userSpaceOnUse" gradientTransform="matrix(2.04198,-7.62076,7.16257,1.91921,49.516,66.532)"><stop offset="0" style="stop-color:#5e4c31;stop-opacity:1"/><stop offset="0.63" style="stop-color:#3f2f20;stop-opacity:1"/><stop offset="1" style="stop-color:#30251c;stop-opacity:1"/></linearGradient></defs></svg>