<?xml version="1.0" encoding="UTF-8" standalone="no"?><!DOCTYPE svg PUBLIC "-//W3C//DTD SVG 1.1//EN" "http://www.w3.org/Graphics/SVG/1.1/DTD/svg11.dtd"><svg width="100%" height="100%" viewBox="0 0 43 28" version="1.1" xmlns="http://www.w3.org/2000/svg" xmlns:xlink="http://www.w3.org/1999/xlink" xml:space="preserve" xmlns:serif="http://www.serif.com/" style="fill-rule:evenodd;clip-rule:evenodd;stroke-linecap:round;stroke-linejoin:round;stroke-miterlimit:1.5;"><path d="M41.292,11.044c-5.688,-6.303 -13.6,-8.794 -22.725,-9.205c-0.256,8.308 -5.982,12.171 -14.096,14.095c-8.054,1.968 0.304,5.645 15.822,10.069c6.325,1.077 11.832,-0.027 16.684,-2.877c4.232,-2.631 5.975,-6.506 4.315,-12.082Z" style="fill:none;stroke:#b35200;stroke-width:2px;"/><path d="M41.292,11.044c-5.688,-6.303 -13.6,-8.794 -22.725,-9.205c-0.256,8.308 -5.982,12.171 -14.096,14.095c-8.054,1.968 0.304,5.645 15.822,10.069c6.325,1.077 11.832,-0.027 16.684,-2.877c4.232,-2.631 5.975,-6.506 4.315,-12.082Z" style="fill:#ff9d2b;"/></svg>