<?xml version="1.0" encoding="UTF-8" standalone="no"?><!DOCTYPE svg PUBLIC "-//W3C//DTD SVG 1.1//EN" "http://www.w3.org/Graphics/SVG/1.1/DTD/svg11.dtd"><svg width="100%" height="100%" viewBox="0 0 36 35" version="1.1" xmlns="http://www.w3.org/2000/svg" xmlns:xlink="http://www.w3.org/1999/xlink" xml:space="preserve" xmlns:serif="http://www.serif.com/" style="fill-rule:evenodd;clip-rule:evenodd;stroke-linecap:round;stroke-linejoin:round;stroke-miterlimit:1.5;"><path d="M28.472,1.799c-17.662,10.519 -31.652,19.711 -26.177,21.862c10.141,0.131 17.95,3.758 24.163,9.78c-1.715,-4.899 -2.9,-9.571 2.302,-11.506c0.345,3.283 1.515,5.247 4.315,4.603c3.44,-7.939 -0.633,-16.308 -4.603,-24.739Z" style="fill:none;stroke:#b35200;stroke-width:2px;"/><path d="M28.472,1.799c-17.662,10.519 -31.652,19.711 -26.177,21.862c10.141,0.131 17.95,3.758 24.163,9.78c-1.715,-4.899 -2.9,-9.571 2.302,-11.506c0.345,3.283 1.515,5.247 4.315,4.603c3.44,-7.939 -0.633,-16.308 -4.603,-24.739Z" style="fill:#d65917;"/></svg>