<?xml version="1.0" encoding="UTF-8" standalone="no"?><!DOCTYPE svg PUBLIC "-//W3C//DTD SVG 1.1//EN" "http://www.w3.org/Graphics/SVG/1.1/DTD/svg11.dtd"><svg width="100%" height="100%" viewBox="0 0 51 26" version="1.1" xmlns="http://www.w3.org/2000/svg" xmlns:xlink="http://www.w3.org/1999/xlink" xml:space="preserve" xmlns:serif="http://www.serif.com/" style="fill-rule:evenodd;clip-rule:evenodd;stroke-linecap:round;stroke-linejoin:round;stroke-miterlimit:1.5;"><path d="M12.049,4.759c-7.495,1.003 -9.186,4.009 -10.77,6.49c8.172,-0.996 17.479,2.261 27.615,8.63c5.762,4.743 10.756,5.265 15.534,4.602c4.495,-6.455 6.118,-13.731 3.74,-22.15c-12.297,-1.458 -23.647,0.759 -36.119,2.428Z" style="fill:none;stroke:#b35200;stroke-width:2px;"/><path d="M12.049,4.759c-7.495,1.003 -9.186,4.009 -10.77,6.49c8.172,-0.996 17.479,2.261 27.615,8.63c5.762,4.743 10.756,5.265 15.534,4.602c4.495,-6.455 6.118,-13.731 3.74,-22.15c-12.297,-1.458 -23.647,0.759 -36.119,2.428Z" style="fill:#ab5a0a;"/></svg>