<?xml version="1.0" encoding="UTF-8" standalone="no"?><!DOCTYPE svg PUBLIC "-//W3C//DTD SVG 1.1//EN" "http://www.w3.org/Graphics/SVG/1.1/DTD/svg11.dtd"><svg width="100%" height="100%" viewBox="0 0 33 34" version="1.1" xmlns="http://www.w3.org/2000/svg" xmlns:xlink="http://www.w3.org/1999/xlink" xml:space="preserve" xmlns:serif="http://www.serif.com/" style="fill-rule:evenodd;clip-rule:evenodd;stroke-linecap:round;stroke-linejoin:round;stroke-miterlimit:1.5;"><path d="M28.144,6.386c-7.271,-3.643 -14.677,-5.787 -22.438,-4.027c-6.073,9.059 -5.389,17.153 -1.151,24.739c6.3,0.498 12.771,2.021 19.561,5.466c0.227,-3.38 -1.694,-6.605 -8.342,-9.493c8.078,-1.033 14.919,-3.215 16.109,-10.644c-4.526,1.799 -7.709,1.182 -9.78,-1.438c2.81,-0.737 5.196,-1.899 6.041,-4.603Z" style="fill:none;stroke:#b35200;stroke-width:2px;"/><path d="M28.144,6.386c-7.271,-3.643 -14.677,-5.787 -22.438,-4.027c-6.073,9.059 -5.389,17.153 -1.151,24.739c6.3,0.498 12.771,2.021 19.561,5.466c0.227,-3.38 -1.694,-6.605 -8.342,-9.493c8.078,-1.033 14.919,-3.215 16.109,-10.644c-4.526,1.799 -7.709,1.182 -9.78,-1.438c2.81,-0.737 5.196,-1.899 6.041,-4.603Z" style="fill:#df6c2f;"/></svg>