<?xml version="1.0" encoding="UTF-8" standalone="no"?><!DOCTYPE svg PUBLIC "-//W3C//DTD SVG 1.1//EN" "http://www.w3.org/Graphics/SVG/1.1/DTD/svg11.dtd"><svg width="100%" height="100%" viewBox="0 0 39 23" version="1.1" xmlns="http://www.w3.org/2000/svg" xmlns:xlink="http://www.w3.org/1999/xlink" xml:space="preserve" xmlns:serif="http://www.serif.com/" style="fill-rule:evenodd;clip-rule:evenodd;stroke-linecap:round;stroke-linejoin:round;stroke-miterlimit:1.5;"><path d="M2.047,1.974c7.088,5.59 15.568,5.617 25.602,-0.575c6.697,7.351 9.179,14.054 9.493,20.424c-7.351,-2.522 -14.343,-3.792 -20.712,-2.877c-4.219,1.583 -8.438,2.311 -12.657,1.438c-3.263,-6.405 -3.373,-12.495 -1.726,-18.41Z" style="fill:none;stroke:#b35200;stroke-width:2px;"/><path d="M2.047,1.974c7.088,5.59 15.568,5.617 25.602,-0.575c6.697,7.351 9.179,14.054 9.493,20.424c-7.351,-2.522 -14.343,-3.792 -20.712,-2.877c-4.219,1.583 -8.438,2.311 -12.657,1.438c-3.263,-6.405 -3.373,-12.495 -1.726,-18.41Z" style="fill:#fca678;"/></svg>