<?xml version="1.0" encoding="UTF-8" standalone="no"?><!DOCTYPE svg PUBLIC "-//W3C//DTD SVG 1.1//EN" "http://www.w3.org/Graphics/SVG/1.1/DTD/svg11.dtd"><svg width="100%" height="100%" viewBox="0 0 101 161" version="1.1" xmlns="http://www.w3.org/2000/svg" xmlns:xlink="http://www.w3.org/1999/xlink" xml:space="preserve" xmlns:serif="http://www.serif.com/" style="fill-rule:evenodd;clip-rule:evenodd;stroke-linecap:round;stroke-linejoin:round;stroke-miterlimit:1.5;"><rect id="GasCan" x="0.922" y="0.187" width="100" height="160" style="fill:none;"/><g><path d="M4.282,37.797l0.417,100.375c-0.043,3.837 1.912,6.651 6.052,8.347l23.581,8.139c5.442,0.967 11.172,0.564 17.112,-0.835l41.318,-16.903c3.02,-1.545 4.814,-4.819 4.8,-10.643l-0.626,-94.115c-0.002,-2.891 -0.66,-5.689 -2.296,-8.347l-9.39,-13.356c-3.129,-4.775 -10.183,-6.102 -20.451,-4.799c-2.436,0.309 -3.042,0.977 -3.861,2.295l-13.251,2.504l-4.246,-0.214c-5.652,-0.567 -9.387,-0.477 -12.657,0.84l-23.79,19.825c-1.519,1.456 -2.515,3.641 -2.712,6.887Z" style="fill:none;stroke:#620200;stroke-width:4px;"/><path d="M4.282,37.797l0.417,100.375c-0.043,3.837 1.912,6.651 6.052,8.347l23.581,8.139c5.442,0.967 11.172,0.564 17.112,-0.835l41.318,-16.903c3.02,-1.545 4.814,-4.819 4.8,-10.643l-0.626,-94.115c-0.002,-2.891 -0.66,-5.689 -2.296,-8.347l-9.39,-13.356c-3.129,-4.775 -10.183,-6.102 -20.451,-4.799c-2.436,0.309 -3.042,0.977 -3.861,2.295l-13.251,2.504l-4.246,-0.214c-5.652,-0.567 -9.387,-0.477 -12.657,0.84l-23.79,19.825c-1.519,1.456 -2.515,3.641 -2.712,6.887Z" style="fill:#ca2b28;"/><clipPath id="_clip1"><path d="M4.282,37.797l0.417,100.375c-0.043,3.837 1.912,6.651 6.052,8.347l23.581,8.139c5.442,0.967 11.172,0.564 17.112,-0.835l41.318,-16.903c3.02,-1.545 4.814,-4.819 4.8,-10.643l-0.626,-94.115c-0.002,-2.891 -0.66,-5.689 -2.296,-8.347l-9.39,-13.356c-3.129,-4.775 -10.183,-6.102 -20.451,-4.799c-2.436,0.309 -3.042,0.977 -3.861,2.295l-13.251,2.504l-4.246,-0.214c-5.652,-0.567 -9.387,-0.477 -12.657,0.84l-23.79,19.825c-1.519,1.456 -2.515,3.641 -2.712,6.887Z"/></clipPath><g clip-path="url(#_clip1)"><g><path d="M51.255,54.369l0.145,0.019l0.143,0.029l0.141,0.04l0.137,0.05l0.133,0.06l0.129,0.069l0.123,0.079l0.117,0.087l0.111,0.096l0.103,0.103l0.095,0.111l0.087,0.117l0.078,0.124l0.137,0.234l0.135,0.231l0.137,0.231l0.138,0.23l0.138,0.23l0.138,0.229l0.282,0.46l0.283,0.459l0.286,0.458l0.287,0.458l0.29,0.459l0.292,0.458l0.293,0.459l0.589,0.921l0.59,0.924l0.296,0.464l0.295,0.467l0.294,0.468l0.294,0.47l0.292,0.472l0.289,0.474l0.146,0.24l0.144,0.239l0.143,0.24l0.143,0.241l0.142,0.242l0.142,0.242l0.141,0.244l0.14,0.244l0.139,0.245l0.139,0.246l0.137,0.247l0.137,0.248l0.135,0.249l0.135,0.25l0.134,0.251l0.132,0.252l0.132,0.254l0.13,0.255l0.129,0.255l0.128,0.257l0.127,0.258l0.125,0.26l0.124,0.26l0.122,0.261l0.086,0.187l0.085,0.187l0.166,0.37l0.166,0.372l0.164,0.372l0.163,0.369l0.163,0.368l0.164,0.365l0.082,0.18l0.082,0.18l0.083,0.179l0.083,0.177l0.083,0.176l0.084,0.174l0.085,0.173l0.085,0.172l0.086,0.169l0.087,0.168l0.087,0.166l0.088,0.164l0.089,0.161l0.09,0.16l0.091,0.157l0.091,0.155l0.093,0.152l0.094,0.15l0.095,0.147l0.095,0.144l0.099,0.144l0.047,0.067l0.049,0.069l0.049,0.068l0.05,0.067l0.05,0.067l0.05,0.066l0.05,0.065l0.051,0.064l0.052,0.064l0.051,0.063l0.051,0.061l0.053,0.062l0.052,0.06l0.052,0.059l0.053,0.059l0.053,0.058l0.054,0.057l0.054,0.056l0.054,0.055l0.055,0.055l0.054,0.054l0.055,0.052l0.056,0.052l0.056,0.052l0.056,0.05l0.057,0.05l0.057,0.049l0.058,0.047l0.058,0.048l0.058,0.046l0.058,0.045l0.059,0.045l0.06,0.044l0.06,0.043l0.061,0.042l0.061,0.041l0.061,0.041l0.063,0.04l0.062,0.039l0.063,0.038l0.065,0.037l0.063,0.037l0.066,0.035l0.066,0.036l0.066,0.034l0.067,0.033l0.068,0.033l0.069,0.032l0.069,0.031l0.07,0.03l0.071,0.029l0.072,0.029l0.073,0.028l0.073,0.027l0.075,0.026l0.075,0.025l0.077,0.025l0.077,0.023l0.054,0.016l0.054,0.015l0.054,0.014l0.055,0.014l0.054,0.012l0.056,0.013l0.055,0.011l0.056,0.011l0.055,0.01l0.056,0.009l0.056,0.009l0.058,0.008l0.057,0.007l0.057,0.007l0.058,0.006l0.057,0.005l0.059,0.005l0.059,0.004l0.06,0.003l0.06,0.003l0.059,0.002l0.06,0.002l0.062,0l0.06,0.001l0.061,-0.001l0.062,-0.001l0.063,-0.002l0.062,-0.002l0.063,-0.003l0.063,-0.004l0.064,-0.004l0.064,-0.005l0.065,-0.006l0.06,-0.006l0.135,-0.014l0.132,-0.017l0.133,-0.019l0.135,-0.022l0.136,-0.024l0.137,-0.026l0.138,-0.029l0.14,-0.031l0.14,-0.033l0.142,-0.035l0.142,-0.037l0.143,-0.04l0.145,-0.041l0.145,-0.043l0.145,-0.045l0.147,-0.047l0.147,-0.049l0.148,-0.05l0.148,-0.052l0.149,-0.054l0.149,-0.055l0.15,-0.056l0.15,-0.057l0.15,-0.059l0.151,-0.06l0.151,-0.061l0.151,-0.061l0.151,-0.063l0.15,-0.063l0.305,-0.13l0.304,-0.132l0.303,-0.133l0.607,-0.269l0.302,-0.134l0.302,-0.133l0.302,-0.131l0.293,-0.126l0.137,-0.053l0.139,-0.042l0.143,-0.032l0.144,-0.022l0.146,-0.011l0.146,-0.001l0.146,0.01l0.144,0.021l0.143,0.031l0.14,0.042l0.137,0.052l0.132,0.061l0.128,0.071l0.122,0.081l0.116,0.089l0.109,0.097l0.102,0.104l0.094,0.112l0.085,0.119l0.077,0.124l0.067,0.13l0.057,0.134l0.048,0.138l0.037,0.142l0.027,0.143l0.017,0.145l0.006,0.146l-0.005,0.146l-0.016,0.146l-0.026,0.143l-0.036,0.142l-0.047,0.138l-0.056,0.135l-0.067,0.13l-0.076,0.125l-0.084,0.119l-0.093,0.113l-0.101,0.105l-0.109,0.098l-0.115,0.09l-0.122,0.081l-0.127,0.072l-0.132,0.062l-0.283,0.121l-0.283,0.124l-0.291,0.128l-0.298,0.132l-0.615,0.273l-0.317,0.139l-0.323,0.14l-0.327,0.139l-0.168,0.07l-0.167,0.07l-0.17,0.069l-0.17,0.069l-0.172,0.068l-0.173,0.068l-0.174,0.066l-0.175,0.066l-0.177,0.065l-0.178,0.064l-0.179,0.063l-0.18,0.061l-0.182,0.06l-0.183,0.059l-0.184,0.057l-0.185,0.055l-0.186,0.053l-0.188,0.052l-0.189,0.05l-0.19,0.047l-0.191,0.045l-0.193,0.043l-0.193,0.04l-0.196,0.037l-0.195,0.035l-0.197,0.031l-0.199,0.029l-0.2,0.025l-0.196,0.022l-0.106,0.01l-0.1,0.009l-0.101,0.007l-0.102,0.007l-0.102,0.006l-0.102,0.005l-0.103,0.004l-0.102,0.003l-0.103,0.002l-0.104,0.001l-0.103,-0.001l-0.103,-0.001l-0.104,-0.002l-0.105,-0.004l-0.104,-0.005l-0.104,-0.006l-0.104,-0.007l-0.105,-0.009l-0.106,-0.009l-0.105,-0.011l-0.105,-0.013l-0.106,-0.013l-0.105,-0.015l-0.105,-0.016l-0.106,-0.018l-0.106,-0.019l-0.106,-0.02l-0.106,-0.022l-0.106,-0.023l-0.106,-0.025l-0.105,-0.026l-0.106,-0.028l-0.105,-0.029l-0.106,-0.031l-0.131,-0.04l-0.129,-0.041l-0.127,-0.043l-0.127,-0.044l-0.126,-0.047l-0.124,-0.047l-0.123,-0.049l-0.123,-0.051l-0.121,-0.052l-0.12,-0.054l-0.118,-0.055l-0.117,-0.056l-0.116,-0.058l-0.116,-0.059l-0.113,-0.061l-0.112,-0.061l-0.112,-0.064l-0.11,-0.064l-0.109,-0.066l-0.107,-0.067l-0.107,-0.068l-0.104,-0.069l-0.104,-0.07l-0.103,-0.072l-0.101,-0.072l-0.1,-0.074l-0.099,-0.074l-0.099,-0.076l-0.096,-0.077l-0.095,-0.077l-0.094,-0.079l-0.093,-0.079l-0.091,-0.08l-0.091,-0.081l-0.089,-0.082l-0.088,-0.082l-0.088,-0.084l-0.086,-0.085l-0.084,-0.084l-0.084,-0.085l-0.083,-0.087l-0.081,-0.087l-0.08,-0.087l-0.08,-0.088l-0.078,-0.089l-0.078,-0.089l-0.075,-0.089l-0.076,-0.091l-0.075,-0.091l-0.072,-0.09l-0.073,-0.092l-0.072,-0.093l-0.07,-0.092l-0.07,-0.093l-0.069,-0.093l-0.068,-0.094l-0.066,-0.094l-0.069,-0.097l-0.128,-0.187l-0.126,-0.191l-0.124,-0.192l-0.121,-0.193l-0.117,-0.193l-0.116,-0.195l-0.112,-0.195l-0.11,-0.195l-0.108,-0.196l-0.106,-0.196l-0.103,-0.196l-0.101,-0.197l-0.1,-0.196l-0.098,-0.196l-0.095,-0.196l-0.095,-0.196l-0.092,-0.195l-0.091,-0.195l-0.09,-0.194l-0.089,-0.194l-0.088,-0.193l-0.171,-0.382l-0.167,-0.378l-0.165,-0.372l-0.162,-0.367l-0.16,-0.359l-0.159,-0.354l-0.078,-0.171l-0.078,-0.169l-0.112,-0.24l-0.113,-0.238l-0.114,-0.237l-0.116,-0.237l-0.118,-0.236l-0.119,-0.235l-0.12,-0.235l-0.121,-0.234l-0.123,-0.234l-0.124,-0.233l-0.126,-0.233l-0.126,-0.232l-0.128,-0.232l-0.129,-0.231l-0.13,-0.231l-0.131,-0.231l-0.132,-0.231l-0.133,-0.23l-0.135,-0.229l-0.135,-0.23l-0.136,-0.229l-0.137,-0.23l-0.137,-0.229l-0.138,-0.227l-0.281,-0.459l-0.282,-0.457l-0.286,-0.457l-0.287,-0.457l-0.289,-0.458l-0.291,-0.457l-0.588,-0.919l-0.59,-0.922l-0.296,-0.464l-0.295,-0.465l-0.296,-0.467l-0.295,-0.469l-0.294,-0.472l-0.293,-0.475l-0.291,-0.475l-0.145,-0.241l-0.145,-0.241l-0.144,-0.241l-0.143,-0.242l-0.143,-0.243l-0.141,-0.241l-0.068,-0.128l-0.06,-0.134l-0.049,-0.137l-0.039,-0.141l-0.029,-0.143l-0.019,-0.145l-0.007,-0.146l0.002,-0.146l0.014,-0.146l0.024,-0.144l0.035,-0.142l0.045,-0.139l0.055,-0.135l0.064,-0.131l0.074,-0.126l0.083,-0.12l0.092,-0.114l0.1,-0.107l0.107,-0.099l0.114,-0.091l0.121,-0.083l0.126,-0.073l0.131,-0.065l0.136,-0.054l0.139,-0.044l0.142,-0.034l0.144,-0.024l0.145,-0.013l0.147,-0.002l0.145,0.008Z" style="fill:#91292a;"/><path d="M90.36,45.756l0.091,0.002l0.093,0.004l0.094,0.006l0.092,0.008l0.089,0.009l0.093,0.011l0.091,0.012l0.088,0.014l0.091,0.016l0.089,0.017l0.087,0.019l0.089,0.02l0.087,0.022l0.088,0.023l0.085,0.025l0.085,0.026l0.085,0.027l0.084,0.029l0.082,0.03l0.083,0.032l0.081,0.032l0.081,0.034l0.081,0.036l0.079,0.036l0.078,0.037l0.078,0.039l0.077,0.04l0.076,0.041l0.075,0.042l0.074,0.042l0.074,0.045l0.073,0.045l0.072,0.046l0.071,0.047l0.07,0.048l0.069,0.049l0.069,0.049l0.068,0.051l0.067,0.051l0.066,0.053l0.065,0.052l0.065,0.055l0.064,0.056l0.062,0.054l0.061,0.055l0.067,0.062l0.115,0.112l0.116,0.118l0.114,0.122l0.111,0.125l0.107,0.126l0.103,0.128l0.102,0.133l0.098,0.133l0.094,0.135l0.092,0.138l0.088,0.139l0.085,0.142l0.083,0.144l0.08,0.145l0.076,0.147l0.073,0.149l0.07,0.15l0.067,0.152l0.064,0.154l0.061,0.156l0.057,0.156l0.054,0.157l0.051,0.16l0.049,0.161l0.039,0.142l0.017,0.065l0.014,0.065l0.012,0.066l0.01,0.066l0.008,0.066l0.006,0.067l0.003,0.067l0.002,0.067l-0.001,0.066l-0.004,0.067l-0.005,0.067l-0.008,0.066l-0.01,0.066l-0.012,0.066l-0.014,0.065l-0.017,0.065l-0.018,0.064l-0.021,0.064l-0.023,0.063l-0.025,0.062l-0.027,0.061l-0.029,0.06l-0.031,0.059l-0.033,0.058l-0.035,0.057l-0.037,0.056l-0.039,0.055l-0.04,0.053l-0.042,0.052l-0.044,0.05l-0.046,0.049l-0.047,0.047l-0.049,0.046l-0.05,0.044l-0.052,0.042l-0.053,0.041l-0.054,0.039l-0.056,0.037l-0.057,0.035l-0.058,0.033l-0.059,0.031l-0.06,0.029l-0.061,0.028l-0.062,0.025l-0.063,0.023l-0.063,0.021l-0.064,0.019l-0.065,0.016l-0.065,0.015l-0.066,0.012l-0.066,0.01l-0.066,0.008l-0.067,0.006l-0.067,0.003l-0.067,0.001l-0.066,-0.001l-0.067,-0.003l-0.067,-0.005l-0.066,-0.008l-0.066,-0.01l-0.066,-0.012l-0.065,-0.014l-0.065,-0.017l-0.064,-0.019l-0.064,-0.02l-0.063,-0.023l-0.062,-0.025l-0.061,-0.027l-0.06,-0.029l-0.059,-0.031l-0.058,-0.033l-0.057,-0.035l-0.056,-0.037l-0.054,-0.039l-0.054,-0.04l-0.051,-0.042l-0.051,-0.044l-0.049,-0.046l-0.047,-0.047l-0.046,-0.049l-0.044,-0.05l-0.042,-0.052l-0.041,-0.053l-0.039,-0.054l-0.037,-0.056l-0.035,-0.057l-0.033,-0.058l-0.031,-0.059l-0.029,-0.06l-0.028,-0.061l-0.025,-0.062l-0.023,-0.063l-0.021,-0.063l-0.019,-0.065l-0.027,-0.101l-0.024,-0.08l-0.026,-0.08l-0.028,-0.08l-0.029,-0.079l-0.03,-0.077l-0.032,-0.077l-0.033,-0.075l-0.034,-0.074l-0.036,-0.073l-0.037,-0.072l-0.038,-0.069l-0.039,-0.068l-0.041,-0.067l-0.041,-0.065l-0.042,-0.063l-0.043,-0.063l-0.044,-0.059l-0.043,-0.057l-0.046,-0.056l-0.045,-0.053l-0.045,-0.051l-0.046,-0.049l-0.046,-0.047l-0.051,-0.049l-0.017,-0.016l-0.024,-0.022l-0.025,-0.022l-0.021,-0.018l-0.023,-0.019l-0.024,-0.02l-0.022,-0.017l-0.023,-0.018l-0.023,-0.017l-0.022,-0.016l-0.022,-0.016l-0.023,-0.015l-0.022,-0.015l-0.022,-0.014l-0.022,-0.013l-0.021,-0.013l-0.023,-0.013l-0.022,-0.012l-0.021,-0.012l-0.021,-0.011l-0.02,-0.01l-0.022,-0.01l-0.02,-0.009l-0.02,-0.009l-0.021,-0.009l-0.02,-0.008l-0.02,-0.008l-0.02,-0.007l-0.02,-0.007l-0.018,-0.006l-0.02,-0.006l-0.02,-0.005l-0.018,-0.005l-0.019,-0.005l-0.018,-0.004l-0.02,-0.004l-0.019,-0.004l-0.017,-0.003l-0.021,-0.003l-0.017,-0.003l-0.018,-0.002l-0.02,-0.002l-0.019,-0.001l-0.017,-0.001l-0.019,-0.001l-0.02,-0.001l-0.019,0l-0.019,0l-0.019,0.001l-0.02,0.001l-0.02,0.001l-0.02,0.002l-0.02,0.002l-0.021,0.002l-0.022,0.003l-0.021,0.004l-0.022,0.004l-0.022,0.004l-0.023,0.005l-0.023,0.005l-0.023,0.006l-0.025,0.007l-0.026,0.008l-0.024,0.007l-0.025,0.009l-0.027,0.009l-0.027,0.01l-0.028,0.011l-0.028,0.011l-0.028,0.013l-0.029,0.013l-0.031,0.014l-0.031,0.015l-0.031,0.016l-0.032,0.017l-0.031,0.017l-0.035,0.02l-0.048,0.029l-0.058,0.033l-0.06,0.031l-0.06,0.029l-0.061,0.027l-0.062,0.025l-0.063,0.023l-0.063,0.021l-0.064,0.019l-0.065,0.016l-0.065,0.014l-0.066,0.013l-0.066,0.01l-0.067,0.007l-0.066,0.006l-0.067,0.003l-0.067,0.001l-0.067,-0.001l-0.066,-0.003l-0.067,-0.006l-0.066,-0.008l-0.066,-0.01l-0.066,-0.012l-0.065,-0.015l-0.065,-0.016l-0.064,-0.019l-0.064,-0.021l-0.062,-0.023l-0.062,-0.025l-0.061,-0.027l-0.061,-0.029l-0.059,-0.032l-0.058,-0.033l-0.057,-0.035l-0.055,-0.037l-0.055,-0.038l-0.053,-0.041l-0.052,-0.042l-0.05,-0.044l-0.049,-0.046l-0.047,-0.047l-0.046,-0.049l-0.044,-0.051l-0.042,-0.051l-0.04,-0.054l-0.039,-0.054l-0.037,-0.056l-0.035,-0.057l-0.033,-0.058l-0.031,-0.059l-0.029,-0.06l-0.027,-0.061l-0.025,-0.062l-0.023,-0.063l-0.021,-0.064l-0.019,-0.064l-0.016,-0.065l-0.015,-0.065l-0.012,-0.066l-0.01,-0.066l-0.007,-0.066l-0.006,-0.067l-0.003,-0.066l-0.001,-0.067l0.001,-0.067l0.003,-0.067l0.006,-0.066l0.008,-0.067l0.01,-0.066l0.012,-0.066l0.015,-0.065l0.016,-0.065l0.019,-0.064l0.021,-0.063l0.023,-0.063l0.025,-0.062l0.027,-0.061l0.029,-0.06l0.031,-0.059l0.034,-0.058l0.035,-0.057l0.037,-0.056l0.038,-0.054l0.041,-0.053l0.042,-0.052l0.044,-0.05l0.046,-0.049l0.047,-0.047l0.049,-0.046l0.051,-0.044l0.051,-0.042l0.053,-0.041l0.055,-0.038l0.056,-0.037l0.057,-0.035l0.072,-0.043l0.086,-0.049l0.089,-0.049l0.088,-0.047l0.089,-0.046l0.089,-0.043l0.089,-0.042l0.091,-0.041l0.091,-0.039l0.09,-0.037l0.091,-0.035l0.092,-0.035l0.092,-0.032l0.092,-0.031l0.094,-0.029l0.092,-0.027l0.092,-0.025l0.095,-0.024l0.093,-0.022l0.094,-0.02l0.094,-0.019l0.094,-0.017l0.094,-0.015l0.093,-0.013l0.094,-0.011l0.095,-0.01l0.094,-0.008l0.094,-0.006l0.093,-0.005l0.094,-0.002l0.094,-0.001l0.093,0.001Z" style="fill:#91292a;"/><path d="M62.699,86.969l0.12,0.011l0.12,0.017l0.118,0.025l0.116,0.031l0.115,0.039l0.112,0.046l0.109,0.052l0.105,0.059l0.102,0.065l0.098,0.071l0.093,0.076l0.089,0.083l0.083,0.087l0.078,0.092l0.072,0.097l0.066,0.101l0.06,0.105l0.054,0.108l0.047,0.112l0.04,0.114l0.033,0.116l0.026,0.118l0.019,0.119l0.012,0.12l0.004,0.121l-0.003,0.121l-0.009,0.173l-0.009,0.168l-0.007,0.167l-0.007,0.169l-0.006,0.167l-0.005,0.168l-0.004,0.168l-0.004,0.169l-0.003,0.168l-0.002,0.168l-0.001,0.169l-0.001,0.169l0,0.168l0.001,0.167l0.004,0.34l0.007,0.339l0.009,0.339l0.012,0.339l0.015,0.339l0.017,0.34l0.02,0.34l0.022,0.341l0.025,0.349l0.011,0.164l0.011,0.17l0.009,0.168l0.008,0.169l0.014,0.326l0.012,0.322l0.012,0.314l0.013,0.309l0.007,0.148l0.008,0.148l0.008,0.145l0.01,0.143l0.01,0.14l0.012,0.138l0.013,0.136l0.015,0.132l0.016,0.13l0.017,0.127l0.019,0.124l0.02,0.121l0.024,0.123l0.01,0.053l0.013,0.057l0.012,0.056l0.013,0.056l0.014,0.055l0.014,0.054l0.014,0.053l0.015,0.052l0.016,0.052l0.015,0.05l0.017,0.051l0.016,0.049l0.018,0.049l0.018,0.049l0.023,0.059l0.024,0.061l0.024,0.06l0.024,0.055l0.025,0.057l0.025,0.056l0.026,0.054l0.025,0.053l0.026,0.051l0.026,0.05l0.026,0.049l0.027,0.048l0.027,0.049l0.026,0.045l0.028,0.045l0.027,0.043l0.027,0.044l0.029,0.043l0.027,0.04l0.028,0.039l0.028,0.039l0.029,0.04l0.029,0.037l0.028,0.036l0.029,0.035l0.03,0.036l0.029,0.034l0.03,0.033l0.029,0.033l0.03,0.032l0.03,0.031l0.03,0.03l0.031,0.03l0.031,0.03l0.031,0.028l0.032,0.028l0.032,0.028l0.031,0.027l0.032,0.026l0.034,0.027l0.032,0.025l0.032,0.024l0.034,0.025l0.035,0.024l0.033,0.023l0.036,0.023l0.034,0.022l0.036,0.023l0.036,0.022l0.035,0.02l0.036,0.021l0.038,0.02l0.037,0.02l0.039,0.02l0.039,0.02l0.038,0.018l0.039,0.018l0.04,0.019l0.042,0.018l0.04,0.017l0.04,0.016l0.043,0.017l0.043,0.016l0.045,0.016l0.042,0.015l0.044,0.015l0.046,0.015l0.045,0.014l0.046,0.013l0.047,0.014l0.048,0.013l0.046,0.012l0.049,0.013l0.049,0.011l0.049,0.012l0.046,0.01l0.107,0.021l0.104,0.019l0.107,0.017l0.108,0.016l0.111,0.013l0.113,0.012l0.117,0.01l0.117,0.009l0.119,0.006l0.122,0.005l0.123,0.003l0.127,0.001l0.126,0l0.129,-0.002l0.131,-0.004l0.133,-0.006l0.134,-0.008l0.136,-0.009l0.138,-0.011l0.138,-0.013l0.14,-0.014l0.141,-0.016l0.143,-0.018l0.144,-0.019l0.145,-0.02l0.147,-0.023l0.146,-0.023l0.148,-0.025l0.15,-0.027l0.15,-0.028l0.15,-0.029l0.153,-0.03l0.152,-0.032l0.152,-0.033l0.154,-0.034l0.155,-0.036l0.155,-0.036l0.154,-0.038l0.156,-0.038l0.157,-0.04l0.156,-0.04l0.156,-0.042l0.158,-0.042l0.155,-0.043l0.317,-0.089l0.315,-0.091l0.314,-0.093l0.315,-0.096l0.314,-0.098l0.312,-0.098l0.312,-0.1l0.31,-0.101l0.307,-0.1l0.611,-0.201l0.598,-0.198l0.295,-0.097l0.291,-0.095l0.289,-0.094l0.285,-0.09l0.281,-0.088l0.277,-0.085l0.274,-0.081l0.267,-0.077l0.136,-0.037l0.133,-0.036l0.131,-0.035l0.124,-0.032l0.118,-0.026l0.119,-0.02l0.12,-0.012l0.121,-0.005l0.121,0.003l0.12,0.01l0.12,0.017l0.118,0.024l0.117,0.031l0.114,0.038l0.112,0.045l0.11,0.052l0.105,0.059l0.103,0.064l0.098,0.071l0.093,0.076l0.089,0.082l0.084,0.087l0.078,0.092l0.072,0.097l0.067,0.101l0.06,0.104l0.054,0.109l0.048,0.111l0.04,0.113l0.034,0.117l0.026,0.117l0.02,0.12l0.012,0.12l0.005,0.121l-0.003,0.12l-0.01,0.121l-0.017,0.119l-0.024,0.119l-0.031,0.116l-0.038,0.115l-0.046,0.112l-0.051,0.109l-0.059,0.106l-0.064,0.102l-0.071,0.098l-0.076,0.094l-0.082,0.088l-0.087,0.084l-0.092,0.078l-0.097,0.073l-0.101,0.067l-0.105,0.06l-0.108,0.054l-0.111,0.047l-0.114,0.041l-0.116,0.033l-0.11,0.029l-0.106,0.028l-0.109,0.029l-0.109,0.03l-0.233,0.067l-0.24,0.071l-0.25,0.077l-0.258,0.081l-0.267,0.084l-0.273,0.089l-0.282,0.092l-0.288,0.095l-0.597,0.197l-0.616,0.203l-0.318,0.104l-0.321,0.104l-0.326,0.105l-0.331,0.104l-0.333,0.103l-0.337,0.103l-0.341,0.101l-0.344,0.1l-0.344,0.097l-0.177,0.048l-0.174,0.047l-0.175,0.046l-0.177,0.046l-0.176,0.045l-0.177,0.043l-0.178,0.044l-0.178,0.042l-0.178,0.04l-0.178,0.04l-0.18,0.039l-0.18,0.037l-0.179,0.036l-0.181,0.035l-0.18,0.034l-0.18,0.032l-0.181,0.031l-0.182,0.029l-0.181,0.027l-0.182,0.026l-0.181,0.024l-0.182,0.023l-0.183,0.02l-0.182,0.019l-0.183,0.016l-0.182,0.015l-0.183,0.012l-0.183,0.011l-0.182,0.008l-0.183,0.005l-0.183,0.004l-0.184,0.001l-0.182,-0.002l-0.183,-0.005l-0.183,-0.007l-0.183,-0.01l-0.183,-0.013l-0.182,-0.016l-0.182,-0.019l-0.183,-0.023l-0.183,-0.026l-0.182,-0.029l-0.181,-0.033l-0.176,-0.036l-0.096,-0.02l-0.09,-0.021l-0.09,-0.022l-0.09,-0.022l-0.092,-0.024l-0.089,-0.025l-0.089,-0.025l-0.09,-0.027l-0.09,-0.028l-0.089,-0.029l-0.088,-0.03l-0.091,-0.032l-0.087,-0.031l-0.088,-0.033l-0.088,-0.035l-0.089,-0.036l-0.088,-0.037l-0.086,-0.038l-0.087,-0.039l-0.086,-0.04l-0.088,-0.042l-0.085,-0.043l-0.085,-0.044l-0.085,-0.045l-0.084,-0.046l-0.084,-0.048l-0.086,-0.05l-0.082,-0.05l-0.082,-0.051l-0.083,-0.054l-0.081,-0.053l-0.081,-0.056l-0.08,-0.057l-0.079,-0.057l-0.08,-0.06l-0.079,-0.061l-0.076,-0.061l-0.078,-0.063l-0.076,-0.065l-0.075,-0.065l-0.075,-0.067l-0.074,-0.068l-0.073,-0.069l-0.072,-0.07l-0.071,-0.072l-0.071,-0.073l-0.07,-0.074l-0.068,-0.076l-0.069,-0.077l-0.066,-0.077l-0.066,-0.078l-0.065,-0.081l-0.065,-0.082l-0.062,-0.082l-0.062,-0.082l-0.061,-0.085l-0.06,-0.086l-0.06,-0.088l-0.057,-0.087l-0.057,-0.088l-0.056,-0.091l-0.055,-0.09l-0.054,-0.093l-0.053,-0.092l-0.051,-0.094l-0.051,-0.096l-0.05,-0.096l-0.049,-0.097l-0.047,-0.098l-0.047,-0.099l-0.045,-0.1l-0.044,-0.1l-0.045,-0.104l-0.042,-0.103l-0.041,-0.103l-0.041,-0.107l-0.036,-0.097l-0.035,-0.099l-0.034,-0.1l-0.031,-0.098l-0.031,-0.099l-0.03,-0.099l-0.028,-0.098l-0.026,-0.098l-0.026,-0.098l-0.024,-0.097l-0.023,-0.098l-0.022,-0.097l-0.02,-0.096l-0.021,-0.102l-0.035,-0.186l-0.032,-0.19l-0.029,-0.188l-0.026,-0.187l-0.022,-0.184l-0.02,-0.184l-0.017,-0.181l-0.016,-0.179l-0.013,-0.178l-0.012,-0.175l-0.01,-0.174l-0.009,-0.171l-0.008,-0.17l-0.014,-0.328l-0.012,-0.322l-0.012,-0.311l-0.012,-0.304l-0.008,-0.144l-0.007,-0.143l-0.009,-0.14l-0.01,-0.145l-0.026,-0.359l-0.024,-0.368l-0.021,-0.369l-0.019,-0.369l-0.016,-0.369l-0.013,-0.37l-0.01,-0.371l-0.007,-0.371l-0.005,-0.369l-0.001,-0.188l0,-0.186l0.001,-0.186l0.001,-0.186l0.003,-0.187l0.003,-0.186l0.004,-0.186l0.005,-0.187l0.005,-0.187l0.007,-0.187l0.008,-0.186l0.008,-0.187l0.009,-0.188l0.01,-0.181l0.01,-0.12l0.018,-0.12l0.024,-0.118l0.032,-0.117l0.039,-0.114l0.045,-0.112l0.053,-0.109l0.058,-0.106l0.065,-0.101l0.071,-0.098l0.077,-0.093l0.082,-0.089l0.088,-0.083l0.092,-0.078l0.097,-0.072l0.101,-0.067l0.105,-0.06l0.108,-0.053l0.111,-0.047l0.114,-0.04l0.117,-0.033l0.118,-0.026l0.119,-0.019l0.12,-0.012l0.121,-0.004l0.121,0.002Z" style="fill:#91292a;"/><path d="M85.928,96.967l0.118,0.009l0.118,0.015l0.116,0.022l0.115,0.029l0.113,0.035l0.111,0.043l0.108,0.049l0.105,0.055l0.101,0.061l0.098,0.067l0.094,0.073l0.089,0.078l0.084,0.084l0.079,0.088l0.074,0.093l0.068,0.097l0.062,0.101l0.056,0.104l0.273,0.545l0.274,0.544l0.55,1.094l0.553,1.097l0.276,0.552l0.277,0.553l0.276,0.555l0.275,0.556l0.274,0.558l0.273,0.559l0.272,0.562l0.27,0.563l0.267,0.564l0.134,0.285l0.132,0.283l0.132,0.285l0.131,0.284l0.13,0.286l0.13,0.286l0.129,0.286l0.128,0.287l0.127,0.287l0.127,0.288l0.125,0.289l0.125,0.289l0.123,0.289l0.123,0.29l0.121,0.291l0.121,0.291l0.119,0.293l0.118,0.292l0.117,0.293l0.116,0.294l0.114,0.294l0.113,0.295l0.112,0.297l0.111,0.296l0.109,0.297l0.107,0.297l0.106,0.298l0.105,0.3l0.103,0.299l0.102,0.301l0.1,0.301l0.098,0.301l0.096,0.303l0.093,0.297l0.033,0.114l0.025,0.116l0.018,0.117l0.011,0.118l0.005,0.119l-0.003,0.118l-0.01,0.118l-0.016,0.118l-0.024,0.116l-0.03,0.114l-0.037,0.113l-0.044,0.11l-0.05,0.107l-0.057,0.105l-0.063,0.1l-0.068,0.097l-0.074,0.093l-0.079,0.088l-0.085,0.083l-0.089,0.078l-0.094,0.072l-0.098,0.067l-0.101,0.061l-0.105,0.055l-0.108,0.049l-0.111,0.042l-0.113,0.035l-0.115,0.029l-0.117,0.022l-0.118,0.014l-0.118,0.008l-0.118,0.001l-0.119,-0.006l-0.117,-0.013l-0.117,-0.02l-0.116,-0.027l-0.113,-0.034l-0.112,-0.041l-0.109,-0.047l-0.105,-0.053l-0.103,-0.06l-0.099,-0.065l-0.094,-0.071l-0.091,-0.077l-0.085,-0.082l-0.081,-0.087l-0.075,-0.092l-0.07,-0.095l-0.064,-0.1l-0.058,-0.104l-0.052,-0.106l-0.045,-0.11l-0.039,-0.112l-0.09,-0.287l-0.089,-0.28l-0.091,-0.28l-0.093,-0.28l-0.095,-0.28l-0.096,-0.279l-0.098,-0.279l-0.099,-0.279l-0.101,-0.279l-0.102,-0.279l-0.104,-0.278l-0.105,-0.278l-0.106,-0.278l-0.108,-0.277l-0.11,-0.278l-0.11,-0.277l-0.112,-0.277l-0.113,-0.277l-0.115,-0.277l-0.115,-0.277l-0.117,-0.276l-0.118,-0.276l-0.119,-0.277l-0.12,-0.276l-0.121,-0.275l-0.122,-0.276l-0.123,-0.276l-0.124,-0.275l-0.125,-0.275l-0.126,-0.276l-0.126,-0.274l-0.128,-0.276l-0.128,-0.274l-0.128,-0.274l-0.261,-0.55l-0.263,-0.549l-0.265,-0.548l-0.268,-0.548l-0.269,-0.548l-0.271,-0.548l-0.273,-0.547l-0.274,-0.548l-0.274,-0.547l-0.551,-1.095l-0.551,-1.095l-0.275,-0.548l-0.274,-0.546l-0.05,-0.108l-0.043,-0.11l-0.037,-0.113l-0.03,-0.114l-0.023,-0.117l-0.017,-0.117l-0.009,-0.118l-0.003,-0.119l0.005,-0.118l0.012,-0.118l0.018,-0.117l0.026,-0.116l0.032,-0.114l0.039,-0.112l0.046,-0.109l0.052,-0.107l0.058,-0.103l0.065,-0.1l0.07,-0.095l0.075,-0.092l0.081,-0.086l0.086,-0.082l0.09,-0.076l0.095,-0.071l0.099,-0.066l0.103,-0.059l0.106,-0.053l0.109,-0.047l0.111,-0.04l0.114,-0.034l0.115,-0.026l0.117,-0.02l0.118,-0.013l0.119,-0.006l0.118,0.001Z" style="fill:#91292a;"/><path d="M64.256,108.709l0.133,0.014l0.132,0.023l0.13,0.032l0.127,0.04l0.125,0.049l0.121,0.057l0.116,0.065l0.113,0.072l0.107,0.08l0.101,0.087l0.096,0.093l0.089,0.1l0.082,0.105l0.075,0.111l0.068,0.115l0.06,0.12l0.051,0.123l0.043,0.127l0.035,0.129l0.026,0.131l0.017,0.133l0.008,0.133l-0.001,0.134l-0.009,0.133l-0.019,0.132l-0.027,0.131l-0.036,0.129l-0.045,0.126l-0.137,0.35l-0.134,0.347l-0.132,0.348l-0.132,0.348l-0.129,0.349l-0.129,0.349l-0.127,0.35l-0.126,0.351l-0.125,0.352l-0.124,0.352l-0.123,0.352l-0.122,0.353l-0.12,0.354l-0.12,0.355l-0.119,0.354l-0.118,0.356l-0.118,0.355l-0.116,0.357l-0.116,0.357l-0.115,0.356l-0.229,0.717l-0.226,0.718l-0.225,0.719l-0.223,0.721l-0.222,0.722l-0.222,0.724l-0.443,1.451l-0.444,1.453l-0.224,0.729l-0.225,0.728l-0.228,0.73l-0.23,0.729l-0.232,0.729l-0.118,0.367l-0.118,0.365l-0.119,0.364l-0.12,0.365l-0.122,0.366l-0.122,0.365l-0.123,0.365l-0.124,0.365l-0.126,0.364l-0.126,0.365l-0.128,0.365l-0.13,0.364l-0.13,0.364l-0.131,0.361l-0.049,0.124l-0.058,0.12l-0.066,0.117l-0.074,0.111l-0.08,0.107l-0.088,0.101l-0.094,0.095l-0.1,0.088l-0.106,0.081l-0.112,0.075l-0.116,0.066l-0.12,0.059l-0.123,0.05l-0.127,0.043l-0.13,0.033l-0.131,0.025l-0.133,0.016l-0.133,0.007l-0.134,-0.002l-0.133,-0.01l-0.132,-0.02l-0.131,-0.028l-0.128,-0.037l-0.126,-0.046l-0.122,-0.054l-0.119,-0.062l-0.114,-0.069l-0.109,-0.077l-0.104,-0.085l-0.098,-0.091l-0.091,-0.097l-0.085,-0.103l-0.078,-0.109l-0.07,-0.113l-0.063,-0.118l-0.055,-0.122l-0.046,-0.126l-0.038,-0.128l-0.029,-0.13l-0.021,-0.132l-0.011,-0.134l-0.003,-0.133l0.006,-0.134l0.015,-0.133l0.024,-0.131l0.033,-0.13l0.042,-0.127l0.128,-0.354l0.126,-0.351l0.125,-0.352l0.123,-0.352l0.123,-0.353l0.121,-0.354l0.121,-0.354l0.12,-0.354l0.119,-0.356l0.117,-0.355l0.117,-0.356l0.117,-0.357l0.116,-0.357l0.114,-0.356l0.229,-0.718l0.226,-0.718l0.225,-0.719l0.223,-0.721l0.222,-0.723l0.443,-1.449l0.443,-1.452l0.223,-0.728l0.224,-0.728l0.226,-0.729l0.227,-0.729l0.231,-0.73l0.232,-0.729l0.118,-0.365l0.118,-0.365l0.12,-0.365l0.12,-0.365l0.121,-0.365l0.123,-0.365l0.123,-0.365l0.125,-0.364l0.125,-0.365l0.127,-0.365l0.129,-0.364l0.129,-0.364l0.131,-0.365l0.132,-0.363l0.134,-0.364l0.136,-0.364l0.136,-0.363l0.139,-0.363l0.14,-0.363l0.14,-0.359l0.053,-0.123l0.061,-0.119l0.069,-0.114l0.076,-0.11l0.084,-0.104l0.09,-0.099l0.096,-0.093l0.103,-0.085l0.108,-0.079l0.113,-0.071l0.118,-0.064l0.121,-0.055l0.125,-0.048l0.128,-0.039l0.13,-0.03l0.132,-0.022l0.133,-0.012l0.134,-0.004l0.133,0.005Z" style="fill:#91292a;"/></g><path d="M55.388,20.333c0,0 7.869,0.39 11.922,1.241c2.564,0.539 5.956,2.013 8.568,1.745c2.052,-0.211 3.089,-2.501 3,-4.35c-0.139,-2.852 -1.703,-6.217 -3.492,-8.403c-0.328,-0.401 -1.501,-1.989 -2.058,-1.952c-2.603,0.175 -3.594,3.002 -4.886,4.693c-1.061,1.39 -2.602,2.217 -4.251,2.714c-2.472,0.744 -5.412,-0.107 -7.614,1.529c-0.967,0.718 -3.09,2.353 -1.189,2.783Z" style="fill:#91292a;"/><path d="M36.288,160.048l-2.391,-113.905c-0.097,-4.963 -2.373,-7 -5.435,-7.39l-31.302,-4.13l2.609,114.774l36.519,10.651Z" style="fill:#91292a;"/><path d="M24.137,34.143c3.071,0.741 6.279,1.173 9.758,0.997c4.337,-0.272 8.148,-1.083 10.542,-3.348c2.151,-2.223 3.739,-4.529 3.847,-7.052c0.032,-1.395 -0.239,-2.621 -1.282,-3.419c-1.767,-1.437 -2.988,-1.371 -3.918,-0.498c-7.489,6.999 -13.548,10.88 -18.947,13.32Z" style="fill:#d95b4c;"/><g><path d="M53.429,134.049l0.048,0.002l0.049,0.003l0.048,0.004l0.048,0.006l0.048,0.006l0.047,0.008l0.048,0.008l0.047,0.01l0.047,0.012l0.047,0.012l0.047,0.013l0.046,0.015l0.045,0.015l0.046,0.017l0.045,0.018l0.044,0.018l0.044,0.02l0.044,0.021l0.043,0.022l0.042,0.023l0.042,0.025l0.041,0.025l0.041,0.026l0.04,0.027l0.04,0.028l0.038,0.029l0.038,0.03l0.038,0.03l0.036,0.032l0.036,0.033l0.035,0.033l0.034,0.034l0.033,0.035l0.032,0.036l0.032,0.037l0.031,0.037l0.029,0.038l0.029,0.039l0.028,0.04l0.027,0.04l0.026,0.041l0.025,0.041l0.024,0.042l0.023,0.043l0.021,0.043l0.021,0.043l0.02,0.044l0.019,0.045l0.017,0.045l0.017,0.045l0.015,0.046l0.014,0.046l0.014,0.047l0.012,0.047l0.011,0.047l0.009,0.047l0.009,0.048l0.007,0.047l0.007,0.048l0.005,0.048l0.004,0.049l0.003,0.048l0.001,0.048l0.001,0.048l-0.001,0.049l-0.002,0.048l-0.003,0.048l-0.004,0.048l-0.003,0.025l0.007,-0.004l0.043,-0.022l0.044,-0.022l0.044,-0.02l0.044,-0.019l0.045,-0.018l0.045,-0.017l0.046,-0.016l0.046,-0.015l0.046,-0.013l0.047,-0.013l0.047,-0.011l0.047,-0.011l0.047,-0.009l0.048,-0.008l0.048,-0.007l0.048,-0.005l0.048,-0.005l0.048,-0.003l0.049,-0.002l0.048,-0.001l0.048,0l0.049,0.001l0.048,0.003l0.048,0.004l0.048,0.004l0.048,0.006l0.048,0.008l0.047,0.008l0.048,0.009l0.047,0.011l0.047,0.012l0.046,0.012l0.047,0.014l0.046,0.016l0.045,0.016l0.045,0.017l0.045,0.018l0.044,0.02l0.044,0.02l0.043,0.022l0.043,0.023l0.042,0.023l0.042,0.025l0.041,0.026l0.04,0.026l0.04,0.028l0.039,0.028l0.038,0.03l0.038,0.03l0.036,0.031l0.036,0.033l0.036,0.033l0.034,0.034l0.034,0.034l0.033,0.036l0.032,0.036l0.031,0.037l0.03,0.038l0.029,0.038l0.028,0.04l0.027,0.039l0.027,0.041l0.025,0.041l0.025,0.042l0.023,0.042l0.022,0.043l0.021,0.043l0.021,0.044l0.019,0.045l0.018,0.045l0.017,0.045l0.016,0.045l0.015,0.046l0.013,0.047l0.013,0.047l0.011,0.047l0.01,0.047l0.009,0.047l0.008,0.048l0.007,0.048l0.006,0.048l0.004,0.048l0.004,0.048l0.002,0.048l0.001,0.049l0,0.048l-0.002,0.048l-0.002,0.049l-0.004,0.048l-0.005,0.048l-0.006,0.048l-0.007,0.048l-0.008,0.047l-0.009,0.048l-0.011,0.047l-0.012,0.047l-0.013,0.046l-0.014,0.047l-0.015,0.045l-0.016,0.046l-0.017,0.045l-0.019,0.045l-0.019,0.044l-0.021,0.044l-0.021,0.043l-0.023,0.043l-0.023,0.042l-0.025,0.041l-0.026,0.041l-0.026,0.041l-0.028,0.039l-0.029,0.039l-0.029,0.039l-0.03,0.037l-0.032,0.037l-0.032,0.036l-0.033,0.035l-0.034,0.035l-0.034,0.034l-0.036,0.032l-0.036,0.032l-0.037,0.031l-0.038,0.03l-0.049,0.039l-0.067,0.049l-0.068,0.049l-0.067,0.045l-0.069,0.045l-0.07,0.044l-0.07,0.041l-0.073,0.041l-0.073,0.039l-0.071,0.036l-0.075,0.036l-0.076,0.034l-0.073,0.031l-0.076,0.03l-0.077,0.029l-0.077,0.026l-0.079,0.025l-0.076,0.023l-0.077,0.021l-0.082,0.02l-0.078,0.017l-0.075,0.015l-0.08,0.014l-0.08,0.012l-0.078,0.01l-0.081,0.008l-0.077,0.007l-0.077,0.004l-0.08,0.003l-0.088,0.002l-0.145,-0.003l-0.153,-0.009l-0.15,-0.016l-0.149,-0.022l-0.146,-0.028l-0.144,-0.033l-0.141,-0.039l-0.137,-0.043l-0.135,-0.049l-0.131,-0.053l-0.128,-0.057l-0.125,-0.061l-0.122,-0.065l-0.12,-0.069l-0.115,-0.073l-0.111,-0.075l-0.109,-0.079l-0.107,-0.083l-0.103,-0.085l-0.099,-0.088l-0.096,-0.09l-0.094,-0.094l-0.09,-0.096l-0.087,-0.099l-0.084,-0.102l-0.081,-0.104l-0.078,-0.106l-0.075,-0.11l-0.07,-0.111l-0.068,-0.114l-0.065,-0.116l-0.061,-0.119l-0.058,-0.121l-0.054,-0.123l-0.05,-0.127l-0.047,-0.128l-0.042,-0.131l-0.038,-0.133l-0.034,-0.135l-0.03,-0.136l-0.025,-0.139l-0.02,-0.143l-0.015,-0.142l-0.01,-0.144l-0.005,-0.148l0.001,-0.148l0.007,-0.147l0.012,-0.15l0.014,-0.113l0.006,-0.047l0.008,-0.048l0.009,-0.048l0.01,-0.047l0.011,-0.047l0.012,-0.047l0.013,-0.046l0.015,-0.046l0.015,-0.046l0.017,-0.045l0.018,-0.045l0.019,-0.045l0.02,-0.044l0.021,-0.044l0.022,-0.043l0.023,-0.042l0.024,-0.042l0.025,-0.041l0.026,-0.041l0.027,-0.04l0.028,-0.039l0.029,-0.039l0.03,-0.038l0.031,-0.037l0.031,-0.037l0.033,-0.036l0.033,-0.034l0.035,-0.035l0.035,-0.033l0.036,-0.032l0.036,-0.032l0.038,-0.03l0.038,-0.03l0.038,-0.029l0.04,-0.028l0.04,-0.027l0.041,-0.026l0.041,-0.025l0.042,-0.023l0.043,-0.023l0.043,-0.022l0.044,-0.021l0.044,-0.02l0.044,-0.018l0.045,-0.018l0.046,-0.016l0.046,-0.016l0.046,-0.014l0.046,-0.013l0.047,-0.012l0.047,-0.011l0.047,-0.01l0.048,-0.009l0.048,-0.007l0.048,-0.006l0.048,-0.006l0.048,-0.004l0.048,-0.002l0.048,-0.002l0.049,-0.001l0.048,0.001Z" style="fill:#d95b4c;"/><path d="M65.422,107.733l0.037,0.001l0.038,0.002l0.037,0.002l0.037,0.003l0.037,0.003l0.038,0.005l0.037,0.005l0.037,0.005l0.037,0.007l0.036,0.007l0.037,0.007l0.036,0.009l0.037,0.009l0.036,0.01l0.036,0.01l0.035,0.011l0.036,0.012l0.035,0.012l0.035,0.013l0.035,0.014l0.034,0.015l0.035,0.015l0.034,0.015l0.033,0.017l0.034,0.016l0.033,0.018l0.032,0.018l0.033,0.019l0.032,0.019l0.031,0.02l0.032,0.021l0.03,0.021l0.031,0.022l0.03,0.022l0.03,0.023l0.029,0.023l0.028,0.024l0.029,0.025l0.028,0.025l0.027,0.025l0.027,0.026l0.026,0.027l0.026,0.027l0.025,0.027l0.025,0.028l0.025,0.028l0.023,0.029l0.024,0.03l0.022,0.029l0.023,0.03l0.021,0.031l0.021,0.031l0.021,0.031l0.019,0.032l0.02,0.032l0.018,0.032l0.018,0.033l0.018,0.033l0.016,0.034l0.017,0.033l0.015,0.034l0.015,0.035l0.014,0.034l0.014,0.035l0.013,0.035l0.012,0.036l0.012,0.035l0.011,0.036l0.01,0.036l0.009,0.036l0.009,0.036l0.009,0.037l0.007,0.037l0.007,0.036l0.006,0.037l0.006,0.037l0.005,0.037l0.004,0.037l0.003,0.038l0.003,0.037l0.002,0.037l0.001,0.038l0.001,0.037l0,0.037l-0.001,0.038l-0.002,0.037l-0.002,0.038l-0.003,0.037l-0.003,0.037l-0.005,0.037l-0.004,0.037l-0.006,0.037l-0.006,0.037l-0.008,0.037l-0.007,0.036l-0.009,0.037l-0.009,0.036l-0.009,0.036l-0.011,0.036l-0.011,0.036l-0.012,0.035l-0.012,0.036l-0.013,0.035l-0.014,0.035l-0.014,0.034l-0.015,0.034l-0.016,0.034l-0.016,0.034l-0.017,0.033l-0.018,0.033l-0.018,0.033l-0.019,0.032l-0.019,0.032l-0.02,0.032l-0.021,0.031l-0.021,0.031l-0.022,0.03l-0.022,0.031l-0.023,0.029l-0.017,0.022l-0.002,0.002l-0.004,0.006l-0.005,0.008l-0.006,0.01l-0.008,0.013l-0.01,0.017l-0.01,0.02l-0.011,0.021l-0.014,0.027l-0.013,0.028l-0.013,0.029l-0.015,0.033l-0.013,0.032l-0.034,0.083l-0.034,0.087l-0.036,0.096l-0.037,0.102l-0.04,0.112l-0.085,0.238l-0.049,0.131l-0.046,0.12l-0.013,0.035l-0.015,0.035l-0.015,0.034l-0.016,0.034l-0.016,0.033l-0.017,0.034l-0.017,0.033l-0.019,0.032l-0.018,0.033l-0.02,0.032l-0.02,0.031l-0.02,0.032l-0.021,0.03l-0.022,0.031l-0.022,0.03l-0.023,0.03l-0.024,0.029l-0.024,0.029l-0.024,0.028l-0.025,0.028l-0.025,0.027l-0.026,0.027l-0.027,0.026l-0.027,0.026l-0.027,0.025l-0.028,0.025l-0.029,0.025l-0.029,0.023l-0.029,0.024l-0.03,0.022l-0.03,0.023l-0.03,0.021l-0.031,0.021l-0.032,0.021l-0.031,0.019l-0.032,0.02l-0.033,0.018l-0.033,0.018l-0.033,0.018l-0.033,0.016l-0.034,0.017l-0.034,0.015l-0.034,0.015l-0.035,0.014l-0.035,0.014l-0.035,0.013l-0.035,0.012l-0.036,0.012l-0.035,0.01l-0.036,0.011l-0.037,0.009l-0.036,0.009l-0.036,0.008l-0.037,0.008l-0.037,0.007l-0.037,0.006l-0.037,0.006l-0.037,0.004l-0.037,0.004l-0.037,0.004l-0.037,0.003l-0.038,0.002l-0.037,0.001l-0.038,0l-0.037,0l-0.037,0l-0.038,-0.002l-0.037,-0.002l-0.037,-0.003l-0.038,-0.004l-0.037,-0.004l-0.037,-0.005l-0.037,-0.005l-0.037,-0.007l-0.036,-0.007l-0.037,-0.008l-0.036,-0.008l-0.037,-0.009l-0.036,-0.01l-0.036,-0.01l-0.035,-0.011l-0.036,-0.012l-0.035,-0.013l-0.035,-0.013l-0.035,-0.013l-0.035,-0.015l-0.034,-0.015l-0.034,-0.016l-0.033,-0.016l-0.034,-0.017l-0.033,-0.017l-0.032,-0.019l-0.033,-0.018l-0.032,-0.02l-0.031,-0.02l-0.032,-0.02l-0.03,-0.021l-0.031,-0.022l-0.03,-0.022l-0.03,-0.023l-0.029,-0.024l-0.028,-0.024l-0.029,-0.024l-0.028,-0.025l-0.027,-0.026l-0.027,-0.026l-0.026,-0.026l-0.026,-0.027l-0.025,-0.028l-0.025,-0.027l-0.025,-0.029l-0.023,-0.029l-0.024,-0.029l-0.022,-0.03l-0.023,-0.03l-0.021,-0.03l-0.021,-0.031l-0.02,-0.032l-0.02,-0.031l-0.02,-0.033l-0.018,-0.032l-0.018,-0.033l-0.018,-0.033l-0.016,-0.033l-0.016,-0.034l-0.016,-0.034l-0.015,-0.034l-0.014,-0.035l-0.014,-0.035l-0.013,-0.035l-0.012,-0.035l-0.011,-0.036l-0.011,-0.036l-0.011,-0.035l-0.009,-0.037l-0.009,-0.036l-0.008,-0.036l-0.008,-0.037l-0.007,-0.037l-0.006,-0.037l-0.005,-0.037l-0.005,-0.037l-0.004,-0.037l-0.004,-0.037l-0.002,-0.038l-0.002,-0.037l-0.002,-0.037l0,-0.038l0,-0.037l0,-0.037l0.002,-0.038l0.002,-0.037l0.003,-0.037l0.004,-0.038l0.004,-0.037l0.005,-0.037l0.006,-0.037l0.006,-0.037l0.007,-0.036l0.008,-0.037l0.008,-0.036l0.009,-0.037l0.01,-0.036l0.01,-0.036l0.011,-0.035l0.012,-0.036l0.013,-0.035l0.013,-0.035l0.036,-0.095l0.033,-0.089l0.077,-0.216l0.043,-0.119l0.047,-0.13l0.051,-0.137l0.056,-0.145l0.06,-0.146l0.035,-0.082l0.035,-0.08l0.039,-0.083l0.039,-0.083l0.041,-0.083l0.044,-0.086l0.048,-0.087l0.049,-0.088l0.054,-0.089l0.057,-0.091l0.06,-0.091l0.063,-0.091l0.068,-0.093l0.055,-0.069l0.024,-0.03l0.024,-0.028l0.024,-0.029l0.025,-0.027l0.025,-0.028l0.026,-0.027l0.027,-0.026l0.027,-0.026l0.027,-0.025l0.028,-0.025l0.029,-0.025l0.029,-0.023l0.029,-0.024l0.03,-0.022l0.03,-0.022l0.03,-0.022l0.031,-0.021l0.032,-0.02l0.031,-0.02l0.032,-0.02l0.033,-0.018l0.033,-0.018l0.033,-0.018l0.033,-0.016l0.034,-0.016l0.034,-0.016l0.034,-0.015l0.035,-0.014l0.035,-0.014l0.035,-0.013l0.035,-0.012l0.036,-0.012l0.035,-0.01l0.036,-0.011l0.036,-0.009l0.037,-0.009l0.036,-0.009l0.037,-0.007l0.037,-0.007l0.037,-0.006l0.037,-0.006l0.037,-0.004l0.037,-0.005l0.037,-0.003l0.037,-0.003l0.038,-0.002l0.037,-0.001l0.037,-0.001l0.038,0Z" style="fill:#d95b4c;"/><path d="M93.168,117.385l0.048,0.001l0.049,0.003l0.049,0.004l0.048,0.005l0.048,0.007l0.048,0.007l0.048,0.009l0.048,0.01l0.048,0.011l0.047,0.012l0.047,0.014l0.046,0.014l0.046,0.016l0.046,0.016l0.045,0.018l0.045,0.019l0.044,0.02l0.044,0.021l0.044,0.022l0.043,0.024l0.042,0.024l0.041,0.025l0.041,0.026l0.041,0.028l0.04,0.028l0.039,0.029l0.038,0.03l0.037,0.031l0.037,0.032l0.036,0.033l0.035,0.034l0.034,0.034l0.034,0.036l0.033,0.036l0.031,0.037l0.031,0.038l0.03,0.038l0.029,0.039l0.028,0.04l0.027,0.041l0.026,0.041l0.025,0.042l0.024,0.042l0.023,0.043l0.021,0.044l0.021,0.044l0.02,0.044l0.019,0.045l0.017,0.046l0.016,0.046l0.016,0.046l0.014,0.046l0.013,0.047l0.012,0.048l0.01,0.047l0.01,0.048l0.008,0.048l0.031,0.189l0.03,0.182l0.031,0.176l0.032,0.172l0.032,0.169l0.034,0.164l0.035,0.16l0.038,0.161l0.017,0.074l0.02,0.075l0.02,0.077l0.02,0.074l0.021,0.074l0.022,0.074l0.022,0.073l0.023,0.073l0.023,0.07l0.024,0.07l0.025,0.072l0.026,0.071l0.026,0.07l0.026,0.069l0.028,0.069l0.034,0.081l0.018,0.045l0.018,0.046l0.016,0.046l0.014,0.046l0.014,0.047l0.013,0.047l0.011,0.047l0.01,0.048l0.009,0.048l0.008,0.048l0.007,0.048l0.006,0.049l0.004,0.048l0.003,0.049l0.002,0.048l0.001,0.049l0,0.049l-0.002,0.048l-0.002,0.049l-0.004,0.049l-0.005,0.048l-0.007,0.048l-0.007,0.049l-0.009,0.047l-0.009,0.048l-0.011,0.048l-0.012,0.047l-0.014,0.047l-0.014,0.046l-0.016,0.046l-0.016,0.046l-0.018,0.046l-0.019,0.045l-0.02,0.044l-0.021,0.044l-0.022,0.043l-0.023,0.043l-0.024,0.043l-0.025,0.041l-0.026,0.041l-0.027,0.041l-0.029,0.04l-0.029,0.039l-0.03,0.038l-0.031,0.037l-0.031,0.037l-0.033,0.036l-0.034,0.036l-0.034,0.034l-0.036,0.034l-0.036,0.032l-0.037,0.032l-0.037,0.031l-0.039,0.03l-0.039,0.029l-0.04,0.028l-0.04,0.027l-0.041,0.026l-0.042,0.025l-0.042,0.024l-0.043,0.023l-0.044,0.022l-0.044,0.021l-0.044,0.02l-0.045,0.019l-0.046,0.017l-0.045,0.017l-0.047,0.015l-0.046,0.015l-0.047,0.013l-0.047,0.012l-0.048,0.011l-0.047,0.009l-0.048,0.009l-0.049,0.007l-0.048,0.006l-0.048,0.005l-0.049,0.004l-0.049,0.003l-0.048,0.001l-0.049,0l-0.049,-0.001l-0.048,-0.002l-0.049,-0.003l-0.048,-0.005l-0.049,-0.005l-0.048,-0.007l-0.048,-0.008l-0.048,-0.009l-0.047,-0.011l-0.048,-0.011l-0.047,-0.013l-0.047,-0.014l-0.046,-0.014l-0.046,-0.017l-0.045,-0.017l-0.046,-0.018l-0.044,-0.019l-0.044,-0.021l-0.044,-0.021l-0.043,-0.023l-0.043,-0.023l-0.042,-0.025l-0.041,-0.026l-0.041,-0.026l-0.04,-0.028l-0.04,-0.029l-0.038,-0.029l-0.038,-0.031l-0.038,-0.031l-0.036,-0.033l-0.036,-0.033l-0.034,-0.034l-0.034,-0.035l-0.034,-0.035l-0.032,-0.037l-0.031,-0.037l-0.031,-0.038l-0.029,-0.039l-0.029,-0.039l-0.027,-0.041l-0.027,-0.04l-0.025,-0.042l-0.025,-0.042l-0.023,-0.042l-0.023,-0.044l-0.021,-0.043l-0.021,-0.045l-0.019,-0.044l-0.042,-0.102l-0.046,-0.113l-0.045,-0.115l-0.042,-0.113l-0.041,-0.112l-0.039,-0.111l-0.038,-0.113l-0.037,-0.113l-0.035,-0.111l-0.033,-0.11l-0.033,-0.11l-0.031,-0.111l-0.03,-0.11l-0.028,-0.108l-0.028,-0.11l-0.028,-0.112l-0.049,-0.21l-0.047,-0.215l-0.043,-0.211l-0.04,-0.209l-0.039,-0.209l-0.036,-0.206l-0.034,-0.204l-0.032,-0.199l-0.007,-0.049l-0.006,-0.048l-0.005,-0.048l-0.004,-0.049l-0.002,-0.049l-0.002,-0.048l0,-0.049l0.001,-0.049l0.003,-0.048l0.003,-0.049l0.005,-0.048l0.005,-0.049l0.007,-0.048l0.009,-0.048l0.009,-0.048l0.01,-0.047l0.012,-0.048l0.013,-0.047l0.014,-0.046l0.015,-0.047l0.016,-0.046l0.017,-0.045l0.019,-0.045l0.019,-0.045l0.021,-0.044l0.021,-0.044l0.023,-0.043l0.024,-0.042l0.024,-0.042l0.026,-0.042l0.027,-0.04l0.028,-0.04l0.028,-0.04l0.03,-0.038l0.031,-0.038l0.031,-0.037l0.033,-0.037l0.033,-0.035l0.034,-0.035l0.035,-0.034l0.036,-0.033l0.036,-0.032l0.038,-0.031l0.038,-0.031l0.039,-0.029l0.039,-0.028l0.04,-0.028l0.041,-0.026l0.042,-0.026l0.042,-0.024l0.043,-0.024l0.043,-0.022l0.044,-0.022l0.044,-0.02l0.045,-0.019l0.045,-0.018l0.046,-0.017l0.046,-0.016l0.046,-0.015l0.047,-0.013l0.047,-0.013l0.047,-0.011l0.048,-0.01l0.048,-0.009l0.048,-0.008l0.048,-0.006l0.049,-0.006l0.048,-0.004l0.049,-0.003l0.048,-0.002l0.049,-0.001l0.049,0.001Z" style="fill:#d95b4c;"/><path d="M64.448,84.095l0.044,0.001l0.044,0.002l0.044,0.003l0.044,0.004l0.043,0.005l0.044,0.005l0.043,0.007l0.044,0.008l0.043,0.009l0.042,0.009l0.043,0.011l0.043,0.011l0.042,0.013l0.042,0.013l0.041,0.015l0.041,0.015l0.041,0.016l0.041,0.017l0.04,0.018l0.04,0.019l0.039,0.019l0.039,0.021l0.038,0.021l0.038,0.022l0.037,0.023l0.037,0.024l0.037,0.025l0.036,0.025l0.035,0.026l0.035,0.027l0.034,0.028l0.033,0.028l0.033,0.03l0.032,0.03l0.032,0.03l0.031,0.031l0.03,0.032l0.029,0.033l0.029,0.033l0.028,0.034l0.027,0.035l0.026,0.035l0.026,0.035l0.025,0.037l0.024,0.036l0.023,0.038l0.023,0.037l0.022,0.039l0.02,0.038l0.02,0.039l0.019,0.04l0.018,0.04l0.018,0.04l0.016,0.041l0.016,0.041l0.014,0.042l0.014,0.041l0.013,0.043l0.012,0.042l0.01,0.042l0.01,0.043l0.009,0.043l0.009,0.043l0.007,0.044l0.006,0.043l0.005,0.044l0.004,0.044l0.004,0.043l0.002,0.044l0.001,0.044l0.001,0.044l-0.001,0.044l-0.001,0.044l-0.003,0.044l-0.003,0.044l-0.005,0.043l-0.005,0.044l-0.006,0.043l-0.008,0.044l-0.008,0.043l-0.009,0.043l-0.01,0.043l-0.011,0.042l-0.012,0.042l-0.013,0.042l-0.014,0.042l-0.015,0.042l-0.015,0.041l-0.017,0.04l-0.017,0.041l-0.019,0.04l-0.019,0.039l-0.02,0.039l-0.021,0.039l-0.022,0.038l-0.022,0.038l-0.024,0.037l-0.024,0.037l-0.025,0.036l-0.026,0.035l-0.026,0.035l-0.028,0.035l-0.028,0.033l-0.029,0.033l-0.029,0.033l-0.03,0.032l-0.031,0.031l-0.032,0.031l-0.032,0.029l-0.033,0.029l-0.034,0.029l-0.034,0.027l-0.035,0.027l-0.035,0.026l-0.036,0.026l-0.046,0.031l-0.018,0.014l-0.023,0.017l-0.022,0.019l-0.023,0.021l-0.025,0.023l-0.026,0.026l-0.025,0.027l-0.026,0.028l-0.027,0.032l-0.027,0.034l-0.026,0.034l-0.026,0.036l-0.027,0.039l-0.026,0.04l-0.026,0.041l-0.025,0.041l-0.024,0.044l-0.023,0.043l-0.024,0.045l-0.022,0.046l-0.02,0.045l-0.02,0.047l-0.019,0.046l-0.018,0.046l-0.016,0.046l-0.016,0.047l-0.013,0.045l-0.013,0.044l-0.011,0.043l-0.01,0.041l-0.013,0.064l-0.01,0.042l-0.01,0.043l-0.012,0.042l-0.012,0.043l-0.013,0.042l-0.014,0.041l-0.016,0.041l-0.016,0.041l-0.016,0.041l-0.018,0.04l-0.019,0.04l-0.019,0.039l-0.021,0.039l-0.021,0.039l-0.022,0.037l-0.023,0.038l-0.024,0.037l-0.024,0.036l-0.026,0.036l-0.026,0.036l-0.027,0.034l-0.027,0.035l-0.029,0.033l-0.029,0.033l-0.03,0.032l-0.03,0.032l-0.031,0.031l-0.032,0.03l-0.033,0.029l-0.033,0.029l-0.034,0.028l-0.034,0.028l-0.035,0.026l-0.036,0.026l-0.036,0.025l-0.037,0.024l-0.037,0.023l-0.038,0.023l-0.038,0.022l-0.039,0.021l-0.039,0.02l-0.039,0.019l-0.04,0.018l-0.041,0.017l-0.04,0.017l-0.041,0.015l-0.042,0.015l-0.041,0.014l-0.043,0.013l-0.042,0.012l-0.042,0.011l-0.043,0.01l-0.043,0.009l-0.043,0.008l-0.044,0.007l-0.043,0.007l-0.044,0.005l-0.043,0.004l-0.044,0.004l-0.044,0.002l-0.044,0.002l-0.044,0l-0.044,0l-0.044,-0.002l-0.044,-0.002l-0.043,-0.004l-0.044,-0.004l-0.044,-0.005l-0.043,-0.006l-0.044,-0.008l-0.043,-0.008l-0.043,-0.009l-0.043,-0.01l-0.042,-0.011l-0.042,-0.012l-0.042,-0.012l-0.042,-0.014l-0.042,-0.015l-0.041,-0.015l-0.04,-0.017l-0.041,-0.017l-0.04,-0.018l-0.039,-0.02l-0.039,-0.02l-0.039,-0.02l-0.038,-0.022l-0.038,-0.023l-0.037,-0.023l-0.037,-0.024l-0.036,-0.025l-0.036,-0.026l-0.035,-0.026l-0.034,-0.027l-0.034,-0.028l-0.033,-0.029l-0.033,-0.03l-0.032,-0.03l-0.031,-0.031l-0.031,-0.031l-0.03,-0.033l-0.029,-0.032l-0.028,-0.034l-0.028,-0.034l-0.027,-0.035l-0.026,-0.035l-0.025,-0.036l-0.025,-0.036l-0.024,-0.037l-0.023,-0.038l-0.022,-0.038l-0.021,-0.038l-0.02,-0.039l-0.02,-0.039l-0.019,-0.04l-0.018,-0.04l-0.017,-0.041l-0.016,-0.041l-0.015,-0.041l-0.014,-0.042l-0.013,-0.041l-0.013,-0.043l-0.011,-0.042l-0.011,-0.043l-0.009,-0.043l-0.009,-0.043l-0.008,-0.043l-0.006,-0.043l-0.006,-0.044l-0.005,-0.044l-0.004,-0.043l-0.003,-0.044l-0.002,-0.044l-0.001,-0.044l0,-0.044l0.001,-0.044l0.002,-0.044l0.003,-0.044l0.004,-0.043l0.005,-0.044l0.005,-0.044l0.007,-0.043l0.008,-0.043l0.008,-0.043l0.023,-0.11l0.031,-0.131l0.034,-0.131l0.037,-0.13l0.04,-0.128l0.042,-0.126l0.045,-0.128l0.049,-0.127l0.05,-0.125l0.054,-0.125l0.057,-0.125l0.059,-0.122l0.061,-0.121l0.066,-0.123l0.068,-0.12l0.071,-0.119l0.074,-0.118l0.077,-0.117l0.079,-0.115l0.084,-0.115l0.087,-0.113l0.089,-0.111l0.093,-0.109l0.098,-0.11l0.101,-0.106l0.103,-0.104l0.107,-0.101l0.113,-0.101l0.116,-0.097l0.119,-0.094l0.125,-0.093l0.102,-0.069l0.036,-0.025l0.037,-0.024l0.038,-0.023l0.038,-0.022l0.038,-0.021l0.039,-0.02l0.039,-0.02l0.04,-0.018l0.04,-0.018l0.041,-0.017l0.041,-0.016l0.041,-0.015l0.042,-0.014l0.042,-0.013l0.042,-0.012l0.042,-0.012l0.043,-0.01l0.043,-0.01l0.043,-0.008l0.043,-0.008l0.044,-0.007l0.043,-0.005l0.044,-0.005l0.044,-0.004l0.044,-0.003l0.043,-0.001l0.044,-0.001l0.044,0Z" style="fill:#d95b4c;"/><path d="M93.538,50.724l0.135,0.016l0.135,0.024l0.132,0.034l0.13,0.042l0.126,0.052l0.123,0.059l0.119,0.068l0.113,0.076l0.108,0.084l0.102,0.091l0.096,0.097l0.089,0.104l0.081,0.109l0.074,0.115l0.066,0.12l0.057,0.124l0.049,0.127l0.04,0.131l0.031,0.133l0.022,0.135l0.013,0.136l0.003,0.136l-0.006,0.137l-0.015,0.135l-0.019,0.126l-0.021,0.135l-0.022,0.133l-0.023,0.132l-0.024,0.132l-0.025,0.131l-0.026,0.131l-0.027,0.13l-0.028,0.129l-0.029,0.128l-0.03,0.129l-0.03,0.127l-0.031,0.126l-0.032,0.126l-0.033,0.125l-0.035,0.128l-0.068,0.244l-0.071,0.245l-0.074,0.243l-0.076,0.24l-0.077,0.238l-0.079,0.236l-0.081,0.234l-0.082,0.232l-0.083,0.229l-0.084,0.229l-0.084,0.226l-0.085,0.226l-0.17,0.442l-0.17,0.439l-0.168,0.433l-0.166,0.43l-0.081,0.211l-0.08,0.212l-0.079,0.211l-0.076,0.207l-0.084,0.233l-0.081,0.234l-0.08,0.238l-0.08,0.24l-0.079,0.244l-0.079,0.247l-0.16,0.504l-0.162,0.512l-0.085,0.262l-0.086,0.263l-0.089,0.265l-0.092,0.268l-0.095,0.267l-0.05,0.138l-0.049,0.132l-0.296,0.797l-0.147,0.394l-0.145,0.394l-0.143,0.394l-0.141,0.392l-0.14,0.392l-0.137,0.391l-0.134,0.39l-0.131,0.391l-0.064,0.193l-0.064,0.194l-0.062,0.194l-0.062,0.195l-0.061,0.193l-0.06,0.194l-0.059,0.194l-0.057,0.193l-0.057,0.194l-0.056,0.193l-0.054,0.193l-0.054,0.194l-0.052,0.193l-0.05,0.193l-0.05,0.192l-0.048,0.193l-0.048,0.193l-0.045,0.192l-0.045,0.193l-0.043,0.192l-0.041,0.193l-0.04,0.192l-0.039,0.193l-0.037,0.192l-0.035,0.192l-0.034,0.192l-0.033,0.193l-0.03,0.192l-0.029,0.192l-0.028,0.193l-0.025,0.192l-0.024,0.192l-0.023,0.193l-0.02,0.192l-0.019,0.193l-0.016,0.193l-0.015,0.193l-0.013,0.193l-0.011,0.193l-0.009,0.193l-0.007,0.193l-0.006,0.193l-0.003,0.194l-0.001,0.205l-0.005,0.136l-0.015,0.136l-0.024,0.135l-0.033,0.132l-0.042,0.13l-0.051,0.127l-0.059,0.123l-0.067,0.119l-0.076,0.113l-0.083,0.109l-0.09,0.102l-0.097,0.096l-0.104,0.089l-0.109,0.082l-0.115,0.075l-0.119,0.066l-0.124,0.058l-0.127,0.049l-0.13,0.041l-0.133,0.032l-0.135,0.022l-0.136,0.013l-0.136,0.004l-0.137,-0.005l-0.136,-0.015l-0.134,-0.024l-0.132,-0.033l-0.13,-0.042l-0.127,-0.05l-0.123,-0.06l-0.119,-0.067l-0.114,-0.076l-0.108,-0.083l-0.103,-0.09l-0.096,-0.097l-0.089,-0.104l-0.082,-0.109l-0.074,-0.114l-0.066,-0.12l-0.058,-0.124l-0.05,-0.127l-0.04,-0.13l-0.032,-0.133l-0.023,-0.135l-0.013,-0.136l-0.004,-0.136l0.001,-0.226l0.004,-0.236l0.006,-0.236l0.009,-0.234l0.011,-0.234l0.014,-0.234l0.015,-0.232l0.018,-0.231l0.02,-0.231l0.022,-0.23l0.025,-0.23l0.026,-0.229l0.028,-0.228l0.031,-0.227l0.032,-0.226l0.034,-0.227l0.036,-0.224l0.038,-0.225l0.039,-0.224l0.042,-0.223l0.042,-0.222l0.045,-0.222l0.046,-0.22l0.047,-0.221l0.049,-0.22l0.051,-0.218l0.052,-0.219l0.053,-0.217l0.054,-0.217l0.056,-0.216l0.057,-0.216l0.058,-0.215l0.059,-0.214l0.06,-0.214l0.062,-0.214l0.062,-0.212l0.063,-0.212l0.065,-0.212l0.065,-0.211l0.066,-0.21l0.066,-0.21l0.068,-0.209l0.068,-0.209l0.069,-0.21l0.139,-0.413l0.143,-0.413l0.143,-0.41l0.146,-0.409l0.147,-0.408l0.147,-0.405l0.149,-0.404l0.149,-0.402l0.296,-0.796l0.044,-0.118l0.041,-0.112l0.082,-0.234l0.081,-0.235l0.08,-0.238l0.08,-0.242l0.078,-0.244l0.16,-0.502l0.161,-0.508l0.083,-0.26l0.085,-0.262l0.087,-0.264l0.09,-0.266l0.093,-0.268l0.096,-0.267l0.085,-0.232l0.085,-0.228l0.086,-0.225l0.086,-0.225l0.17,-0.441l0.169,-0.436l0.167,-0.43l0.163,-0.426l0.079,-0.209l0.078,-0.209l0.076,-0.207l0.075,-0.207l0.072,-0.205l0.071,-0.205l0.068,-0.204l0.066,-0.203l0.064,-0.201l0.061,-0.202l0.059,-0.2l0.057,-0.204l0.026,-0.096l0.026,-0.1l0.025,-0.099l0.025,-0.1l0.023,-0.099l0.023,-0.099l0.023,-0.1l0.021,-0.099l0.021,-0.099l0.02,-0.099l0.018,-0.099l0.019,-0.099l0.017,-0.099l0.016,-0.099l0.016,-0.099l0.016,-0.108l0.024,-0.134l0.034,-0.133l0.042,-0.129l0.052,-0.127l0.059,-0.123l0.068,-0.118l0.076,-0.114l0.084,-0.108l0.091,-0.102l0.097,-0.095l0.104,-0.089l0.109,-0.082l0.115,-0.073l0.12,-0.066l0.124,-0.058l0.127,-0.048l0.131,-0.041l0.133,-0.031l0.135,-0.022l0.136,-0.012l0.136,-0.004l0.137,0.006Z" style="fill:#d95b4c;"/><path d="M69.911,7.134l0.034,0.001l0.035,0.001l0.034,0.002l0.034,0.003l0.034,0.004l0.034,0.003l0.034,0.005l0.034,0.005l0.034,0.006l0.034,0.006l0.034,0.007l0.033,0.007l0.034,0.008l0.033,0.009l0.033,0.009l0.033,0.01l0.033,0.01l0.032,0.011l0.033,0.011l0.032,0.012l0.032,0.012l0.032,0.014l0.031,0.013l0.031,0.014l0.031,0.015l0.031,0.015l0.031,0.016l0.03,0.016l0.03,0.017l0.03,0.017l0.029,0.018l0.029,0.018l0.029,0.019l0.028,0.019l0.028,0.02l0.028,0.02l0.028,0.021l0.027,0.021l0.026,0.021l0.027,0.023l0.025,0.022l0.026,0.023l0.025,0.023l0.025,0.024l0.024,0.024l0.024,0.025l0.023,0.025l0.023,0.026l0.023,0.026l0.022,0.026l0.022,0.026l0.021,0.027l0.021,0.028l0.02,0.027l0.02,0.028l0.019,0.029l0.019,0.029l0.018,0.029l0.018,0.029l0.018,0.03l0.016,0.029l0.017,0.031l0.016,0.03l0.015,0.031l0.015,0.031l0.014,0.031l0.013,0.032l0.013,0.031l0.013,0.032l0.012,0.033l0.012,0.032l0.01,0.033l0.011,0.032l0.01,0.033l0.009,0.033l0.008,0.033l0.008,0.034l0.008,0.033l0.007,0.034l0.006,0.034l0.006,0.034l0.005,0.034l0.005,0.034l0.004,0.034l0.003,0.034l0.003,0.034l0.002,0.034l0.002,0.035l0.001,0.034l0.001,0.034l-0.001,0.035l0,0.034l-0.002,0.034l-0.001,0.034l-0.003,0.035l-0.003,0.034l-0.004,0.034l-0.004,0.034l-0.005,0.034l-0.005,0.034l-0.006,0.034l-0.006,0.034l-0.008,0.033l-0.007,0.034l-0.009,0.033l-0.008,0.033l-0.01,0.033l-0.01,0.033l-0.01,0.033l-0.011,0.032l-0.012,0.032l-0.012,0.033l-0.013,0.031l-0.013,0.032l-0.002,0.003l0,0.005l0.002,0.05l0.002,0.061l0.005,0.07l0.013,0.178l0.007,0.101l0.006,0.098l0.002,0.034l0.001,0.034l0.001,0.034l0,0.035l0,0.034l-0.001,0.034l-0.002,0.035l-0.002,0.034l-0.003,0.034l-0.003,0.034l-0.004,0.035l-0.005,0.034l-0.005,0.033l-0.006,0.034l-0.006,0.034l-0.007,0.034l-0.008,0.033l-0.008,0.034l-0.008,0.033l-0.009,0.033l-0.01,0.033l-0.01,0.033l-0.011,0.032l-0.012,0.033l-0.012,0.032l-0.012,0.032l-0.013,0.031l-0.014,0.032l-0.014,0.031l-0.015,0.031l-0.015,0.031l-0.016,0.03l-0.016,0.031l-0.017,0.03l-0.017,0.029l-0.018,0.03l-0.018,0.029l-0.019,0.028l-0.02,0.029l-0.019,0.028l-0.021,0.028l-0.02,0.027l-0.022,0.027l-0.021,0.027l-0.022,0.026l-0.023,0.026l-0.023,0.025l-0.023,0.025l-0.024,0.025l-0.025,0.024l-0.024,0.024l-0.025,0.023l-0.026,0.023l-0.026,0.023l-0.026,0.022l-0.027,0.022l-0.027,0.021l-0.027,0.021l-0.028,0.02l-0.028,0.02l-0.028,0.019l-0.029,0.019l-0.029,0.018l-0.03,0.018l-0.029,0.017l-0.03,0.017l-0.03,0.016l-0.031,0.016l-0.031,0.015l-0.031,0.015l-0.031,0.014l-0.032,0.013l-0.031,0.013l-0.032,0.013l-0.033,0.012l-0.032,0.011l-0.033,0.011l-0.032,0.01l-0.033,0.01l-0.033,0.009l-0.034,0.009l-0.033,0.008l-0.033,0.007l-0.034,0.007l-0.034,0.006l-0.034,0.006l-0.034,0.005l-0.034,0.005l-0.034,0.004l-0.034,0.003l-0.034,0.003l-0.034,0.002l-0.035,0.002l-0.034,0.001l-0.034,0l-0.035,0l-0.034,-0.001l-0.034,-0.001l-0.035,-0.002l-0.034,-0.003l-0.034,-0.003l-0.034,-0.004l-0.034,-0.004l-0.034,-0.005l-0.034,-0.005l-0.034,-0.006l-0.034,-0.007l-0.033,-0.007l-0.034,-0.008l-0.033,-0.008l-0.033,-0.009l-0.033,-0.009l-0.033,-0.011l-0.033,-0.01l-0.032,-0.011l-0.032,-0.012l-0.032,-0.012l-0.032,-0.013l-0.032,-0.013l-0.031,-0.014l-0.031,-0.015l-0.031,-0.015l-0.031,-0.015l-0.03,-0.016l-0.03,-0.017l-0.03,-0.017l-0.03,-0.017l-0.029,-0.019l-0.029,-0.018l-0.028,-0.019l-0.029,-0.02l-0.027,-0.02l-0.028,-0.02l-0.027,-0.021l-0.027,-0.022l-0.026,-0.022l-0.027,-0.022l-0.025,-0.023l-0.025,-0.023l-0.025,-0.024l-0.025,-0.024l-0.024,-0.024l-0.024,-0.025l-0.023,-0.025l-0.022,-0.026l-0.023,-0.026l-0.022,-0.027l-0.021,-0.026l-0.021,-0.028l-0.02,-0.027l-0.02,-0.028l-0.02,-0.028l-0.019,-0.029l-0.019,-0.029l-0.018,-0.029l-0.017,-0.03l-0.017,-0.029l-0.017,-0.031l-0.016,-0.03l-0.015,-0.031l-0.015,-0.031l-0.014,-0.031l-0.014,-0.031l-0.014,-0.032l-0.012,-0.032l-0.013,-0.032l-0.011,-0.032l-0.011,-0.032l-0.011,-0.033l-0.01,-0.033l-0.009,-0.033l-0.009,-0.033l-0.009,-0.033l-0.007,-0.034l-0.007,-0.034l-0.007,-0.033l-0.006,-0.034l-0.005,-0.034l-0.005,-0.034l-0.004,-0.034l-0.004,-0.034l-0.003,-0.034l-0.003,-0.035l-0.005,-0.081l-0.006,-0.083l-0.014,-0.198l-0.008,-0.122l-0.006,-0.133l-0.004,-0.145l0,-0.147l0.003,-0.091l0.003,-0.087l0.006,-0.088l0.008,-0.092l0.01,-0.095l0.013,-0.098l0.016,-0.104l0.021,-0.104l0.023,-0.108l0.029,-0.111l0.034,-0.113l0.039,-0.118l0.045,-0.118l0.051,-0.12l0.059,-0.121l0.042,-0.079l0.017,-0.03l0.017,-0.03l0.017,-0.03l0.018,-0.029l0.019,-0.029l0.019,-0.028l0.019,-0.029l0.02,-0.027l0.021,-0.028l0.02,-0.027l0.022,-0.027l0.022,-0.027l0.022,-0.026l0.023,-0.025l0.023,-0.026l0.024,-0.025l0.024,-0.024l0.024,-0.024l0.025,-0.024l0.025,-0.023l0.026,-0.023l0.026,-0.022l0.026,-0.022l0.027,-0.022l0.027,-0.021l0.028,-0.02l0.028,-0.02l0.028,-0.02l0.028,-0.019l0.029,-0.019l0.03,-0.018l0.029,-0.017l0.03,-0.017l0.03,-0.017l0.03,-0.016l0.031,-0.015l0.031,-0.015l0.031,-0.015l0.031,-0.014l0.032,-0.013l0.032,-0.013l0.032,-0.012l0.032,-0.012l0.032,-0.011l0.033,-0.011l0.033,-0.01l0.033,-0.009l0.033,-0.009l0.033,-0.009l0.034,-0.007l0.033,-0.008l0.034,-0.006l0.034,-0.006l0.034,-0.006l0.034,-0.005l0.034,-0.004l0.034,-0.004l0.034,-0.003l0.034,-0.002l0.035,-0.002l0.034,-0.002l0.034,-0.001l0.035,0l0.034,0.001Z" style="fill:#d95b4c;"/><path d="M14.173,25.373l0.061,0.003l0.062,0.005l0.061,0.007l0.061,0.009l0.06,0.01l0.061,0.013l0.06,0.014l0.059,0.016l0.059,0.018l0.058,0.02l0.058,0.021l0.057,0.024l0.056,0.025l0.056,0.027l0.054,0.028l0.054,0.03l0.053,0.032l0.052,0.033l0.05,0.035l0.05,0.037l0.048,0.038l0.048,0.039l0.046,0.041l0.045,0.043l0.043,0.043l0.042,0.045l0.041,0.047l0.039,0.047l0.038,0.049l0.036,0.05l0.034,0.051l0.033,0.052l0.032,0.053l0.03,0.054l0.028,0.054l0.026,0.056l0.025,0.056l0.023,0.058l0.021,0.057l0.02,0.059l0.017,0.059l0.016,0.059l0.014,0.06l0.012,0.061l0.01,0.061l0.008,0.061l0.007,0.061l0.004,0.061l0.003,0.062l0.001,0.061l-0.001,0.062l-0.003,0.062l-0.005,0.061l-0.007,0.061l-0.009,0.061l-0.01,0.061l-0.013,0.06l-0.014,0.06l-0.016,0.06l-0.018,0.058l-0.02,0.059l-0.022,0.057l-0.023,0.058l-0.025,0.056l-0.027,0.055l-0.028,0.055l-0.03,0.054l-0.032,0.052l-0.034,0.052l-0.034,0.051l-0.037,0.049l-0.03,0.04l-0.016,0.022l-0.017,0.024l-0.017,0.025l-0.016,0.026l-0.018,0.028l-0.017,0.03l-0.017,0.028l-0.015,0.029l-0.017,0.032l-0.016,0.032l-0.015,0.031l-0.015,0.034l-0.015,0.033l-0.014,0.035l-0.014,0.035l-0.012,0.034l-0.012,0.034l-0.013,0.038l-0.011,0.036l-0.01,0.033l-0.01,0.037l-0.009,0.035l-0.008,0.035l-0.008,0.036l-0.007,0.035l-0.006,0.036l-0.006,0.034l-0.004,0.032l-0.004,0.034l-0.003,0.032l-0.003,0.033l-0.002,0.032l-0.001,0.028l-0.001,0.03l0.001,0.03l0,0.028l0.002,0.027l0.001,0.025l0.003,0.024l0.002,0.024l0.003,0.022l0.004,0.022l0.004,0.019l0.004,0.018l0.004,0.019l0.005,0.015l0.004,0.015l0.004,0.014l0.005,0.013l0.005,0.013l0.004,0.009l0.005,0.009l0.004,0.01l0.005,0.008l0.005,0.008l0.003,0.006l0.004,0.005l0.004,0.007l0.005,0.005l0.004,0.005l0.005,0.006l0.002,0.002l0.007,0.004l0.006,0.003l0.011,0.006l0.011,0.005l0.034,0.015l0.032,0.013l0.04,0.014l0.045,0.015l0.052,0.017l0.057,0.017l0.064,0.018l0.078,0.021l0.059,0.017l0.059,0.019l0.058,0.02l0.058,0.023l0.056,0.024l0.056,0.026l0.055,0.027l0.054,0.029l0.054,0.031l0.052,0.033l0.051,0.034l0.051,0.036l0.049,0.037l0.048,0.039l0.046,0.04l0.046,0.041l0.044,0.043l0.043,0.045l0.041,0.045l0.04,0.047l0.039,0.048l0.037,0.049l0.035,0.051l0.034,0.051l0.032,0.053l0.031,0.053l0.029,0.054l0.027,0.055l0.026,0.056l0.024,0.057l0.022,0.058l0.021,0.058l0.018,0.059l0.017,0.059l0.015,0.06l0.013,0.06l0.011,0.06l0.009,0.061l0.008,0.061l0.005,0.062l0.004,0.061l0.002,0.062l0,0.061l-0.002,0.062l-0.004,0.061l-0.006,0.062l-0.008,0.061l-0.009,0.061l-0.012,0.06l-0.013,0.06l-0.015,0.06l-0.017,0.059l-0.019,0.059l-0.02,0.058l-0.023,0.057l-0.024,0.057l-0.026,0.056l-0.027,0.055l-0.029,0.054l-0.031,0.054l-0.033,0.052l-0.034,0.051l-0.036,0.05l-0.037,0.05l-0.039,0.047l-0.04,0.047l-0.041,0.046l-0.043,0.044l-0.045,0.043l-0.045,0.041l-0.047,0.04l-0.048,0.038l-0.049,0.038l-0.051,0.035l-0.051,0.034l-0.053,0.032l-0.053,0.031l-0.054,0.029l-0.055,0.027l-0.056,0.026l-0.057,0.024l-0.058,0.022l-0.058,0.02l-0.059,0.019l-0.059,0.017l-0.06,0.015l-0.06,0.013l-0.06,0.011l-0.061,0.009l-0.061,0.008l-0.062,0.005l-0.061,0.004l-0.062,0.002l-0.061,0l-0.062,-0.002l-0.061,-0.004l-0.062,-0.006l-0.061,-0.008l-0.061,-0.009l-0.06,-0.012l-0.06,-0.013l-0.06,-0.015l-0.1,-0.027l-0.115,-0.032l-0.119,-0.036l-0.124,-0.039l-0.129,-0.044l-0.132,-0.048l-0.137,-0.055l-0.132,-0.057l-0.08,-0.037l-0.073,-0.035l-0.07,-0.035l-0.075,-0.04l-0.074,-0.041l-0.076,-0.043l-0.077,-0.047l-0.073,-0.047l-0.074,-0.049l-0.075,-0.053l-0.076,-0.056l-0.075,-0.058l-0.073,-0.059l-0.074,-0.063l-0.074,-0.068l-0.073,-0.069l-0.095,-0.095l-0.094,-0.101l-0.09,-0.103l-0.087,-0.106l-0.082,-0.108l-0.077,-0.108l-0.075,-0.112l-0.071,-0.114l-0.066,-0.113l-0.062,-0.115l-0.058,-0.116l-0.055,-0.117l-0.051,-0.119l-0.046,-0.117l-0.043,-0.118l-0.04,-0.119l-0.036,-0.119l-0.032,-0.119l-0.029,-0.118l-0.026,-0.119l-0.023,-0.12l-0.019,-0.116l-0.017,-0.119l-0.014,-0.117l-0.011,-0.116l-0.008,-0.118l-0.005,-0.115l-0.003,-0.116l-0.001,-0.113l0.002,-0.114l0.005,-0.116l0.006,-0.111l0.009,-0.112l0.011,-0.112l0.014,-0.11l0.015,-0.111l0.018,-0.11l0.019,-0.108l0.021,-0.107l0.023,-0.106l0.025,-0.108l0.027,-0.105l0.029,-0.104l0.031,-0.107l0.032,-0.103l0.033,-0.099l0.036,-0.103l0.039,-0.102l0.039,-0.099l0.04,-0.099l0.043,-0.098l0.044,-0.097l0.046,-0.098l0.048,-0.096l0.049,-0.093l0.052,-0.096l0.053,-0.093l0.054,-0.091l0.056,-0.09l0.058,-0.091l0.06,-0.089l0.062,-0.089l0.064,-0.087l0.051,-0.068l0.039,-0.049l0.039,-0.047l0.041,-0.046l0.042,-0.045l0.044,-0.043l0.045,-0.042l0.046,-0.041l0.048,-0.039l0.048,-0.038l0.05,-0.036l0.051,-0.034l0.052,-0.034l0.053,-0.031l0.054,-0.03l0.055,-0.028l0.056,-0.026l0.056,-0.025l0.057,-0.023l0.058,-0.021l0.058,-0.02l0.059,-0.017l0.06,-0.016l0.06,-0.014l0.06,-0.012l0.061,-0.01l0.061,-0.008l0.061,-0.007l0.062,-0.004l0.061,-0.003l0.062,-0.001l0.062,0.001Z" style="fill:#d95b4c;"/></g></g><path d="M17.401,27.307c1.248,2.616 3.433,3.524 6.747,2.371l7.841,-4.422c1.088,-1.023 1.404,-2.579 0.912,-4.696l-2.006,-5.333c-1.922,-3.508 -3.503,-4.428 -7.203,-4.24c-3.488,0.177 -6.14,1.73 -7.977,4.376c-0.936,1.348 -0.934,3.318 0,5.79l1.686,6.154Z" style="fill:none;stroke:#000;stroke-width:2px;"/><path d="M17.401,27.307c1.248,2.616 3.433,3.524 6.747,2.371l7.841,-4.422c1.088,-1.023 1.404,-2.579 0.912,-4.696l-2.006,-5.333c-1.922,-3.508 -3.503,-4.428 -7.203,-4.24c-3.488,0.177 -6.14,1.73 -7.977,4.376c-0.936,1.348 -0.934,3.318 0,5.79l1.686,6.154Z" style="fill:#2b1713;"/><path d="M25.453,13.925c0.62,1.241 -0.617,3.119 -2.761,4.191c-2.144,1.071 -4.388,0.933 -5.008,-0.309c-0.621,-1.241 0.616,-3.119 2.76,-4.191c2.144,-1.071 4.388,-0.933 5.009,0.309Z" style="fill:none;stroke:#000;stroke-width:2px;"/><path d="M25.453,13.925c0.62,1.241 -0.617,3.119 -2.761,4.191c-2.144,1.071 -4.388,0.933 -5.008,-0.309c-0.621,-1.241 0.616,-3.119 2.76,-4.191c2.144,-1.071 4.388,-0.933 5.009,0.309Z" style="fill:#f7d523;"/></g></svg>