<?xml version="1.0" encoding="UTF-8" standalone="no"?><!DOCTYPE svg PUBLIC "-//W3C//DTD SVG 1.1//EN" "http://www.w3.org/Graphics/SVG/1.1/DTD/svg11.dtd"><svg width="100%" height="100%" viewBox="0 0 1280 250" version="1.1" xmlns="http://www.w3.org/2000/svg" xmlns:xlink="http://www.w3.org/1999/xlink" xml:space="preserve" xmlns:serif="http://www.serif.com/" style="fill-rule:evenodd;clip-rule:evenodd;stroke-linejoin:round;stroke-miterlimit:2;"><rect id="Ground1" x="0" y="0" width="1280" height="250" style="fill:url(#_Linear1);"/><clipPath id="_clip2"><rect x="0" y="0" width="1280" height="250"/></clipPath><g clip-path="url(#_clip2)"><path d="M16.41,266.447c0,0 55.183,-136.643 203.65,-156.351c148.468,-19.708 183.286,-22.336 201.023,-55.183c17.737,-32.847 105.767,-59.124 135.986,0c30.219,59.124 -185.913,124.161 -84.088,164.891c101.825,40.73 214.161,-11.168 199.052,-30.876c-15.11,-19.708 -13.796,-54.526 26.277,-67.007c40.073,-12.482 187.227,-16.424 185.913,55.839c-1.314,72.263 99.854,82.774 128.76,88.03c28.905,5.255 -996.573,0.657 -996.573,0.657Z" style="fill:#222c0e;"/><path d="M103.518,266.808c0,0 21.577,-94.797 101.641,-101.983c80.064,-7.185 104.7,-11.291 142.679,30.794c37.979,42.085 117.016,65.694 168.34,66.72c51.323,1.027 173.472,-1.026 173.472,-1.026c0,0 65.693,-20.529 68.773,-65.694c3.079,-45.164 175.525,29.768 96.487,62.615c-79.037,32.846 -751.392,8.574 -751.392,8.574Z" style="fill:#0a1406;"/><path d="M566.838,-12.58c0,0 -8.211,76.984 87.25,96.487c95.461,19.503 60.561,-53.376 131.387,-57.482c70.826,-4.106 107.779,-27.714 162.181,17.45c54.403,45.164 110.858,36.953 144.731,24.635c33.874,-12.317 55.429,-73.905 15.397,-82.117c-40.032,-8.212 -540.946,1.027 -540.946,1.027Z" style="fill:#3d4704;"/><path d="M384.128,-13.607c0,0 -43.111,59.535 -109.832,65.694c-66.72,6.159 -88.275,-18.477 -143.704,-35.926c-55.429,-17.45 -13.344,-28.741 58.508,-30.794c71.852,-2.053 195.028,1.026 195.028,1.026Z" style="fill:#3d4704;"/></g><defs><linearGradient id="_Linear1" x1="0" y1="0" x2="1" y2="0" gradientUnits="userSpaceOnUse" gradientTransform="matrix(1.2767e-14,208.5,-208.5,1.2767e-14,598.679,8.17519)"><stop offset="0" style="stop-color:#2c550c;stop-opacity:1"/><stop offset="1" style="stop-color:#3d4704;stop-opacity:1"/></linearGradient></defs></svg>