<?xml version="1.0" encoding="UTF-8" standalone="no"?><!DOCTYPE svg PUBLIC "-//W3C//DTD SVG 1.1//EN" "http://www.w3.org/Graphics/SVG/1.1/DTD/svg11.dtd"><svg width="100%" height="100%" viewBox="0 0 1280 250" version="1.1" xmlns="http://www.w3.org/2000/svg" xmlns:xlink="http://www.w3.org/1999/xlink" xml:space="preserve" xmlns:serif="http://www.serif.com/" style="fill-rule:evenodd;clip-rule:evenodd;stroke-linejoin:round;stroke-miterlimit:2;"><rect id="Ground2" x="0" y="0" width="1280" height="250" style="fill:url(#_Linear1);"/><clipPath id="_clip2"><rect x="0" y="0" width="1280" height="250"/></clipPath><g clip-path="url(#_clip2)"><path d="M90.63,258.77c0,0 68.004,-26.944 183.481,-32.076c115.477,-5.133 118.043,-5.133 128.308,-30.794c10.264,-25.662 112.91,-35.927 137.289,-17.963c24.378,17.963 123.175,53.889 155.252,51.323c32.077,-2.566 283.561,-7.699 257.899,33.36c-25.661,41.058 -862.229,-3.85 -862.229,-3.85Z" style="fill:#222c0e;"/><ellipse cx="748.208" cy="119.556" rx="189.438" ry="60.37" style="fill:#0a1406;"/><ellipse cx="742.461" cy="123.954" rx="175.638" ry="55.973" style="fill:#222c0e;"/><path d="M108.594,143.293c0,0 25.661,66.72 142.421,56.456c116.76,-10.265 107.779,5.132 150.12,-37.209c42.342,-42.342 -85.966,-79.551 -141.138,-71.853c-55.173,7.699 -179.631,-10.264 -151.403,52.606Z" style="fill:#3d4704;"/><path d="M1015.73,-8.11c0,0 -38.492,38.493 -33.36,65.437c5.132,26.945 38.492,56.456 75.702,38.493c37.209,-17.964 48.757,-59.022 97.514,-68.004c48.757,-8.981 116.76,-34.643 78.267,-38.492c-38.492,-3.849 -218.123,2.566 -218.123,2.566Z" style="fill:#3d4704;"/></g><defs><linearGradient id="_Linear1" x1="0" y1="0" x2="1" y2="0" gradientUnits="userSpaceOnUse" gradientTransform="matrix(1.2767e-14,208.5,-208.5,1.2767e-14,598.679,8.17519)"><stop offset="0" style="stop-color:#2c550c;stop-opacity:1"/><stop offset="1" style="stop-color:#3d4704;stop-opacity:1"/></linearGradient></defs></svg>