<?xml version="1.0" encoding="UTF-8" standalone="no"?><!DOCTYPE svg PUBLIC "-//W3C//DTD SVG 1.1//EN" "http://www.w3.org/Graphics/SVG/1.1/DTD/svg11.dtd"><svg width="100%" height="100%" viewBox="0 0 1280 250" version="1.1" xmlns="http://www.w3.org/2000/svg" xmlns:xlink="http://www.w3.org/1999/xlink" xml:space="preserve" xmlns:serif="http://www.serif.com/" style="fill-rule:evenodd;clip-rule:evenodd;stroke-linejoin:round;stroke-miterlimit:2;"><rect id="Ground4" x="0" y="0" width="1280" height="250" style="fill:url(#_Linear1);"/><clipPath id="_clip2"><rect x="0" y="0" width="1280" height="250"/></clipPath><g clip-path="url(#_clip2)"><path d="M39.896,263.995c0,0 27.266,-81.796 73.777,-44.907c46.512,36.888 150.762,11.226 158.781,-8.02c8.019,-19.246 62.55,-86.607 104.25,-81.796c41.7,4.812 78.589,70.569 118.685,85.004c40.096,14.435 153.969,27.265 128.308,60.946c-25.662,33.681 -583.801,-11.227 -583.801,-11.227Z" style="fill:#222c0e;"/><path d="M832.197,267.203c0,0 19.246,-52.927 105.854,-51.323c86.608,1.604 91.419,-1.604 110.665,-52.927c19.247,-51.323 80.193,-57.739 112.27,28.869c32.077,86.608 102.646,125.1 102.646,125.1l-431.435,-49.719Z" style="fill:#0a1406;"/><path d="M1096.83,-10.263c0,0 -107.458,17.643 -163.593,60.947c-56.134,43.303 -150.761,64.153 -232.557,38.492c-81.797,-25.662 -137.931,-93.023 -181.235,-102.646c-43.304,-9.623 577.385,3.207 577.385,3.207Z" style="fill:#3d4704;"/><ellipse cx="176.223" cy="87.572" rx="85.004" ry="41.7" style="fill:#3d4704;"/><ellipse cx="663.793" cy="173.378" rx="56.135" ry="26.463" style="fill:#3d4704;"/><ellipse cx="1192.26" cy="82.76" rx="28.067" ry="16.038" style="fill:#3d4704;"/></g><defs><linearGradient id="_Linear1" x1="0" y1="0" x2="1" y2="0" gradientUnits="userSpaceOnUse" gradientTransform="matrix(1.2767e-14,208.5,-208.5,1.2767e-14,598.679,8.17519)"><stop offset="0" style="stop-color:#2c550c;stop-opacity:1"/><stop offset="1" style="stop-color:#3d4704;stop-opacity:1"/></linearGradient></defs></svg>