<?xml version="1.0" encoding="UTF-8" standalone="no"?><!DOCTYPE svg PUBLIC "-//W3C//DTD SVG 1.1//EN" "http://www.w3.org/Graphics/SVG/1.1/DTD/svg11.dtd"><svg width="100%" height="100%" viewBox="0 0 1280 250" version="1.1" xmlns="http://www.w3.org/2000/svg" xmlns:xlink="http://www.w3.org/1999/xlink" xml:space="preserve" xmlns:serif="http://www.serif.com/" style="fill-rule:evenodd;clip-rule:evenodd;stroke-linejoin:round;stroke-miterlimit:2;"><rect id="Ground3" x="0" y="0" width="1280" height="250" style="fill:url(#_Linear1);"/><clipPath id="_clip2"><rect x="0" y="0" width="1280" height="250"/></clipPath><g clip-path="url(#_clip2)"><ellipse cx="1076.67" cy="101.914" rx="112.911" ry="39.134" style="fill:#3d4704;"/><ellipse cx="571.782" cy="173.766" rx="102.005" ry="31.435" style="fill:#3d4704;"/><ellipse cx="190.067" cy="91.649" rx="109.062" ry="42.983" style="fill:#0a1406;"/><ellipse cx="697.524" cy="92.291" rx="44.266" ry="20.529" style="fill:#0a1406;"/><ellipse cx="186.099" cy="94.395" rx="102.094" ry="40.237" style="fill:#222c0e;"/><ellipse cx="695.132" cy="94.328" rx="39.874" ry="18.492" style="fill:#222c0e;"/><path d="M1187.02,257.808c0,0 -25.518,-35.926 -113.01,-68.003c-87.492,-32.077 -159.187,-24.379 -177.415,-73.136c-18.227,-48.757 -78.986,-17.963 -93.568,2.566c-14.582,20.53 -63.188,114.194 -150.68,118.043c-87.492,3.85 -234.528,-5.132 -255.185,-30.793c-20.658,-25.662 -155.542,-44.908 -235.743,2.566c-80.201,47.474 -114.226,48.757 -125.162,48.757c-10.937,0 1150.76,0 1150.76,0Z" style="fill:#222c0e;"/><path d="M742.782,258.534c0,0 22.454,-51.323 113.874,-52.927c91.419,-1.603 213.311,46.512 238.973,54.531c25.661,8.02 -352.847,-1.604 -352.847,-1.604Z" style="fill:#0a1406;"/></g><defs><linearGradient id="_Linear1" x1="0" y1="0" x2="1" y2="0" gradientUnits="userSpaceOnUse" gradientTransform="matrix(1.2767e-14,208.5,-208.5,1.2767e-14,598.679,8.17519)"><stop offset="0" style="stop-color:#2c550c;stop-opacity:1"/><stop offset="1" style="stop-color:#3d4704;stop-opacity:1"/></linearGradient></defs></svg>