<?xml version="1.0" encoding="UTF-8" standalone="no"?><!DOCTYPE svg PUBLIC "-//W3C//DTD SVG 1.1//EN" "http://www.w3.org/Graphics/SVG/1.1/DTD/svg11.dtd"><svg width="100%" height="100%" viewBox="0 0 341 181" version="1.1" xmlns="http://www.w3.org/2000/svg" xmlns:xlink="http://www.w3.org/1999/xlink" xml:space="preserve" xmlns:serif="http://www.serif.com/" style="fill-rule:evenodd;clip-rule:evenodd;stroke-linejoin:round;stroke-miterlimit:2;"><rect id="Guts11" x="0.173" y="0.122" width="340" height="180" style="fill:none;"/><g id="Guts111" serif:id="Guts11"><path d="M34.078,102.099c0,0 -7.003,10.595 -7.689,15.462c-0.42,2.983 1.66,5.745 4.642,6.165c2.983,0.42 5.745,-1.66 6.165,-4.642c0.686,-4.867 -3.118,-16.985 -3.118,-16.985Z" style="fill:#ffbb34;"/><path d="M307.429,108.003c0,0 -2.171,12.514 -0.849,17.248c0.81,2.901 3.822,4.599 6.723,3.789c2.901,-0.81 4.598,-3.823 3.788,-6.724c-1.322,-4.734 -9.662,-14.313 -9.662,-14.313Z" style="fill:#ff9d2b;"/><path d="M294.357,158.657c0,0 -17.62,3.448 -17.62,4.926c0,2.718 7.896,4.925 17.62,4.925c9.725,0 17.621,-2.207 17.621,-4.925c0,-1.478 -17.621,-4.926 -17.621,-4.926Z" style="fill:#ff8900;"/><path d="M36.739,152.438c0,0 14.213,4.616 14.213,6.595c0,3.64 -6.369,6.595 -14.213,6.595c-7.844,0 -14.212,-2.955 -14.212,-6.595c0,-1.979 14.212,-6.595 14.212,-6.595Z" style="fill:#ff8900;"/><path d="M245.896,154.921c0,0 -19.359,4.457 -19.359,6.367c0,3.514 8.674,6.367 19.359,6.367c10.684,0 19.358,-2.853 19.358,-6.367c0,-1.91 -19.358,-6.367 -19.358,-6.367Z" style="fill:#ffbb34;"/><path d="M92.29,153.242c0,0 24.381,4.41 24.381,6.3c0,3.477 -10.924,6.3 -24.381,6.3c-13.456,0 -24.381,-2.823 -24.381,-6.3c0,-1.89 24.381,-6.3 24.381,-6.3Z" style="fill:#ff9d2b;"/><path d="M129.11,154.903c0,0 23.221,3.718 23.221,5.311c0,2.931 -10.405,5.311 -23.221,5.311c-12.816,0 -23.221,-2.38 -23.221,-5.311c0,-1.593 23.221,-5.311 23.221,-5.311Z" style="fill:#ffbb34;"/><path d="M211.147,153.769c0,0 20.636,3.321 20.683,4.99c0.085,3.071 -9.043,5.821 -20.372,6.138c-11.329,0.316 -20.596,-1.92 -20.682,-4.991c-0.046,-1.669 20.371,-6.137 20.371,-6.137Z" style="fill:#ff8900;"/><path d="M170.334,153.026c0,0 27.212,3.864 27.207,5.478c-0.011,2.97 -12.219,5.338 -27.246,5.284c-15.027,-0.054 -27.218,-2.509 -27.207,-5.479c0.006,-1.614 27.246,-5.283 27.246,-5.283Z" style="fill:#ff9d2b;"/><path d="M71.853,64.178c0,0 -6.181,8.098 -6.995,11.956c-0.498,2.364 1.016,4.687 3.38,5.186c2.364,0.498 4.688,-1.016 5.186,-3.38c0.814,-3.857 -1.571,-13.762 -1.571,-13.762Z" style="fill:#ff8900;"/><path d="M88.252,89.181c0,0 -5.121,8.807 -5.446,12.737c-0.199,2.407 1.594,4.523 4.001,4.723c2.408,0.199 4.524,-1.594 4.724,-4.002c0.325,-3.929 -3.279,-13.458 -3.279,-13.458Z" style="fill:#ff9d2b;"/><path d="M111.045,67.06c0,0 -5.668,9.99 -5.988,14.423c-0.196,2.716 1.851,5.081 4.567,5.277c2.716,0.195 5.081,-1.851 5.277,-4.567c0.319,-4.434 -3.856,-15.133 -3.856,-15.133Z" style="fill:#ff8900;"/><path d="M264.478,86.275c0,0 -2.215,8.58 -1.563,11.947c0.4,2.062 2.399,3.413 4.462,3.013c2.063,-0.4 3.413,-2.399 3.014,-4.462c-0.653,-3.367 -5.913,-10.498 -5.913,-10.498Z" style="fill:#ff8900;"/><path d="M247.077,68.128c0,0 -2.358,8.542 -1.761,11.919c0.365,2.069 2.342,3.452 4.411,3.087c2.069,-0.365 3.452,-2.342 3.087,-4.411c-0.596,-3.377 -5.737,-10.595 -5.737,-10.595Z" style="fill:#ff9d2b;"/></g></svg>