<?xml version="1.0" encoding="UTF-8" standalone="no"?><!DOCTYPE svg PUBLIC "-//W3C//DTD SVG 1.1//EN" "http://www.w3.org/Graphics/SVG/1.1/DTD/svg11.dtd"><svg width="100%" height="100%" viewBox="0 0 341 181" version="1.1" xmlns="http://www.w3.org/2000/svg" xmlns:xlink="http://www.w3.org/1999/xlink" xml:space="preserve" xmlns:serif="http://www.serif.com/" style="fill-rule:evenodd;clip-rule:evenodd;stroke-linejoin:round;stroke-miterlimit:2;"><rect id="Guts3" x="0.173" y="0.122" width="340" height="180" style="fill:none;"/><g id="Guts31" serif:id="Guts3"><path d="M142.051,72.619c0,0 -4.1,-12.021 -7.532,-15.54c-2.102,-2.156 -5.56,-2.2 -7.716,-0.097c-2.157,2.102 -2.2,5.56 -0.097,7.716c3.431,3.519 15.345,7.921 15.345,7.921Z" style="fill:#ffbb34;"/><path d="M194.762,71.93c0,0 11.478,-5.437 14.585,-9.246c1.903,-2.334 1.554,-5.774 -0.78,-7.678c-2.333,-1.903 -5.774,-1.554 -7.677,0.779c-3.107,3.809 -6.128,16.145 -6.128,16.145Z" style="fill:#ff9d2b;"/><path d="M202.426,83.486c0,0 13.617,5.769 19.334,5.521c3.503,-0.153 6.224,-3.12 6.072,-6.624c-0.152,-3.503 -3.12,-6.224 -6.623,-6.072c-5.717,0.248 -18.783,7.175 -18.783,7.175Z" style="fill:#ff8900;"/><path d="M134.96,82.234c0,0 -13.799,5.318 -19.505,4.882c-3.497,-0.267 -6.118,-3.323 -5.851,-6.819c0.267,-3.497 3.323,-6.118 6.819,-5.851c5.706,0.436 18.537,7.788 18.537,7.788Z" style="fill:#ff8900;"/><path d="M199.272,98.21c0,0 6.404,16.679 11.416,21.442c3.07,2.919 7.933,2.796 10.852,-0.275c2.919,-3.07 2.796,-7.933 -0.275,-10.852c-5.011,-4.764 -21.993,-10.315 -21.993,-10.315Z" style="fill:#ffbb34;"/><path d="M133.028,98.736c0,0 -7.402,16.261 -12.692,20.712c-3.242,2.728 -8.088,2.311 -10.816,-0.931c-2.728,-3.241 -2.31,-8.088 0.931,-10.815c5.291,-4.452 22.577,-8.966 22.577,-8.966Z" style="fill:#ff9d2b;"/><path d="M148.654,107.373c0,0 -0.693,15.365 -3.49,20.619c-1.713,3.22 -5.719,4.442 -8.938,2.728c-3.22,-1.713 -4.442,-5.719 -2.728,-8.938c2.797,-5.254 15.156,-14.409 15.156,-14.409Z" style="fill:#ffbb34;"/><path d="M185.623,106.092c0,0 12.667,8.724 15.643,13.878c1.824,3.159 0.74,7.204 -2.418,9.027c-3.159,1.824 -7.204,0.74 -9.027,-2.418c-2.977,-5.155 -4.198,-20.487 -4.198,-20.487Z" style="fill:#ff8900;"/><path d="M168.922,111.116c0,0 8.899,15.073 8.875,21.518c-0.017,4.941 -4.043,8.938 -8.984,8.92c-4.941,-0.017 -8.938,-4.043 -8.92,-8.984c0.023,-6.446 9.029,-21.454 9.029,-21.454Z" style="fill:#ff9d2b;"/><path d="M152.661,69.426c0,0 -0.655,-10.166 -2.574,-13.61c-1.176,-2.111 -3.844,-2.869 -5.954,-1.693c-2.11,1.176 -2.869,3.844 -1.693,5.954c1.919,3.444 10.221,9.349 10.221,9.349Z" style="fill:#ff8900;"/><path d="M158.41,61.608c0,0 -0.023,-10.187 -1.725,-13.743c-1.043,-2.18 -3.659,-3.102 -5.838,-2.059c-2.179,1.043 -3.102,3.658 -2.059,5.838c1.702,3.556 9.622,9.964 9.622,9.964Z" style="fill:#ff9d2b;"/><path d="M167.581,60.947c0,0 3.862,-10.817 3.413,-15.239c-0.275,-2.709 -2.698,-4.686 -5.408,-4.411c-2.71,0.276 -4.686,2.699 -4.411,5.408c0.449,4.422 6.406,14.242 6.406,14.242Z" style="fill:#ff8900;"/><path d="M183.332,68.248c0,0 6.862,-5.606 8.328,-8.706c0.898,-1.9 0.085,-4.171 -1.815,-5.07c-1.899,-0.898 -4.171,-0.085 -5.069,1.815c-1.466,3.1 -1.444,11.961 -1.444,11.961Z" style="fill:#ff8900;"/><path d="M176.463,60.976c0,0 6.513,-6.009 7.79,-9.191c0.782,-1.95 -0.166,-4.169 -2.116,-4.951c-1.95,-0.783 -4.169,0.165 -4.951,2.116c-1.277,3.182 -0.723,12.026 -0.723,12.026Z" style="fill:#ff9d2b;"/></g></svg>