<?xml version="1.0" encoding="UTF-8" standalone="no"?><!DOCTYPE svg PUBLIC "-//W3C//DTD SVG 1.1//EN" "http://www.w3.org/Graphics/SVG/1.1/DTD/svg11.dtd"><svg width="100%" height="100%" viewBox="0 0 341 181" version="1.1" xmlns="http://www.w3.org/2000/svg" xmlns:xlink="http://www.w3.org/1999/xlink" xml:space="preserve" xmlns:serif="http://www.serif.com/" style="fill-rule:evenodd;clip-rule:evenodd;stroke-linejoin:round;stroke-miterlimit:2;"><rect id="Guts9" x="0.173" y="0.122" width="340" height="180" style="fill:none;"/><g id="Guts91" serif:id="Guts9"><path d="M52.178,61.291c0,0 -11.004,6.342 -13.795,10.388c-1.71,2.479 -1.085,5.881 1.394,7.591c2.479,1.71 5.88,1.085 7.59,-1.394c2.791,-4.046 4.811,-16.585 4.811,-16.585Z" style="fill:#ffbb34;"/><path d="M283.501,66.28c0,0 2.033,12.537 4.827,16.581c1.713,2.477 5.115,3.098 7.592,1.386c2.478,-1.713 3.099,-5.115 1.386,-7.592c-2.795,-4.043 -13.805,-10.375 -13.805,-10.375Z" style="fill:#ff9d2b;"/><path d="M289.263,136.107c0,0 -2.521,14.572 -0.98,20.083c0.945,3.377 4.454,5.352 7.831,4.407c3.377,-0.945 5.351,-4.453 4.407,-7.831c-1.542,-5.511 -11.258,-16.659 -11.258,-16.659Z" style="fill:#ff8900;"/><path d="M43.61,133.502c0,0 1.975,14.655 0.229,20.105c-1.07,3.339 -4.65,5.182 -7.99,4.112c-3.339,-1.071 -5.181,-4.651 -4.111,-7.99c1.746,-5.45 11.872,-16.227 11.872,-16.227Z" style="fill:#ff8900;"/><path d="M245.896,154.921c0,0 -19.359,4.457 -19.359,6.367c0,3.514 8.674,6.367 19.359,6.367c10.684,0 19.358,-2.853 19.358,-6.367c0,-1.91 -19.358,-6.367 -19.358,-6.367Z" style="fill:#ffbb34;"/><path d="M92.29,153.242c0,0 24.381,4.41 24.381,6.3c0,3.477 -10.924,6.3 -24.381,6.3c-13.456,0 -24.381,-2.823 -24.381,-6.3c0,-1.89 24.381,-6.3 24.381,-6.3Z" style="fill:#ff9d2b;"/><path d="M129.11,154.903c0,0 23.221,3.718 23.221,5.311c0,2.931 -10.405,5.311 -23.221,5.311c-12.816,0 -23.221,-2.38 -23.221,-5.311c0,-1.593 23.221,-5.311 23.221,-5.311Z" style="fill:#ffbb34;"/><path d="M211.147,153.769c0,0 20.636,3.321 20.683,4.99c0.085,3.071 -9.043,5.821 -20.372,6.138c-11.329,0.316 -20.596,-1.92 -20.682,-4.991c-0.046,-1.669 20.371,-6.137 20.371,-6.137Z" style="fill:#ff8900;"/><path d="M170.334,153.026c0,0 27.212,3.864 27.207,5.478c-0.011,2.97 -12.219,5.338 -27.246,5.284c-15.027,-0.054 -27.218,-2.509 -27.207,-5.479c0.006,-1.614 27.246,-5.283 27.246,-5.283Z" style="fill:#ff9d2b;"/><path d="M86.2,31.1c0,0 -9.192,4.393 -11.673,7.456c-1.521,1.877 -1.232,4.636 0.646,6.157c1.877,1.52 4.635,1.231 6.156,-0.646c2.482,-3.064 4.871,-12.967 4.871,-12.967Z" style="fill:#ff8900;"/><path d="M98.221,49.757c0,0 -6.425,7.907 -7.355,11.738c-0.571,2.347 0.872,4.716 3.22,5.286c2.347,0.571 4.716,-0.872 5.286,-3.22c0.931,-3.831 -1.151,-13.804 -1.151,-13.804Z" style="fill:#ff9d2b;"/><path d="M119.447,24.125c0,0 -7.907,8.329 -9.286,12.554c-0.844,2.59 0.572,5.377 3.161,6.222c2.59,0.845 5.377,-0.572 6.222,-3.161c1.378,-4.225 -0.097,-15.615 -0.097,-15.615Z" style="fill:#ff8900;"/><path d="M248.486,52.732c0,0 0.705,8.833 2.42,11.802c1.051,1.82 3.381,2.444 5.201,1.393c1.819,-1.051 2.443,-3.381 1.393,-5.201c-1.715,-2.969 -9.014,-7.994 -9.014,-7.994Z" style="fill:#ff8900;"/><path d="M231.486,34.789c0,0 1.805,8.675 3.878,11.407c1.27,1.674 3.66,2.001 5.334,0.731c1.674,-1.27 2.001,-3.66 0.731,-5.334c-2.073,-2.732 -9.943,-6.804 -9.943,-6.804Z" style="fill:#ff9d2b;"/></g></svg>