<?xml version="1.0" encoding="UTF-8" standalone="no"?><!DOCTYPE svg PUBLIC "-//W3C//DTD SVG 1.1//EN" "http://www.w3.org/Graphics/SVG/1.1/DTD/svg11.dtd"><svg width="100%" height="100%" viewBox="0 0 341 181" version="1.1" xmlns="http://www.w3.org/2000/svg" xmlns:xlink="http://www.w3.org/1999/xlink" xml:space="preserve" xmlns:serif="http://www.serif.com/" style="fill-rule:evenodd;clip-rule:evenodd;stroke-linejoin:round;stroke-miterlimit:2;"><rect id="Guts2" x="0.173" y="0.122" width="340" height="180" style="fill:none;"/><g id="Guts21" serif:id="Guts2"><path d="M144.24,78.277c0,0 -1.477,-12.615 -4.091,-16.777c-1.602,-2.551 -4.973,-3.321 -7.523,-1.72c-2.551,1.602 -3.321,4.973 -1.72,7.523c2.614,4.163 13.334,10.974 13.334,10.974Z" style="fill:#ffbb34;"/><path d="M190.863,79.38c0,0 10.46,-7.204 12.918,-11.461c1.506,-2.608 0.611,-5.948 -1.997,-7.454c-2.609,-1.506 -5.949,-0.611 -7.455,1.997c-2.457,4.257 -3.466,16.918 -3.466,16.918Z" style="fill:#ff9d2b;"/><path d="M192.167,86.898c0,0 14.543,2.675 20.071,1.192c3.386,-0.909 5.398,-4.397 4.489,-7.784c-0.909,-3.386 -4.397,-5.398 -7.783,-4.489c-5.528,1.484 -16.777,11.081 -16.777,11.081Z" style="fill:#ff8900;"/><path d="M145.086,87.33c0,0 -14.649,2.026 -20.105,0.298c-3.343,-1.059 -5.197,-4.632 -4.139,-7.975c1.059,-3.343 4.633,-5.198 7.976,-4.139c5.455,1.727 16.268,11.816 16.268,11.816Z" style="fill:#ff8900;"/><path d="M190.57,94.947c0,0 9.448,15.164 15.271,18.892c3.568,2.284 8.319,1.242 10.604,-2.326c2.284,-3.568 1.242,-8.32 -2.326,-10.604c-5.823,-3.728 -23.549,-5.962 -23.549,-5.962Z" style="fill:#ffbb34;"/><path d="M144.585,95.147c0,0 -10.119,14.724 -16.104,18.187c-3.667,2.122 -8.366,0.867 -10.488,-2.8c-2.122,-3.667 -0.868,-8.367 2.799,-10.489c5.985,-3.462 23.793,-4.898 23.793,-4.898Z" style="fill:#ff9d2b;"/><path d="M153.328,98.471c0,0 -0.693,15.365 -3.49,20.619c-1.714,3.22 -5.719,4.442 -8.939,2.728c-3.219,-1.713 -4.442,-5.719 -2.728,-8.938c2.797,-5.254 15.157,-14.409 15.157,-14.409Z" style="fill:#ffbb34;"/><path d="M180.727,98.303c0,0 12.667,8.723 15.643,13.878c1.824,3.159 0.74,7.204 -2.418,9.027c-3.159,1.824 -7.204,0.74 -9.028,-2.419c-2.976,-5.154 -4.197,-20.486 -4.197,-20.486Z" style="fill:#ff8900;"/><path d="M168.7,100.211c0,0 8.898,15.073 8.875,21.518c-0.018,4.941 -4.044,8.938 -8.984,8.92c-4.941,-0.017 -8.938,-4.043 -8.92,-8.984c0.023,-6.446 9.029,-21.454 9.029,-21.454Z" style="fill:#ff9d2b;"/><path d="M154.145,75.982c0,0 1.677,-10.048 0.592,-13.839c-0.664,-2.322 -3.09,-3.668 -5.412,-3.004c-2.323,0.665 -3.669,3.09 -3.004,5.413c1.085,3.79 7.824,11.43 7.824,11.43Z" style="fill:#ff8900;"/><path d="M159.042,68.36c0,0 1.676,-10.049 0.592,-13.839c-0.665,-2.323 -3.091,-3.669 -5.413,-3.004c-2.323,0.665 -3.669,3.09 -3.004,5.413c1.085,3.79 7.825,11.43 7.825,11.43Z" style="fill:#ff9d2b;"/><path d="M168.249,71.184c0,0 3.862,-10.816 3.413,-15.238c-0.276,-2.71 -2.699,-4.686 -5.408,-4.411c-2.71,0.275 -4.686,2.698 -4.411,5.408c0.449,4.422 6.406,14.241 6.406,14.241Z" style="fill:#ff8900;"/><path d="M182.28,73.697c0,0 5.439,-6.996 6.176,-10.345c0.451,-2.052 -0.848,-4.085 -2.9,-4.537c-2.052,-0.451 -4.085,0.848 -4.537,2.9c-0.737,3.349 1.261,11.982 1.261,11.982Z" style="fill:#ff8900;"/><path d="M175.66,67.355c0,0 5.438,-6.997 6.175,-10.346c0.452,-2.052 -0.848,-4.085 -2.9,-4.536c-2.052,-0.452 -4.085,0.847 -4.536,2.9c-0.738,3.349 1.261,11.982 1.261,11.982Z" style="fill:#ff9d2b;"/></g></svg>