<?xml version="1.0" encoding="UTF-8" standalone="no"?><!DOCTYPE svg PUBLIC "-//W3C//DTD SVG 1.1//EN" "http://www.w3.org/Graphics/SVG/1.1/DTD/svg11.dtd"><svg width="100%" height="100%" viewBox="0 0 341 181" version="1.1" xmlns="http://www.w3.org/2000/svg" xmlns:xlink="http://www.w3.org/1999/xlink" xml:space="preserve" xmlns:serif="http://www.serif.com/" style="fill-rule:evenodd;clip-rule:evenodd;stroke-linejoin:round;stroke-miterlimit:2;"><rect id="Guts6" x="0.173" y="0.122" width="340" height="180" style="fill:none;"/><g id="Guts61" serif:id="Guts6"><path d="M108.761,48.44c0,0 -10.683,-6.871 -15.558,-7.495c-2.987,-0.383 -5.723,1.732 -6.106,4.719c-0.383,2.987 1.732,5.723 4.719,6.106c4.875,0.625 16.945,-3.33 16.945,-3.33Z" style="fill:#ffbb34;"/><path d="M226.924,46.032c0,0 11.163,6.057 16.072,6.317c3.007,0.16 5.578,-2.153 5.738,-5.16c0.16,-3.008 -2.153,-5.579 -5.16,-5.739c-4.908,-0.26 -16.65,4.582 -16.65,4.582Z" style="fill:#ff9d2b;"/><path d="M245.956,90.41c0,0 7.441,12.779 12.167,16.008c2.895,1.978 6.852,1.233 8.83,-1.662c1.978,-2.896 1.234,-6.853 -1.662,-8.831c-4.725,-3.228 -19.335,-5.515 -19.335,-5.515Z" style="fill:#ff8900;"/><path d="M88.041,89.966c0,0 -7.529,12.728 -12.276,15.924c-2.909,1.958 -6.86,1.187 -8.819,-1.722c-1.958,-2.909 -1.186,-6.861 1.722,-8.819c4.748,-3.196 19.373,-5.383 19.373,-5.383Z" style="fill:#ff8900;"/><path d="M229.24,127.525c0,0 1.222,17.824 4.613,23.849c2.078,3.692 6.763,5.003 10.455,2.925c3.692,-2.077 5.002,-6.762 2.925,-10.454c-3.391,-6.026 -17.993,-16.32 -17.993,-16.32Z" style="fill:#ffbb34;"/><path d="M102.41,125.799c0,0 0.337,17.863 -2.515,24.161c-1.748,3.86 -6.301,5.574 -10.16,3.826c-3.859,-1.748 -5.573,-6.3 -3.826,-10.159c2.853,-6.299 16.501,-17.828 16.501,-17.828Z" style="fill:#ff9d2b;"/><path d="M131.2,138.503c0,0 8.437,8.457 8.166,11.764c-0.409,5.005 -4.805,8.736 -9.81,8.326c-5.005,-0.409 -8.736,-4.805 -8.327,-9.81c0.271,-3.307 9.971,-10.28 9.971,-10.28Z" style="fill:#ffbb34;"/><path d="M207.078,139.29c0,0 9.992,7.903 10.426,11.727c0.564,4.955 -3.002,9.435 -7.957,9.998c-4.955,0.564 -9.435,-3.002 -9.998,-7.957c-0.435,-3.824 7.529,-13.768 7.529,-13.768Z" style="fill:#ff8900;"/><path d="M169.782,148.547c0,0 19.425,4.83 19.418,6.87c-0.013,3.752 -8.736,6.768 -19.466,6.73c-10.731,-0.039 -19.432,-3.117 -19.418,-6.87c0.007,-2.04 19.466,-6.73 19.466,-6.73Z" style="fill:#ff9d2b;"/><path d="M134.825,41.053c0,0 -4.937,-8.911 -8.144,-11.204c-1.965,-1.405 -4.702,-0.95 -6.107,1.015c-1.405,1.965 -0.95,4.701 1.015,6.107c3.207,2.293 13.236,4.082 13.236,4.082Z" style="fill:#ff8900;"/><path d="M140.715,34.851c0,0 -6.884,-7.51 -10.538,-8.989c-2.24,-0.907 -4.794,0.175 -5.7,2.414c-0.907,2.239 0.175,4.793 2.414,5.7c3.655,1.48 13.824,0.875 13.824,0.875Z" style="fill:#ff9d2b;"/><path d="M162.574,24.811c0,0 -2.873,-11.12 -5.727,-14.528c-1.748,-2.088 -4.863,-2.364 -6.951,-0.616c-2.088,1.748 -2.364,4.863 -0.616,6.951c2.853,3.408 13.294,8.193 13.294,8.193Z" style="fill:#ff8900;"/><path d="M204.598,42.238c0,0 8.713,1.616 12.026,0.731c2.03,-0.541 3.239,-2.63 2.697,-4.66c-0.542,-2.03 -2.63,-3.238 -4.66,-2.697c-3.314,0.885 -10.063,6.626 -10.063,6.626Z" style="fill:#ff8900;"/><path d="M186.941,32.644c0,0 8.782,-1.187 11.653,-3.061c1.759,-1.149 2.255,-3.51 1.107,-5.27c-1.149,-1.759 -3.51,-2.255 -5.27,-1.106c-2.871,1.875 -7.49,9.437 -7.49,9.437Z" style="fill:#ff9d2b;"/></g></svg>