<?xml version="1.0" encoding="UTF-8" standalone="no"?><!DOCTYPE svg PUBLIC "-//W3C//DTD SVG 1.1//EN" "http://www.w3.org/Graphics/SVG/1.1/DTD/svg11.dtd"><svg width="100%" height="100%" viewBox="0 0 341 181" version="1.1" xmlns="http://www.w3.org/2000/svg" xmlns:xlink="http://www.w3.org/1999/xlink" xml:space="preserve" xmlns:serif="http://www.serif.com/" style="fill-rule:evenodd;clip-rule:evenodd;stroke-linejoin:round;stroke-miterlimit:2;"><rect id="Guts8" x="0.173" y="0.122" width="340" height="180" style="fill:none;"/><g id="Guts81" serif:id="Guts8"><path d="M69.292,48.045c0,0 -12.439,2.566 -16.359,5.531c-2.402,1.816 -2.877,5.242 -1.061,7.644c1.817,2.402 5.242,2.877 7.644,1.06c3.921,-2.964 9.776,-14.235 9.776,-14.235Z" style="fill:#ffbb34;"/><path d="M266.051,51.198c0,0 5.268,11.557 9.031,14.719c2.305,1.938 5.75,1.64 7.688,-0.666c1.938,-2.305 1.64,-5.751 -0.666,-7.688c-3.763,-3.163 -16.053,-6.365 -16.053,-6.365Z" style="fill:#ff9d2b;"/><path d="M278.918,118.429c0,0 0.858,14.763 3.613,19.78c1.688,3.073 5.554,4.198 8.627,2.51c3.074,-1.687 4.199,-5.553 2.511,-8.627c-2.754,-5.016 -14.751,-13.663 -14.751,-13.663Z" style="fill:#ff8900;"/><path d="M54.726,116.485c0,0 -1.101,14.747 -3.938,19.717c-1.739,3.046 -5.623,4.107 -8.668,2.369c-3.045,-1.739 -4.107,-5.622 -2.368,-8.668c2.837,-4.97 14.974,-13.418 14.974,-13.418Z" style="fill:#ff8900;"/><path d="M244.656,151.629c0,0 -15.006,6.169 -14.909,8.546c0.179,4.371 7.15,7.641 15.558,7.296c8.407,-0.344 15.088,-4.173 14.908,-8.545c-0.097,-2.376 -15.557,-7.297 -15.557,-7.297Z" style="fill:#ffbb34;"/><path d="M91.927,147.334c0,0 15.463,5.02 15.517,7.327c0.101,4.243 -6.69,7.851 -15.154,8.051c-8.464,0.2 -15.417,-3.082 -15.517,-7.326c-0.055,-2.307 15.154,-8.052 15.154,-8.052Z" style="fill:#ff9d2b;"/><path d="M130.324,153.548c0,0 18.682,5.259 18.552,6.847c-0.239,2.921 -8.94,4.597 -19.418,3.739c-10.478,-0.857 -18.791,-3.925 -18.552,-6.847c0.13,-1.588 19.418,-3.739 19.418,-3.739Z" style="fill:#ffbb34;"/><path d="M211.147,153.769c0,0 20.636,3.321 20.683,4.99c0.085,3.071 -9.043,5.821 -20.372,6.138c-11.329,0.316 -20.596,-1.92 -20.682,-4.991c-0.046,-1.669 20.371,-6.137 20.371,-6.137Z" style="fill:#ff8900;"/><path d="M170.334,153.026c0,0 27.212,3.864 27.207,5.478c-0.011,2.97 -12.219,5.338 -27.246,5.284c-15.027,-0.054 -27.218,-2.509 -27.207,-5.479c0.006,-1.614 27.246,-5.283 27.246,-5.283Z" style="fill:#ff9d2b;"/><path d="M103.661,24.544c0,0 -10.081,-1.471 -13.848,-0.308c-2.308,0.712 -3.604,3.165 -2.892,5.473c0.712,2.309 3.165,3.604 5.473,2.892c3.767,-1.162 11.267,-8.057 11.267,-8.057Z" style="fill:#ff8900;"/><path d="M110.251,34.971c0,0 -9.342,4.065 -11.931,7.038c-1.586,1.822 -1.395,4.59 0.427,6.176c1.823,1.586 4.59,1.395 6.176,-0.427c2.589,-2.974 5.328,-12.787 5.328,-12.787Z" style="fill:#ff9d2b;"/><path d="M135.354,11.434c0,0 -11.084,3.009 -14.457,5.904c-2.067,1.773 -2.304,4.891 -0.531,6.958c1.774,2.067 4.892,2.305 6.959,0.531c3.372,-2.895 8.029,-13.393 8.029,-13.393Z" style="fill:#ff8900;"/><path d="M234.513,41.022c0,0 3.888,7.962 6.571,10.099c1.643,1.309 4.041,1.037 5.35,-0.607c1.309,-1.644 1.037,-4.041 -0.607,-5.35c-2.683,-2.136 -11.314,-4.142 -11.314,-4.142Z" style="fill:#ff8900;"/><path d="M217.17,24.559c0,0 4.662,7.535 7.545,9.393c1.766,1.139 4.124,0.629 5.262,-1.137c1.139,-1.766 0.629,-4.124 -1.137,-5.262c-2.882,-1.858 -11.67,-2.994 -11.67,-2.994Z" style="fill:#ff9d2b;"/></g></svg>