<?xml version="1.0" encoding="UTF-8" standalone="no"?><!DOCTYPE svg PUBLIC "-//W3C//DTD SVG 1.1//EN" "http://www.w3.org/Graphics/SVG/1.1/DTD/svg11.dtd"><svg width="100%" height="100%" viewBox="0 0 341 181" version="1.1" xmlns="http://www.w3.org/2000/svg" xmlns:xlink="http://www.w3.org/1999/xlink" xml:space="preserve" xmlns:serif="http://www.serif.com/" style="fill-rule:evenodd;clip-rule:evenodd;stroke-linejoin:round;stroke-miterlimit:2;"><rect id="Guts14" x="0.173" y="0.122" width="340" height="180" style="fill:none;"/><g id="Guts141" serif:id="Guts14"><path d="M29.896,135.165c0,0 -20.065,3.549 -20.129,5.371c-0.118,3.351 8.71,6.387 19.701,6.774c10.991,0.388 20.011,-2.019 20.129,-5.371c0.064,-1.821 -19.701,-6.774 -19.701,-6.774Z" style="fill:#ffbb34;"/><path d="M315.729,142.435c0,0 -13.299,5.96 -13.095,7.894c0.374,3.558 6.849,5.798 14.45,4.999c7.602,-0.799 13.469,-4.336 13.095,-7.894c-0.203,-1.934 -14.45,-4.999 -14.45,-4.999Z" style="fill:#ff9d2b;"/><path d="M296.096,160.744c0,0 -21.445,3.448 -21.445,4.925c0,2.719 9.609,4.926 21.445,4.926c11.836,0 21.445,-2.207 21.445,-4.926c0,-1.477 -21.445,-4.925 -21.445,-4.925Z" style="fill:#ff8900;"/><path d="M37.087,155.915c0,0 22.558,4.13 22.558,5.9c0,3.256 -10.108,5.899 -22.558,5.899c-12.45,0 -22.558,-2.643 -22.558,-5.899c0,-1.77 22.558,-5.9 22.558,-5.9Z" style="fill:#ff8900;"/><path d="M245.896,154.921c0,0 -19.359,4.457 -19.359,6.367c0,3.514 8.674,6.367 19.359,6.367c10.684,0 19.358,-2.853 19.358,-6.367c0,-1.91 -19.358,-6.367 -19.358,-6.367Z" style="fill:#ffbb34;"/><path d="M92.29,153.242c0,0 24.381,4.41 24.381,6.3c0,3.477 -10.924,6.3 -24.381,6.3c-13.456,0 -24.381,-2.823 -24.381,-6.3c0,-1.89 24.381,-6.3 24.381,-6.3Z" style="fill:#ff9d2b;"/><path d="M129.11,154.903c0,0 23.221,3.718 23.221,5.311c0,2.931 -10.405,5.311 -23.221,5.311c-12.816,0 -23.221,-2.38 -23.221,-5.311c0,-1.593 23.221,-5.311 23.221,-5.311Z" style="fill:#ffbb34;"/><path d="M211.147,153.769c0,0 20.636,3.321 20.683,4.99c0.085,3.071 -9.043,5.821 -20.372,6.138c-11.329,0.316 -20.596,-1.92 -20.682,-4.991c-0.046,-1.669 20.371,-6.137 20.371,-6.137Z" style="fill:#ff8900;"/><path d="M170.334,153.026c0,0 27.212,3.864 27.207,5.478c-0.011,2.97 -12.219,5.338 -27.246,5.284c-15.027,-0.054 -27.218,-2.509 -27.207,-5.479c0.006,-1.614 27.246,-5.283 27.246,-5.283Z" style="fill:#ff9d2b;"/><path d="M67.158,91.793c0,0 -10.656,3.543 -10.833,5.465c-0.325,3.537 4,6.831 9.653,7.352c5.654,0.52 10.508,-1.929 10.833,-5.466c0.177,-1.923 -9.653,-7.351 -9.653,-7.351Z" style="fill:#ff8900;"/><path d="M87.071,118.472c0,0 -13.827,3.838 -14.002,5.959c-0.323,3.901 5.427,7.566 12.833,8.179c7.405,0.612 13.68,-2.058 14.002,-5.959c0.176,-2.121 -12.833,-8.179 -12.833,-8.179Z" style="fill:#ff9d2b;"/><path d="M109.796,99.21c0,0 -12.939,3.988 -13.091,6.086c-0.278,3.861 5.136,7.401 12.082,7.902c6.946,0.501 12.811,-2.226 13.09,-6.086c0.151,-2.099 -12.081,-7.902 -12.081,-7.902Z" style="fill:#ff8900;"/><path d="M269.571,115.887c0,0 -7.947,4.025 -7.81,5.395c0.253,2.521 4.162,4.196 8.725,3.74c4.563,-0.457 8.062,-2.875 7.81,-5.396c-0.138,-1.37 -8.725,-3.739 -8.725,-3.739Z" style="fill:#ff8900;"/><path d="M251.494,94.727c0,0 -8.073,3.873 -7.993,5.341c0.147,2.699 3.967,4.688 8.526,4.44c4.558,-0.249 8.14,-2.642 7.992,-5.341c-0.079,-1.467 -8.525,-4.44 -8.525,-4.44Z" style="fill:#ff9d2b;"/></g></svg>