<?xml version="1.0" encoding="UTF-8" standalone="no"?><!DOCTYPE svg PUBLIC "-//W3C//DTD SVG 1.1//EN" "http://www.w3.org/Graphics/SVG/1.1/DTD/svg11.dtd"><svg width="100%" height="100%" viewBox="0 0 341 181" version="1.1" xmlns="http://www.w3.org/2000/svg" xmlns:xlink="http://www.w3.org/1999/xlink" xml:space="preserve" xmlns:serif="http://www.serif.com/" style="fill-rule:evenodd;clip-rule:evenodd;stroke-linejoin:round;stroke-miterlimit:2;"><rect id="Guts13" x="0.173" y="0.122" width="340" height="180" style="fill:none;"/><g id="Guts131" serif:id="Guts13"><path d="M30.045,131.981c0,0 -17.702,4.778 -17.783,7.09c-0.15,4.254 7.575,7.983 17.239,8.324c9.665,0.34 17.633,-2.836 17.783,-7.09c0.082,-2.312 -17.239,-8.324 -17.239,-8.324Z" style="fill:#ffbb34;"/><path d="M315.365,138.071c0,0 -9.388,6.821 -9.128,9.294c0.478,4.55 5.345,7.773 10.861,7.194c5.516,-0.58 9.606,-4.745 9.128,-9.295c-0.26,-2.473 -10.861,-7.193 -10.861,-7.193Z" style="fill:#ff9d2b;"/><path d="M296.096,160.744c0,0 -21.445,3.448 -21.445,4.925c0,2.719 9.609,4.926 21.445,4.926c11.836,0 21.445,-2.207 21.445,-4.926c0,-1.477 -21.445,-4.925 -21.445,-4.925Z" style="fill:#ff8900;"/><path d="M37.087,155.915c0,0 22.558,4.13 22.558,5.9c0,3.256 -10.108,5.899 -22.558,5.899c-12.45,0 -22.558,-2.643 -22.558,-5.899c0,-1.77 22.558,-5.9 22.558,-5.9Z" style="fill:#ff8900;"/><path d="M245.896,154.921c0,0 -19.359,4.457 -19.359,6.367c0,3.514 8.674,6.367 19.359,6.367c10.684,0 19.358,-2.853 19.358,-6.367c0,-1.91 -19.358,-6.367 -19.358,-6.367Z" style="fill:#ffbb34;"/><path d="M92.29,153.242c0,0 24.381,4.41 24.381,6.3c0,3.477 -10.924,6.3 -24.381,6.3c-13.456,0 -24.381,-2.823 -24.381,-6.3c0,-1.89 24.381,-6.3 24.381,-6.3Z" style="fill:#ff9d2b;"/><path d="M129.11,154.903c0,0 23.221,3.718 23.221,5.311c0,2.931 -10.405,5.311 -23.221,5.311c-12.816,0 -23.221,-2.38 -23.221,-5.311c0,-1.593 23.221,-5.311 23.221,-5.311Z" style="fill:#ffbb34;"/><path d="M211.147,153.769c0,0 20.636,3.321 20.683,4.99c0.085,3.071 -9.043,5.821 -20.372,6.138c-11.329,0.316 -20.596,-1.92 -20.682,-4.991c-0.046,-1.669 20.371,-6.137 20.371,-6.137Z" style="fill:#ff8900;"/><path d="M170.334,153.026c0,0 27.212,3.864 27.207,5.478c-0.011,2.97 -12.219,5.338 -27.246,5.284c-15.027,-0.054 -27.218,-2.509 -27.207,-5.479c0.006,-1.614 27.246,-5.283 27.246,-5.283Z" style="fill:#ff9d2b;"/><path d="M67.258,89.245c0,0 -6.89,5.481 -7.129,8.08c-0.322,3.495 2.254,6.594 5.749,6.915c3.495,0.322 6.594,-2.254 6.915,-5.749c0.24,-2.599 -5.535,-9.246 -5.535,-9.246Z" style="fill:#ff8900;"/><path d="M87.168,115.747c0,0 -10.71,4.924 -10.915,7.397c-0.376,4.55 3.903,8.624 9.551,9.091c5.648,0.467 10.54,-2.847 10.916,-7.397c0.205,-2.474 -9.552,-9.091 -9.552,-9.091Z" style="fill:#ff9d2b;"/><path d="M109.885,96.14c0,0 -8.366,5.41 -8.551,7.974c-0.316,4.38 2.983,8.192 7.363,8.508c4.379,0.316 8.192,-2.983 8.508,-7.363c0.184,-2.564 -7.32,-9.119 -7.32,-9.119Z" style="fill:#ff8900;"/><path d="M269.305,112.822c0,0 -5.775,4.861 -5.593,6.678c0.335,3.343 3.385,5.78 6.807,5.437c3.421,-0.343 5.927,-3.335 5.592,-6.679c-0.182,-1.817 -6.806,-5.436 -6.806,-5.436Z" style="fill:#ff8900;"/><path d="M251.139,92.286c0,0 -6.05,4.576 -5.951,6.39c0.182,3.338 3.144,5.895 6.61,5.706c3.466,-0.189 6.133,-3.052 5.951,-6.39c-0.099,-1.815 -6.61,-5.706 -6.61,-5.706Z" style="fill:#ff9d2b;"/></g></svg>