<?xml version="1.0" encoding="UTF-8" standalone="no"?><!DOCTYPE svg PUBLIC "-//W3C//DTD SVG 1.1//EN" "http://www.w3.org/Graphics/SVG/1.1/DTD/svg11.dtd"><svg width="100%" height="100%" viewBox="0 0 341 181" version="1.1" xmlns="http://www.w3.org/2000/svg" xmlns:xlink="http://www.w3.org/1999/xlink" xml:space="preserve" xmlns:serif="http://www.serif.com/" style="fill-rule:evenodd;clip-rule:evenodd;stroke-linejoin:round;stroke-miterlimit:2;"><rect id="Guts15" x="0.173" y="0.122" width="340" height="180" style="fill:none;"/><g id="Guts151" serif:id="Guts15"><path d="M29.896,135.165c0,0 -20.065,3.549 -20.129,5.371c-0.118,3.351 8.71,6.387 19.701,6.774c10.991,0.388 20.011,-2.019 20.129,-5.371c0.064,-1.821 -19.701,-6.774 -19.701,-6.774Z" style="fill:#ffbb34;"/><path d="M316.103,144.384c0,0 -15.626,5.651 -15.448,7.351c0.329,3.126 7.784,4.908 16.639,3.978c8.854,-0.931 15.776,-4.225 15.447,-7.351c-0.179,-1.699 -16.638,-3.978 -16.638,-3.978Z" style="fill:#ff9d2b;"/><path d="M296.096,160.744c0,0 -21.445,3.448 -21.445,4.925c0,2.719 9.609,4.926 21.445,4.926c11.836,0 21.445,-2.207 21.445,-4.926c0,-1.477 -21.445,-4.925 -21.445,-4.925Z" style="fill:#ff8900;"/><path d="M37.087,155.915c0,0 22.558,4.13 22.558,5.9c0,3.256 -10.108,5.899 -22.558,5.899c-12.45,0 -22.558,-2.643 -22.558,-5.899c0,-1.77 22.558,-5.9 22.558,-5.9Z" style="fill:#ff8900;"/><path d="M245.896,154.921c0,0 -19.359,4.457 -19.359,6.367c0,3.514 8.674,6.367 19.359,6.367c10.684,0 19.358,-2.853 19.358,-6.367c0,-1.91 -19.358,-6.367 -19.358,-6.367Z" style="fill:#ffbb34;"/><path d="M92.29,153.242c0,0 24.381,4.41 24.381,6.3c0,3.477 -10.924,6.3 -24.381,6.3c-13.456,0 -24.381,-2.823 -24.381,-6.3c0,-1.89 24.381,-6.3 24.381,-6.3Z" style="fill:#ff9d2b;"/><path d="M129.11,154.903c0,0 23.221,3.718 23.221,5.311c0,2.931 -10.405,5.311 -23.221,5.311c-12.816,0 -23.221,-2.38 -23.221,-5.311c0,-1.593 23.221,-5.311 23.221,-5.311Z" style="fill:#ffbb34;"/><path d="M211.147,153.769c0,0 20.636,3.321 20.683,4.99c0.085,3.071 -9.043,5.821 -20.372,6.138c-11.329,0.316 -20.596,-1.92 -20.682,-4.991c-0.046,-1.669 20.371,-6.137 20.371,-6.137Z" style="fill:#ff8900;"/><path d="M170.334,153.026c0,0 27.212,3.864 27.207,5.478c-0.011,2.97 -12.219,5.338 -27.246,5.284c-15.027,-0.054 -27.218,-2.509 -27.207,-5.479c0.006,-1.614 27.246,-5.283 27.246,-5.283Z" style="fill:#ff9d2b;"/><path d="M66.927,93.67c0,0 -12.771,2.692 -12.923,4.336c-0.278,3.024 5.06,5.991 11.914,6.622c6.854,0.631 12.644,-1.312 12.923,-4.336c0.151,-1.644 -11.914,-6.622 -11.914,-6.622Z" style="fill:#ff8900;"/><path d="M87.139,120.433c0,0 -15.445,3.042 -15.597,4.88c-0.28,3.383 6.255,6.688 14.583,7.377c8.329,0.689 15.318,-1.498 15.598,-4.88c0.152,-1.839 -14.584,-7.377 -14.584,-7.377Z" style="fill:#ff9d2b;"/><path d="M109.8,101.321c0,0 -14.865,3.185 -14.995,5c-0.241,3.339 6.087,6.52 14.123,7.1c8.035,0.579 14.755,-1.661 14.995,-5c0.131,-1.815 -14.123,-7.1 -14.123,-7.1Z" style="fill:#ff8900;"/><path d="M269.936,117.491c0,0 -10.186,3.734 -10.071,4.886c0.212,2.118 5.069,3.369 10.84,2.791c5.77,-0.578 10.282,-2.767 10.07,-4.886c-0.115,-1.151 -10.839,-2.791 -10.839,-2.791Z" style="fill:#ff8900;"/><path d="M251.777,97.375c0,0 -9.876,3.137 -9.815,4.247c0.111,2.042 4.69,3.456 10.219,3.155c5.529,-0.302 9.927,-2.204 9.816,-4.247c-0.061,-1.11 -10.22,-3.155 -10.22,-3.155Z" style="fill:#ff9d2b;"/></g></svg>