<?xml version="1.0" encoding="UTF-8" standalone="no"?><!DOCTYPE svg PUBLIC "-//W3C//DTD SVG 1.1//EN" "http://www.w3.org/Graphics/SVG/1.1/DTD/svg11.dtd"><svg width="100%" height="100%" viewBox="0 0 341 181" version="1.1" xmlns="http://www.w3.org/2000/svg" xmlns:xlink="http://www.w3.org/1999/xlink" xml:space="preserve" xmlns:serif="http://www.serif.com/" style="fill-rule:evenodd;clip-rule:evenodd;stroke-linejoin:round;stroke-miterlimit:2;"><rect id="Guts12" x="0.173" y="0.122" width="340" height="180" style="fill:none;"/><g id="Guts121" serif:id="Guts12"><path d="M30.158,124.254c0,0 -5.858,11.269 -6.031,16.181c-0.106,3.01 2.252,5.54 5.261,5.646c3.01,0.106 5.54,-2.251 5.646,-5.261c0.173,-4.912 -4.876,-16.566 -4.876,-16.566Z" style="fill:#ffbb34;"/><path d="M314.093,130.611c0,0 -4.228,11.977 -3.715,16.865c0.315,2.995 3.003,5.171 5.998,4.857c2.995,-0.315 5.171,-3.003 4.857,-5.998c-0.514,-4.888 -7.14,-15.724 -7.14,-15.724Z" style="fill:#ff9d2b;"/><path d="M294.357,158.657c0,0 -17.62,3.448 -17.62,4.926c0,2.718 7.896,4.925 17.62,4.925c9.725,0 17.621,-2.207 17.621,-4.925c0,-1.478 -17.621,-4.926 -17.621,-4.926Z" style="fill:#ff8900;"/><path d="M36.739,152.438c0,0 14.213,4.616 14.213,6.595c0,3.64 -6.369,6.595 -14.213,6.595c-7.844,0 -14.212,-2.955 -14.212,-6.595c0,-1.979 14.212,-6.595 14.212,-6.595Z" style="fill:#ff8900;"/><path d="M245.896,154.921c0,0 -19.359,4.457 -19.359,6.367c0,3.514 8.674,6.367 19.359,6.367c10.684,0 19.358,-2.853 19.358,-6.367c0,-1.91 -19.358,-6.367 -19.358,-6.367Z" style="fill:#ffbb34;"/><path d="M92.29,153.242c0,0 24.381,4.41 24.381,6.3c0,3.477 -10.924,6.3 -24.381,6.3c-13.456,0 -24.381,-2.823 -24.381,-6.3c0,-1.89 24.381,-6.3 24.381,-6.3Z" style="fill:#ff9d2b;"/><path d="M129.11,154.903c0,0 23.221,3.718 23.221,5.311c0,2.931 -10.405,5.311 -23.221,5.311c-12.816,0 -23.221,-2.38 -23.221,-5.311c0,-1.593 23.221,-5.311 23.221,-5.311Z" style="fill:#ffbb34;"/><path d="M211.147,153.769c0,0 20.636,3.321 20.683,4.99c0.085,3.071 -9.043,5.821 -20.372,6.138c-11.329,0.316 -20.596,-1.92 -20.682,-4.991c-0.046,-1.669 20.371,-6.137 20.371,-6.137Z" style="fill:#ff8900;"/><path d="M170.334,153.026c0,0 27.212,3.864 27.207,5.478c-0.011,2.97 -12.219,5.338 -27.246,5.284c-15.027,-0.054 -27.218,-2.509 -27.207,-5.479c0.006,-1.614 27.246,-5.283 27.246,-5.283Z" style="fill:#ff9d2b;"/><path d="M68.067,84.195c0,0 -5.202,8.759 -5.564,12.685c-0.221,2.406 1.552,4.539 3.958,4.76c2.405,0.222 4.538,-1.552 4.76,-3.957c0.361,-3.926 -3.154,-13.488 -3.154,-13.488Z" style="fill:#ff8900;"/><path d="M87.904,109.002c0,0 -5.121,8.807 -5.446,12.736c-0.199,2.408 1.594,4.524 4.002,4.723c2.407,0.2 4.524,-1.593 4.723,-4.001c0.325,-3.929 -3.279,-13.458 -3.279,-13.458Z" style="fill:#ff9d2b;"/><path d="M110.001,89.663c0,0 -5.667,9.989 -5.987,14.422c-0.196,2.717 1.85,5.081 4.567,5.277c2.716,0.196 5.081,-1.85 5.277,-4.567c0.319,-4.433 -3.857,-15.132 -3.857,-15.132Z" style="fill:#ff8900;"/><path d="M268.298,104.604c0,0 -2.991,8.341 -2.649,11.753c0.209,2.091 2.077,3.618 4.168,3.409c2.09,-0.209 3.618,-2.077 3.408,-4.168c-0.341,-3.412 -4.927,-10.994 -4.927,-10.994Z" style="fill:#ff8900;"/><path d="M250.769,86.453c0,0 -3.366,8.197 -3.179,11.621c0.114,2.098 1.91,3.709 4.008,3.595c2.098,-0.115 3.709,-1.911 3.595,-4.009c-0.187,-3.424 -4.424,-11.207 -4.424,-11.207Z" style="fill:#ff9d2b;"/></g></svg>