<?xml version="1.0" encoding="UTF-8" standalone="no"?><!DOCTYPE svg PUBLIC "-//W3C//DTD SVG 1.1//EN" "http://www.w3.org/Graphics/SVG/1.1/DTD/svg11.dtd"><svg width="100%" height="100%" viewBox="0 0 341 181" version="1.1" xmlns="http://www.w3.org/2000/svg" xmlns:xlink="http://www.w3.org/1999/xlink" xml:space="preserve" xmlns:serif="http://www.serif.com/" style="fill-rule:evenodd;clip-rule:evenodd;stroke-linejoin:round;stroke-miterlimit:2;"><rect id="Guts5" x="0.173" y="0.122" width="340" height="180" style="fill:none;"/><g id="Guts51" serif:id="Guts5"><path d="M123.473,54.451c0,0 -8.868,-9.092 -13.479,-10.794c-2.825,-1.043 -5.966,0.403 -7.009,3.229c-1.044,2.825 0.403,5.966 3.229,7.009c4.611,1.703 17.259,0.556 17.259,0.556Z" style="fill:#ffbb34;"/><path d="M212.752,53.145c0,0 12.699,-0.225 17.099,-2.415c2.697,-1.342 3.796,-4.62 2.454,-7.317c-1.342,-2.696 -4.621,-3.795 -7.317,-2.453c-4.4,2.19 -12.236,12.185 -12.236,12.185Z" style="fill:#ff9d2b;"/><path d="M230.01,85.373c0,0 9.801,11.074 15.067,13.314c3.227,1.373 6.961,-0.133 8.334,-3.359c1.372,-3.227 -0.133,-6.962 -3.36,-8.334c-5.266,-2.241 -20.041,-1.621 -20.041,-1.621Z" style="fill:#ff8900;"/><path d="M105.84,82.209c0,0 -9.111,11.648 -14.232,14.203c-3.138,1.566 -6.956,0.29 -8.522,-2.848c-1.566,-3.138 -0.29,-6.956 2.848,-8.522c5.121,-2.556 19.906,-2.833 19.906,-2.833Z" style="fill:#ff8900;"/><path d="M220.619,115.869c0,0 2.043,17.748 5.708,23.611c2.246,3.593 6.986,4.686 10.578,2.44c3.593,-2.246 4.686,-6.986 2.44,-10.578c-3.665,-5.863 -18.726,-15.473 -18.726,-15.473Z" style="fill:#ffbb34;"/><path d="M111.841,114.929c0,0 -2.428,17.701 -6.22,23.482c-2.324,3.543 -7.086,4.533 -10.629,2.209c-3.543,-2.323 -4.532,-7.086 -2.209,-10.628c3.792,-5.782 19.058,-15.063 19.058,-15.063Z" style="fill:#ff9d2b;"/><path d="M137.263,124.967c0,0 2.375,15.196 0.679,20.902c-1.04,3.495 -4.722,5.49 -8.218,4.45c-3.496,-1.04 -5.49,-4.722 -4.451,-8.218c1.697,-5.705 11.99,-17.134 11.99,-17.134Z" style="fill:#ffbb34;"/><path d="M200.207,126.082c0,0 10.784,10.966 12.73,16.591c1.192,3.447 -0.639,7.213 -4.086,8.405c-3.447,1.192 -7.213,-0.638 -8.405,-4.085c-1.945,-5.626 -0.239,-20.911 -0.239,-20.911Z" style="fill:#ff8900;"/><path d="M168.912,137.001c0,0 12.046,8.86 12.033,12.639c-0.024,6.666 -5.455,12.059 -12.121,12.035c-6.667,-0.024 -12.059,-5.455 -12.035,-12.121c0.013,-3.779 12.123,-12.553 12.123,-12.553Z" style="fill:#ff9d2b;"/><path d="M143.435,50.687c0,0 -3.11,-9.701 -5.811,-12.574c-1.654,-1.76 -4.426,-1.846 -6.187,-0.191c-1.76,1.654 -1.846,4.426 -0.191,6.187c2.7,2.873 12.189,6.578 12.189,6.578Z" style="fill:#ff8900;"/><path d="M149.965,44.09c0,0 -3.924,-9.402 -6.859,-12.035c-1.798,-1.613 -4.567,-1.463 -6.181,0.335c-1.613,1.798 -1.463,4.568 0.335,6.181c2.935,2.633 12.705,5.519 12.705,5.519Z" style="fill:#ff9d2b;"/><path d="M167.007,39.635c0,0 1.233,-11.419 -0.234,-15.614c-0.899,-2.571 -3.716,-3.928 -6.287,-3.029c-2.571,0.9 -3.928,3.717 -3.029,6.287c1.468,4.196 9.55,12.356 9.55,12.356Z" style="fill:#ff8900;"/><path d="M193.803,50.916c0,0 8.612,-2.085 11.275,-4.245c1.632,-1.324 1.882,-3.724 0.558,-5.356c-1.324,-1.631 -3.724,-1.881 -5.355,-0.557c-2.663,2.16 -6.478,10.158 -6.478,10.158Z" style="fill:#ff8900;"/><path d="M183.529,43.339c0,0 6.513,-6.009 7.79,-9.191c0.782,-1.95 -0.166,-4.169 -2.116,-4.951c-1.95,-0.783 -4.169,0.165 -4.951,2.116c-1.277,3.182 -0.723,12.026 -0.723,12.026Z" style="fill:#ff9d2b;"/></g></svg>