<?xml version="1.0" encoding="UTF-8" standalone="no"?><!DOCTYPE svg PUBLIC "-//W3C//DTD SVG 1.1//EN" "http://www.w3.org/Graphics/SVG/1.1/DTD/svg11.dtd"><svg width="100%" height="100%" viewBox="0 0 341 181" version="1.1" xmlns="http://www.w3.org/2000/svg" xmlns:xlink="http://www.w3.org/1999/xlink" xml:space="preserve" xmlns:serif="http://www.serif.com/" style="fill-rule:evenodd;clip-rule:evenodd;stroke-linejoin:round;stroke-miterlimit:2;"><rect id="Guts7" x="0.173" y="0.122" width="340" height="180" style="fill:none;"/><g id="Guts71" serif:id="Guts7"><path d="M89.824,45.794c0,0 -12.122,-3.79 -16.989,-3.098c-2.981,0.423 -5.058,3.188 -4.635,6.17c0.424,2.982 3.189,5.059 6.17,4.635c4.867,-0.691 15.454,-7.707 15.454,-7.707Z" style="fill:#ffbb34;"/><path d="M246.463,46.055c0,0 9.701,8.197 14.455,9.449c2.912,0.767 5.899,-0.975 6.666,-3.887c0.767,-2.913 -0.975,-5.9 -3.887,-6.667c-4.753,-1.252 -17.234,1.105 -17.234,1.105Z" style="fill:#ff9d2b;"/><path d="M264.758,101.699c0,0 3.623,14.337 7.273,18.745c2.236,2.701 6.245,3.078 8.946,0.842c2.701,-2.237 3.078,-6.245 0.841,-8.946c-3.65,-4.408 -17.06,-10.641 -17.06,-10.641Z" style="fill:#ff8900;"/><path d="M70.456,100.982c0,0 -4.685,14.026 -8.654,18.149c-2.432,2.526 -6.458,2.602 -8.984,0.17c-2.526,-2.432 -2.602,-6.457 -0.17,-8.984c3.969,-4.122 17.808,-9.335 17.808,-9.335Z" style="fill:#ff8900;"/><path d="M242.003,142.793c0,0 -8.316,10.673 -7.563,14.367c1.133,5.56 6.567,9.154 12.126,8.021c5.56,-1.134 9.154,-6.567 8.021,-12.127c-0.753,-3.694 -12.584,-10.261 -12.584,-10.261Z" style="fill:#ffbb34;"/><path d="M93.047,140.066c0,0 7.758,10.696 7.069,14.566c-0.92,5.169 -5.863,8.618 -11.032,7.698c-5.169,-0.92 -8.619,-5.863 -7.699,-11.032c0.689,-3.87 11.662,-11.232 11.662,-11.232Z" style="fill:#ff9d2b;"/><path d="M130.154,148.596c0,0 11.078,6.166 10.894,8.405c-0.337,4.119 -5.766,7.041 -12.116,6.521c-6.349,-0.52 -11.231,-4.286 -10.894,-8.405c0.183,-2.238 12.116,-6.521 12.116,-6.521Z" style="fill:#ffbb34;"/><path d="M209.442,149.358c0,0 12.471,3.683 12.717,5.84c0.451,3.97 -4.515,7.799 -11.082,8.545c-6.567,0.747 -12.265,-1.87 -12.716,-5.84c-0.245,-2.157 11.081,-8.545 11.081,-8.545Z" style="fill:#ff8900;"/><path d="M170.334,153.026c0,0 27.212,3.864 27.207,5.478c-0.011,2.97 -12.219,5.338 -27.246,5.284c-15.027,-0.054 -27.218,-2.509 -27.207,-5.479c0.006,-1.614 27.246,-5.283 27.246,-5.283Z" style="fill:#ff9d2b;"/><path d="M121.05,30.744c0,0 -7.506,-6.887 -11.275,-8.046c-2.309,-0.71 -4.76,0.588 -5.47,2.897c-0.71,2.309 0.588,4.76 2.897,5.47c3.769,1.159 13.848,-0.321 13.848,-0.321Z" style="fill:#ff8900;"/><path d="M126.802,27.946c0,0 -10.067,-1.564 -13.845,-0.437c-2.315,0.691 -3.633,3.131 -2.942,5.446c0.69,2.315 3.131,3.634 5.446,2.943c3.778,-1.127 11.341,-7.952 11.341,-7.952Z" style="fill:#ff9d2b;"/><path d="M152.999,9.717c0,0 -10.755,-4.029 -15.184,-3.648c-2.713,0.233 -4.727,2.626 -4.494,5.339c0.234,2.714 2.626,4.727 5.34,4.494c4.428,-0.381 14.338,-6.185 14.338,-6.185Z" style="fill:#ff8900;"/><path d="M218.421,37.557c0,0 7.02,5.406 10.373,6.128c2.054,0.443 4.081,-0.866 4.523,-2.92c0.442,-2.054 -0.866,-4.081 -2.92,-4.523c-3.353,-0.722 -11.976,1.315 -11.976,1.315Z" style="fill:#ff8900;"/><path d="M199.612,24.775c0,0 7.957,3.898 11.386,3.937c2.102,0.024 3.827,-1.662 3.851,-3.763c0.024,-2.101 -1.663,-3.826 -3.764,-3.85c-3.429,-0.039 -11.473,3.676 -11.473,3.676Z" style="fill:#ff9d2b;"/></g></svg>