<?xml version="1.0" encoding="UTF-8" standalone="no"?><!DOCTYPE svg PUBLIC "-//W3C//DTD SVG 1.1//EN" "http://www.w3.org/Graphics/SVG/1.1/DTD/svg11.dtd"><svg width="100%" height="100%" viewBox="0 0 341 181" version="1.1" xmlns="http://www.w3.org/2000/svg" xmlns:xlink="http://www.w3.org/1999/xlink" xml:space="preserve" xmlns:serif="http://www.serif.com/" style="fill-rule:evenodd;clip-rule:evenodd;stroke-linejoin:round;stroke-miterlimit:2;"><rect id="Guts1" x="0.173" y="0.122" width="340" height="180" style="fill:none;"/><g id="Guts11" serif:id="Guts1"><path d="M147.444,83.646c0,0 -1.295,-12.635 -3.848,-16.835c-1.564,-2.574 -4.924,-3.393 -7.498,-1.828c-2.573,1.564 -3.392,4.924 -1.828,7.497c2.553,4.2 13.174,11.166 13.174,11.166Z" style="fill:#ffbb34;"/><path d="M186.69,85.5c0,0 10.461,-7.204 12.918,-11.461c1.506,-2.608 0.611,-5.948 -1.997,-7.454c-2.608,-1.506 -5.949,-0.611 -7.454,1.997c-2.458,4.257 -3.467,16.918 -3.467,16.918Z" style="fill:#ff9d2b;"/><path d="M185.837,91.467c0,0 14.78,0.486 20.026,-1.802c3.214,-1.401 4.686,-5.149 3.284,-8.363c-1.402,-3.215 -5.149,-4.686 -8.364,-3.284c-5.245,2.287 -14.946,13.449 -14.946,13.449Z" style="fill:#ff8900;"/><path d="M151.295,90.799c0,0 -14.779,0.486 -20.025,-1.801c-3.214,-1.402 -4.686,-5.15 -3.284,-8.364c1.401,-3.214 5.149,-4.686 8.363,-3.284c5.246,2.288 14.946,13.449 14.946,13.449Z" style="fill:#ff8900;"/><path d="M183.303,93.156c0,0 11.133,13.973 17.347,17.004c3.808,1.858 8.407,0.275 10.265,-3.533c1.858,-3.807 0.275,-8.407 -3.533,-10.264c-6.214,-3.032 -24.079,-3.207 -24.079,-3.207Z" style="fill:#ffbb34;"/><path d="M152.05,92.488c0,0 -11.134,13.973 -17.348,17.005c-3.808,1.857 -8.407,0.274 -10.265,-3.533c-1.857,-3.808 -0.274,-8.407 3.533,-10.265c6.214,-3.032 24.08,-3.207 24.08,-3.207Z" style="fill:#ff9d2b;"/><path d="M157.829,92.589c0,0 -1.88,15.265 -5.075,20.287c-1.958,3.077 -6.046,3.986 -9.123,2.028c-3.077,-1.957 -3.986,-6.045 -2.028,-9.122c3.195,-5.022 16.226,-13.193 16.226,-13.193Z" style="fill:#ffbb34;"/><path d="M177.945,92.739c0,0 12.667,8.724 15.643,13.878c1.824,3.159 0.74,7.204 -2.418,9.027c-3.159,1.824 -7.204,0.74 -9.027,-2.418c-2.976,-5.155 -4.198,-20.487 -4.198,-20.487Z" style="fill:#ff8900;"/><path d="M168.7,92.979c0,0 8.898,15.072 8.875,21.517c-0.018,4.941 -4.044,8.938 -8.984,8.921c-4.941,-0.018 -8.938,-4.044 -8.92,-8.985c0.023,-6.445 9.029,-21.453 9.029,-21.453Z" style="fill:#ff9d2b;"/><path d="M155.815,81.824c0,0 1.676,-10.049 0.592,-13.839c-0.665,-2.322 -3.09,-3.668 -5.413,-3.004c-2.323,0.665 -3.669,3.09 -3.004,5.413c1.085,3.79 7.825,11.43 7.825,11.43Z" style="fill:#ff8900;"/><path d="M160.711,73.367c0,0 1.676,-10.048 0.592,-13.839c-0.665,-2.322 -3.09,-3.668 -5.413,-3.004c-2.322,0.665 -3.668,3.091 -3.004,5.413c1.085,3.79 7.825,11.43 7.825,11.43Z" style="fill:#ff9d2b;"/><path d="M168.805,79.251c0,0 3.862,-10.816 3.413,-15.238c-0.275,-2.71 -2.698,-4.686 -5.408,-4.411c-2.71,0.275 -4.686,2.699 -4.411,5.408c0.449,4.422 6.406,14.241 6.406,14.241Z" style="fill:#ff8900;"/><path d="M180.055,80.095c0,0 5.438,-6.996 6.175,-10.345c0.452,-2.052 -0.847,-4.085 -2.9,-4.536c-2.052,-0.452 -4.084,0.847 -4.536,2.9c-0.737,3.349 1.261,11.981 1.261,11.981Z" style="fill:#ff8900;"/><path d="M174.269,73.196c0,0 5.438,-6.996 6.175,-10.345c0.452,-2.052 -0.848,-4.085 -2.9,-4.536c-2.052,-0.452 -4.085,0.847 -4.536,2.9c-0.738,3.349 1.261,11.981 1.261,11.981Z" style="fill:#ff9d2b;"/></g></svg>