<?xml version="1.0" encoding="UTF-8" standalone="no"?><!DOCTYPE svg PUBLIC "-//W3C//DTD SVG 1.1//EN" "http://www.w3.org/Graphics/SVG/1.1/DTD/svg11.dtd"><svg width="100%" height="100%" viewBox="0 0 341 181" version="1.1" xmlns="http://www.w3.org/2000/svg" xmlns:xlink="http://www.w3.org/1999/xlink" xml:space="preserve" xmlns:serif="http://www.serif.com/" style="fill-rule:evenodd;clip-rule:evenodd;stroke-linejoin:round;stroke-miterlimit:2;"><rect id="Guts10" x="0.173" y="0.122" width="340" height="180" style="fill:none;"/><g id="Guts101" serif:id="Guts10"><path d="M39.602,79.686c0,0 -7.962,9.895 -9.099,14.677c-0.697,2.93 1.116,5.874 4.046,6.571c2.93,0.697 5.875,-1.116 6.571,-4.046c1.137,-4.782 -1.518,-17.202 -1.518,-17.202Z" style="fill:#ffbb34;"/><path d="M297.237,85.592c0,0 -0.328,12.697 1.669,17.188c1.223,2.752 4.451,3.993 7.203,2.77c2.752,-1.223 3.993,-4.451 2.77,-7.203c-1.997,-4.492 -11.642,-12.755 -11.642,-12.755Z" style="fill:#ff9d2b;"/><path d="M294.357,146.486c0,0 -9.97,7.707 -9.97,11.009c0,5.503 4.468,9.97 9.97,9.97c5.503,0 9.97,-4.467 9.97,-9.97c0,-3.302 -9.97,-11.009 -9.97,-11.009Z" style="fill:#ff8900;"/><path d="M36.391,147.917c0,0 8.301,5.59 8.301,7.986c0,4.408 -3.719,7.986 -8.301,7.986c-4.581,0 -8.3,-3.578 -8.3,-7.986c0,-2.396 8.3,-7.986 8.3,-7.986Z" style="fill:#ff8900;"/><path d="M245.896,154.921c0,0 -19.359,4.457 -19.359,6.367c0,3.514 8.674,6.367 19.359,6.367c10.684,0 19.358,-2.853 19.358,-6.367c0,-1.91 -19.358,-6.367 -19.358,-6.367Z" style="fill:#ffbb34;"/><path d="M92.29,153.242c0,0 24.381,4.41 24.381,6.3c0,3.477 -10.924,6.3 -24.381,6.3c-13.456,0 -24.381,-2.823 -24.381,-6.3c0,-1.89 24.381,-6.3 24.381,-6.3Z" style="fill:#ff9d2b;"/><path d="M129.11,154.903c0,0 23.221,3.718 23.221,5.311c0,2.931 -10.405,5.311 -23.221,5.311c-12.816,0 -23.221,-2.38 -23.221,-5.311c0,-1.593 23.221,-5.311 23.221,-5.311Z" style="fill:#ffbb34;"/><path d="M211.147,153.769c0,0 20.636,3.321 20.683,4.99c0.085,3.071 -9.043,5.821 -20.372,6.138c-11.329,0.316 -20.596,-1.92 -20.682,-4.991c-0.046,-1.669 20.371,-6.137 20.371,-6.137Z" style="fill:#ff8900;"/><path d="M170.334,153.026c0,0 27.212,3.864 27.207,5.478c-0.011,2.97 -12.219,5.338 -27.246,5.284c-15.027,-0.054 -27.218,-2.509 -27.207,-5.479c0.006,-1.614 27.246,-5.283 27.246,-5.283Z" style="fill:#ff9d2b;"/><path d="M74.983,45.748c0,0 -6.181,8.098 -6.995,11.956c-0.498,2.364 1.016,4.688 3.38,5.186c2.364,0.499 4.687,-1.016 5.186,-3.38c0.813,-3.857 -1.571,-13.762 -1.571,-13.762Z" style="fill:#ff8900;"/><path d="M93.77,69.23c0,0 -6.425,7.907 -7.355,11.738c-0.571,2.347 0.872,4.716 3.22,5.286c2.347,0.571 4.716,-0.872 5.286,-3.22c0.931,-3.831 -1.151,-13.804 -1.151,-13.804Z" style="fill:#ff9d2b;"/><path d="M112.088,44.805c0,0 -5.668,9.99 -5.988,14.423c-0.196,2.716 1.851,5.081 4.567,5.277c2.717,0.195 5.081,-1.851 5.277,-4.567c0.32,-4.433 -3.856,-15.133 -3.856,-15.133Z" style="fill:#ff8900;"/><path d="M257.941,68.797c0,0 -1.065,8.797 0.025,12.048c0.668,1.992 2.828,3.067 4.82,2.399c1.993,-0.668 3.068,-2.828 2.4,-4.82c-1.091,-3.251 -7.245,-9.627 -7.245,-9.627Z" style="fill:#ff8900;"/><path d="M241.659,50.261c0,0 -1.308,8.764 -0.308,12.044c0.613,2.01 2.742,3.145 4.752,2.532c2.01,-0.613 3.145,-2.742 2.532,-4.752c-1,-3.28 -6.976,-9.824 -6.976,-9.824Z" style="fill:#ff9d2b;"/></g></svg>