<?xml version="1.0" encoding="UTF-8" standalone="no"?><!DOCTYPE svg PUBLIC "-//W3C//DTD SVG 1.1//EN" "http://www.w3.org/Graphics/SVG/1.1/DTD/svg11.dtd"><svg width="100%" height="100%" viewBox="0 0 341 181" version="1.1" xmlns="http://www.w3.org/2000/svg" xmlns:xlink="http://www.w3.org/1999/xlink" xml:space="preserve" xmlns:serif="http://www.serif.com/" style="fill-rule:evenodd;clip-rule:evenodd;stroke-linejoin:round;stroke-miterlimit:2;"><rect id="Guts4" x="0.173" y="0.122" width="340" height="180" style="fill:none;"/><g id="Guts41" serif:id="Guts4"><path d="M136.649,65.712c0,0 -6.68,-10.802 -10.81,-13.466c-2.531,-1.633 -5.911,-0.904 -7.544,1.627c-1.632,2.531 -0.903,5.911 1.628,7.544c4.13,2.664 16.726,4.295 16.726,4.295Z" style="fill:#ffbb34;"/><path d="M201.561,63.078c0,0 12.446,-2.533 16.374,-5.488c2.407,-1.81 2.891,-5.234 1.081,-7.641c-1.811,-2.407 -5.235,-2.891 -7.642,-1.08c-3.928,2.954 -9.813,14.209 -9.813,14.209Z" style="fill:#ff9d2b;"/><path d="M213,81.35c0,0 11.139,9.726 16.649,11.273c3.376,0.948 6.887,-1.024 7.835,-4.4c0.947,-3.376 -1.024,-6.887 -4.4,-7.835c-5.51,-1.546 -20.084,0.962 -20.084,0.962Z" style="fill:#ff8900;"/><path d="M124.567,79.99c0,0 -11.307,9.531 -16.843,10.981c-3.393,0.889 -6.868,-1.143 -7.757,-4.535c-0.889,-3.393 1.144,-6.868 4.536,-7.757c5.536,-1.45 20.064,1.311 20.064,1.311Z" style="fill:#ff8900;"/><path d="M209.046,105.678c0,0 3.914,17.432 8.18,22.873c2.614,3.334 7.443,3.919 10.777,1.305c3.334,-2.614 3.919,-7.444 1.305,-10.778c-4.267,-5.441 -20.262,-13.4 -20.262,-13.4Z" style="fill:#ffbb34;"/><path d="M122.072,105.827c0,0 -4.97,17.161 -9.56,22.332c-2.813,3.168 -7.668,3.457 -10.837,0.644c-3.168,-2.813 -3.457,-7.668 -0.644,-10.837c4.59,-5.17 21.041,-12.139 21.041,-12.139Z" style="fill:#ff9d2b;"/><path d="M143.381,114.585c0,0 0.597,15.369 -1.75,20.839c-1.438,3.352 -5.327,4.905 -8.678,3.467c-3.352,-1.438 -4.906,-5.326 -3.468,-8.678c2.347,-5.47 13.896,-15.628 13.896,-15.628Z" style="fill:#ffbb34;"/><path d="M192.118,115.423c0,0 12.156,9.423 14.837,14.737c1.643,3.256 0.333,7.234 -2.923,8.877c-3.256,1.643 -7.234,0.333 -8.876,-2.923c-2.682,-5.314 -3.038,-20.691 -3.038,-20.691Z" style="fill:#ff8900;"/><path d="M168.922,121.656c0,0 8.899,15.072 8.875,21.518c-0.017,4.941 -4.043,8.938 -8.984,8.92c-4.941,-0.017 -8.938,-4.043 -8.92,-8.984c0.023,-6.446 9.029,-21.454 9.029,-21.454Z" style="fill:#ff9d2b;"/><path d="M149.467,61.942c0,0 -1.224,-10.114 -3.333,-13.445c-1.292,-2.041 -3.999,-2.648 -6.04,-1.356c-2.041,1.293 -2.648,3.999 -1.356,6.04c2.109,3.331 10.729,8.761 10.729,8.761Z" style="fill:#ff8900;"/><path d="M156.203,53.53c0,0 -1.926,-10.004 -4.262,-13.18c-1.432,-1.946 -4.174,-2.363 -6.12,-0.932c-1.946,1.432 -2.363,4.174 -0.932,6.12c2.336,3.176 11.314,7.992 11.314,7.992Z" style="fill:#ff9d2b;"/><path d="M166.747,51.488c0,0 3.861,-10.816 3.412,-15.238c-0.275,-2.71 -2.698,-4.686 -5.408,-4.411c-2.709,0.275 -4.686,2.698 -4.41,5.408c0.449,4.422 6.406,14.241 6.406,14.241Z" style="fill:#ff8900;"/><path d="M185.945,60.905c0,0 8.181,-3.403 10.474,-5.953c1.406,-1.562 1.278,-3.971 -0.284,-5.377c-1.563,-1.405 -3.972,-1.277 -5.377,0.285c-2.293,2.55 -4.813,11.045 -4.813,11.045Z" style="fill:#ff8900;"/><path d="M179.523,52.909c0,0 6.513,-6.009 7.79,-9.192c0.782,-1.95 -0.166,-4.168 -2.116,-4.951c-1.95,-0.782 -4.168,0.166 -4.951,2.116c-1.277,3.183 -0.723,12.027 -0.723,12.027Z" style="fill:#ff9d2b;"/></g></svg>