<?xml version="1.0" encoding="UTF-8" standalone="no"?><!DOCTYPE svg PUBLIC "-//W3C//DTD SVG 1.1//EN" "http://www.w3.org/Graphics/SVG/1.1/DTD/svg11.dtd"><svg width="100%" height="100%" viewBox="0 0 100 100" version="1.1" xmlns="http://www.w3.org/2000/svg" xmlns:xlink="http://www.w3.org/1999/xlink" xml:space="preserve" xmlns:serif="http://www.serif.com/" style="fill-rule:evenodd;clip-rule:evenodd;stroke-linecap:round;stroke-linejoin:round;stroke-miterlimit:1.5;"><rect id="Jack" x="0" y="0" width="100" height="100" style="fill:none;"/><ellipse id="Head" cx="50" cy="50" rx="45" ry="42.07" style="fill:none;stroke:#000;stroke-width:2px;"/><ellipse cx="50" cy="50" rx="45" ry="42.07" style="fill:#fff;"/><clipPath id="_clip1"><ellipse cx="50" cy="50" rx="45" ry="42.07"/></clipPath><g clip-path="url(#_clip1)"><g id="Mouth"><path d="M26.299,69.511c0,0 0.497,2.734 -1.179,3.231" style="fill:none;stroke:#000;stroke-width:1px;"/><path d="M81.977,70.478c0,0 -0.081,-1.437 -0.83,-1.933" style="fill:none;stroke:#000;stroke-width:1px;"/><path d="M75.317,78.123c0,0 0.952,-1.56 -0.236,-2.858" style="fill:none;stroke:#000;stroke-width:1px;"/><path d="M16.626,63.429c4.873,8.116 10.853,13.789 19.203,14.232l25.719,1.028c8.836,0.435 15.5,-3.035 19.547,-10.973" style="fill:none;stroke:#000;stroke-width:2px;"/><path d="M18.837,67.369c0.015,-0.031 -1.271,-0.366 -1.79,2.732" style="fill:none;stroke:#000;stroke-width:1px;"/><path d="M25.055,72.81c0,0 -2.414,1.567 -1.964,4.486" style="fill:none;stroke:#000;stroke-width:1px;"/><path d="M33.478,77.296c0,0 -1.629,0.991 -0.699,3.561" style="fill:none;stroke:#000;stroke-width:1px;"/><path d="M43.471,77.96c0,0 -1.497,1.392 -0.524,4.136" style="fill:none;stroke:#000;stroke-width:1px;"/><path d="M55.123,78.726c0,0 -2.065,1.455 -1.615,4.374" style="fill:none;stroke:#000;stroke-width:1px;"/><path d="M65.96,82.096c0,0 1.004,-2.092 0.044,-3.37" style="fill:none;stroke:#000;stroke-width:1px;"/><path d="M20.899,64.053c0,0 -1.394,3.851 -2.062,3.291" style="fill:none;stroke:#000;stroke-width:1px;"/><path d="M33.51,73.843c0,0 1.055,1.862 -0.124,3.352" style="fill:none;stroke:#000;stroke-width:1px;"/><path d="M43.441,74.464c0,0 1.117,1.981 -0.249,3.659" style="fill:none;stroke:#000;stroke-width:1px;"/><path d="M55.543,75.519c0,0 1.118,2.172 -0.372,3.103" style="fill:none;stroke:#000;stroke-width:1px;"/><path d="M66.777,75.519c0,0 -1.738,1.365 -0.372,3.103" style="fill:none;stroke:#000;stroke-width:1px;"/><path d="M74.473,72.368c0,0 -0.745,2.592 0.869,3.151" style="fill:none;stroke:#000;stroke-width:1px;"/><path d="M79.19,66.52c0,0 -0.31,1.303 0.993,1.117" style="fill:none;stroke:#000;stroke-width:1px;"/></g><g id="Eyes"><path d="M45.423,45.652c0,0 -3.915,3.747 -8.952,4.348" style="fill:none;stroke:#000;stroke-width:0.5px;"/><path d="M46.488,48.335c0,0 -7.274,4.122 -5.092,5.334c2.182,1.212 5.092,-5.334 5.092,-5.334Z"/><path d="M53.276,48.335c0,0 1.997,7.156 3.728,5.838c1.73,-1.319 -3.728,-5.838 -3.728,-5.838Z"/><path d="M47.637,42.144c0,0 -24.2,17.328 -29.951,0.515c-3.582,-10.474 2.357,-15.231 11.109,-12.792c9.303,2.592 9.201,11.085 18.842,12.277Z"/><path d="M51.846,42.162c0,0 23.014,18.875 29.852,2.475c4.261,-10.217 -1.354,-15.353 -10.247,-13.492c-9.452,1.977 -9.907,10.459 -19.605,11.017Z"/><path d="M60.036,30.769c3.418,-0.395 12.726,-12.902 22.12,-2.622" style="fill:none;stroke:#000;stroke-width:1px;"/><path d="M38.934,29.239c-0.991,0.782 -15.874,-13.682 -23.213,-1.343" style="fill:none;stroke:#000;stroke-width:1px;"/><path d="M54.877,45.652c0,0 3.414,4.981 8.339,5.855" style="fill:none;stroke:#000;stroke-width:0.5px;"/></g></g></svg>