<?xml version="1.0" encoding="UTF-8" standalone="no"?><!DOCTYPE svg PUBLIC "-//W3C//DTD SVG 1.1//EN" "http://www.w3.org/Graphics/SVG/1.1/DTD/svg11.dtd"><svg width="100%" height="100%" viewBox="0 0 160 160" version="1.1" xmlns="http://www.w3.org/2000/svg" xmlns:xlink="http://www.w3.org/1999/xlink" xml:space="preserve" xmlns:serif="http://www.serif.com/" style="fill-rule:evenodd;clip-rule:evenodd;stroke-linecap:round;stroke-linejoin:round;stroke-miterlimit:1.5;"><rect id="Lollipop" x="0" y="0" width="160" height="160" style="fill:none;"/><g><path d="M85,57.5c0,-1.38 -1.12,-2.5 -2.5,-2.5l-5,0c-1.38,0 -2.5,1.12 -2.5,2.5l0,95c0,1.38 1.12,2.5 2.5,2.5l5,0c1.38,0 2.5,-1.12 2.5,-2.5l0,-95Z" style="fill:none;stroke:#000;stroke-width:3px;"/><path d="M85,57.5c0,-1.38 -1.12,-2.5 -2.5,-2.5l-5,0c-1.38,0 -2.5,1.12 -2.5,2.5l0,95c0,1.38 1.12,2.5 2.5,2.5l5,0c1.38,0 2.5,-1.12 2.5,-2.5l0,-95Z" style="fill:#9e7341;"/><g><circle cx="80" cy="55" r="50" style="fill:none;stroke:#fff;stroke-width:4px;"/><circle cx="80" cy="55" r="50" style="fill:#fe2626;"/><path d="M51.716,26.716c15.61,-15.611 40.958,-15.611 56.568,0c15.611,15.61 15.611,40.958 0,56.568c-15.61,15.611 -40.958,15.611 -56.568,0c-15.611,-15.61 -15.611,-40.958 0,-56.568Z" style="fill:none;stroke:#fff;stroke-width:4px;"/><path d="M51.716,26.716c15.61,-15.611 40.958,-15.611 56.568,0c15.611,15.61 15.611,40.958 0,56.568c-15.61,15.611 -40.958,15.611 -56.568,0c-15.611,-15.61 -15.611,-40.958 0,-56.568Z" style="fill:#ff8016;"/><path d="M50,55c0,-16.557 13.443,-30 30,-30c16.557,0 30,13.443 30,30c0,16.557 -13.443,30 -30,30c-16.557,0 -30,-13.443 -30,-30Z" style="fill:none;stroke:#fff;stroke-width:4px;"/><path d="M50,55c0,-16.557 13.443,-30 30,-30c16.557,0 30,13.443 30,30c0,16.557 -13.443,30 -30,30c-16.557,0 -30,-13.443 -30,-30Z" style="fill:#ffee3b;"/><path d="M65.858,69.142c-7.805,-7.805 -7.805,-20.479 0,-28.284c7.805,-7.805 20.479,-7.805 28.284,0c7.805,7.805 7.805,20.479 0,28.284c-7.805,7.805 -20.479,7.805 -28.284,0Z" style="fill:none;stroke:#fff;stroke-width:4px;"/><path d="M65.858,69.142c-7.805,-7.805 -7.805,-20.479 0,-28.284c7.805,-7.805 20.479,-7.805 28.284,0c7.805,7.805 7.805,20.479 0,28.284c-7.805,7.805 -20.479,7.805 -28.284,0Z" style="fill:#5dd200;"/><circle cx="80" cy="55" r="10" style="fill:none;stroke:#fff;stroke-width:4px;"/><circle cx="80" cy="55" r="10" style="fill:#39cef9;"/></g></g></svg>