<?xml version="1.0" encoding="UTF-8" standalone="no"?><!DOCTYPE svg PUBLIC "-//W3C//DTD SVG 1.1//EN" "http://www.w3.org/Graphics/SVG/1.1/DTD/svg11.dtd"><svg width="100%" height="100%" viewBox="0 0 1380 470" version="1.1" xmlns="http://www.w3.org/2000/svg" xmlns:xlink="http://www.w3.org/1999/xlink" xml:space="preserve" xmlns:serif="http://www.serif.com/" style="fill-rule:evenodd;clip-rule:evenodd;stroke-linejoin:round;stroke-miterlimit:2;"><rect id="Mountains2" x="0" y="0" width="1380" height="470" style="fill:none;"/><clipPath id="_clip1"><rect x="0" y="0" width="1380" height="470"/></clipPath><g clip-path="url(#_clip1)"><path d="M1380,486.286c0,0 -36.418,-438.812 -169.086,-391.338c-132.667,47.473 -83.242,286.126 -215.909,275.861c-132.668,-10.265 -19.51,152.686 -19.51,152.686l404.505,-37.209Z" style="fill:url(#_Linear2);"/><path d="M366.786,493.984c0,0 67.634,-327.184 182.092,-284.843c114.458,42.342 182.093,10.265 206.805,-37.209c24.713,-47.474 128.766,-291.258 258.832,29.511c52.385,129.192 102.752,234.803 150.876,300.24c48.125,65.437 -798.605,-7.699 -798.605,-7.699Z" style="fill:url(#_Linear3);"/><path d="M0,474.738c0,0 133.968,-137.289 157.38,-288.692c23.412,-151.403 140.471,-238.652 214.609,-64.154c74.137,174.499 137.87,405.452 210.707,252.766c72.837,-152.686 222.412,-100.08 223.713,114.194c1.301,214.274 -806.409,-14.114 -806.409,-14.114Z" style="fill:url(#_Linear4);"/></g><defs><linearGradient id="_Linear2" x1="0" y1="0" x2="1" y2="0" gradientUnits="userSpaceOnUse" gradientTransform="matrix(449.479,0,0,458.63,930.521,307.425)"><stop offset="0" style="stop-color:#8c45d3;stop-opacity:1"/><stop offset="1" style="stop-color:#995ad8;stop-opacity:1"/></linearGradient><linearGradient id="_Linear3" x1="0" y1="0" x2="1" y2="0" gradientUnits="userSpaceOnUse" gradientTransform="matrix(800.581,0,0,520.379,366.786,283.735)"><stop offset="0" style="stop-color:#8c45d3;stop-opacity:1"/><stop offset="1" style="stop-color:#995ad8;stop-opacity:1"/></linearGradient><linearGradient id="_Linear4" x1="0" y1="0" x2="1" y2="0" gradientUnits="userSpaceOnUse" gradientTransform="matrix(806.411,0,0,589.145,1.13687e-12,303.001)"><stop offset="0" style="stop-color:#8c45d3;stop-opacity:1"/><stop offset="1" style="stop-color:#995ad8;stop-opacity:1"/></linearGradient></defs></svg>