<?xml version="1.0" encoding="UTF-8" standalone="no"?><!DOCTYPE svg PUBLIC "-//W3C//DTD SVG 1.1//EN" "http://www.w3.org/Graphics/SVG/1.1/DTD/svg11.dtd"><svg width="100%" height="100%" viewBox="0 0 1380 470" version="1.1" xmlns="http://www.w3.org/2000/svg" xmlns:xlink="http://www.w3.org/1999/xlink" xml:space="preserve" xmlns:serif="http://www.serif.com/" style="fill-rule:evenodd;clip-rule:evenodd;stroke-linejoin:round;stroke-miterlimit:2;"><rect id="Mountains3" x="0" y="0" width="1380" height="470" style="fill:none;"/><clipPath id="_clip1"><rect x="0" y="0" width="1380" height="470"/></clipPath><g clip-path="url(#_clip1)"><path d="M1148.61,319.968c0,0 -110.51,104.25 -180.091,-16.038c-69.58,-120.288 -214.881,-236.567 -255.811,-10.024c-40.93,226.543 4.093,208.5 4.093,208.5l433.856,0l-2.047,-182.438Z" style="fill:url(#_Linear2);"/><path d="M0,478.453c0,0 137.472,-159.306 151.722,-277.554c14.25,-118.249 90.53,-112.5 120.707,-50.913c30.176,61.588 59.515,282.482 168.486,142.062c108.972,-140.419 347.87,-243.065 347.87,194.617c0,18.066 -788.785,-8.212 -788.785,-8.212Z" style="fill:url(#_Linear3);"/><path d="M1379.87,490.377c6.833,-464.066 -252.398,-775.08 -282.415,0c-4.949,127.792 282.415,0 282.415,0Z" style="fill:url(#_Linear4);"/></g><defs><linearGradient id="_Linear2" x1="0" y1="0" x2="1" y2="0" gradientUnits="userSpaceOnUse" gradientTransform="matrix(455.136,0,0,358.693,695.525,333.759)"><stop offset="0" style="stop-color:#8c45d3;stop-opacity:1"/><stop offset="1" style="stop-color:#995ad8;stop-opacity:1"/></linearGradient><linearGradient id="_Linear3" x1="0" y1="0" x2="1" y2="0" gradientUnits="userSpaceOnUse" gradientTransform="matrix(788.785,0,0,409.75,1.36424e-12,299.965)"><stop offset="0" style="stop-color:#8c45d3;stop-opacity:1"/><stop offset="1" style="stop-color:#995ad8;stop-opacity:1"/></linearGradient><linearGradient id="_Linear4" x1="0" y1="0" x2="1" y2="0" gradientUnits="userSpaceOnUse" gradientTransform="matrix(282.611,0,0,560.981,1097.39,282.884)"><stop offset="0" style="stop-color:#8c45d3;stop-opacity:1"/><stop offset="1" style="stop-color:#995ad8;stop-opacity:1"/></linearGradient></defs></svg>