<?xml version="1.0" encoding="UTF-8" standalone="no"?><!DOCTYPE svg PUBLIC "-//W3C//DTD SVG 1.1//EN" "http://www.w3.org/Graphics/SVG/1.1/DTD/svg11.dtd"><svg width="100%" height="100%" viewBox="0 0 100 100" version="1.1" xmlns="http://www.w3.org/2000/svg" xmlns:xlink="http://www.w3.org/1999/xlink" xml:space="preserve" xmlns:serif="http://www.serif.com/" style="fill-rule:evenodd;clip-rule:evenodd;stroke-linecap:round;stroke-linejoin:round;stroke-miterlimit:1.5;"><rect id="Overachiever" x="0" y="0" width="100" height="100" style="fill:none;"/><g><g id="Cap"><path id="Base" d="M15.189,65.068l0,9.501c20.227,14.7 40.231,14.648 60.014,0l0,-9.501l-60.014,0Z" style="fill:#222;"/><path id="Base1" serif:id="Base" d="M15.189,29.059l0,39.509c20.227,14.7 40.231,14.647 60.014,0l0,-39.509l-60.014,0Z" style="fill:#333;"/><path id="Top" d="M3.186,32.559l42.01,26.508l42.01,-26.508l-42.01,-27.505l-42.01,27.505Z" style="fill:#222;"/><g><g><path d="M22.347,54.879c0,0 -3.171,11.744 -2.264,19.707" style="fill:none;stroke:#ffd35c;stroke-width:1px;"/><path d="M22.964,54.793c0,0 -2.142,11.974 -0.549,19.828" style="fill:none;stroke:#ffc810;stroke-width:1px;"/><path d="M23.775,54.777c0,0 -1.286,12.096 0.861,19.818" style="fill:none;stroke:#ffd35c;stroke-width:1px;"/><path d="M24.188,54.896c0,0 0.431,12.156 3.645,19.498" style="fill:none;stroke:#ffc810;stroke-width:1px;"/></g><g><path d="M22.964,55.73c0,0 -2.757,11.683 -1.458,19.591" style="fill:none;stroke:#ffee7d;stroke-width:1px;"/><path d="M23.467,56.934c0,0 -1.667,10.899 0.216,18.689" style="fill:none;stroke:#ffeb67;stroke-width:1px;"/><path d="M22.964,56.098c0,0 0.908,12.024 3.732,19.525" style="fill:none;stroke:#ffee7d;stroke-width:1px;"/></g><path d="M45.196,32.06l-21.796,13.254l-0.309,9.002" style="fill:none;stroke:#ffd35c;stroke-width:1px;"/></g></g><path d="M16.912,85.36c-1.375,3.685 -0.694,6.889 2.14,9.586l77.274,-17.318c0.97,-3.948 0.731,-7.179 -2.904,-9.252l-76.51,16.984Z" style="fill:none;stroke:#ffd492;stroke-width:1px;"/><path d="M16.912,85.36c-1.375,3.685 -0.694,6.889 2.14,9.586l77.274,-17.318c0.97,-3.948 0.731,-7.179 -2.904,-9.252l-76.51,16.984Z" style="fill:#fff1d4;"/><clipPath id="_clip1"><path d="M16.912,85.36c-1.375,3.685 -0.694,6.889 2.14,9.586l77.274,-17.318c0.97,-3.948 0.731,-7.179 -2.904,-9.252l-76.51,16.984Z"/></clipPath><g clip-path="url(#_clip1)"><path d="M54.761,88.883c1.175,-5.755 -1.763,-9.267 -7.069,-11.487l11.93,-2.651c5.16,1.809 7.118,5.802 5.799,12.03l-10.66,2.108Z" style="fill:none;stroke:#ffd492;stroke-width:1px;"/><path d="M54.761,88.883c1.175,-5.755 -1.763,-9.267 -7.069,-11.487l11.93,-2.651c5.16,1.809 7.118,5.802 5.799,12.03l-10.66,2.108Z" style="fill:#820000;"/><path d="M19.048,95.195c0,0 2.872,-1.734 3.287,-3.678c0.305,-1.423 -0.821,-3.862 -1.655,-4.971c-0.865,-1.148 -1.725,-1.372 -3.826,-1.362" style="fill:none;stroke:#ffd492;stroke-width:0.5px;"/></g></g></svg>