<?xml version="1.0" encoding="UTF-8" standalone="no"?><!DOCTYPE svg PUBLIC "-//W3C//DTD SVG 1.1//EN" "http://www.w3.org/Graphics/SVG/1.1/DTD/svg11.dtd"><svg width="100%" height="100%" viewBox="0 0 100 100" version="1.1" xmlns="http://www.w3.org/2000/svg" xmlns:xlink="http://www.w3.org/1999/xlink" xml:space="preserve" xmlns:serif="http://www.serif.com/" style="fill-rule:evenodd;clip-rule:evenodd;stroke-linecap:round;stroke-linejoin:round;stroke-miterlimit:1.5;"><rect id="Padlock" x="0" y="0" width="100" height="100" style="fill:none;"/><g><path d="M78.278,31.295c0,-15.485 -12.572,-28.057 -28.057,-28.057c-15.485,0 -28.058,12.572 -28.058,28.057l0,20.62c0,15.485 12.573,28.057 28.058,28.057c15.485,0 28.057,-12.572 28.057,-28.057l0,-20.62Zm-6.627,-0.264c0,-11.827 -9.603,-21.429 -21.43,-21.429c-11.827,0 -21.43,9.602 -21.43,21.429l0,19.147c0,11.828 9.603,21.43 21.43,21.43c11.827,0 21.43,-9.602 21.43,-21.43l0,-19.147Z" style="fill:none;stroke:#000;stroke-width:2px;"/><path d="M78.278,31.295c0,-15.485 -12.572,-28.057 -28.057,-28.057c-15.485,0 -28.058,12.572 -28.058,28.057l0,20.62c0,15.485 12.573,28.057 28.058,28.057c15.485,0 28.057,-12.572 28.057,-28.057l0,-20.62Zm-6.627,-0.264c0,-11.827 -9.603,-21.429 -21.43,-21.429c-11.827,0 -21.43,9.602 -21.43,21.429l0,19.147c0,11.828 9.603,21.43 21.43,21.43c11.827,0 21.43,-9.602 21.43,-21.43l0,-19.147Z" style="fill:url(#_Radial1);"/><clipPath id="_clip2"><path d="M78.278,31.295c0,-15.485 -12.572,-28.057 -28.057,-28.057c-15.485,0 -28.058,12.572 -28.058,28.057l0,20.62c0,15.485 12.573,28.057 28.058,28.057c15.485,0 28.057,-12.572 28.057,-28.057l0,-20.62Zm-6.627,-0.264c0,-11.827 -9.603,-21.429 -21.43,-21.429c-11.827,0 -21.43,9.602 -21.43,21.429l0,19.147c0,11.828 9.603,21.43 21.43,21.43c11.827,0 21.43,-9.602 21.43,-21.43l0,-19.147Z"/></clipPath><g clip-path="url(#_clip2)"><path d="M22.752,27.909c0,0 1.075,-23.396 28.882,-24.753" style="fill:none;stroke:#fff;stroke-opacity:0.5;stroke-width:2px;"/><path d="M72.051,44.16c-0.036,-2.894 3.839,-27.72 -16.062,-34.01" style="fill:none;stroke:#000;stroke-opacity:0.5;stroke-width:2px;"/></g><rect x="19.218" y="45.508" width="61.564" height="51.255" style="fill:none;stroke:#000;stroke-width:2px;"/><rect x="19.218" y="45.508" width="61.564" height="51.255" style="fill:url(#_Linear3);"/><clipPath id="_clip4"><rect x="19.218" y="45.508" width="61.564" height="51.255"/></clipPath><g clip-path="url(#_clip4)"><path d="M53.145,94.224l0.645,0.004l0.644,0.007l0.641,0.01l0.64,0.012l0.639,0.016l0.637,0.018l0.636,0.021l0.635,0.023l0.634,0.027l0.633,0.029l0.632,0.032l0.633,0.035l0.631,0.038l0.63,0.04l0.631,0.043l0.631,0.047l0.63,0.049l0.631,0.052l0.631,0.054l0.632,0.058l0.632,0.061l0.633,0.063l0.633,0.066l0.635,0.069l0.635,0.072l0.637,0.075l0.638,0.078l0.639,0.081l0.641,0.084l0.639,0.086l0.267,0.036l0.264,0.035l0.535,0.068l0.537,0.067l0.542,0.066l0.546,0.067l0.55,0.068l0.551,0.07l0.279,0.037l0.279,0.038l0.279,0.038l0.28,0.04l0.281,0.041l0.281,0.043l0.282,0.044l0.283,0.046l0.282,0.048l0.284,0.05l0.283,0.052l0.285,0.055l0.284,0.057l0.285,0.059l0.285,0.062l0.286,0.066l0.285,0.068l0.275,0.068l0.215,0.067l0.205,0.09l0.194,0.112l0.18,0.134l0.165,0.153l0.146,0.17l0.126,0.185l0.104,0.199l0.082,0.209l0.058,0.216l0.033,0.222l0.008,0.224l-0.017,0.224l-0.042,0.22l-0.067,0.214l-0.09,0.206l-0.112,0.194l-0.134,0.18l-0.153,0.164l-0.17,0.146l-0.185,0.127l-0.199,0.104l-0.209,0.082l-0.216,0.057l-0.222,0.033l-0.224,0.008l-0.224,-0.017l-0.22,-0.042l-0.255,-0.063l-0.247,-0.059l-0.248,-0.057l-0.249,-0.054l-0.25,-0.052l-0.252,-0.051l-0.254,-0.048l-0.254,-0.047l-0.256,-0.045l-0.258,-0.044l-0.258,-0.042l-0.26,-0.041l-0.261,-0.04l-0.262,-0.038l-0.264,-0.038l-0.264,-0.036l-0.265,-0.036l-0.266,-0.035l-0.537,-0.068l-0.539,-0.067l-0.543,-0.066l-0.546,-0.067l-0.549,-0.068l-0.549,-0.071l-0.278,-0.036l-0.273,-0.037l-0.63,-0.085l-0.625,-0.081l-0.623,-0.079l-0.621,-0.076l-0.619,-0.073l-0.619,-0.07l-0.617,-0.067l-0.616,-0.065l-0.615,-0.062l-0.615,-0.058l-0.613,-0.056l-0.614,-0.054l-0.613,-0.05l-0.613,-0.048l-0.612,-0.045l-0.613,-0.042l-0.613,-0.039l-0.613,-0.037l-0.614,-0.034l-0.614,-0.031l-0.616,-0.028l-0.616,-0.026l-0.617,-0.023l-0.618,-0.02l-0.619,-0.018l-0.622,-0.015l-0.622,-0.012l-0.625,-0.009l-0.626,-0.007l-0.628,-0.004l-0.631,-0.002l-0.634,0.001l-0.54,0.003l-0.541,0.004l-0.541,0.004l-0.54,0.006l-0.54,0.007l-0.539,0.008l-0.539,0.009l-0.538,0.01l-0.538,0.012l-0.537,0.012l-0.536,0.015l-0.537,0.015l-0.535,0.017l-0.535,0.018l-0.535,0.02l-0.534,0.021l-0.534,0.022l-0.533,0.025l-0.533,0.025l-0.532,0.028l-0.532,0.029l-0.532,0.03l-0.531,0.033l-0.53,0.034l-0.531,0.036l-0.529,0.038l-0.53,0.039l-0.529,0.042l-0.529,0.043l-0.528,0.046l-0.528,0.047l-0.527,0.049l-0.527,0.052l-0.527,0.053l-0.527,0.056l-0.526,0.058l-0.526,0.06l-0.525,0.062l-0.525,0.064l-0.525,0.067l-0.525,0.069l-0.524,0.072l-0.524,0.074l-0.524,0.076l-0.523,0.079l-0.523,0.081l-0.523,0.084l-0.523,0.086l-0.522,0.089l-0.523,0.092l-0.521,0.094l-0.522,0.097l-0.522,0.1l-0.521,0.102l-0.521,0.105l-0.521,0.109l-0.521,0.111l-0.521,0.113l-0.521,0.118l-0.259,0.059l-0.26,0.06l-0.26,0.061l-0.261,0.062l-0.259,0.062l-0.26,0.064l-0.261,0.064l-0.259,0.065l-0.26,0.065l-0.263,0.068l-0.22,0.043l-0.223,0.018l-0.224,-0.007l-0.222,-0.031l-0.218,-0.057l-0.209,-0.08l-0.199,-0.104l-0.186,-0.125l-0.171,-0.145l-0.154,-0.163l-0.134,-0.179l-0.114,-0.194l-0.091,-0.205l-0.068,-0.214l-0.043,-0.22l-0.019,-0.223l0.007,-0.224l0.032,-0.222l0.056,-0.217l0.081,-0.21l0.103,-0.199l0.125,-0.186l0.145,-0.171l0.164,-0.154l0.179,-0.134l0.193,-0.114l0.205,-0.091l0.214,-0.068l0.268,-0.068l0.272,-0.069l0.271,-0.067l0.27,-0.067l0.271,-0.066l0.272,-0.065l0.27,-0.065l0.271,-0.063l0.271,-0.063l0.272,-0.062l0.541,-0.122l0.542,-0.118l0.542,-0.116l0.541,-0.112l0.542,-0.11l0.542,-0.106l0.542,-0.104l0.542,-0.101l0.542,-0.097l0.541,-0.095l0.542,-0.093l0.542,-0.089l0.542,-0.087l0.542,-0.084l0.542,-0.082l0.542,-0.079l0.543,-0.076l0.542,-0.074l0.542,-0.072l0.543,-0.069l0.542,-0.066l0.542,-0.064l0.543,-0.062l0.543,-0.06l0.542,-0.057l0.543,-0.056l0.543,-0.053l0.543,-0.05l0.543,-0.049l0.544,-0.047l0.543,-0.044l0.543,-0.043l0.544,-0.041l0.544,-0.038l0.544,-0.037l0.544,-0.035l0.544,-0.034l0.545,-0.031l0.544,-0.03l0.545,-0.028l0.545,-0.026l0.545,-0.025l0.545,-0.023l0.546,-0.022l0.545,-0.02l0.546,-0.018l0.546,-0.017l0.546,-0.016l0.547,-0.014l0.547,-0.013l0.547,-0.012l0.547,-0.011l0.548,-0.009l0.547,-0.008l0.548,-0.007l0.548,-0.006l0.549,-0.004l0.549,-0.004l0.55,-0.003l0.648,-0.001l0.648,0.002Z" style="fill:#645a47;"/><path d="M19.328,42.803c0,0 34.523,8.366 59.738,-0.471" style="fill:none;stroke:#c9baa0;stroke-width:4px;"/><path d="M27.259,89.681c0,0 -8.543,-34.736 -3.534,-39.172c6.385,-5.655 15.985,3.532 11.193,15.052c-4.52,10.867 -5.087,34.741 -7.659,24.12Z" style="fill:#e1dcc7;fill-opacity:0.5;"/><path d="M73.167,89.681c0,0 8.543,-34.736 3.535,-39.172c-6.386,-5.655 -15.986,3.532 -11.194,15.052c4.521,10.867 5.087,34.741 7.659,24.12Z" style="fill:#e1dcc7;fill-opacity:0.5;"/></g></g><defs><radialGradient id="_Radial1" cx="0" cy="0" r="1" gradientUnits="userSpaceOnUse" gradientTransform="matrix(28.0575,0,0,38.3673,50.2209,41.6048)"><stop offset="0" style="stop-color:#fff;stop-opacity:1"/><stop offset="0.85" style="stop-color:#b7b7b7;stop-opacity:1"/><stop offset="1" style="stop-color:#888;stop-opacity:1"/></radialGradient><linearGradient id="_Linear3" x1="0" y1="0" x2="1" y2="0" gradientUnits="userSpaceOnUse" gradientTransform="matrix(61.5644,0,0,51.2546,19.2178,71.1352)"><stop offset="0" style="stop-color:#baab7e;stop-opacity:1"/><stop offset="0.5" style="stop-color:#977746;stop-opacity:1"/><stop offset="1" style="stop-color:#baab7e;stop-opacity:1"/></linearGradient></defs></svg>