<?xml version="1.0" encoding="UTF-8" standalone="no"?><!DOCTYPE svg PUBLIC "-//W3C//DTD SVG 1.1//EN" "http://www.w3.org/Graphics/SVG/1.1/DTD/svg11.dtd"><svg width="100%" height="100%" viewBox="0 0 410 200" version="1.1" xmlns="http://www.w3.org/2000/svg" xmlns:xlink="http://www.w3.org/1999/xlink" xml:space="preserve" xmlns:serif="http://www.serif.com/" style="fill-rule:evenodd;clip-rule:evenodd;stroke-linejoin:round;stroke-miterlimit:2;"><rect id="PowerFill" x="0" y="0" width="410" height="200" style="fill:none;"/><rect x="385" y="5" width="20" height="190" style="fill:#76ff00;"/><rect x="365" y="12" width="20" height="183" style="fill:#8bff00;"/><rect x="345" y="18" width="20" height="177" style="fill:#a0ff00;"/><rect x="325" y="24" width="20" height="171" style="fill:#b4ff00;"/><rect x="305" y="30" width="20" height="165" style="fill:#c8ff00;"/><rect x="285" y="36" width="20" height="159" style="fill:#df0;"/><rect x="265" y="42" width="20" height="153" style="fill:#f1ff00;"/><rect x="245" y="47" width="20" height="148" style="fill:#f9f700;"/><rect x="225" y="52" width="20" height="143" style="fill:#fae600;"/><rect x="205" y="57" width="20" height="138" style="fill:#fbd700;"/><rect x="185" y="62" width="20" height="133" style="fill:#fcc500;"/><rect x="165" y="67" width="20" height="128" style="fill:#fdb700;"/><rect x="145" y="71" width="20" height="124" style="fill:#fea500;"/><rect x="125" y="75" width="20" height="120" style="fill:#ff9500;"/><rect x="105" y="80" width="20" height="115" style="fill:#ff7f00;"/><rect x="85" y="84" width="20" height="111" style="fill:#ff6800;"/><rect x="65" y="88" width="20" height="107" style="fill:#ff5200;"/><rect x="45" y="91" width="20" height="104" style="fill:#ff3b00;"/><rect x="25" y="93" width="20" height="102" style="fill:#ff2300;"/><rect x="5" y="95" width="20" height="100" style="fill:#ff0e00;"/></svg>