<?xml version="1.0" encoding="UTF-8" standalone="no"?><!DOCTYPE svg PUBLIC "-//W3C//DTD SVG 1.1//EN" "http://www.w3.org/Graphics/SVG/1.1/DTD/svg11.dtd"><svg width="100%" height="100%" viewBox="0 0 162 154" version="1.1" xmlns="http://www.w3.org/2000/svg" xmlns:xlink="http://www.w3.org/1999/xlink" xml:space="preserve" xmlns:serif="http://www.serif.com/" style="fill-rule:evenodd;clip-rule:evenodd;stroke-linecap:round;stroke-linejoin:round;stroke-miterlimit:1.5;"><rect id="Pumpkin" x="0" y="0" width="162" height="154" style="fill:none;"/><g id="Pumpkin1" serif:id="Pumpkin"><path id="Stem" d="M85.712,20.625c-1.815,-4.524 -3.87,-8.627 -6.127,-12.378c-0.806,-1.501 -2.353,-3.371 -4.264,-5.424c-0.892,-0.884 -1.909,-1.02 -3.022,-0.579c-1.055,0.583 -2.16,1.196 -3.436,1.449c-0.607,0.262 -1.477,0.193 -2.526,0.124c-1.224,0.145 -1.458,0.983 -1.573,1.904c-0.018,1.275 -0.134,2.354 -0.372,3.188c-0.235,0.911 -0.221,1.822 0.207,2.732c2.267,4.616 2.537,6.708 2.691,8.653c0.013,2.307 0.027,4.496 0.041,6.582l23.515,-1.242c-2.036,-0.423 -3.76,-2.046 -5.134,-5.009Z" style="fill:url(#_Linear1);stroke:#000;stroke-width:2px;"/><path id="Body" d="M56.722,24.955c0,0 -19.303,-1.242 -30.481,7.555c-11.177,8.798 -12.969,12.171 -17.214,19.347c-4.245,7.176 -6.469,17.082 -6.772,20.316c-0.303,3.234 -0.607,15.363 0.808,21.731c1.415,6.367 2.426,21.629 22.034,38.913c19.608,17.283 26.678,17.32 31.434,16.98c1.415,-0.101 7.774,2.051 12.937,1.112c1.112,-0.202 2.332,1.34 5.762,0.404c1.111,-0.303 5.596,2.193 12.027,-0.808c1.516,-0.708 0.325,3.027 17.587,-0.809c4.548,-1.011 8.49,-3.234 10.815,-3.639c2.324,-0.404 30.99,-12.082 42.653,-53.265c3.234,-11.421 4.904,-36.332 -14.757,-58.724c-7.277,-8.288 -23.55,-13.442 -37.195,-11.017c-13.645,2.426 -10.208,0 -17.789,0.708c-7.58,0.708 -10.107,2.426 -16.576,1.213c-6.469,-1.213 -6.491,0.977 -15.273,-0.017" style="fill:url(#_Radial2);"/><clipPath id="_clip3"><path d="M56.722,24.955c0,0 -19.303,-1.242 -30.481,7.555c-11.177,8.798 -12.969,12.171 -17.214,19.347c-4.245,7.176 -6.469,17.082 -6.772,20.316c-0.303,3.234 -0.607,15.363 0.808,21.731c1.415,6.367 2.426,21.629 22.034,38.913c19.608,17.283 26.678,17.32 31.434,16.98c1.415,-0.101 7.774,2.051 12.937,1.112c1.112,-0.202 2.332,1.34 5.762,0.404c1.111,-0.303 5.596,2.193 12.027,-0.808c1.516,-0.708 0.325,3.027 17.587,-0.809c4.548,-1.011 8.49,-3.234 10.815,-3.639c2.324,-0.404 30.99,-12.082 42.653,-53.265c3.234,-11.421 4.904,-36.332 -14.757,-58.724c-7.277,-8.288 -23.55,-13.442 -37.195,-11.017c-13.645,2.426 -10.208,0 -17.789,0.708c-7.58,0.708 -10.107,2.426 -16.576,1.213c-6.469,-1.213 -6.491,0.977 -15.273,-0.017"/></clipPath><g clip-path="url(#_clip3)"><g id="Lines"><path d="M23.855,133.438c0,0 -45.207,-75.212 29.808,-111.93" style="fill:none;stroke:#b35200;stroke-width:1.5px;"/><path d="M55.637,151.205c0,0 -25.663,-7.107 -23.886,-65.737c1.777,-58.63 35.928,-63.96 43.035,-62.381" style="fill:none;stroke:#b35200;stroke-width:1.5px;"/><path d="M72.812,153.574c0,0 -43.43,-65.934 -1.382,-139.567" style="fill:none;stroke:#b35200;stroke-width:1.5px;"/><path d="M86.63,152.39c0,0 7.699,-128.908 -20.728,-139.37" style="fill:none;stroke:#b35200;stroke-width:1.5px;"/><path d="M88.604,21.311c0,0 32.77,54.484 14.806,130.486" style="fill:none;stroke:#b35200;stroke-width:1.5px;"/><path d="M113.28,150.218c0,0 44.22,-64.75 -26.65,-133.053" style="fill:none;stroke:#b35200;stroke-width:1.5px;"/><path d="M134.798,144.691c0,0 26.847,-86.662 -36.323,-125.157" style="fill:none;stroke:#b35200;stroke-width:1.5px;"/><path d="M148.222,125.739c0,0 20.727,-93.966 -53.301,-105.81" style="fill:none;stroke:#b35200;stroke-width:1.5px;"/><path d="M156.907,103.827c0,0 16.978,-68.698 -48.562,-83.898" style="fill:none;stroke:#b35200;stroke-width:1.5px;"/></g></g><path d="M56.722,24.955c0,0 -19.303,-1.242 -30.481,7.555c-11.177,8.798 -12.969,12.171 -17.214,19.347c-4.245,7.176 -6.469,17.082 -6.772,20.316c-0.303,3.234 -0.607,15.363 0.808,21.731c1.415,6.367 2.426,21.629 22.034,38.913c19.608,17.283 26.678,17.32 31.434,16.98c1.415,-0.101 7.774,2.051 12.937,1.112c1.112,-0.202 2.332,1.34 5.762,0.404c1.111,-0.303 5.596,2.193 12.027,-0.808c1.516,-0.708 0.325,3.027 17.587,-0.809c4.548,-1.011 8.49,-3.234 10.815,-3.639c2.324,-0.404 30.99,-12.082 42.653,-53.265c3.234,-11.421 4.904,-36.332 -14.757,-58.724c-7.277,-8.288 -23.55,-13.442 -37.195,-11.017c-13.645,2.426 -10.208,0 -17.789,0.708c-7.58,0.708 -10.107,2.426 -16.576,1.213c-6.469,-1.213 -6.491,0.977 -15.273,-0.017" style="fill:none;stroke:#000;stroke-width:2px;"/><g id="Light"><path d="M23.361,67.039c-3.205,25.803 1.204,45.895 14.845,59.064l7.896,-11.055l6.791,18.636l25.742,3.158l7.896,-18.951l9.792,17.372l20.214,-7.423l1.264,-16.582l8.212,9.002c12.14,-9.18 15.919,-28.879 15.003,-54.485c-3.75,16.652 -10.599,31.582 -29.532,39.798l-8.371,20.688l-7.422,-16.266l-21.636,2.211l-7.896,16.898l-9.634,-18.952c-20.347,-5.581 -28.42,-22.773 -33.164,-43.113Z" style="fill:url(#_Linear4);stroke:#000;stroke-width:1px;"/><path d="M73.792,79.535l18.679,0.994l-10.068,18.381l-8.611,-19.375" style="fill:url(#_Linear5);stroke:#000;stroke-width:1px;"/><path d="M95.776,61.861c13.563,-0.214 23.887,-7.307 31.93,-19.251c2.812,22.837 -1.57,37.332 -17.802,38.088c-7.63,-0.438 -12.294,-6.808 -14.128,-18.837Z" style="fill:url(#_Linear6);stroke:#000;stroke-width:1px;"/><path d="M36.298,42.725c7.785,12.139 16.964,21.098 30.273,20.635c-1.617,11.318 -4.938,18.611 -10.35,20.959c0,0 -29.626,-5.434 -19.923,-41.594Z" style="fill:url(#_Linear7);stroke:#000;stroke-width:1px;"/></g><g id="Dark"><path d="M46.561,113.769l6.996,-4.471c-4.377,-1.405 -8.181,-3.742 -11.674,-6.582l4.678,11.053Z" style="fill:url(#_Linear8);stroke:#000;stroke-width:1px;"/><path d="M68.616,124.37l10.432,0.082l6.417,-13.289l-11.302,1.201l-5.547,12.006Z" style="fill:url(#_Linear9);stroke:#000;stroke-width:1px;"/><path d="M89.522,110.832l5.382,-0.538l5.382,11.84l-6.375,0.455l-4.389,-11.757Z" style="fill:url(#_Linear10);stroke:#000;stroke-width:1px;"/><path d="M124.339,97.791c-4.264,3.272 -8.528,6.154 -12.792,7.99l-4.595,11.509c1.988,-3.389 3.959,-6.415 5.837,-7.369c3.973,0.197 7.798,-4.708 11.55,-12.13Z" style="fill:url(#_Linear11);stroke:#000;stroke-width:1px;"/><path d="M76.905,79.701l15.566,0.828l-10.598,12.85l-4.968,-13.678Z" style="fill:url(#_Linear12);stroke:#000;stroke-width:1px;"/><path d="M96.294,64.034c7.318,-0.894 15.465,-4.512 23.753,-8.59c0.073,14.079 -5.024,20.904 -13.507,22.977c-6.425,-2.018 -9.204,-7.4 -10.246,-14.387Z" style="fill:url(#_Linear13);stroke:#000;stroke-width:1px;"/><path d="M52.081,59.647c5.589,3.133 9.719,4.404 13.972,6.404c0.637,-0.254 -2.523,11.95 -5.899,15.37c-6.045,-3.641 -8.073,-21.774 -8.073,-21.774Z" style="fill:url(#_Linear14);stroke:#000;stroke-width:1px;"/></g></g><defs><linearGradient id="_Linear1" x1="0" y1="0" x2="1" y2="0" gradientUnits="userSpaceOnUse" gradientTransform="matrix(-13.8186,4.14557,-4.14557,-13.8186,80.2995,10.9504)"><stop offset="0" style="stop-color:#422f29;stop-opacity:1"/><stop offset="0.4" style="stop-color:#5f463e;stop-opacity:1"/><stop offset="0.5" style="stop-color:#907b75;stop-opacity:1"/><stop offset="0.6" style="stop-color:#5f463e;stop-opacity:1"/><stop offset="1" style="stop-color:#422f29;stop-opacity:1"/></linearGradient><radialGradient id="_Radial2" cx="0" cy="0" r="1" gradientUnits="userSpaceOnUse" gradientTransform="matrix(-89.8206,103.837,-103.837,-89.8206,114.056,23.5845)"><stop offset="0" style="stop-color:#fea97c;stop-opacity:1"/><stop offset="0.57" style="stop-color:#e16f33;stop-opacity:1"/><stop offset="1" style="stop-color:#d45512;stop-opacity:1"/></radialGradient><linearGradient id="_Linear4" x1="0" y1="0" x2="1" y2="0" gradientUnits="userSpaceOnUse" gradientTransform="matrix(-60.9512,62.1835,-62.1835,-60.9512,106.794,52.6643)"><stop offset="0" style="stop-color:#ef9e57;stop-opacity:1"/><stop offset="1" style="stop-color:#a25100;stop-opacity:1"/></linearGradient><linearGradient id="_Linear5" x1="0" y1="0" x2="1" y2="0" gradientUnits="userSpaceOnUse" gradientTransform="matrix(-60.9512,62.1835,-62.1835,-60.9512,106.794,52.6643)"><stop offset="0" style="stop-color:#ef9e57;stop-opacity:1"/><stop offset="1" style="stop-color:#a25100;stop-opacity:1"/></linearGradient><linearGradient id="_Linear6" x1="0" y1="0" x2="1" y2="0" gradientUnits="userSpaceOnUse" gradientTransform="matrix(-60.9512,62.1835,-62.1835,-60.9512,106.794,52.6643)"><stop offset="0" style="stop-color:#ef9e57;stop-opacity:1"/><stop offset="1" style="stop-color:#a25100;stop-opacity:1"/></linearGradient><linearGradient id="_Linear7" x1="0" y1="0" x2="1" y2="0" gradientUnits="userSpaceOnUse" gradientTransform="matrix(-60.9512,62.1835,-62.1835,-60.9512,106.794,52.6643)"><stop offset="0" style="stop-color:#ef9e57;stop-opacity:1"/><stop offset="1" style="stop-color:#a25100;stop-opacity:1"/></linearGradient><linearGradient id="_Linear8" x1="0" y1="0" x2="1" y2="0" gradientUnits="userSpaceOnUse" gradientTransform="matrix(54.3258,-45.2064,45.2064,54.3258,61.3593,107.252)"><stop offset="0" style="stop-color:#630904;stop-opacity:1"/><stop offset="1" style="stop-color:#9a2600;stop-opacity:1"/></linearGradient><linearGradient id="_Linear9" x1="0" y1="0" x2="1" y2="0" gradientUnits="userSpaceOnUse" gradientTransform="matrix(54.3258,-45.2064,45.2064,54.3258,61.3593,107.252)"><stop offset="0" style="stop-color:#630904;stop-opacity:1"/><stop offset="1" style="stop-color:#9a2600;stop-opacity:1"/></linearGradient><linearGradient id="_Linear10" x1="0" y1="0" x2="1" y2="0" gradientUnits="userSpaceOnUse" gradientTransform="matrix(54.3258,-45.2064,45.2064,54.3258,61.3593,107.252)"><stop offset="0" style="stop-color:#630904;stop-opacity:1"/><stop offset="1" style="stop-color:#9a2600;stop-opacity:1"/></linearGradient><linearGradient id="_Linear11" x1="0" y1="0" x2="1" y2="0" gradientUnits="userSpaceOnUse" gradientTransform="matrix(54.3258,-45.2064,45.2064,54.3258,61.3593,107.252)"><stop offset="0" style="stop-color:#630904;stop-opacity:1"/><stop offset="1" style="stop-color:#9a2600;stop-opacity:1"/></linearGradient><linearGradient id="_Linear12" x1="0" y1="0" x2="1" y2="0" gradientUnits="userSpaceOnUse" gradientTransform="matrix(54.3258,-45.2064,45.2064,54.3258,61.3593,107.252)"><stop offset="0" style="stop-color:#630904;stop-opacity:1"/><stop offset="1" style="stop-color:#9a2600;stop-opacity:1"/></linearGradient><linearGradient id="_Linear13" x1="0" y1="0" x2="1" y2="0" gradientUnits="userSpaceOnUse" gradientTransform="matrix(54.3258,-45.2064,45.2064,54.3258,61.3593,107.252)"><stop offset="0" style="stop-color:#630904;stop-opacity:1"/><stop offset="1" style="stop-color:#9a2600;stop-opacity:1"/></linearGradient><linearGradient id="_Linear14" x1="0" y1="0" x2="1" y2="0" gradientUnits="userSpaceOnUse" gradientTransform="matrix(54.3258,-45.2064,45.2064,54.3258,61.3593,107.252)"><stop offset="0" style="stop-color:#630904;stop-opacity:1"/><stop offset="1" style="stop-color:#9a2600;stop-opacity:1"/></linearGradient></defs></svg>