<?xml version="1.0" encoding="UTF-8" standalone="no"?><!DOCTYPE svg PUBLIC "-//W3C//DTD SVG 1.1//EN" "http://www.w3.org/Graphics/SVG/1.1/DTD/svg11.dtd"><svg width="100%" height="100%" viewBox="0 0 162 154" version="1.1" xmlns="http://www.w3.org/2000/svg" xmlns:xlink="http://www.w3.org/1999/xlink" xml:space="preserve" xmlns:serif="http://www.serif.com/" style="fill-rule:evenodd;clip-rule:evenodd;stroke-linecap:round;stroke-linejoin:round;stroke-miterlimit:1.5;"><rect id="PumpkinExploded" x="0" y="0" width="162" height="154" style="fill:none;"/><path d="M44.472,19.799c-17.662,10.519 -31.652,19.711 -26.177,21.862c10.141,0.131 17.95,3.758 24.163,9.78c-1.715,-4.899 -2.9,-9.571 2.302,-11.506c0.345,3.283 1.515,5.247 4.315,4.603c3.44,-7.939 -0.633,-16.308 -4.603,-24.739Z" style="fill:none;stroke:#b35200;stroke-width:2px;"/><path d="M44.472,19.799c-17.662,10.519 -31.652,19.711 -26.177,21.862c10.141,0.131 17.95,3.758 24.163,9.78c-1.715,-4.899 -2.9,-9.571 2.302,-11.506c0.345,3.283 1.515,5.247 4.315,4.603c3.44,-7.939 -0.633,-16.308 -4.603,-24.739Z" style="fill:#d65917;"/><path d="M79.855,16.634c-7.491,-1.885 -15.489,-2.246 -24.452,0.288c4.868,6.954 7.065,14.13 6.041,21.575c5.543,-2.935 10.314,-3.042 14.383,-0.576c-1.486,-6.225 -0.87,-13.097 4.028,-21.287Z" style="fill:none;stroke:#b35200;stroke-width:2px;"/><path d="M79.855,16.634c-7.491,-1.885 -15.489,-2.246 -24.452,0.288c4.868,6.954 7.065,14.13 6.041,21.575c5.543,-2.935 10.314,-3.042 14.383,-0.576c-1.486,-6.225 -0.87,-13.097 4.028,-21.287Z" style="fill:#a75606;"/><path d="M89.923,16.347c-3.854,11.678 -4.026,21.374 4.89,26.177c0.057,-5.225 0.062,-9.206 5.466,-9.205c8.819,0 13.847,-2.042 18.122,-6.041c-7.828,-6.26 -17.213,-10.072 -28.478,-10.931Z" style="fill:none;stroke:#b35200;stroke-width:2px;"/><path d="M89.923,16.347c-3.854,11.678 -4.026,21.374 4.89,26.177c0.057,-5.225 0.062,-9.206 5.466,-9.205c8.819,0 13.847,-2.042 18.122,-6.041c-7.828,-6.26 -17.213,-10.072 -28.478,-10.931Z" style="fill:#912101;"/><path d="M133.072,33.031c9.474,15.513 19.639,31.605 10.644,31.643c-12.67,-1.955 -24.389,-1.06 -35.095,2.877c3.354,-6.043 6.834,-11.96 7.191,-21c2.19,-8.071 8.198,-12.322 17.26,-13.52Z" style="fill:none;stroke:#b35200;stroke-width:2px;"/><path d="M133.072,33.031c9.474,15.513 19.639,31.605 10.644,31.643c-12.67,-1.955 -24.389,-1.06 -35.095,2.877c3.354,-6.043 6.834,-11.96 7.191,-21c2.19,-8.071 8.198,-12.322 17.26,-13.52Z" style="fill:#e39249;"/><path d="M102.292,56.044c-5.688,-6.303 -13.6,-8.794 -22.725,-9.205c-0.256,8.308 -5.982,12.171 -14.096,14.095c-8.054,1.968 0.304,5.645 15.822,10.069c6.325,1.077 11.832,-0.027 16.684,-2.877c4.232,-2.631 5.975,-6.506 4.315,-12.082Z" style="fill:none;stroke:#b35200;stroke-width:2px;"/><path d="M102.292,56.044c-5.688,-6.303 -13.6,-8.794 -22.725,-9.205c-0.256,8.308 -5.982,12.171 -14.096,14.095c-8.054,1.968 0.304,5.645 15.822,10.069c6.325,1.077 11.832,-0.027 16.684,-2.877c4.232,-2.631 5.975,-6.506 4.315,-12.082Z" style="fill:#ff9d2b;"/><path d="M38.144,64.386c-7.271,-3.643 -14.677,-5.787 -22.438,-4.027c-6.073,9.059 -5.389,17.153 -1.151,24.739c6.3,0.498 12.771,2.021 19.561,5.466c0.227,-3.38 -1.694,-6.605 -8.342,-9.493c8.078,-1.033 14.919,-3.215 16.109,-10.644c-4.526,1.799 -7.709,1.182 -9.78,-1.438c2.81,-0.737 5.196,-1.899 6.041,-4.603Z" style="fill:none;stroke:#b35200;stroke-width:2px;"/><path d="M38.144,64.386c-7.271,-3.643 -14.677,-5.787 -22.438,-4.027c-6.073,9.059 -5.389,17.153 -1.151,24.739c6.3,0.498 12.771,2.021 19.561,5.466c0.227,-3.38 -1.694,-6.605 -8.342,-9.493c8.078,-1.033 14.919,-3.215 16.109,-10.644c-4.526,1.799 -7.709,1.182 -9.78,-1.438c2.81,-0.737 5.196,-1.899 6.041,-4.603Z" style="fill:#df6c2f;"/><path d="M40.445,100.919c-10.268,-0.751 -14.374,0.963 -17.26,3.165c5.59,8.845 15.812,15.219 28.766,20.136c0.298,-5.615 -0.561,-11.693 -5.178,-19.273c-3.164,0.767 -5.128,-0.867 -6.328,-4.028Z" style="fill:none;stroke:#b35200;stroke-width:2px;"/><path d="M40.445,100.919c-10.268,-0.751 -14.374,0.963 -17.26,3.165c5.59,8.845 15.812,15.219 28.766,20.136c0.298,-5.615 -0.561,-11.693 -5.178,-19.273c-3.164,0.767 -5.128,-0.867 -6.328,-4.028Z" style="fill:#ef8a55;"/><path d="M49.362,86.536c11.217,-11.072 13.29,-12.965 16.109,-6.904c2.693,5.788 9.708,7.871 19.274,7.767c10.78,-0.117 0.07,7.596 -13.233,10.068c-9.475,1.761 -26.282,-6.851 -22.15,-10.931Z" style="fill:none;stroke:#b35200;stroke-width:2px;"/><path d="M49.362,86.536c11.217,-11.072 13.29,-12.965 16.109,-6.904c2.693,5.788 9.708,7.871 19.274,7.767c10.78,-0.117 0.07,7.596 -13.233,10.068c-9.475,1.761 -26.282,-6.851 -22.15,-10.931Z" style="fill:#ff8900;"/><path d="M66.047,108.974c7.088,5.59 15.568,5.617 25.602,-0.575c6.697,7.351 9.179,14.054 9.493,20.424c-7.351,-2.522 -14.343,-3.792 -20.712,-2.877c-4.219,1.583 -8.438,2.311 -12.657,1.438c-3.263,-6.405 -3.373,-12.495 -1.726,-18.41Z" style="fill:none;stroke:#b35200;stroke-width:2px;"/><path d="M66.047,108.974c7.088,5.59 15.568,5.617 25.602,-0.575c6.697,7.351 9.179,14.054 9.493,20.424c-7.351,-2.522 -14.343,-3.792 -20.712,-2.877c-4.219,1.583 -8.438,2.311 -12.657,1.438c-3.263,-6.405 -3.373,-12.495 -1.726,-18.41Z" style="fill:#fca678;"/><path d="M104.306,100.919c1.486,8.171 6.599,15.824 14.958,23.013c10.884,-0.372 18.14,-4.632 22.15,-12.369c-9.67,-0.864 -17.716,-2.601 -20.999,-6.904c-4.587,-3.594 -10.049,-4.564 -16.109,-3.74Z" style="fill:none;stroke:#b35200;stroke-width:2px;"/><path d="M104.306,100.919c1.486,8.171 6.599,15.824 14.958,23.013c10.884,-0.372 18.14,-4.632 22.15,-12.369c-9.67,-0.864 -17.716,-2.601 -20.999,-6.904c-4.587,-3.594 -10.049,-4.564 -16.109,-3.74Z" style="fill:#ffbb34;"/><path d="M111.049,79.759c-7.495,1.003 -9.186,4.009 -10.77,6.49c8.172,-0.996 17.479,2.261 27.615,8.63c5.762,4.743 10.756,5.265 15.534,4.602c4.495,-6.455 6.118,-13.731 3.74,-22.15c-12.297,-1.458 -23.647,0.759 -36.119,2.428Z" style="fill:none;stroke:#b35200;stroke-width:2px;"/><path d="M111.049,79.759c-7.495,1.003 -9.186,4.009 -10.77,6.49c8.172,-0.996 17.479,2.261 27.615,8.63c5.762,4.743 10.756,5.265 15.534,4.602c4.495,-6.455 6.118,-13.731 3.74,-22.15c-12.297,-1.458 -23.647,0.759 -36.119,2.428Z" style="fill:#ab5a0a;"/></svg>