<?xml version="1.0" encoding="UTF-8" standalone="no"?><!DOCTYPE svg PUBLIC "-//W3C//DTD SVG 1.1//EN" "http://www.w3.org/Graphics/SVG/1.1/DTD/svg11.dtd"><svg width="100%" height="100%" viewBox="0 0 100 100" version="1.1" xmlns="http://www.w3.org/2000/svg" xmlns:xlink="http://www.w3.org/1999/xlink" xml:space="preserve" xmlns:serif="http://www.serif.com/" style="fill-rule:evenodd;clip-rule:evenodd;stroke-linejoin:round;stroke-miterlimit:2;"><rect id="Skies" x="0" y="0" width="100" height="100" style="fill:url(#_Linear1);"/><clipPath id="_clip2"><rect x="0" y="0" width="100" height="100"/></clipPath><g clip-path="url(#_clip2)"><path d="M76.03,-5.496c0,-3.251 3.376,-5.891 7.534,-5.891c4.158,0 7.534,2.64 7.534,5.891c2.079,-2.816 6.691,-3.782 10.292,-2.156c3.601,1.625 4.837,5.231 2.757,8.047c3.602,-1.626 8.213,-0.659 10.292,2.156c2.079,2.816 0.844,6.422 -2.757,8.048c4.158,0 7.534,2.64 7.534,5.891c0,3.252 -3.376,5.891 -7.534,5.891c3.601,1.626 4.836,5.232 2.757,8.048c-2.079,2.816 -6.69,3.782 -10.292,2.156c2.08,2.816 0.844,6.422 -2.757,8.048c-3.601,1.625 -8.213,0.659 -10.292,-2.157c0,3.252 -3.376,5.892 -7.534,5.892c-4.158,0 -7.534,-2.64 -7.534,-5.892c-2.079,2.816 -6.691,3.782 -10.292,2.157c-3.601,-1.626 -4.836,-5.232 -2.757,-8.048c-3.601,1.626 -8.213,0.66 -10.292,-2.156c-2.079,-2.816 -0.844,-6.422 2.758,-8.048c-4.159,0 -7.535,-2.639 -7.535,-5.891c0,-3.251 3.376,-5.891 7.535,-5.891c-3.602,-1.626 -4.837,-5.232 -2.758,-8.048c2.079,-2.815 6.691,-3.782 10.292,-2.156c-2.079,-2.816 -0.844,-6.422 2.757,-8.047c3.601,-1.626 8.213,-0.66 10.292,2.156Z" style="fill:#76b1ff;fill-opacity:0.5;"/><path d="M50.584,3.322c-20.572,-5.512 -41.749,6.715 -47.262,27.287c-5.512,20.572 6.715,41.749 27.287,47.261c-5.547,-9.857 -7.995,-25.532 -3.855,-40.983c4.14,-15.45 14.097,-27.801 23.83,-33.565Z" style="fill:#fff;"/><path d="M10.627,62.904c0,-3.252 3.376,-5.892 7.534,-5.892c4.159,0 7.534,2.64 7.534,5.892c2.079,-2.816 6.691,-3.782 10.292,-2.157c3.601,1.626 4.837,5.232 2.758,8.048c3.601,-1.626 8.212,-0.66 10.292,2.156c2.079,2.816 0.843,6.422 -2.758,8.048c4.158,0 7.534,2.639 7.534,5.891c0,3.251 -3.376,5.891 -7.534,5.891c3.601,1.626 4.837,5.232 2.758,8.047c-2.08,2.816 -6.691,3.782 -10.292,2.157c2.079,2.816 0.843,6.422 -2.758,8.047c-3.601,1.626 -8.213,0.66 -10.292,-2.156c0,3.251 -3.375,5.891 -7.534,5.891c-4.158,0 -7.534,-2.64 -7.534,-5.891c-2.079,2.816 -6.69,3.782 -10.291,2.156c-3.602,-1.625 -4.837,-5.231 -2.758,-8.047c-3.601,1.625 -8.213,0.659 -10.292,-2.157c-2.079,-2.815 -0.843,-6.421 2.758,-8.047c-4.158,0 -7.534,-2.64 -7.534,-5.891c0,-3.252 3.376,-5.891 7.534,-5.891c-3.601,-1.626 -4.837,-5.232 -2.758,-8.048c2.079,-2.816 6.691,-3.782 10.292,-2.156c-2.079,-2.816 -0.844,-6.422 2.758,-8.048c3.601,-1.625 8.212,-0.659 10.291,2.157Z" style="fill:#76b1ff;fill-opacity:0.5;"/></g><defs><linearGradient id="_Linear1" x1="0" y1="0" x2="1" y2="0" gradientUnits="userSpaceOnUse" gradientTransform="matrix(6.12323e-15,-100,100,6.12323e-15,53.8129,100)"><stop offset="0" style="stop-color:#843acb;stop-opacity:1"/><stop offset="1" style="stop-color:#481595;stop-opacity:1"/></linearGradient></defs></svg>