<?xml version="1.0" encoding="UTF-8" standalone="no"?><!DOCTYPE svg PUBLIC "-//W3C//DTD SVG 1.1//EN" "http://www.w3.org/Graphics/SVG/1.1/DTD/svg11.dtd"><svg width="100%" height="100%" viewBox="0 0 100 100" version="1.1" xmlns="http://www.w3.org/2000/svg" xmlns:xlink="http://www.w3.org/1999/xlink" xml:space="preserve" xmlns:serif="http://www.serif.com/" style="fill-rule:evenodd;clip-rule:evenodd;stroke-linejoin:round;stroke-miterlimit:2;"><rect id="Speedometer" x="0" y="0" width="100" height="100" style="fill:none;"/><g><circle cx="50" cy="50" r="47.5" style="fill:#d10600;"/><circle cx="50" cy="50" r="45" style="fill:#252525;"/><clipPath id="_clip1"><circle cx="50" cy="50" r="45"/></clipPath><g clip-path="url(#_clip1)"><g><rect x="89.657" y="49.339" width="10" height="3" style="fill:#fff;"/><rect x="-0.343" y="49.339" width="10" height="3" style="fill:#fff;"/><path d="M51.157,10.839l0,-10l-3,0l0,10l3,0Z" style="fill:#fff;"/><path d="M92.209,24.54l-8.661,5l1.5,2.598l8.661,-5l-1.5,-2.598Z" style="fill:#fff;"/><path d="M14.266,69.54l-8.66,5l1.5,2.598l8.66,-5l-1.5,-2.598Z" style="fill:#fff;"/><path d="M30.956,15.448l-5,-8.66l-2.598,1.5l5,8.66l2.598,-1.5Z" style="fill:#fff;"/><path d="M73.358,6.788l-5,8.66l2.598,1.5l5,-8.66l-2.598,-1.5Z" style="fill:#fff;"/><path d="M28.358,84.73l-5,8.66l2.598,1.5l5,-8.66l-2.598,-1.5Z" style="fill:#fff;"/><path d="M93.709,74.54l-8.661,-5l-1.5,2.598l8.661,5l1.5,-2.598Z" style="fill:#fff;"/><path d="M15.766,29.54l-8.66,-5l-1.5,2.598l8.66,5l1.5,-2.598Z" style="fill:#fff;"/></g><g><path d="M95.345,37.821l-4.83,1.294l0.388,1.449l4.83,-1.295l-0.388,-1.448Z" style="fill:#fff;"/><path d="M8.411,61.114l-4.829,1.294l0.388,1.449l4.83,-1.294l-0.389,-1.449Z" style="fill:#fff;"/><path d="M39.382,9.593l-1.294,-4.83l-1.449,0.389l1.294,4.829l1.449,-0.388Z" style="fill:#fff;"/><path d="M82.715,16.721l-3.536,3.536l1.061,1.06l3.535,-3.535l-1.06,-1.061Z" style="fill:#fff;"/><path d="M19.075,80.361l-3.536,3.535l1.061,1.061l3.536,-3.536l-1.061,-1.06Z" style="fill:#fff;"/><path d="M20.136,20.257l-3.536,-3.536l-1.061,1.061l3.536,3.535l1.061,-1.06Z" style="fill:#fff;"/><path d="M61.227,4.763l-1.294,4.83l1.449,0.388l1.294,-4.829l-1.449,-0.389Z" style="fill:#fff;"/><path d="M95.733,62.408l-4.83,-1.294l-0.388,1.449l4.83,1.294l0.388,-1.449Z" style="fill:#fff;"/><path d="M8.8,39.115l-4.83,-1.294l-0.388,1.448l4.829,1.295l0.389,-1.449Z" style="fill:#fff;"/></g></g><text x="64.149px" y="71.877px" style="font-family:'ArialMT', 'Arial', sans-serif;font-size:12px;fill:#fff;">100</text><text x="28.699px" y="83.867px" style="font-family:'ArialMT', 'Arial', sans-serif;font-size:12px;fill:#fff;">0</text><circle cx="49.657" cy="50.839" r="5" style="fill:#fff;"/><path d="M48.157,49.339l-13.5,1.3l0,0.4l13.5,1.3l3,-0.013l37.5,-1.287l0,-0.4l-37.5,-1.287l-3,-0.013Z" style="fill:#d10600;"/></g></svg>