<?xml version="1.0" encoding="UTF-8" standalone="no"?><!DOCTYPE svg PUBLIC "-//W3C//DTD SVG 1.1//EN" "http://www.w3.org/Graphics/SVG/1.1/DTD/svg11.dtd"><svg width="100%" height="100%" viewBox="0 0 2560 1440" version="1.1" xmlns="http://www.w3.org/2000/svg" xmlns:xlink="http://www.w3.org/1999/xlink" xml:space="preserve" xmlns:serif="http://www.serif.com/" style="fill-rule:evenodd;clip-rule:evenodd;stroke-linejoin:round;stroke-miterlimit:2;"><rect id="Stars" x="0" y="0" width="2560" height="1440" style="fill:none;"/><circle cx="22.561" cy="16.015" r="4.415" style="fill:#be7bff;"/><circle cx="360.286" cy="154.262" r="4.415" style="fill:#be7bff;"/><circle cx="78.816" cy="450.704" r="4.415" style="fill:#be7bff;"/><circle cx="566.087" cy="438.683" r="4.415" style="fill:#be7bff;"/><circle cx="2239.55" cy="464.173" r="4.415" style="fill:#be7bff;"/><circle cx="2337.78" cy="766.897" r="4.415" style="fill:#be7bff;"/><circle cx="2549.36" cy="997.745" r="4.415" style="fill:#be7bff;"/><circle cx="1806.51" cy="203.047" r="4.415" style="fill:#be7bff;"/><circle cx="2544.28" cy="38.654" r="4.415" style="fill:#be7bff;"/><circle cx="1347.91" cy="496.249" r="4.415" style="fill:#be7bff;"/><circle cx="896.831" cy="182.999" r="4.415" style="fill:#be7bff;"/><circle cx="841.699" cy="313.311" r="4.415" style="fill:#be7bff;"/><circle cx="1197.55" cy="77.747" r="4.415" style="fill:#be7bff;"/><circle cx="1716.29" cy="90.277" r="4.415" style="fill:#be7bff;"/><circle cx="959.481" cy="616.537" r="4.415" style="fill:#be7bff;"/><circle cx="1435.62" cy="162.951" r="4.415" style="fill:#be7bff;"/><circle cx="1870.66" cy="22.615" r="4.415" style="fill:#be7bff;"/><circle cx="1347.41" cy="28.63" r="4.415" style="fill:#be7bff;"/><circle cx="1823.05" cy="615.034" r="4.415" style="fill:#be7bff;"/><circle cx="2217.49" cy="77.747" r="4.415" style="fill:#be7bff;"/><circle cx="112.43" cy="78.03" r="4.415" style="fill:#be7bff;"/><circle cx="552.901" cy="216.277" r="4.415" style="fill:#be7bff;"/><circle cx="477.721" cy="70.929" r="4.415" style="fill:#be7bff;"/><circle cx="633.093" cy="151.121" r="4.415" style="fill:#be7bff;"/><circle cx="169.984" cy="941.012" r="4.415" style="fill:#be7bff;"/><circle cx="828.561" cy="101.001" r="4.415" style="fill:#be7bff;"/><circle cx="278.684" cy="452.719" r="4.415" style="fill:#be7bff;"/><circle cx="715.955" cy="500.698" r="4.415" style="fill:#be7bff;"/><circle cx="762.066" cy="963.807" r="4.415" style="fill:#be7bff;"/><circle cx="2521.88" cy="520.173" r="4.415" style="fill:#be7bff;"/><circle cx="1981.58" cy="327.712" r="4.415" style="fill:#be7bff;"/><circle cx="1437.78" cy="558.264" r="4.415" style="fill:#be7bff;"/><circle cx="1127.04" cy="252.532" r="4.415" style="fill:#be7bff;"/><circle cx="1104.48" cy="630.938" r="4.415" style="fill:#be7bff;"/><circle cx="1610.19" cy="217.949" r="4.415" style="fill:#be7bff;"/><circle cx="2001.13" cy="107.685" r="4.415" style="fill:#be7bff;"/><circle cx="2225.67" cy="235.992" r="4.415" style="fill:#be7bff;"/><circle cx="1752.53" cy="352.271" r="4.415" style="fill:#be7bff;"/><circle cx="1680.36" cy="683.062" r="4.415" style="fill:#be7bff;"/><circle cx="2049.1" cy="631.058" r="4.415" style="fill:#be7bff;"/><circle cx="2427.65" cy="134.75" r="4.415" style="fill:#be7bff;"/><circle cx="40.955" cy="193.125" r="4.415" style="fill:#be7bff;"/><circle cx="421.282" cy="313.83" r="4.415" style="fill:#be7bff;"/><circle cx="1132.99" cy="945.342" r="4.415" style="fill:#be7bff;"/><circle cx="117.21" cy="657.814" r="4.415" style="fill:#be7bff;"/><circle cx="479.181" cy="685.889" r="4.415" style="fill:#be7bff;"/><circle cx="2380.23" cy="575.123" r="4.415" style="fill:#be7bff;"/><circle cx="1686.57" cy="513.476" r="4.415" style="fill:#be7bff;"/><circle cx="1768.77" cy="880.354" r="4.415" style="fill:#be7bff;"/><circle cx="1336.31" cy="853.359" r="4.415" style="fill:#be7bff;"/><circle cx="917.731" cy="440.301" r="4.415" style="fill:#be7bff;"/><circle cx="847.563" cy="803.671" r="4.415" style="fill:#be7bff;"/><circle cx="1331.22" cy="330.036" r="4.415" style="fill:#be7bff;"/><circle cx="1917.63" cy="796.153" r="4.415" style="fill:#be7bff;"/><circle cx="2371.21" cy="337.554" r="4.415" style="fill:#be7bff;"/><circle cx="142.911" cy="234.643" r="4.415" style="fill:#be7bff;"/><circle cx="693.646" cy="322.77" r="4.415" style="fill:#be7bff;"/><circle cx="239.166" cy="609.332" r="4.415" style="fill:#be7bff;"/><circle cx="275.252" cy="781.745" r="4.415" style="fill:#be7bff;"/><circle cx="706.437" cy="687.311" r="4.415" style="fill:#be7bff;"/><circle cx="2448.11" cy="664.757" r="4.415" style="fill:#be7bff;"/><circle cx="1912.83" cy="479.313" r="4.415" style="fill:#be7bff;"/><circle cx="2139.37" cy="551.485" r="4.415" style="fill:#be7bff;"/><circle cx="1468.26" cy="714.877" r="4.415" style="fill:#be7bff;"/><circle cx="1127.44" cy="439.217" r="4.415" style="fill:#be7bff;"/><circle cx="1042.24" cy="797.575" r="4.415" style="fill:#be7bff;"/><circle cx="1563.49" cy="376.567" r="4.415" style="fill:#be7bff;"/><circle cx="2019.58" cy="837.671" r="4.415" style="fill:#be7bff;"/><circle cx="2546.15" cy="351.488" r="4.415" style="fill:#be7bff;"/><circle cx="443.384" cy="534.481" r="2.5" style="fill:#be7bff;"/><circle cx="218.59" cy="339.454" r="2.5" style="fill:#be7bff;"/><circle cx="430.297" cy="222.374" r="2.5" style="fill:#be7bff;"/><circle cx="274.724" cy="58.782" r="2.5" style="fill:#be7bff;"/><circle cx="720.592" cy="55.575" r="2.5" style="fill:#be7bff;"/><circle cx="832.86" cy="228.789" r="2.5" style="fill:#be7bff;"/><circle cx="996.452" cy="122.936" r="2.5" style="fill:#be7bff;"/><circle cx="1283.54" cy="198.316" r="2.5" style="fill:#be7bff;"/><circle cx="1281.94" cy="442.1" r="2.5" style="fill:#be7bff;"/><circle cx="1201.74" cy="679.468" r="2.5" style="fill:#be7bff;"/><circle cx="1608.72" cy="887.967" r="2.5" style="fill:#be7bff;"/><circle cx="2216.17" cy="938.087" r="2.5" style="fill:#be7bff;"/><circle cx="2207.19" cy="707.135" r="2.5" style="fill:#be7bff;"/><circle cx="2516.41" cy="743.061" r="2.5" style="fill:#be7bff;"/><circle cx="2104.55" cy="414.594" r="2.5" style="fill:#be7bff;"/><circle cx="2462.52" cy="246.512" r="2.5" style="fill:#be7bff;"/><circle cx="1973.67" cy="191.34" r="2.5" style="fill:#be7bff;"/><circle cx="1556.67" cy="84.845" r="2.5" style="fill:#be7bff;"/><circle cx="1478.49" cy="279.311" r="2.5" style="fill:#be7bff;"/><circle cx="1528.61" cy="463.752" r="2.5" style="fill:#be7bff;"/><circle cx="1177.69" cy="496.631" r="2.5" style="fill:#be7bff;"/><circle cx="1322.03" cy="562.388" r="2.5" style="fill:#be7bff;"/><circle cx="1042.96" cy="333.039" r="2.5" style="fill:#be7bff;"/><circle cx="906.637" cy="522.292" r="2.5" style="fill:#be7bff;"/><circle cx="698.138" cy="599.276" r="2.5" style="fill:#be7bff;"/><circle cx="427.49" cy="831.833" r="2.5" style="fill:#be7bff;"/><circle cx="601.908" cy="885.962" r="2.5" style="fill:#be7bff;"/><circle cx="139.553" cy="544.746" r="2.5" style="fill:#be7bff;"/><circle cx="711.289" cy="806.492" r="2.5" style="fill:#be7bff;"/><circle cx="160.082" cy="747.984" r="2.5" style="fill:#be7bff;"/><circle cx="311.241" cy="271.791" r="6" style="fill:#be7bff;"/><circle cx="575.553" cy="561.765" r="6" style="fill:#be7bff;"/><circle cx="328.963" cy="696.086" r="6" style="fill:#be7bff;"/><circle cx="1092.79" cy="166.819" r="6" style="fill:#be7bff;"/><circle cx="1327.35" cy="738.187" r="6" style="fill:#be7bff;"/><circle cx="1860.63" cy="283.098" r="6" style="fill:#be7bff;"/><circle cx="2345.79" cy="637.947" r="6" style="fill:#be7bff;"/><circle cx="1740.34" cy="784.297" r="6" style="fill:#be7bff;"/><circle cx="2339.78" cy="82.618" r="6" style="fill:#be7bff;"/><circle cx="2442.02" cy="808.355" r="6" style="fill:#be7bff;"/><circle cx="1700.25" cy="263.05" r="6" style="fill:#be7bff;"/></svg>