<?xml version="1.0" encoding="UTF-8" standalone="no"?><!DOCTYPE svg PUBLIC "-//W3C//DTD SVG 1.1//EN" "http://www.w3.org/Graphics/SVG/1.1/DTD/svg11.dtd"><svg width="100%" height="100%" viewBox="0 0 100 100" version="1.1" xmlns="http://www.w3.org/2000/svg" xmlns:xlink="http://www.w3.org/1999/xlink" xml:space="preserve" xmlns:serif="http://www.serif.com/" style="fill-rule:evenodd;clip-rule:evenodd;stroke-linecap:round;stroke-linejoin:round;stroke-miterlimit:1.5;"><rect id="Token" x="0" y="0" width="100" height="100" style="fill:none;"/><g><circle cx="47.5" cy="52.5" r="36.731" style="fill:none;stroke:#000;stroke-width:2px;"/><circle cx="47.5" cy="52.5" r="36.731" style="fill:#cb001b;"/><clipPath id="_clip1"><circle cx="47.5" cy="52.5" r="36.731"/></clipPath><g clip-path="url(#_clip1)"><path d="M35.717,70.777l-6.153,-6.153l-14.418,14.418l6.153,6.153l14.418,-14.418Z" style="fill:#fff;"/><path d="M26.176,49.682l-4.351,-7.536l-17.659,10.196l4.351,7.536l17.659,-10.196Z" style="fill:#fff;"/><path d="M58.584,78.516l-7.536,-4.351l-10.195,17.659l7.536,4.351l10.195,-17.659Z" style="fill:#fff;"/></g><circle cx="52.5" cy="47.5" r="36.731" style="fill:none;stroke:#000;stroke-width:2px;"/><circle cx="52.5" cy="47.5" r="36.731" style="fill:#cb001b;"/><circle cx="52.5" cy="47.5" r="27.964" style="fill:#fff;"/><circle cx="52.5" cy="47.5" r="25.237" style="fill:#cb001b;"/><circle cx="52.5" cy="47.5" r="22.055" style="fill:#fff;"/><g><circle cx="20.5" cy="47.5" r="2.5" style="fill:#fff;"/><circle cx="84.5" cy="47.5" r="2.5" style="fill:#fff;"/><path d="M55,15.5c0,1.38 -1.12,2.5 -2.5,2.5c-1.38,0 -2.5,-1.12 -2.5,-2.5c0,-1.38 1.12,-2.5 2.5,-2.5c1.38,0 2.5,1.12 2.5,2.5Z" style="fill:#fff;"/><path d="M55,79.5c0,1.38 -1.12,2.5 -2.5,2.5c-1.38,0 -2.5,-1.12 -2.5,-2.5c0,-1.38 1.12,-2.5 2.5,-2.5c1.38,0 2.5,1.12 2.5,2.5Z" style="fill:#fff;"/><path d="M31.64,23.105c0.976,0.975 0.976,2.56 0,3.535c-0.975,0.976 -2.56,0.976 -3.535,0c-0.976,-0.975 -0.976,-2.56 0,-3.535c0.975,-0.976 2.56,-0.976 3.535,0Z" style="fill:#fff;"/><path d="M76.895,68.36c0.976,0.975 0.976,2.56 0,3.535c-0.975,0.976 -2.56,0.976 -3.535,0c-0.976,-0.975 -0.976,-2.56 0,-3.535c0.975,-0.976 2.56,-0.976 3.535,0Z" style="fill:#fff;"/><path d="M76.895,26.64c-0.975,0.976 -2.56,0.976 -3.535,0c-0.976,-0.975 -0.976,-2.56 0,-3.535c0.975,-0.976 2.56,-0.976 3.535,0c0.976,0.975 0.976,2.56 0,3.535Z" style="fill:#fff;"/><path d="M31.64,71.895c-0.975,0.976 -2.56,0.976 -3.535,0c-0.976,-0.975 -0.976,-2.56 0,-3.535c0.975,-0.976 2.56,-0.976 3.535,0c0.976,0.975 0.976,2.56 0,3.535Z" style="fill:#fff;"/></g><path d="M52.5,41.75c2.368,-4.5 7.105,-4.5 9.474,-2.25c2.368,2.25 2.368,6.75 0,11.25c-1.658,3.375 -5.921,6.75 -9.474,9c-3.553,-2.25 -7.816,-5.625 -9.474,-9c-2.368,-4.5 -2.368,-9 0,-11.25c2.369,-2.25 7.106,-2.25 9.474,2.25Z" style="fill:none;stroke:#000;stroke-width:2px;"/><path d="M52.5,41.75c2.368,-4.5 7.105,-4.5 9.474,-2.25c2.368,2.25 2.368,6.75 0,11.25c-1.658,3.375 -5.921,6.75 -9.474,9c-3.553,-2.25 -7.816,-5.625 -9.474,-9c-2.368,-4.5 -2.368,-9 0,-11.25c2.369,-2.25 7.106,-2.25 9.474,2.25Z" style="fill:#cb001b;"/></g></svg>