<?xml version="1.0" encoding="UTF-8" standalone="no"?><!DOCTYPE svg PUBLIC "-//W3C//DTD SVG 1.1//EN" "http://www.w3.org/Graphics/SVG/1.1/DTD/svg11.dtd"><svg width="100%" height="100%" viewBox="0 0 100 100" version="1.1" xmlns="http://www.w3.org/2000/svg" xmlns:xlink="http://www.w3.org/1999/xlink" xml:space="preserve" xmlns:serif="http://www.serif.com/" style="fill-rule:evenodd;clip-rule:evenodd;stroke-linecap:round;stroke-linejoin:round;stroke-miterlimit:1.5;"><rect id="Tools" x="0" y="0" width="100" height="99.776" style="fill:none;"/><g><g id="Wrench"><path d="M78.089,32.162l-7.58,-7.581l-49.661,49.661l7.58,7.58l49.661,-49.66Z" style="fill:none;stroke:#000;stroke-width:1px;"/><path d="M78.089,32.162l-7.58,-7.581l-49.661,49.661l7.58,7.58l49.661,-49.66Z" style="fill:url(#_Linear1);"/><path d="M19.111,74.242c5.236,0 9.487,4.251 9.487,9.487c0,5.236 -4.251,9.486 -9.487,9.486c-5.235,0 -9.486,-4.25 -9.486,-9.486c0,-5.236 4.251,-9.487 9.486,-9.487Zm-3.642,4.474c0.459,-1.472 1.936,-2.576 3.642,-2.576c1.706,0 3.184,1.104 3.643,2.576c1.542,-0.019 3.048,1.045 3.575,2.668c0.527,1.622 -0.066,3.368 -1.324,4.26c0.494,1.461 -0.053,3.222 -1.433,4.225c-1.38,1.002 -3.224,0.978 -4.461,0.056c-1.236,0.922 -3.08,0.946 -4.461,-0.056c-1.38,-1.003 -1.926,-2.764 -1.432,-4.225c-1.258,-0.892 -1.852,-2.638 -1.324,-4.26c0.527,-1.623 2.033,-2.687 3.575,-2.668Z" style="fill:none;stroke:#000;stroke-width:1px;"/><path d="M19.111,74.242c5.236,0 9.487,4.251 9.487,9.487c0,5.236 -4.251,9.486 -9.487,9.486c-5.235,0 -9.486,-4.25 -9.486,-9.486c0,-5.236 4.251,-9.487 9.486,-9.487Zm-3.642,4.474c0.459,-1.472 1.936,-2.576 3.642,-2.576c1.706,0 3.184,1.104 3.643,2.576c1.542,-0.019 3.048,1.045 3.575,2.668c0.527,1.622 -0.066,3.368 -1.324,4.26c0.494,1.461 -0.053,3.222 -1.433,4.225c-1.38,1.002 -3.224,0.978 -4.461,0.056c-1.236,0.922 -3.08,0.946 -4.461,-0.056c-1.38,-1.003 -1.926,-2.764 -1.432,-4.225c-1.258,-0.892 -1.852,-2.638 -1.324,-4.26c0.527,-1.623 2.033,-2.687 3.575,-2.668Z" style="fill:url(#_Radial2);"/><path d="M94.259,18.449c1.253,5.005 -0.075,10.527 -3.986,14.438c-5.924,5.924 -15.543,5.924 -21.466,0c-5.924,-5.923 -5.924,-15.542 0,-21.465c4.01,-4.011 9.714,-5.306 14.818,-3.886l-6.659,6.659c-1.486,1.486 -1.486,3.9 0,5.386l5.387,5.387c1.486,1.486 3.9,1.486 5.387,0l6.519,-6.519Z" style="fill:none;stroke:#000;stroke-width:1px;"/><path d="M94.259,18.449c1.253,5.005 -0.075,10.527 -3.986,14.438c-5.924,5.924 -15.543,5.924 -21.466,0c-5.924,-5.923 -5.924,-15.542 0,-21.465c4.01,-4.011 9.714,-5.306 14.818,-3.886l-6.659,6.659c-1.486,1.486 -1.486,3.9 0,5.386l5.387,5.387c1.486,1.486 3.9,1.486 5.387,0l6.519,-6.519Z" style="fill:url(#_Radial3);"/></g><g id="Hammer"><path d="M35.154,28.644l-6.511,6.511l52.71,52.71l6.511,-6.511l-52.71,-52.71Z" style="fill:none;stroke:#000;stroke-width:1px;"/><path d="M35.154,28.644l-6.511,6.511l52.71,52.71l6.511,-6.511l-52.71,-52.71Z" style="fill:url(#_Linear4);"/><g><path d="M9.25,32.689l-3.965,3.965l8.832,8.833l3.965,-3.965l-8.832,-8.833Z" style="fill:none;stroke:#000;stroke-width:1px;"/><path d="M9.25,32.689l-3.965,3.965l8.832,8.833l3.965,-3.965l-8.832,-8.833Z" style="fill:url(#_Linear5);"/><path d="M18.082,41.522c0.333,-4.027 2.389,-6.432 6.709,-6.708l-8.833,-8.833c-0.553,3.999 -2.838,6.184 -6.708,6.708l8.832,8.833Z" style="fill:none;stroke:#000;stroke-width:1px;"/><path d="M18.082,41.522c0.333,-4.027 2.389,-6.432 6.709,-6.708l-8.833,-8.833c-0.553,3.999 -2.838,6.184 -6.708,6.708l8.832,8.833Z" style="fill:url(#_Linear6);"/><path d="M26.057,15.882l4.236,4.236c4.856,-8.209 12.61,-13.202 18.525,-13.439c-7.484,-0.894 -16.49,3.385 -22.761,9.203Z" style="fill:none;stroke:#000;stroke-width:1px;"/><path d="M26.057,15.882l4.236,4.236c4.856,-8.209 12.61,-13.202 18.525,-13.439c-7.484,-0.894 -16.49,3.385 -22.761,9.203Z" style="fill:url(#_Linear7);"/><path d="M25.98,15.959l-10.022,10.022l10.93,10.93l10.022,-10.022l-10.93,-10.93Z" style="fill:none;stroke:#000;stroke-width:1px;"/><path d="M25.98,15.959l-10.022,10.022l10.93,10.93l10.022,-10.022l-10.93,-10.93Z" style="fill:url(#_Linear8);"/></g></g></g><defs><linearGradient id="_Linear1" x1="0" y1="0" x2="1" y2="0" gradientUnits="userSpaceOnUse" gradientTransform="matrix(7.58008,7.58008,-7.58008,7.58008,45.6784,49.4119)"><stop offset="0" style="stop-color:#808080;stop-opacity:1"/><stop offset="1" style="stop-color:#4d4d4d;stop-opacity:1"/></linearGradient><radialGradient id="_Radial2" cx="0" cy="0" r="1" gradientUnits="userSpaceOnUse" gradientTransform="matrix(-2.22195,18.9732,-18.9732,-2.22195,20.848,74.2423)"><stop offset="0" style="stop-color:#808080;stop-opacity:1"/><stop offset="1" style="stop-color:#4d4d4d;stop-opacity:1"/></radialGradient><radialGradient id="_Radial3" cx="0" cy="0" r="1" gradientUnits="userSpaceOnUse" gradientTransform="matrix(30.3512,-5.56073,5.56073,30.3512,64.3641,24.5815)"><stop offset="0" style="stop-color:#808080;stop-opacity:1"/><stop offset="1" style="stop-color:#4d4d4d;stop-opacity:1"/></radialGradient><linearGradient id="_Linear4" x1="0" y1="0" x2="1" y2="0" gradientUnits="userSpaceOnUse" gradientTransform="matrix(6.51098,-6.51098,6.51098,6.51098,54.9984,61.5102)"><stop offset="0" style="stop-color:#aa9364;stop-opacity:1"/><stop offset="1" style="stop-color:#6b5b3a;stop-opacity:1"/></linearGradient><linearGradient id="_Linear5" x1="0" y1="0" x2="1" y2="0" gradientUnits="userSpaceOnUse" gradientTransform="matrix(11.6231,6.13376,-6.13376,11.6231,17.0203,26.0239)"><stop offset="0" style="stop-color:#808080;stop-opacity:1"/><stop offset="1" style="stop-color:#4d4d4d;stop-opacity:1"/></linearGradient><linearGradient id="_Linear6" x1="0" y1="0" x2="1" y2="0" gradientUnits="userSpaceOnUse" gradientTransform="matrix(11.6231,6.13376,-6.13376,11.6231,17.0203,26.0239)"><stop offset="0" style="stop-color:#808080;stop-opacity:1"/><stop offset="1" style="stop-color:#4d4d4d;stop-opacity:1"/></linearGradient><linearGradient id="_Linear7" x1="0" y1="0" x2="1" y2="0" gradientUnits="userSpaceOnUse" gradientTransform="matrix(11.6231,6.13376,-6.13376,11.6231,17.0203,26.0239)"><stop offset="0" style="stop-color:#808080;stop-opacity:1"/><stop offset="1" style="stop-color:#4d4d4d;stop-opacity:1"/></linearGradient><linearGradient id="_Linear8" x1="0" y1="0" x2="1" y2="0" gradientUnits="userSpaceOnUse" gradientTransform="matrix(11.6231,6.13376,-6.13376,11.6231,17.0203,26.0239)"><stop offset="0" style="stop-color:#808080;stop-opacity:1"/><stop offset="1" style="stop-color:#4d4d4d;stop-opacity:1"/></linearGradient></defs></svg>