<?xml version="1.0" encoding="UTF-8" standalone="no"?><!DOCTYPE svg PUBLIC "-//W3C//DTD SVG 1.1//EN" "http://www.w3.org/Graphics/SVG/1.1/DTD/svg11.dtd"><svg width="100%" height="100%" viewBox="0 0 432 404" version="1.1" xmlns="http://www.w3.org/2000/svg" xmlns:xlink="http://www.w3.org/1999/xlink" xml:space="preserve" xmlns:serif="http://www.serif.com/" style="fill-rule:evenodd;clip-rule:evenodd;stroke-linecap:round;stroke-linejoin:round;stroke-miterlimit:1.5;"><rect id="Tree1" x="0.601" y="0" width="430.798" height="404" style="fill:none;"/><clipPath id="_clip1"><rect x="0.601" y="0" width="430.798" height="404"/></clipPath><g clip-path="url(#_clip1)"><path id="Foliage-Behind" serif:id="Foliage Behind" d="M104.979,276.426c-6.262,51.947 -14.789,59.715 -26.221,10.833c-0.04,-0.165 -0.179,-0.288 -0.348,-0.307c-0.169,-0.019 -0.331,0.07 -0.406,0.223c-7.946,16.344 -15.706,13.658 -23.159,-20.664c-0.062,-0.282 -0.272,-0.509 -0.548,-0.593c-0.277,-0.083 -0.577,-0.012 -0.786,0.189c-12.815,12.556 -16.468,2.371 -16.508,-16.781c-0.002,-0.935 -0.655,-1.742 -1.569,-1.94c-7.904,-2.024 -13.329,-16.441 -18.098,-34.138l289.652,-150.823l54.473,74.098l18.915,115.465l-28.964,15.96c-9.287,1.994 -17.978,5.853 -19.795,31.254c-0.074,1.03 -0.94,1.823 -1.973,1.807c-2.204,-0.19 -4.301,-1.199 -6.313,-2.88c-1.355,-1.108 -3.295,-1.138 -4.683,-0.071c-1.912,1.484 -3.731,2.443 -5.454,2.817c-0.971,0.155 -1.962,-0.105 -2.733,-0.716c-5.005,-3.836 -2.849,-12.272 3.119,-23.147l-208.601,-0.586Z" style="fill:url(#_Radial2);"/><path id="Foliage-Center" serif:id="Foliage Center" d="M327.572,70.493c18.476,0.511 33.174,5.34 43.147,15.568c12.303,16.137 26.19,26.335 40.923,33.361c8.042,8.149 15.13,20.431 21.351,36.475c0.198,11.12 -1.404,22.241 -6.673,33.361c0.291,19.469 -4.848,38.52 -12.454,57.381c1.157,13.271 4.941,33.255 11.565,60.494c6.713,27.042 2.731,22.762 -7.562,0c-1.99,-21.267 -12.857,-30.699 -25.799,-37.364c-9.109,-1.203 -16.18,-4.737 -21.038,-10.799l8.218,-31.533l-9.608,-16.525l-1.921,-39.044c-5.428,-15.117 -10.21,-27.263 -14.422,-33.259l-17.182,3.215c-5.276,-7.7 -9.495,-15.702 -11.985,-24.197c0.339,-7.64 -1.577,-15.366 -6.413,-23.205c-11.066,-13.592 -7.018,-21.269 9.853,-23.929" style="fill:url(#_Linear3);"/><path id="Tree-Fill" serif:id="Tree Fill" d="M404.774,198.995c-2.968,4.098 -9.77,17.403 -16.284,30.825c-7.729,15.924 -18.719,41.624 -37.93,41.132c-19.211,-0.493 -28.571,4.68 -39.408,8.867c-10.837,4.187 -6.157,9.359 -24.63,11.822c-18.472,2.463 -27.894,5.58 -32.767,17.103c-28.126,66.498 10.891,84.239 10.891,84.239c-7.405,-1.095 -15.391,-2.982 -24.311,-6.144c-7.955,-1.794 -15.909,-1.943 -23.864,0.671c-7.393,2.525 -6.115,7.975 -2.066,14.36c-2.997,0.684 -6.128,-1.322 -9.401,-6.147c-5.267,-5.972 -14.548,-6.288 -25.878,-3.719c-9.301,1.758 -18.401,2.512 -27.29,2.204c6.241,-2.686 11.659,-6.105 15.478,-10.944c7.665,-9.369 13.497,-21.122 18.472,-33.989c5.765,-12.366 6.83,-27.774 3.448,-46.058c-2.307,-6.41 -6.728,-10.283 -15.763,-8.62c-12.94,4.444 -25.752,2.379 -38.423,-6.897c-5.972,-2.423 -12.229,-4.769 -19.143,-6.935c-4.115,-1.289 -8.463,-2.515 -13.122,-3.656c-9.204,-1.995 -18.159,-1.006 -27.093,0.247c6.003,-4.429 17.199,-6.462 37.191,-4.434c5.91,0.106 5.099,-1.803 0.247,-4.926l-17.241,-13.792c-7.793,-4.505 -18.745,-7.677 -39.654,-10.345c-8.296,-1.575 -15.914,-8.229 -23.645,-14.039l7.389,-2.956c13.929,9.581 27.919,16.355 42.117,13.547c2.875,-0.569 3.756,-2.356 2.956,-6.404c-0.558,-16.921 1.347,-33.701 7.112,-49.797l7.419,-0.202c-0.141,6.008 0.319,10.209 0.986,13.793c-4.515,8.717 -6.255,17.839 -8.431,28.906c-2.184,11.109 -0.216,20.204 9.169,24.048l26.601,18.473c3.663,4.058 9.341,5.017 16.502,3.694c7.545,-2.423 12.435,-5.769 13.792,-10.344c-3.042,-1.122 -7.26,-3.317 -16.502,-10.099c5.354,1.877 9.607,2.515 12.808,1.971c5.362,-0.846 8.726,0.304 10.591,2.955c0.454,6 2.892,9.711 10.344,7.636c12.299,-2.18 22.123,-5.922 29.31,-11.33c-11.753,-23.519 -28.113,-35.22 -46.058,-42.856c-12.945,-9.257 -14.418,-11.909 -17.98,-15.763l9.36,-7.389c3.434,7.022 9.876,14.137 21.92,21.428c7.95,1.625 14.467,4.551 19.458,8.867c6.121,10.308 10.631,19.005 13.793,26.354c2.017,7.33 6.038,8.648 11.822,4.679c5.194,-4.519 9.793,-8.933 19.704,-14.285c2.907,-11.154 6.539,-19.508 11.33,-23.398c-5.512,-11.319 -11.448,-22.214 -10.099,-40.393c-4.614,-5.509 -10.607,-10.593 -18.718,-15.025c-4.626,-3.336 -4.503,-12.542 -7.143,-18.226l4.926,-7.389c4.415,4.446 7.904,10.994 9.359,22.167c8.605,7.584 14.71,11.279 18.473,11.33c-1.455,12.68 -1.855,25.548 8.866,40.393c3.481,-3.101 7.512,-4.137 12.069,-3.202c4.921,-1.083 9.907,-2.061 6.65,-16.502c-3.803,-6.699 -4.533,-11.554 -2.955,-15.024c2.372,-10.218 -1.799,-17.709 -9.113,-23.891c-15.169,-3.31 -26.487,-15.659 -35.468,-33.497l4.188,-1.724c15.039,13.492 29.508,29.031 49.259,25.615c3.655,-0.858 2.874,-15.023 -3.694,-46.55l5.418,-3.695c3.817,15.504 6.986,23.703 11.084,17.98c8.446,-11.794 17.03,-24.16 21.92,-21.182c-12.161,25.036 -24.017,49.884 -18.294,60.557c3.1,5.78 10.315,4.64 23.959,-1.199c4.993,5.029 10.476,1.483 16.01,-2.955c4.481,2.143 11.285,-0.177 21.149,-4.493c-0.972,4.847 -1.17,11.559 0.279,15.33c6.16,11.519 13.384,19.545 21.428,24.876c7.439,0.885 10.775,2.026 9.605,3.448c-10.318,-2.311 -14.347,7.033 -15.516,21.675c-1.076,9.768 2.72,17.642 11.329,23.644c6.013,-8.918 13.064,-17.175 21.703,-24.421c0.751,-1.036 1.256,-1.484 1.449,-1.194c-0.488,0.395 -0.971,0.793 -1.449,1.194Zm-105.191,-43.731c-8.78,0.914 -10.168,1.716 -10.246,5.911l-0.394,22.069c-0.226,7.009 4.481,11.552 11.822,14.777c0.442,17.73 -5.122,20.241 -11.034,21.872c-11.619,-2.978 -20.742,-3.369 -22.266,7.684c-2.994,21.713 3.599,33.839 22.463,33.694c18.136,1.44 31.137,0.425 39.605,-2.759c4.068,-2.557 9.513,-3.932 16.945,-3.546c11.802,-1.391 18.891,-10.638 25.615,-20.492c3.398,-6 1.515,-11.76 -4.335,-17.34c-6.546,-5.5 -5.448,-12.699 -4.335,-19.901c2.568,-7.923 1.399,-15.379 -2.758,-22.462c-3.538,-8.968 -7.982,-15.898 -13.202,-21.083c-3.99,-4.14 -9.592,-5.66 -16.945,-4.335c-9.897,2.799 -20.197,4.793 -30.935,5.911Z" style="fill:#1d1210;"/><g id="Tree-Lines" serif:id="Tree Lines"><path d="M73.025,243.338c0,0 16.157,-0.985 52.806,31.329" style="fill:none;stroke:#2d1f1c;stroke-width:1px;"/><path d="M105.733,275.849c0,0 20.886,6.109 34.285,12.414c13.399,6.305 22.857,8.67 43.94,1.576" style="fill:none;stroke:#2d1f1c;stroke-width:1px;"/><path d="M171.544,289.445c0,0 -18.324,4.926 -28.767,-6.896c-10.443,-11.823 39.407,-3.744 44.728,-1.774" style="fill:none;stroke:#2d1f1c;stroke-width:1px;"/><path d="M153.811,284.322c0,0 49.654,3.153 12.61,-2.758" style="fill:none;stroke:#2d1f1c;stroke-width:1px;"/><path d="M162.284,262.451c0,0 -2.562,-5.714 -11.035,-5.714" style="fill:none;stroke:#2d1f1c;stroke-width:1px;"/><path d="M268.685,146.592c0,0 10.049,12.216 10.246,23.25c0.197,11.035 1.773,15.961 5.911,21.478" style="fill:none;stroke:#2d1f1c;stroke-width:1px;"/><path d="M291.935,199.398c0,0 -19.31,1.971 -10.049,9.852c9.261,7.882 13.399,5.32 14.187,-2.364" style="fill:none;stroke:#2d1f1c;stroke-width:1px;"/><path d="M291.935,208.462c0,0 2.365,-4.532 -3.35,-3.941" style="fill:none;stroke:#2d1f1c;stroke-width:1px;"/><path d="M277.354,187.576c0,0 2.428,13.014 -13.004,22.659c-4.729,2.956 -6.109,8.67 -6.109,21.084c0,12.413 -1.182,19.901 10.838,30.147" style="fill:none;stroke:#2d1f1c;stroke-width:1px;"/><path d="M306.319,265.998c0,0 -56.353,19.703 -56.353,-0.198c0,-19.9 -3.35,-36.255 -3.35,-36.255c0,0 -28.849,58.416 -27.782,106.401c0.197,8.867 2.167,28.571 3.546,34.482" style="fill:none;stroke:#2d1f1c;stroke-width:1px;"/><path d="M238.341,376.536c0,0 -25.616,-27.388 -1.971,-84.332" style="fill:none;stroke:#2d1f1c;stroke-width:1px;"/><path d="M248.784,381.659c0,0 -18.818,-23.476 -7.291,-65.022c9.458,-34.088 12.878,-30.493 70.934,-43.743c23.777,-5.427 34.088,-12.414 37.832,-14.581" style="fill:none;stroke:#2d1f1c;stroke-width:1px;"/><path d="M228.489,381.068c0,0 -12.217,2.956 -13.005,-10.64c-0.788,-13.596 -4.955,-37.001 -0.788,-64.432c2.364,-15.566 -0.985,-30.738 -2.365,-35.073" style="fill:none;stroke:#2d1f1c;stroke-width:1px;"/><path d="M204.253,293.977c0.55,9.349 -0.222,18.368 -1.774,27.191c-1.619,-11.487 -4.685,-20.563 -9.457,-26.797c2.225,24.725 2.307,39.447 1.379,49.457c0,0 -18.916,41.181 -25.418,46.304" style="fill:none;stroke:#2d1f1c;stroke-width:1px;"/><path d="M198.736,344.222l-10.246,33.3c0,0 24.235,-3.153 17.339,5.123c-6.896,8.275 -9.655,3.349 -4.729,-1.183" style="fill:none;stroke:#2d1f1c;stroke-width:1px;"/></g><path id="Foliage-Top" serif:id="Foliage Top" d="M336.719,73.867l-19.306,19.306c-6.664,-15.956 -14.937,-17.438 -24.132,-10.619c-10.402,7.991 -18.905,12.564 -27.188,16.741c-7.211,1.805 -14.245,2.201 -21.034,0.632c-5.094,2.561 -9.299,8.087 -13.127,14.867c-1.716,1.802 -4.977,2.416 -12.178,0c-2.653,28.565 -1.825,57.323 1.74,87.934c2.05,17.613 -5.32,1.262 -19.295,-38.906c0,0 5.256,40.375 6.928,53.22c0.05,0.38 -0.174,0.742 -0.536,0.867c-0.362,0.126 -0.762,-0.02 -0.958,-0.35c-4.541,-7.623 -15.24,-25.585 -15.24,-25.585c0,0 3.69,14.057 5.57,21.217c0.07,0.27 -0.07,0.551 -0.328,0.656c-0.258,0.105 -0.555,0.003 -0.693,-0.239c-5.349,-9.381 -19.099,-33.496 -19.099,-33.496c-6.283,6.155 -14.031,1.022 -21.275,-8.317c-0.475,-0.603 -1.288,-0.827 -2.006,-0.553c-0.717,0.275 -1.173,0.984 -1.124,1.751c1.022,14.934 -2.924,27.065 -16.399,27.521c-7.079,5.908 -10.993,14.98 -13.513,25.447c-0.161,0.675 -0.709,1.188 -1.392,1.306c-0.684,0.118 -1.372,-0.182 -1.75,-0.763c-4.995,-8.297 -9.517,-20.696 -13.632,-36.627c-0.127,-0.49 -0.483,-0.888 -0.955,-1.069c-0.472,-0.181 -1.003,-0.123 -1.425,0.156c-6.971,4.629 -13.474,6.601 -18.655,1.082c-0.28,-0.291 -0.699,-0.4 -1.085,-0.284c-0.386,0.117 -0.674,0.44 -0.746,0.837c-1.363,7.601 -4.824,11.541 -10.11,12.32c-1.6,0.251 -2.775,1.634 -2.765,3.253c0.183,33.92 -3.16,42.294 -11.311,16.326c-2.339,9.654 -7.874,9.722 -17.034,-1.085c-0.115,-0.132 -0.297,-0.182 -0.463,-0.127c-0.166,0.054 -0.284,0.202 -0.299,0.376c-1.612,18.929 -5.605,20.17 -12.095,2.892c-16.762,-9.89 -25.267,-20.213 -26.254,-31.79c-3.141,-36.868 1.887,-56.693 8.995,-70.594c14.721,-28.784 36.878,-46.413 64.251,-56.219c30.839,-11.048 56.224,-27.388 82.167,-41.392c28.462,-15.364 43.018,-22.423 64.868,-22.55c27.022,-0.156 40.739,1.575 51.895,13.592c19.326,-2.335 28.468,7.105 34.288,20.387c10.677,26.177 19.397,37.429 26.7,37.879Z" style="fill:url(#_Linear4);"/><g id="Crescent-Leaves" serif:id="Crescent Leaves"><g id="Leaf"><path d="M128.973,184.281c-3.945,0 -7.148,9.796 -7.148,21.862c0,12.067 3.203,21.863 7.148,21.863c-2.959,-1.822 -5.361,-10.991 -5.361,-21.863c0,-10.871 2.402,-20.04 5.361,-21.862Z" style="fill:#1a5144;stroke:#1a5144;stroke-width:1px;"/><path d="M126.368,187.13c-2.89,1.685 -2.968,6.946 -0.173,11.741c2.795,4.796 7.411,7.322 10.301,5.637c-2.59,0.54 -6.474,-2.079 -8.992,-6.4c-2.518,-4.321 -2.882,-8.991 -1.136,-10.978Z" style="fill:#1a5144;stroke:#1a5144;stroke-width:1px;"/><path d="M124.853,197.049c-2.891,1.685 -2.969,6.946 -0.174,11.742c2.795,4.796 7.411,7.321 10.302,5.637c-2.59,0.539 -6.474,-2.079 -8.992,-6.4c-2.518,-4.321 -2.882,-8.991 -1.136,-10.979Z" style="fill:#1a5144;stroke:#1a5144;stroke-width:1px;"/><path d="M115.428,234.081c2.69,0.985 6.428,-2.457 8.341,-7.683c1.914,-5.225 1.284,-10.267 -1.406,-11.253c1.728,1.528 1.912,6.099 0.188,10.807c-1.724,4.708 -4.817,8.079 -7.123,8.129Z" style="fill:#1a5144;stroke:#1a5144;stroke-width:1px;"/><path d="M113.985,217.449c2.249,1.702 5.873,0.707 8.089,-2.22c2.215,-2.928 2.189,-6.686 -0.06,-8.388c1.352,1.718 1.038,4.979 -0.959,7.617c-1.996,2.637 -5.049,3.825 -7.07,2.991Z" style="fill:#1a5144;stroke:#1a5144;stroke-width:1px;"/><path d="M108.553,205.648c2.275,2.349 7.491,0.994 11.64,-3.024c4.149,-4.017 5.671,-9.187 3.396,-11.536c1.079,2.369 -0.688,6.852 -4.427,10.472c-3.738,3.62 -8.276,5.243 -10.609,4.088Z" style="fill:#1a5144;stroke:#1a5144;stroke-width:1px;"/></g><g id="Leaf1" serif:id="Leaf"><path d="M70.631,134.909c-3.906,-0.554 -8.451,8.696 -10.145,20.643c-1.693,11.947 0.103,22.096 4.009,22.65c-2.674,-2.219 -3.765,-11.635 -2.24,-22.399c1.526,-10.764 5.191,-19.506 8.376,-20.894Z" style="fill:#1a5144;stroke:#1a5144;stroke-width:1px;"/><path d="M67.653,137.364c-3.099,1.263 -3.914,6.461 -1.82,11.601c2.095,5.141 6.31,8.289 9.409,7.027c-2.64,0.171 -6.118,-2.967 -8.005,-7.598c-1.887,-4.632 -1.592,-9.307 0.416,-11.03Z" style="fill:#1a5144;stroke:#1a5144;stroke-width:1px;"/><path d="M64.76,146.973c-3.098,1.262 -3.914,6.46 -1.819,11.601c2.094,5.14 6.31,8.289 9.408,7.027c-2.64,0.17 -6.118,-2.967 -8.005,-7.599c-1.887,-4.631 -1.592,-9.306 0.416,-11.029Z" style="fill:#1a5144;stroke:#1a5144;stroke-width:1px;"/><path d="M50.231,182.315c2.525,1.353 6.709,-1.531 9.338,-6.436c2.628,-4.905 2.711,-9.986 0.186,-11.339c1.497,1.756 1.038,6.307 -1.33,10.726c-2.368,4.42 -5.903,7.323 -8.194,7.049Z" style="fill:#1a5144;stroke:#1a5144;stroke-width:1px;"/><path d="M51.137,165.645c1.988,2.001 5.716,1.525 8.32,-1.063c2.605,-2.587 3.106,-6.312 1.119,-8.313c1.097,1.892 0.328,5.076 -2.019,7.407c-2.347,2.331 -5.536,3.079 -7.42,1.969Z" style="fill:#1a5144;stroke:#1a5144;stroke-width:1px;"/><path d="M47.415,153.199c1.923,2.645 7.277,2.036 11.949,-1.36c4.672,-3.396 6.904,-8.3 4.981,-10.946c0.737,2.497 -1.643,6.688 -5.852,9.748c-4.21,3.059 -8.93,4.029 -11.078,2.558Z" style="fill:#1a5144;stroke:#1a5144;stroke-width:1px;"/></g><g id="Leaf2" serif:id="Leaf"><path d="M40.015,212.736c-2.48,1.034 -1.925,8.032 1.238,15.617c3.162,7.586 7.744,12.905 10.224,11.871c-2.338,-0.37 -6.251,-5.505 -9.101,-12.339c-2.85,-6.835 -3.743,-13.229 -2.361,-15.149Z" style="fill:#1a5144;stroke:#1a5144;stroke-width:1px;"/><path d="M39.125,215.21c-1.376,1.816 -0.045,5.144 2.969,7.426c3.014,2.283 6.578,2.66 7.953,0.844c-1.487,1.018 -4.615,0.39 -7.33,-1.667c-2.716,-2.056 -4.169,-4.896 -3.592,-6.603Z" style="fill:#1a5144;stroke:#1a5144;stroke-width:1px;"/><path d="M40.772,221.843c-1.375,1.816 -0.045,5.144 2.969,7.426c3.014,2.283 6.578,2.661 7.954,0.844c-1.487,1.018 -4.615,0.39 -7.331,-1.667c-2.716,-2.056 -4.168,-4.896 -3.592,-6.603Z" style="fill:#1a5144;stroke:#1a5144;stroke-width:1px;"/><path d="M44.554,247.593c1.949,-0.086 3.397,-3.23 3.23,-7.016c-0.166,-3.787 -1.884,-6.791 -3.834,-6.706c1.487,0.508 2.801,3.333 2.951,6.745c0.15,3.411 -0.91,6.341 -2.347,6.977Z" style="fill:#1a5144;stroke:#1a5144;stroke-width:1px;"/><path d="M39.287,237.515c1.86,0.481 3.878,-1.094 4.503,-3.515c0.626,-2.421 -0.376,-4.777 -2.236,-5.258c1.301,0.726 1.958,2.859 1.394,5.04c-0.564,2.181 -2.172,3.728 -3.661,3.733Z" style="fill:#1a5144;stroke:#1a5144;stroke-width:1px;"/><path d="M32.779,231.52c2.046,0.881 4.97,-1.338 6.525,-4.951c1.555,-3.614 1.157,-7.262 -0.889,-8.143c1.3,1.206 1.364,4.488 -0.038,7.744c-1.401,3.256 -3.829,5.465 -5.598,5.35Z" style="fill:#1a5144;stroke:#1a5144;stroke-width:1px;"/></g><g id="Leaf3" serif:id="Leaf"><path d="M209.957,153.511c4.928,-0.64 10.763,12.97 13.023,30.373c2.26,17.404 0.094,32.053 -4.833,32.693c3.354,-3.108 4.637,-16.722 2.601,-32.403c-2.036,-15.68 -6.754,-28.515 -10.791,-30.663Z" style="fill:#1a5144;stroke:#1a5144;stroke-width:1px;"/><path d="M213.744,157.198c3.926,1.961 5.009,9.537 2.416,16.907c-2.594,7.37 -7.886,11.762 -11.813,9.801c3.336,0.358 7.698,-4.049 10.034,-10.689c2.336,-6.641 1.916,-13.435 -0.637,-16.019Z" style="fill:#1a5144;stroke:#1a5144;stroke-width:1px;"/><path d="M217.495,171.259c3.926,1.961 5.009,9.536 2.415,16.907c-2.593,7.37 -7.886,11.762 -11.812,9.801c3.336,0.358 7.698,-4.049 10.034,-10.689c2.336,-6.641 1.916,-13.436 -0.637,-16.019Z" style="fill:#1a5144;stroke:#1a5144;stroke-width:1px;"/><path d="M236.204,223.14c-3.176,1.858 -8.49,-2.501 -11.859,-9.727c-3.369,-7.226 -3.526,-14.601 -0.35,-16.458c-1.874,2.484 -1.247,9.106 1.789,15.617c3.035,6.51 7.53,10.87 10.42,10.568Z" style="fill:#1a5144;stroke:#1a5144;stroke-width:1px;"/><path d="M234.891,198.918c-2.49,2.819 -7.204,1.973 -10.52,-1.89c-3.316,-3.862 -3.987,-9.287 -1.497,-12.107c-1.366,2.698 -0.363,7.35 2.625,10.83c2.988,3.48 7.024,4.698 9.392,3.167Z" style="fill:#1a5144;stroke:#1a5144;stroke-width:1px;"/><path d="M239.466,181.016c-2.402,3.758 -9.17,2.65 -15.106,-2.472c-5.935,-5.122 -8.804,-12.33 -6.403,-16.088c-0.905,3.592 2.143,9.771 7.491,14.386c5.348,4.615 11.321,6.219 14.018,4.174Z" style="fill:#1a5144;stroke:#1a5144;stroke-width:1px;"/></g><g id="Leaf4" serif:id="Leaf"><path d="M406.861,175.702c3.196,1.164 2.453,11.275 -1.66,22.565c-4.112,11.289 -10.046,19.51 -13.242,18.345c3.018,-0.831 8.089,-8.701 11.794,-18.873c3.706,-10.171 4.884,-19.459 3.108,-22.037Z" style="fill:#1a5144;stroke:#1a5144;stroke-width:1px;"/><path d="M408,179.137c1.768,2.429 0.038,7.374 -3.861,11.036c-3.9,3.662 -8.501,4.663 -10.269,2.233c1.915,1.27 5.955,-0.034 9.468,-3.333c3.513,-3.3 5.399,-7.561 4.662,-9.936Z" style="fill:#1a5144;stroke:#1a5144;stroke-width:1px;"/><path d="M405.847,188.865c1.768,2.429 0.038,7.374 -3.861,11.036c-3.899,3.662 -8.5,4.663 -10.268,2.233c1.914,1.27 5.954,-0.034 9.467,-3.333c3.513,-3.3 5.4,-7.561 4.662,-9.936Z" style="fill:#1a5144;stroke:#1a5144;stroke-width:1px;"/><path d="M400.864,226.293c-2.516,0.128 -4.371,-4.196 -4.141,-9.65c0.23,-5.453 2.459,-9.985 4.975,-10.113c-1.922,0.92 -3.628,5.142 -3.836,10.056c-0.207,4.913 1.15,8.98 3.002,9.707Z" style="fill:#1a5144;stroke:#1a5144;stroke-width:1px;"/><path d="M407.701,211.158c-2.402,0.929 -5,-1.072 -5.798,-4.464c-0.797,-3.393 0.505,-6.902 2.907,-7.83c-1.681,1.208 -2.537,4.352 -1.818,7.409c0.718,3.057 2.787,5.069 4.709,4.885Z" style="fill:#1a5144;stroke:#1a5144;stroke-width:1px;"/><path d="M416.125,201.72c-2.644,1.527 -6.409,-1.28 -8.402,-6.264c-1.993,-4.984 -1.464,-10.269 1.18,-11.796c-1.682,1.898 -1.778,6.614 0.018,11.105c1.796,4.49 4.92,7.348 7.204,6.955Z" style="fill:#1a5144;stroke:#1a5144;stroke-width:1px;"/></g><g id="Leaf5" serif:id="Leaf"><path d="M263.273,86.675c2.64,-0.829 7.16,6.068 10.088,15.391c2.928,9.324 3.161,17.566 0.521,18.395c1.538,-2.03 0.921,-9.619 -1.717,-18.019c-2.637,-8.401 -6.47,-14.981 -8.892,-15.767Z" style="fill:#1a5144;stroke:#1a5144;stroke-width:1px;"/><path d="M265.708,88.329c2.343,0.695 3.671,4.744 2.964,9.036c-0.706,4.293 -3.183,7.215 -5.526,6.521c1.864,-0.128 3.828,-2.967 4.465,-6.835c0.637,-3.868 -0.253,-7.553 -1.903,-8.722Z" style="fill:#1a5144;stroke:#1a5144;stroke-width:1px;"/><path d="M269.128,95.675c2.344,0.695 3.672,4.744 2.965,9.036c-0.707,4.293 -3.183,7.215 -5.526,6.521c1.864,-0.128 3.828,-2.967 4.465,-6.835c0.637,-3.868 -0.253,-7.553 -1.904,-8.722Z" style="fill:#1a5144;stroke:#1a5144;stroke-width:1px;"/><path d="M284.421,122.308c-1.562,1.327 -4.898,-0.548 -7.447,-4.183c-2.548,-3.635 -3.35,-7.664 -1.789,-8.99c-0.786,1.543 0.2,5.114 2.496,8.389c2.297,3.275 5.184,5.23 6.74,4.784Z" style="fill:#1a5144;stroke:#1a5144;stroke-width:1px;"/><path d="M281.351,109.154c-1.092,1.787 -3.759,1.78 -5.952,-0.016c-2.193,-1.796 -3.087,-4.706 -1.995,-6.493c-0.488,1.612 0.514,4.065 2.489,5.684c1.976,1.618 4.308,1.894 5.458,0.825Z" style="fill:#1a5144;stroke:#1a5144;stroke-width:1px;"/><path d="M282.122,98.894c-0.952,2.293 -4.771,2.343 -8.522,0.11c-3.752,-2.233 -6.024,-5.907 -5.072,-8.2c-0.148,2.057 2.123,5.15 5.503,7.161c3.38,2.012 6.811,2.312 8.091,0.929Z" style="fill:#1a5144;stroke:#1a5144;stroke-width:1px;"/></g></g></g><defs><radialGradient id="_Radial2" cx="0" cy="0" r="1" gradientUnits="userSpaceOnUse" gradientTransform="matrix(-268.667,130.775,-130.775,-268.667,301.773,98.9608)"><stop offset="0" style="stop-color:#030301;stop-opacity:1"/><stop offset="1" style="stop-color:#122922;stop-opacity:1"/></radialGradient><linearGradient id="_Linear3" x1="0" y1="0" x2="1" y2="0" gradientUnits="userSpaceOnUse" gradientTransform="matrix(-104.88,-240.361,240.361,-104.88,424.948,318.349)"><stop offset="0" style="stop-color:#193430;stop-opacity:1"/><stop offset="1" style="stop-color:#07100b;stop-opacity:1"/></linearGradient><linearGradient id="_Linear4" x1="0" y1="0" x2="1" y2="0" gradientUnits="userSpaceOnUse" gradientTransform="matrix(292.932,-132.568,93.5341,206.68,16.3295,208.677)"><stop offset="0" style="stop-color:#193a33;stop-opacity:1"/><stop offset="1" style="stop-color:#07100b;stop-opacity:1"/></linearGradient></defs></svg>